<svg width="1122" height="74" viewBox="0 0 1122 74" fill="none" xmlns="http://www.w3.org/2000/svg">
<path d="M0.813073 46.4418V46.4418C50.2035 10.2144 114.254 0.601015 172.104 20.7329L198.107 29.7822C240.164 44.4181 285.477 46.9901 328.92 37.2071L401.18 20.9346L447.6 12.706C494.331 4.42199 542.486 13.0486 583.436 37.0402V37.0402C605.935 50.2217 630.797 58.8704 656.619 62.4981L666.936 63.9476C698.777 68.4208 731.179 66.77 762.4 59.0839L844.358 38.9072L935.1 19.2627C960.437 13.7776 986.964 16.6203 1010.59 27.2892V27.2892C1046.18 43.3626 1087.52 41.2497 1121.21 21.5035V21.5035" stroke="#E41E0A" stroke-dasharray="3 5"/>
</svg>
