<svg width="316" height="248" viewBox="0 0 316 248" fill="none" xmlns="http://www.w3.org/2000/svg">
<g opacity="0.4">
<path d="M23.3782 130.726C14.8928 182.397 58.6242 226.83 148.806 212.963C238.99 199.099 308.139 122.131 279.107 51.6512C272.186 34.8477 262.078 25.1301 250.503 20.2018C213.528 4.44501 161.546 37.6475 150.293 45.6779C135.52 56.2218 119.512 73.0706 119.512 73.0706C119.512 73.0706 33.4846 69.1978 23.3782 130.726Z" fill="#E1251B"/>
<path d="M23.3782 130.726C14.8928 182.397 58.6242 226.83 148.806 212.963C238.99 199.099 308.139 122.131 279.107 51.6512C272.186 34.8477 262.078 25.1301 250.503 20.2018C213.528 4.44501 161.546 37.6475 150.293 45.6779C135.52 56.2218 119.512 73.0706 119.512 73.0706C119.512 73.0706 33.4846 69.1978 23.3782 130.726Z" fill="url(#paint0_linear)"/>
</g>
<defs>
<linearGradient id="paint0_linear" x1="131.025" y1="43.8404" x2="184.583" y2="203.91" gradientUnits="userSpaceOnUse">
<stop offset="0.046875" stop-color="white" stop-opacity="0"/>
<stop offset="0.729167" stop-color="white"/>
</linearGradient>
</defs>
</svg>
