<svg width="63" height="63" viewBox="0 0 63 63" fill="none" xmlns="http://www.w3.org/2000/svg">
<g clip-path="url(#clip0)">
<path d="M31.9897 0.193176C14.8953 0.193176 0.989746 14.0987 0.989746 31.1932C0.989746 48.2876 14.8953 62.1932 31.9897 62.1932C49.0842 62.1932 62.9897 48.2852 62.9897 31.1932C62.9897 14.1012 49.0842 0.193176 31.9897 0.193176ZM31.9897 57.3907C17.5463 57.3907 5.7922 45.6391 5.7922 31.1932C5.7922 16.7473 17.5463 4.99563 31.9897 4.99563C46.4332 4.99563 58.1873 16.7473 58.1873 31.1932C58.1873 45.6391 46.4356 57.3907 31.9897 57.3907Z" fill="white"/>
<path d="M43.996 28.5758H34.3911V18.9709C34.3911 17.6454 33.3177 16.5696 31.9898 16.5696C30.6619 16.5696 29.5885 17.6454 29.5885 18.9709V28.5758H19.9836C18.6557 28.5758 17.5823 29.6516 17.5823 30.9771C17.5823 32.3026 18.6557 33.3784 19.9836 33.3784H29.5885V42.9833C29.5885 44.3088 30.6619 45.3846 31.9898 45.3846C33.3177 45.3846 34.3911 44.3088 34.3911 42.9833V33.3784H43.996C45.3239 33.3784 46.3973 32.3026 46.3973 30.9771C46.3973 29.6516 45.3239 28.5758 43.996 28.5758Z" fill="white"/>
</g>
<defs>
<clipPath id="clip0">
<rect width="62" height="62" fill="white" transform="translate(0.989746 0.193176)"/>
</clipPath>
</defs>
</svg>
