<svg width="20" height="19" viewBox="0 0 20 19" fill="none" xmlns="http://www.w3.org/2000/svg">
<g clip-path="url(#clip0)">
<path d="M18.5088 2.23261H14.8539V1.48438C14.8539 1.07446 14.5216 0.742188 14.1117 0.742188C13.7018 0.742188 13.3695 1.07446 13.3695 1.48438V2.23261H6.1324V1.48438C6.1324 1.07446 5.80013 0.742188 5.39022 0.742188C4.98031 0.742188 4.64803 1.07446 4.64803 1.48438V2.23261H0.993164C0.583254 2.23261 0.250977 2.56493 0.250977 2.9748V17.5156C0.250977 17.9255 0.583254 18.2578 0.993164 18.2578H18.5088C18.9187 18.2578 19.251 17.9255 19.251 17.5156V2.9748C19.251 2.56493 18.9187 2.23261 18.5088 2.23261ZM17.7666 16.7734H1.73535V3.71699H4.64803V4.46526C4.64803 4.87517 4.98031 5.20745 5.39022 5.20745C5.80013 5.20745 6.1324 4.87517 6.1324 4.46526V3.71699H13.3695V4.46526C13.3695 4.87517 13.7018 5.20745 14.1117 5.20745C14.5216 5.20745 14.8539 4.87517 14.8539 4.46526V3.71699H17.7666V16.7734Z" fill="#8D8D8D"/>
<path d="M9.75098 9.72074C10.3043 9.72074 10.7529 9.27215 10.7529 8.71878C10.7529 8.16542 10.3043 7.71683 9.75098 7.71683C9.19761 7.71683 8.74902 8.16542 8.74902 8.71878C8.74902 9.27215 9.19761 9.72074 9.75098 9.72074Z" fill="#8D8D8D"/>
<path d="M9.75098 14.0815C10.3043 14.0815 10.7529 13.6329 10.7529 13.0795C10.7529 12.5261 10.3043 12.0775 9.75098 12.0775C9.19761 12.0775 8.74902 12.5261 8.74902 13.0795C8.74902 13.6329 9.19761 14.0815 9.75098 14.0815Z" fill="#8D8D8D"/>
<path d="M5.39026 9.72074C5.94363 9.72074 6.39222 9.27215 6.39222 8.71878C6.39222 8.16542 5.94363 7.71683 5.39026 7.71683C4.8369 7.71683 4.38831 8.16542 4.38831 8.71878C4.38831 9.27215 4.8369 9.72074 5.39026 9.72074Z" fill="#8D8D8D"/>
<path d="M14.1117 9.72074C14.6651 9.72074 15.1136 9.27215 15.1136 8.71878C15.1136 8.16542 14.6651 7.71683 14.1117 7.71683C13.5583 7.71683 13.1097 8.16542 13.1097 8.71878C13.1097 9.27215 13.5583 9.72074 14.1117 9.72074Z" fill="#8D8D8D"/>
<path d="M5.39026 14.0815C5.94363 14.0815 6.39222 13.6329 6.39222 13.0795C6.39222 12.5261 5.94363 12.0775 5.39026 12.0775C4.8369 12.0775 4.38831 12.5261 4.38831 13.0795C4.38831 13.6329 4.8369 14.0815 5.39026 14.0815Z" fill="#8D8D8D"/>
<path d="M14.1117 14.0815C14.6651 14.0815 15.1136 13.6329 15.1136 13.0795C15.1136 12.5261 14.6651 12.0775 14.1117 12.0775C13.5583 12.0775 13.1097 12.5261 13.1097 13.0795C13.1097 13.6329 13.5583 14.0815 14.1117 14.0815Z" fill="#8D8D8D"/>
</g>
<defs>
<clipPath id="clip0">
<rect width="19" height="19" fill="white" transform="translate(0.250977)"/>
</clipPath>
</defs>
</svg>
