<svg width="28" height="28" viewBox="0 0 28 28" fill="none" xmlns="http://www.w3.org/2000/svg">
<g clip-path="url(#clip0)">
<path d="M1.44682 28.0001C1.07799 28.0001 0.709166 27.8598 0.42894 27.5774C-0.133621 27.0149 -0.133621 26.1028 0.42894 25.5403L25.5473 0.421921C26.1099 -0.14064 27.0219 -0.14064 27.5845 0.421921C28.147 0.984482 28.147 1.89653 27.5845 2.45945L2.46647 27.5774C2.18413 27.858 1.8153 28.0001 1.44682 28.0001Z" fill="#989A9C"/>
<path d="M26.5669 28.0001C26.1981 28.0001 25.8296 27.8598 25.5491 27.5774L0.42894 2.45945C-0.133621 1.89653 -0.133621 0.984482 0.42894 0.421921C0.991501 -0.14064 1.90355 -0.14064 2.46647 0.421921L27.5845 25.5403C28.147 26.1028 28.147 27.0149 27.5845 27.5774C27.3021 27.858 26.9337 28.0001 26.5669 28.0001Z" fill="#989A9C"/>
</g>
<defs>
<clipPath id="clip0">
<rect width="28" height="28" fill="white"/>
</clipPath>
</defs>
</svg>
