<svg width="49" height="55" viewBox="0 0 49 55" fill="none" xmlns="http://www.w3.org/2000/svg">
<path d="M18.7056 41.1104C18.1633 32.4313 11.7149 36.832 10.9822 25.0357C10.5132 17.5943 17.1521 11.5281 24.7583 11.5281C32.3645 11.5281 39.0473 17.5943 38.5344 25.0357C37.8456 35.09 33.0679 33.0578 31.3093 38.3294" stroke="#E41E0A" stroke-width="3" stroke-miterlimit="22.9256" stroke-linecap="round" stroke-linejoin="round"/>
<path d="M19.251 50.3922L31.6788 47" stroke="#E41E0A" stroke-width="3" stroke-miterlimit="22.9256" stroke-linecap="round" stroke-linejoin="round"/>
<path d="M19.251 46.3922L31.6788 43" stroke="#E41E0A" stroke-width="3" stroke-miterlimit="22.9256" stroke-linecap="round" stroke-linejoin="round"/>
<path d="M18.9109 41.7063L31.3387 38.3141" stroke="#E41E0A" stroke-width="3" stroke-miterlimit="22.9256" stroke-linecap="round" stroke-linejoin="round"/>
<path d="M29.251 50C29.251 51.654 27.5452 53 25.4351 53C24.1084 53 22.9333 52.4639 22.251 51.654" stroke="#E41E0A" stroke-width="3" stroke-miterlimit="22.9256" stroke-linecap="round" stroke-linejoin="round"/>
<path d="M25.1833 2.1001V6.45494" stroke="#E41E0A" stroke-width="3" stroke-miterlimit="22.9256" stroke-linecap="round" stroke-linejoin="round"/>
<path d="M40.3222 8.12061L37.3765 11.1919" stroke="#E41E0A" stroke-width="3" stroke-miterlimit="22.9256" stroke-linecap="round" stroke-linejoin="round"/>
<path d="M47.1958 25.0509H43.0337" stroke="#E41E0A" stroke-width="3" stroke-miterlimit="22.9256" stroke-linecap="round" stroke-linejoin="round"/>
<path d="M39.7214 41.2937L36.761 38.2072" stroke="#E41E0A" stroke-width="3" stroke-miterlimit="22.9256" stroke-linecap="round" stroke-linejoin="round"/>
<path d="M9.78052 8.12061L12.7409 11.1919" stroke="#E41E0A" stroke-width="3" stroke-miterlimit="22.9256" stroke-linecap="round" stroke-linejoin="round"/>
<path d="M2.30615 24.1647H6.48295" stroke="#E41E0A" stroke-width="3" stroke-miterlimit="22.9256" stroke-linecap="round" stroke-linejoin="round"/>
<path d="M9.17944 41.2937L12.1398 38.2072" stroke="#E41E0A" stroke-width="3" stroke-miterlimit="22.9256" stroke-linecap="round" stroke-linejoin="round"/>
<path d="M19.7754 27.3124L24.3039 33.8217L31.1187 21.2615" stroke="#E41E0A" stroke-width="3" stroke-miterlimit="22.9256" stroke-linecap="round" stroke-linejoin="round"/>
</svg>
