<svg width="11" height="22" viewBox="0 0 11 22" fill="none" xmlns="http://www.w3.org/2000/svg">
<path d="M2.88394 4.16004C2.88394 4.70135 2.88394 7.11745 2.88394 7.11745H0.763184V10.7338H2.88394V21.4802H7.24044V10.7341H10.1638C10.1638 10.7341 10.4376 9.00008 10.5704 7.10412C10.1899 7.10412 7.25691 7.10412 7.25691 7.10412C7.25691 7.10412 7.25691 5.00025 7.25691 4.63148C7.25691 4.26192 7.7319 3.76481 8.20137 3.76481C8.66996 3.76481 9.65894 3.76481 10.575 3.76481C10.575 3.27244 10.575 1.5712 10.575 1.2918e-08C9.35211 1.2918e-08 7.96092 1.2918e-08 7.34769 1.2918e-08C2.77626 -0.000249692 2.88394 3.61968 2.88394 4.16004Z" fill="#8D8D8D"/>
</svg>
