<svg width="15" height="14" viewBox="0 0 15 14" fill="none" xmlns="http://www.w3.org/2000/svg">
<path d="M6.73377 2.62279L7.45487 3.3733L8.17597 2.62279L8.566 2.21685C9.12892 1.63096 9.86225 1.31877 10.6386 1.31877C11.4162 1.31877 12.1462 1.62868 12.7083 2.2137C13.2712 2.7996 13.5836 3.5806 13.5813 4.4258V4.42855C13.5813 5.27347 13.2667 6.05555 12.7029 6.6427C12.7027 6.64293 12.7024 6.64317 12.7022 6.64341L7.44812 12.0915L2.20148 6.63082C1.63542 6.04167 1.31935 5.26166 1.31936 4.41911L1.31935 4.41636C1.31703 3.57309 1.63118 2.79153 2.19543 2.20426C2.75522 1.62164 3.48849 1.30933 4.26203 1.30933C5.03725 1.30933 5.77393 1.6238 6.33769 2.21055L6.73377 2.62279Z" stroke="white" stroke-width="2"/>
</svg>
