<svg width="15" height="17" viewBox="0 0 15 17" fill="none" xmlns="http://www.w3.org/2000/svg">
<path d="M9.08619 6.69309C8.90982 6.50117 8.71427 6.33105 8.50316 6.18584C7.944 5.79852 7.29395 5.5927 6.62998 5.5927C5.70841 5.59084 4.82428 5.98694 4.17377 6.69309L1.01792 10.1096C0.368512 10.8135 0.0035119 11.7671 0.00293041 12.7615C0.00170928 14.8367 1.5558 16.52 3.47413 16.5213C4.39427 16.5248 5.27758 16.1306 5.92786 15.4263L8.53293 12.6083C8.58027 12.5575 8.60669 12.4882 8.60631 12.4162C8.60553 12.2679 8.4938 12.1485 8.35677 12.1493H8.25754C7.71326 12.1514 7.17385 12.0383 6.6697 11.8165C6.5768 11.7752 6.47004 11.7985 6.39928 11.8756L4.5261 13.9046C3.94443 14.5338 3.00138 14.5338 2.41971 13.9046C1.83805 13.2753 1.83805 12.2552 2.41971 11.626L5.58798 8.2014C6.16918 7.57347 7.1107 7.57347 7.6919 8.2014C8.08359 8.60017 8.69456 8.60017 9.08622 8.2014C9.25473 8.01895 9.3569 7.77696 9.37403 7.51969C9.39214 7.21225 9.28733 6.91117 9.08619 6.69309Z" fill="#8D8D8D"/>
<path d="M13.8723 1.51645C12.5158 0.0490411 10.3164 0.0490411 8.95992 1.51645L6.35733 4.32908C6.28587 4.40677 6.26525 4.52361 6.30523 4.62431C6.34474 4.7253 6.43708 4.79012 6.53843 4.78802H6.63022C7.17385 4.78695 7.7124 4.90089 8.21559 5.1235C8.30848 5.16486 8.41524 5.14153 8.48601 5.06447L10.3542 3.04623C10.9359 2.41702 11.8789 2.41702 12.4606 3.04623C13.0423 3.67544 13.0423 4.69558 12.4606 5.32479L10.1334 7.83952L10.1135 7.86367L9.29977 8.73861C8.71858 9.36653 7.77706 9.36653 7.19586 8.73861C6.80417 8.33984 6.19321 8.33984 5.80154 8.73861C5.63195 8.92244 5.5297 9.16653 5.51374 9.42566C5.49559 9.73309 5.60041 10.0342 5.80154 10.2523C6.08871 10.5642 6.4247 10.8187 6.79394 11.0037C6.84604 11.0306 6.89814 11.0521 6.95024 11.0762C7.00235 11.1004 7.05692 11.1191 7.10902 11.1406C7.16112 11.1621 7.21569 11.1809 7.26779 11.197L7.41418 11.2399C7.51341 11.2667 7.61267 11.2882 7.71438 11.307C7.83689 11.3267 7.96029 11.3392 8.08406 11.3446H8.2726L8.42146 11.3258C8.47604 11.3231 8.53311 11.3097 8.59763 11.3097H8.68197L8.85316 11.2829L8.93256 11.2668L9.07645 11.2346H9.10375C9.71318 11.069 10.2697 10.7276 10.7139 10.2469L13.8722 6.83041C15.2289 5.363 15.2289 2.98386 13.8723 1.51645Z" fill="#8D8D8D"/>
</svg>
