<svg width="22" height="20" viewBox="0 0 22 20" fill="none" xmlns="http://www.w3.org/2000/svg">
<path d="M0.888737 9.52012L5.80708 11.3956L7.71078 17.6505C7.83259 18.0511 8.31207 18.1991 8.63033 17.9333L11.3719 15.6499C11.6593 15.4107 12.0686 15.3988 12.3689 15.6215L17.3137 19.2893C17.6542 19.5421 18.1365 19.3515 18.2219 18.9312L21.8442 1.12969C21.9374 0.670566 21.4959 0.287554 21.068 0.456635L0.882973 8.41208C0.384849 8.60835 0.38919 9.32887 0.888737 9.52012ZM7.40398 10.3972L17.0163 4.34876C17.189 4.24038 17.3667 4.47903 17.2184 4.61961L9.28548 12.1534C9.00664 12.4186 8.82677 12.7734 8.77583 13.1586L8.5056 15.2046C8.46981 15.4778 8.09421 15.5049 8.02043 15.2405L6.98113 11.5096C6.8621 11.0841 7.03556 10.6295 7.40398 10.3972Z" fill="#8D8D8D"/>
</svg>
