<svg width="31" height="18" viewBox="0 0 31 18" fill="none" xmlns="http://www.w3.org/2000/svg">
<path d="M29.9028 15.6361C29.8242 15.5016 29.3375 14.4211 26.9954 12.2003C24.5436 9.87487 24.873 10.2525 27.8261 6.23154C29.6247 3.78272 30.3438 2.28725 30.1187 1.64794C29.9047 1.03854 28.5818 1.1993 28.5818 1.1993L24.1832 1.22547C24.1832 1.22547 23.8575 1.18061 23.6141 1.32829C23.3781 1.47409 23.2262 1.81057 23.2262 1.81057C23.2262 1.81057 22.5291 3.70607 21.5996 5.31744C19.64 8.71775 18.8551 8.89721 18.5349 8.68597C17.7902 8.19434 17.9768 6.70822 17.9768 5.65392C17.9768 2.35829 18.4654 0.984329 17.0235 0.629156C16.5442 0.511388 16.1929 0.432876 14.9688 0.419791C13.3989 0.402967 12.0687 0.425399 11.3167 0.801134C10.8154 1.05162 10.4293 1.61056 10.6653 1.64233C10.9562 1.68159 11.6149 1.82366 11.9644 2.30968C12.4163 2.93591 12.3999 4.34539 12.3999 4.34539C12.3999 4.34539 12.6597 8.22425 11.7942 8.70654C11.1996 9.03741 10.3854 8.36258 8.638 5.27631C7.74328 3.69673 7.06629 1.9489 7.06629 1.9489C7.06629 1.9489 6.93638 1.62364 6.70401 1.44979C6.42223 1.23856 6.02702 1.17126 6.02702 1.17126L1.84431 1.19743C1.84431 1.19743 1.21672 1.21613 0.986178 1.49466C0.781251 1.74328 0.969711 2.25547 0.969711 2.25547C0.969711 2.25547 4.24488 10.0824 7.95187 14.0285C11.3533 17.6457 15.214 17.4083 15.214 17.4083H16.9632C16.9632 17.4083 17.4919 17.3485 17.7609 17.0512C18.0098 16.7783 18.0006 16.2661 18.0006 16.2661C18.0006 16.2661 17.9658 13.8678 19.0563 13.5145C20.1304 13.1668 21.51 15.8324 22.9719 16.8587C24.0771 17.6345 24.9169 17.4644 24.9169 17.4644L28.827 17.4083C28.827 17.4083 30.8726 17.2793 29.9028 15.6361Z" fill="#8D8D8D"/>
</svg>
