<svg width="20" height="20" viewBox="0 0 20 20" fill="none" xmlns="http://www.w3.org/2000/svg">
<path d="M10.0862 0.0797119C4.89199 0.0797119 0.629395 4.43465 0.629395 9.74137C0.629395 11.4928 1.09158 13.1978 1.96806 14.6894L0.629395 19.403L5.24307 18.0354C6.70309 18.9308 8.37191 19.403 10.0862 19.403C15.2804 19.403 19.543 15.0481 19.543 9.74137C19.543 4.43465 15.2804 0.0797119 10.0862 0.0797119ZM15.9987 13.8237L15.5587 14.2732C14.9362 14.9092 13.5046 14.8588 12.5847 14.6773C9.52601 14.0738 5.95995 10.5423 5.27222 7.48414C4.93167 5.9692 5.11969 4.6521 5.61147 4.14953L6.05143 3.70003C6.29429 3.45206 6.6888 3.45236 6.93137 3.70003L8.69153 5.49847C8.80899 5.61848 8.87335 5.77755 8.87335 5.94782C8.87335 6.1181 8.80899 6.27732 8.69153 6.39688L8.25171 6.84682C7.76686 7.34335 7.76686 8.14991 8.25171 8.64526L11.1583 11.5758C11.6446 12.0726 12.4316 12.0732 12.9186 11.5758L13.3586 11.1264C13.5857 10.8931 14.01 10.8923 14.239 11.1264L15.9987 12.9243C16.2377 13.1674 16.2467 13.5701 15.9987 13.8237Z" fill="#8D8D8D"/>
</svg>
