<svg width="158" height="129" viewBox="0 0 158 129" fill="none" xmlns="http://www.w3.org/2000/svg">
<g clip-path="url(#clip0)">
<path d="M2.28104 100.008C24.4093 104.724 47.543 102.171 68.7694 94.8265C90.2072 87.4095 109.571 75.0625 126.794 60.525C136.616 52.2248 145.799 43.2319 154.544 33.8352C156.217 32.0308 153.371 29.471 151.697 31.2754C136.553 47.5488 120.047 62.7175 101.228 74.7114C82.6688 86.5262 61.8209 95.0543 39.8372 97.7325C27.5788 99.221 15.1583 98.87 3.0629 96.2884C0.652485 95.7557 -0.131981 99.4874 2.28104 100.008Z" fill="#E41E0A"/>
<path d="M140.065 38.1818C145.711 37.1866 151.081 35.2633 156.051 32.3855C155.128 31.555 154.215 30.7395 153.292 29.909C151.722 32.7743 150.362 35.7616 149.537 38.9392C148.728 42.1071 148.521 45.3888 148.581 48.6485C148.615 51.0975 152.452 50.8779 152.408 48.4138C152.358 45.4808 152.563 42.5756 153.295 39.7161C154.024 36.869 155.286 34.2248 156.702 31.6521C157.658 29.9047 155.533 28.263 153.942 29.1756C149.597 31.6912 144.79 33.486 139.822 34.364C138.804 34.5398 137.958 35.2711 138.024 36.3889C138.086 37.3371 139.045 38.37 140.065 38.1818Z" fill="#E41E0A"/>
</g>
<defs>
<clipPath id="clip0">
<rect width="139" height="101" fill="white" transform="translate(21.2441 0.786377) rotate(11.8718)"/>
</clipPath>
</defs>
</svg>
