<svg width="789" height="678" viewBox="0 0 789 678" fill="none" xmlns="http://www.w3.org/2000/svg">
<path d="M770.642 199.634C771.229 201.182 771.804 202.737 772.366 204.3L771.895 204.469C772.119 205.093 772.341 205.717 772.561 206.343C772.616 206.501 772.671 206.658 772.726 206.815C772.857 207.191 772.987 207.566 773.116 207.942C773.257 208.351 773.397 208.76 773.536 209.169L774.009 209.008C774.543 210.581 775.061 212.156 775.564 213.733L775.088 213.885C775.59 215.459 776.078 217.036 776.55 218.614L777.029 218.47C777.503 220.052 777.962 221.636 778.406 223.222L777.925 223.357C778.372 224.954 778.804 226.553 779.221 228.153L779.705 228.027C780.123 229.63 780.526 231.235 780.914 232.842L780.428 232.959C780.815 234.563 781.188 236.168 781.545 237.775L782.033 237.667C782.393 239.284 782.738 240.903 783.068 242.524L782.578 242.623C782.908 244.245 783.223 245.867 783.523 247.491L784.015 247.4C784.316 249.027 784.602 250.655 784.873 252.284L784.379 252.366C784.65 253.995 784.906 255.625 785.147 257.256L785.642 257.183C785.884 258.822 786.112 260.462 786.325 262.104L785.829 262.168C786.041 263.806 786.238 265.446 786.421 267.086L786.918 267.03C787.101 268.673 787.269 270.317 787.423 271.962L786.925 272.008C787.079 273.654 787.217 275.301 787.342 276.948L787.84 276.911C787.965 278.561 788.074 280.212 788.169 281.863L787.67 281.892C787.765 283.54 787.845 285.189 787.911 286.838L788.411 286.818C788.477 288.472 788.528 290.125 788.565 291.778L788.065 291.79C788.102 293.441 788.124 295.092 788.132 296.744L788.632 296.741C788.64 298.396 788.633 300.05 788.612 301.704L788.112 301.698C788.091 303.349 788.056 305 788.006 306.651L788.506 306.666C788.456 308.319 788.393 309.971 788.315 311.623L787.815 311.6C787.737 313.249 787.645 314.898 787.539 316.547L788.038 316.579C787.931 318.23 787.811 319.881 787.676 321.532L787.178 321.491C787.044 323.135 786.896 324.779 786.734 326.422L787.232 326.471C787.07 328.116 786.894 329.761 786.704 331.405L786.207 331.347C786.017 332.988 785.814 334.628 785.597 336.268L786.093 336.333C785.876 337.972 785.645 339.61 785.401 341.246L784.906 341.172C784.662 342.804 784.405 344.434 784.135 346.063L784.628 346.145C784.357 347.777 784.072 349.407 783.774 351.037L783.283 350.947C782.985 352.572 782.675 354.195 782.351 355.818L782.841 355.915C782.518 357.534 782.182 359.151 781.832 360.767L781.344 360.662C780.995 362.275 780.632 363.886 780.257 365.496L780.744 365.61C780.368 367.222 779.979 368.833 779.578 370.442L779.092 370.321C778.693 371.92 778.281 373.517 777.856 375.112L778.339 375.241C777.914 376.837 777.476 378.431 777.025 380.023L776.544 379.887C776.094 381.477 775.631 383.065 775.156 384.65L775.635 384.794C775.16 386.377 774.673 387.959 774.173 389.538L773.697 389.387C773.199 390.958 772.69 392.526 772.168 394.093L772.642 394.251C772.12 395.82 771.585 397.386 771.038 398.95L770.566 398.785C770.019 400.346 769.461 401.905 768.89 403.461L769.36 403.633C768.792 405.181 768.213 406.726 767.621 408.268L767.154 408.089C766.564 409.629 765.961 411.167 765.347 412.701L765.811 412.887C765.196 414.424 764.569 415.958 763.93 417.489L763.469 417.297C762.834 418.819 762.187 420.338 761.528 421.855L761.987 422.054C761.33 423.567 760.661 425.078 759.981 426.585L759.526 426.379C758.846 427.885 758.156 429.387 757.454 430.886L757.907 431.098C757.204 432.598 756.49 434.095 755.765 435.589L755.316 435.37C754.597 436.85 753.867 438.327 753.126 439.801L753.573 440.026C752.831 441.501 752.078 442.974 751.314 444.443L750.871 444.212C750.108 445.679 749.334 447.143 748.549 448.603L748.989 448.839C748.207 450.294 747.415 451.745 746.611 453.192L746.174 452.949C745.375 454.39 744.564 455.826 743.744 457.259L744.177 457.508C743.355 458.943 742.523 460.374 741.68 461.801L741.249 461.547C740.408 462.972 739.556 464.393 738.693 465.81L739.12 466.07C738.264 467.477 737.397 468.88 736.52 470.279L736.096 470.014C735.221 471.411 734.334 472.804 733.438 474.194L733.858 474.465C732.961 475.856 732.053 477.243 731.136 478.626L730.719 478.35C729.807 479.725 728.884 481.096 727.952 482.462L728.365 482.744C727.436 484.106 726.497 485.464 725.548 486.818L725.139 486.531C724.191 487.882 723.233 489.23 722.266 490.573L722.672 490.866C721.704 492.211 720.725 493.551 719.737 494.887L719.335 494.59C718.357 495.913 717.369 497.232 716.372 498.547L716.77 498.849C715.773 500.164 714.766 501.474 713.749 502.78L713.355 502.473C712.34 503.777 711.315 505.076 710.281 506.371L710.672 506.683C709.639 507.977 708.597 509.265 707.546 510.549L707.159 510.233C706.117 511.506 705.066 512.774 704.005 514.038L704.388 514.36C703.327 515.625 702.256 516.886 701.176 518.141L700.797 517.815C699.718 519.07 698.631 520.319 697.534 521.564L697.91 521.894C696.818 523.133 695.718 524.367 694.608 525.596L694.237 525.261C693.134 526.484 692.022 527.702 690.901 528.914L691.269 529.254C690.147 530.468 689.016 531.677 687.877 532.881L687.514 532.538C686.376 533.74 685.229 534.938 684.074 536.13L684.433 536.478C683.287 537.661 682.132 538.84 680.969 540.013L680.614 539.661C679.453 540.831 678.285 541.996 677.108 543.156L677.459 543.512C676.28 544.673 675.094 545.829 673.899 546.98L673.552 546.62C672.36 547.767 671.16 548.91 669.952 550.047L670.294 550.411C669.095 551.54 667.888 552.663 666.673 553.78L666.334 553.412C665.12 554.529 663.899 555.64 662.669 556.745L663.003 557.117C661.772 558.224 660.533 559.325 659.287 560.421L658.957 560.045C657.716 561.136 656.467 562.221 655.21 563.3L655.536 563.68C654.286 564.753 653.029 565.821 651.764 566.884L651.442 566.501C650.179 567.562 648.907 568.617 647.629 569.667L647.946 570.054C646.666 571.104 645.378 572.15 644.083 573.189L643.77 572.799C642.483 573.832 641.189 574.859 639.887 575.88L640.196 576.273C638.899 577.291 637.595 578.302 636.284 579.308L635.979 578.911C634.669 579.916 633.352 580.914 632.028 581.907L632.328 582.307C631.002 583.301 629.669 584.289 628.329 585.271L628.033 584.867C626.704 585.842 625.367 586.81 624.024 587.772L624.315 588.178C622.974 589.138 621.627 590.092 620.272 591.04L619.986 590.631C618.633 591.577 617.273 592.518 615.906 593.453L616.188 593.866C614.82 594.801 613.445 595.731 612.063 596.654L611.786 596.238C610.416 597.153 609.04 598.062 607.658 598.965L607.931 599.383C606.55 600.285 605.162 601.18 603.768 602.069L603.499 601.648C602.107 602.536 600.708 603.418 599.302 604.293L599.566 604.718C598.159 605.594 596.745 606.464 595.325 607.328L595.065 606.901C593.659 607.756 592.246 608.605 590.827 609.448L591.082 609.878C589.664 610.72 588.24 611.556 586.809 612.385L586.558 611.952C585.129 612.781 583.694 613.603 582.252 614.418L582.498 614.853C581.055 615.67 579.606 616.48 578.15 617.283L577.908 616.845C576.468 617.641 575.021 618.429 573.568 619.212L573.805 619.652C572.353 620.434 570.895 621.209 569.431 621.978L569.198 621.535C567.736 622.303 566.267 623.064 564.793 623.819L565.021 624.264C563.545 625.02 562.063 625.769 560.575 626.511L560.352 626.064C558.879 626.798 557.401 627.526 555.916 628.248L556.135 628.698C554.652 629.418 553.163 630.133 551.669 630.84L551.455 630.388C549.962 631.095 548.463 631.795 546.959 632.489L547.169 632.943C545.663 633.637 544.152 634.324 542.635 635.005L542.43 634.548C540.928 635.222 539.42 635.889 537.907 636.55L538.107 637.008C536.596 637.667 535.08 638.32 533.558 638.966L533.363 638.506C531.842 639.151 530.317 639.789 528.786 640.42L528.977 640.883C527.444 641.515 525.907 642.14 524.364 642.758L524.178 642.294C522.648 642.907 521.113 643.513 519.573 644.112L519.754 644.578C518.218 645.175 516.678 645.766 515.132 646.35L514.955 645.882C513.411 646.465 511.861 647.041 510.307 647.61L510.479 648.079C508.923 648.649 507.362 649.212 505.796 649.767L505.628 649.296C504.846 649.574 504.063 649.849 503.278 650.123C502.493 650.397 501.708 650.669 500.923 650.939L501.086 651.412C499.514 651.951 497.942 652.483 496.37 653.005L496.212 652.531C494.641 653.053 493.07 653.566 491.498 654.071L491.651 654.547C490.078 655.052 488.504 655.549 486.93 656.037L486.782 655.56C485.204 656.049 483.625 656.53 482.046 657.003L482.19 657.482C480.597 657.958 479.005 658.426 477.412 658.885L477.273 658.404C475.682 658.863 474.091 659.313 472.5 659.754L472.633 660.236C471.04 660.677 469.447 661.11 467.854 661.534L467.726 661.051C466.13 661.476 464.535 661.892 462.939 662.3L463.063 662.784C461.452 663.196 459.842 663.598 458.231 663.992L458.112 663.507C456.504 663.9 454.895 664.285 453.287 664.66L453.4 665.147C451.79 665.524 450.18 665.891 448.571 666.25L448.462 665.762C446.851 666.121 445.241 666.471 443.631 666.813L443.735 667.302C442.108 667.647 440.482 667.983 438.857 668.31L438.758 667.82C437.135 668.147 435.511 668.465 433.888 668.774L433.982 669.265C432.358 669.575 430.734 669.875 429.11 670.167L429.022 669.675C427.398 669.967 425.775 670.25 424.152 670.524L424.235 671.017C422.596 671.294 420.958 671.562 419.32 671.822L419.242 671.328C417.606 671.587 415.971 671.837 414.336 672.078L414.409 672.572C412.773 672.814 411.138 673.046 409.504 673.269L409.436 672.774C407.801 672.998 406.167 673.212 404.534 673.418L404.597 673.914C402.947 674.122 401.299 674.321 399.652 674.511L399.595 674.014C397.95 674.204 396.306 674.384 394.663 674.556L394.715 675.053C393.07 675.225 391.427 675.388 389.785 675.542L389.738 675.044C388.094 675.198 386.452 675.343 384.81 675.479L384.852 675.977C383.196 676.115 381.541 676.243 379.888 676.362L379.852 675.863C378.2 675.982 376.55 676.092 374.902 676.193L374.933 676.692C373.283 676.793 371.634 676.885 369.987 676.968L369.962 676.469C368.312 676.552 366.663 676.626 365.016 676.691L365.036 677.191C363.376 677.256 361.718 677.312 360.061 677.36L360.047 676.86C358.393 676.907 356.74 676.945 355.089 676.974L355.098 677.474C353.446 677.503 351.795 677.523 350.147 677.534L350.144 677.034C348.49 677.045 346.838 677.046 345.188 677.039L345.185 677.539C343.525 677.531 341.866 677.515 340.21 677.489L340.218 676.989C338.564 676.963 336.912 676.928 335.262 676.884L335.249 677.384C333.598 677.34 331.949 677.286 330.302 677.224L330.321 676.724C328.666 676.661 327.013 676.589 325.363 676.508L325.339 677.007C323.681 676.926 322.026 676.835 320.373 676.735L320.404 676.236C318.753 676.136 317.105 676.026 315.46 675.908L315.425 676.407C313.778 676.288 312.134 676.16 310.493 676.023L310.534 675.525C308.881 675.387 307.231 675.24 305.583 675.083L305.536 675.581C303.885 675.424 302.237 675.258 300.591 675.082L300.645 674.585C299.001 674.41 297.361 674.225 295.725 674.031L295.666 674.528C294.025 674.334 292.388 674.13 290.754 673.917L290.819 673.422C289.173 673.207 287.53 672.983 285.891 672.75L285.821 673.245C284.179 673.012 282.542 672.769 280.908 672.517L280.984 672.023C279.352 671.771 277.724 671.51 276.1 671.24L276.018 671.733C274.384 671.461 272.755 671.18 271.13 670.89L271.218 670.398C269.585 670.106 267.956 669.805 266.331 669.494L266.237 669.985C264.611 669.674 262.988 669.354 261.369 669.025L261.469 668.535C259.852 668.205 258.24 667.867 256.632 667.519L256.526 668.008C254.904 667.657 253.287 667.297 251.673 666.927L251.785 666.44C250.17 666.069 248.559 665.69 246.953 665.301L246.835 665.787C245.227 665.397 243.623 664.999 242.024 664.59L242.148 664.106C240.549 663.698 238.955 663.28 237.366 662.853L237.236 663.336C235.631 662.905 234.031 662.465 232.436 662.015L232.572 661.533C230.979 661.084 229.391 660.625 227.808 660.157L227.666 660.636C226.081 660.167 224.501 659.689 222.926 659.201L223.074 658.723C221.493 658.234 219.918 657.735 218.348 657.227L218.194 657.702C216.615 657.191 215.041 656.67 213.473 656.139L213.633 655.666C212.067 655.136 210.506 654.597 208.951 654.048L208.785 654.52C207.227 653.97 205.676 653.412 204.13 652.843L204.302 652.374C202.745 651.802 201.194 651.22 199.648 650.628L199.47 651.095C197.921 650.503 196.379 649.901 194.842 649.289L195.027 648.825C193.493 648.214 191.965 647.594 190.443 646.964L190.251 647.426C188.722 646.793 187.198 646.151 185.681 645.499L185.878 645.04C184.355 644.385 182.839 643.722 181.329 643.048L181.125 643.505C179.613 642.83 178.107 642.147 176.608 641.453L176.818 640.999C175.321 640.307 173.83 639.605 172.346 638.894L172.13 639.345C170.633 638.627 169.143 637.9 167.66 637.163L167.882 636.715C166.399 635.978 164.924 635.232 163.456 634.477L163.227 634.921C161.756 634.165 160.293 633.399 158.837 632.623L159.072 632.182C157.613 631.405 156.161 630.618 154.717 629.822L154.475 630.26C153.022 629.459 151.576 628.648 150.138 627.828L150.386 627.394C148.95 626.575 147.522 625.747 146.101 624.909L145.847 625.339C144.424 624.5 143.009 623.652 141.602 622.794L141.862 622.367C140.447 621.504 139.039 620.631 137.64 619.749L137.373 620.172C135.972 619.289 134.578 618.395 133.193 617.493L133.466 617.074C132.082 616.173 130.707 615.262 129.341 614.342L129.061 614.757C127.687 613.832 126.322 612.897 124.965 611.953L125.25 611.543C123.891 610.597 122.541 609.643 121.199 608.678L120.907 609.084C119.564 608.119 118.229 607.143 116.902 606.159L117.2 605.757C115.875 604.773 114.559 603.78 113.251 602.777L112.947 603.174C111.631 602.164 110.324 601.146 109.026 600.117L109.336 599.725C108.041 598.699 106.754 597.663 105.477 596.617L105.16 597.004C103.881 595.957 102.611 594.9 101.351 593.835L101.674 593.453C100.411 592.385 99.1569 591.307 97.913 590.22L97.584 590.597C96.3367 589.507 95.0992 588.408 93.8714 587.299L94.2065 586.928C92.9808 585.821 91.7649 584.705 90.5589 583.58L90.2178 583.945C89.008 582.816 87.8082 581.678 86.6186 580.531L86.9657 580.171C85.7755 579.023 84.5955 577.866 83.4258 576.699L83.0727 577.053C81.901 575.885 80.7396 574.707 79.5887 573.52L79.9477 573.172C78.7985 571.987 77.6598 570.792 76.5316 569.589L76.1669 569.931C75.0344 568.723 73.9125 567.506 72.8014 566.279L73.172 565.944C72.0628 564.719 70.9644 563.486 69.8768 562.243L69.5006 562.573C68.4112 561.328 67.3327 560.074 66.2652 558.811L66.6471 558.489C65.5809 557.227 64.5258 555.957 63.4818 554.678L63.0944 554.994C62.0484 553.712 61.0136 552.421 59.9901 551.122L60.3829 550.812C59.3612 549.515 58.3509 548.208 57.352 546.893L56.9538 547.195C55.9535 545.878 54.9646 544.552 53.9874 543.217L54.3908 542.922C53.4159 541.59 52.4525 540.25 51.5009 538.9L51.0923 539.189C50.1389 537.837 49.1973 536.476 48.2675 535.107L48.6811 534.826C47.7531 533.46 46.8369 532.084 45.9327 530.7L45.5142 530.974C44.6108 529.591 43.7194 528.2 42.8401 526.8L43.2635 526.534C42.3857 525.136 41.52 523.73 40.6664 522.316L40.2383 522.574C39.3832 521.157 38.5403 519.732 37.7097 518.297L38.1424 518.047C37.3162 516.62 36.5021 515.185 35.7005 513.742L35.2634 513.985C34.4615 512.541 33.6719 511.089 32.8948 509.628L33.3362 509.393C32.5606 507.935 31.7974 506.469 31.0467 504.995L30.6012 505.222C29.8509 503.748 29.1132 502.266 28.3881 500.776L28.8377 500.557C28.1175 499.077 27.4098 497.589 26.7148 496.092L26.2613 496.303C25.5651 494.804 24.8815 493.297 24.2107 491.782L24.6679 491.579C23.9984 490.067 23.3417 488.547 22.6979 487.019L22.2371 487.213C21.5977 485.695 20.9711 484.169 20.3573 482.636L20.8215 482.45C20.2093 480.921 19.6099 479.384 19.0234 477.839L18.5559 478.016C17.9684 476.469 17.3938 474.913 16.8324 473.35L17.3029 473.181C17.0227 472.401 16.7457 471.619 16.472 470.835C16.1984 470.051 15.9284 469.267 15.6622 468.482L15.1887 468.642C14.6554 467.069 14.1371 465.494 13.6338 463.917L14.1101 463.765C13.6077 462.191 13.1201 460.615 12.6475 459.037L12.1685 459.18C11.6946 457.598 11.2357 456.014 10.7915 454.428L11.273 454.293C10.8258 452.697 10.3936 451.098 9.97646 449.497L9.49262 449.624C9.07469 448.02 8.67179 446.415 8.28382 444.809L8.76984 444.691C8.38257 443.087 8.01023 441.482 7.65272 439.875L7.16466 439.984C6.80475 438.366 6.45986 436.747 6.12992 435.127L6.61988 435.027C6.28978 433.406 5.97468 431.783 5.67447 430.159L5.18281 430.25C4.88206 428.624 4.59626 426.995 4.32531 425.366L4.81853 425.284C4.54766 423.656 4.29167 422.026 4.05049 420.395L3.55587 420.468C3.31343 418.828 3.08593 417.188 2.87329 415.547L3.36914 415.482C3.15689 413.844 2.95947 412.205 2.7768 410.565L2.27987 410.62C2.09687 408.977 1.92866 407.333 1.77516 405.689L2.273 405.642C2.11936 403.996 1.98046 402.35 1.85628 400.702L1.35769 400.74C1.23327 399.089 1.12355 397.439 1.02849 395.787L1.52766 395.758C1.43276 394.11 1.35249 392.461 1.28675 390.812L0.787145 390.832C0.721252 389.179 0.669945 387.526 0.633149 385.872L1.13303 385.861C1.09628 384.21 1.07403 382.558 1.06621 380.907L0.566211 380.909C0.558369 379.255 0.56497 377.6 0.585943 375.946L1.0859 375.952C1.10684 374.301 1.14211 372.65 1.19164 371L0.691868 370.985C0.741463 369.332 0.805331 367.679 0.883394 366.027L1.38284 366.051C1.46077 364.401 1.55287 362.752 1.65907 361.104L1.1601 361.071C1.26648 359.42 1.38699 357.769 1.52154 356.119L2.01988 356.159C2.15392 354.515 2.30192 352.872 2.4638 351.229L1.96621 351.18C2.12834 349.534 2.30439 347.89 2.49426 346.246L2.99096 346.303C3.18051 344.662 3.38387 343.022 3.60097 341.383L3.10529 341.317C3.32229 339.678 3.55299 338.041 3.79731 336.404L4.29183 336.478C4.53538 334.847 4.79248 333.216 5.06307 331.587L4.56983 331.505C4.84087 329.874 5.12541 328.243 5.42338 326.614L5.91522 326.704C6.2124 325.079 6.52297 323.455 6.84684 321.833L6.35651 321.735C6.67969 320.116 7.0161 318.499 7.36566 316.883L7.85436 316.989C8.20336 315.376 8.5655 313.764 8.94071 312.154L8.45376 312.041C8.82956 310.428 9.21845 308.817 9.62034 307.208L10.1054 307.329C10.5047 305.73 10.9169 304.133 11.3419 302.538L10.8587 302.41C11.2839 300.814 11.722 299.219 12.1727 297.627L12.6538 297.763C13.1038 296.173 13.5665 294.586 14.0419 293L13.563 292.856C14.0376 291.273 14.5249 289.692 15.0247 288.113L15.5013 288.263C15.9985 286.693 16.508 285.124 17.0298 283.558L16.5554 283.4C17.0781 281.831 17.613 280.265 18.1602 278.701L18.6322 278.866C19.1785 277.304 19.737 275.745 20.3078 274.189L19.8383 274.017C20.4058 272.47 20.9852 270.925 21.5766 269.382L22.0435 269.561C22.634 268.021 23.2365 266.484 23.8508 264.949L23.3866 264.763C24.0018 263.227 24.6289 261.692 25.2678 260.161L25.7293 260.354C26.3643 258.831 27.0111 257.312 27.6694 255.796L27.2108 255.597C27.8679 254.083 28.5365 252.573 29.2166 251.065L29.6723 251.271C30.3514 249.766 31.042 248.264 31.744 246.764L31.2912 246.552C31.9936 245.052 32.7074 243.555 33.4326 242.062L33.8824 242.28C34.601 240.8 35.3307 239.323 36.0715 237.849L35.6248 237.625C36.3667 236.149 37.1196 234.677 37.8836 233.208L38.3272 233.438C39.0902 231.971 39.8641 230.508 40.649 229.048L40.2086 228.811C40.9904 227.357 41.7832 225.906 42.5866 224.458L43.0238 224.701C43.8233 223.261 44.6335 221.824 45.4543 220.391L45.0205 220.143C45.8424 218.708 46.675 217.277 47.5182 215.849L47.9487 216.103C48.7902 214.679 49.6424 213.258 50.505 211.84L50.0779 211.58C50.9343 210.174 51.801 208.771 52.6779 207.371L53.1016 207.637C53.9774 206.24 54.8634 204.846 55.7597 203.457L55.3395 203.186C56.2369 201.795 57.1446 200.407 58.0623 199.024L58.4789 199.301C59.3913 197.926 60.3137 196.555 61.246 195.188L60.833 194.906C61.7621 193.544 62.7011 192.186 63.65 190.833L64.0594 191.12C65.007 189.768 65.9645 188.42 66.9317 187.077L66.5259 186.785C67.4943 185.44 68.4725 184.099 69.4604 182.763L69.8625 183.06C70.8408 181.737 71.8286 180.418 72.826 179.104L72.4276 178.801C73.4252 177.487 74.4322 176.176 75.4486 174.871L75.8431 175.178C76.8582 173.874 77.8828 172.574 78.9166 171.279L78.5259 170.967C79.5585 169.674 80.6004 168.385 81.6516 167.101L82.0385 167.418C83.0808 166.145 84.1322 164.876 85.1927 163.612L84.8097 163.291C85.8714 162.025 86.9422 160.765 88.022 159.509L88.4011 159.835C89.4796 158.581 90.5671 157.331 91.6636 156.087L91.2884 155.756C92.3799 154.517 93.4802 153.283 94.5894 152.054L94.9606 152.389C96.0639 151.166 97.1759 149.949 98.2965 148.736L97.9293 148.397C99.0513 147.182 100.182 145.973 101.321 144.769L101.684 145.113C102.822 143.91 103.969 142.713 105.124 141.521L104.765 141.173C105.911 139.989 107.066 138.811 108.229 137.638L108.584 137.99C109.745 136.819 110.913 135.654 112.09 134.494L111.739 134.138C112.918 132.977 114.104 131.821 115.299 130.671L115.646 131.031C116.838 129.883 118.038 128.741 119.246 127.604L118.904 127.239C120.103 126.111 121.31 124.988 122.525 123.87L122.864 124.238C124.077 123.122 125.299 122.011 126.529 120.905L126.195 120.533C127.426 119.426 128.665 118.325 129.911 117.23L130.241 117.605C131.482 116.515 132.731 115.43 133.988 114.35L133.662 113.971C134.912 112.897 136.169 111.829 137.434 110.767L137.756 111.15C139.019 110.089 140.29 109.033 141.569 107.983L141.252 107.597C142.532 106.546 143.82 105.501 145.115 104.461L145.428 104.851C146.715 103.819 148.009 102.792 149.31 101.771L149.002 101.377C150.299 100.36 151.603 99.3484 152.914 98.3427L153.219 98.7394C154.529 97.7348 155.846 96.7361 157.17 95.7433L156.87 95.3433C158.196 94.3494 159.529 93.3615 160.869 92.3796L161.165 92.783C162.494 91.8089 163.831 90.8407 165.174 89.8786L164.883 89.4721C166.224 88.5121 167.571 87.5581 168.926 86.6102L169.212 87.0199C170.565 86.073 171.925 85.1322 173.292 84.1975L173.01 83.7848C174.378 82.8492 175.753 81.9196 177.135 80.9964L177.412 81.4121C178.782 80.4971 180.158 79.5883 181.54 78.6857L181.267 78.267C182.648 77.3655 184.036 76.4702 185.43 75.5811L185.699 76.0027C187.091 75.1146 188.49 74.2327 189.896 73.3572L189.632 72.9328C191.039 72.0563 192.453 71.1861 193.873 70.3224L194.133 70.7496C195.539 69.8943 196.952 69.0453 198.371 68.2027L198.116 67.7728C199.534 66.9307 200.958 66.0949 202.389 65.2656L202.64 65.6982C204.069 64.8697 205.504 64.0477 206.946 63.2322L206.7 62.797C208.143 61.9806 209.592 61.1707 211.048 60.3673L211.289 60.8051C212.73 60.0099 214.177 59.2212 215.63 58.4389L215.393 57.9987C216.845 57.2168 218.303 56.4415 219.767 55.6727L220 56.1154C221.462 55.3474 222.931 54.586 224.405 53.8312L224.177 53.3861C225.653 52.6306 227.135 51.8817 228.623 51.1395L228.846 51.5869C230.319 50.8522 231.797 50.1241 233.281 49.4026L233.063 48.9529C234.546 48.232 236.035 47.5177 237.529 46.8102L237.743 47.2621C239.236 46.5552 240.734 45.8551 242.239 45.1618L242.029 44.7077C243.535 44.0136 245.046 43.3263 246.563 42.6459L246.768 43.1021C248.27 42.4282 249.778 41.761 251.291 41.1006L251.091 40.6423C252.602 39.9829 254.118 39.3303 255.64 38.6845L255.835 39.1448C257.355 38.4996 258.881 37.8613 260.412 37.2299L260.221 36.7677C261.753 36.1357 263.291 35.5105 264.834 34.8923L265.02 35.3565C266.55 34.7435 268.085 34.1375 269.625 33.5383L269.444 33.0724C270.979 32.475 272.52 31.8844 274.066 31.3009L274.243 31.7686C275.787 31.1856 277.337 30.6096 278.891 30.0405L278.719 29.571C280.275 29.0013 281.836 28.4387 283.402 27.8831L283.569 28.3544C284.352 28.0768 285.135 27.8011 285.92 27.5271C286.705 27.2532 287.49 26.9813 288.275 26.7117L288.112 26.2388C289.684 25.699 291.256 25.1678 292.828 24.6452L292.986 25.1197C294.557 24.5977 296.128 24.0843 297.7 23.5794L297.547 23.1034C299.12 22.598 300.694 22.1013 302.267 21.6131L302.416 22.0907C303.994 21.6011 305.573 21.1201 307.151 20.6477L307.008 20.1687C308.601 19.6923 310.193 19.2246 311.786 18.7656L311.924 19.246C313.516 18.7875 315.107 18.3377 316.698 17.8966L316.565 17.4147C318.158 16.9732 319.751 16.5403 321.344 16.116L321.472 16.5992C323.068 16.1743 324.663 15.7581 326.259 15.3506L326.135 14.8661C327.746 14.4547 329.356 14.0521 330.967 13.6582L331.085 14.1439C332.694 13.7505 334.303 13.3658 335.911 12.99L335.798 12.5031C337.408 12.1268 339.017 11.7593 340.627 11.4006L340.736 11.8886C342.346 11.5296 343.957 11.1793 345.567 10.8378L345.463 10.3487C347.089 10.0037 348.715 9.66764 350.341 9.34044L350.44 9.83061C352.063 9.50374 353.687 9.18574 355.309 8.87658L355.216 8.38543C356.84 8.07595 358.464 7.77532 360.087 7.4835L360.176 7.97562C361.8 7.68368 363.423 7.40057 365.046 7.12627L364.963 6.63327C366.602 6.35617 368.24 6.08804 369.878 5.82887L369.956 6.32272C371.592 6.06382 373.227 5.81387 374.862 5.57282L374.789 5.07818C376.425 4.83688 378.06 4.60449 379.694 4.381L379.761 4.8764C381.397 4.65277 383.031 4.43805 384.664 4.23222L384.601 3.73614C386.251 3.52827 387.899 3.32946 389.546 3.13967L389.603 3.63637C391.248 3.44678 392.892 3.26619 394.535 3.09459L394.483 2.59729C396.128 2.4255 397.771 2.26271 399.413 2.10885L399.459 2.60667C401.103 2.45264 402.746 2.30759 404.387 2.17149L404.346 1.6732C406.002 1.53587 407.657 1.40765 409.31 1.28851L409.346 1.78722C410.998 1.6682 412.648 1.55826 414.296 1.45736L414.265 0.958312C415.915 0.857309 417.564 0.765338 419.211 0.682399L419.236 1.18175C420.886 1.09863 422.535 1.02457 424.182 0.959531L424.162 0.459922C425.822 0.394381 427.48 0.337993 429.137 0.290761L429.151 0.790568C430.805 0.743362 432.458 0.705305 434.108 0.676338L434.1 0.176421C435.752 0.147426 437.402 0.12751 439.051 0.116697L439.054 0.616703C440.708 0.605826 442.36 0.604117 444.01 0.611514L444.013 0.111539C445.673 0.118989 447.332 0.135635 448.988 0.161501L448.98 0.661454C450.634 0.68728 452.286 0.722292 453.935 0.766455L453.949 0.266617C455.6 0.310819 457.249 0.364181 458.896 0.426664L458.877 0.926316C460.532 0.989123 462.185 1.06118 463.835 1.14243L463.859 0.643032C465.517 0.724662 467.172 0.815544 468.825 0.915676L468.794 1.41476C470.445 1.51476 472.093 1.62401 473.737 1.74245L473.773 1.24373C475.42 1.3623 477.064 1.49008 478.705 1.62701L478.664 2.12528C480.317 2.26325 481.967 2.41052 483.614 2.56708L483.662 2.06931C485.313 2.22625 486.961 2.3925 488.606 2.56804L488.553 3.06523C490.196 3.24056 491.836 3.42516 493.473 3.61898L493.532 3.12245C495.172 3.31675 496.81 3.52031 498.444 3.73309L498.379 4.22892C500.025 4.44329 501.668 4.66705 503.307 4.90015L503.377 4.40514C505.018 4.63851 506.656 4.88124 508.29 5.13328L508.214 5.62745C509.845 5.87918 511.474 6.14025 513.098 6.41057L513.18 5.91734C514.813 6.1891 516.443 6.4702 518.068 6.76062L517.98 7.25284C519.613 7.54455 521.242 7.8457 522.867 8.15621L522.96 7.6651C524.587 7.976 526.21 8.29627 527.829 8.6259L527.729 9.11584C529.345 9.44506 530.958 9.78363 532.566 10.1315L532.672 9.64279C534.294 9.99359 535.911 10.3538 537.525 10.7235L537.413 11.2109C539.028 11.581 540.639 11.9605 542.245 12.3495L542.363 11.8635C543.971 12.253 545.575 12.6518 547.174 13.0601L547.05 13.5445C548.649 13.9527 550.243 14.3702 551.832 14.797L551.962 14.3142C553.567 14.7452 555.167 15.1858 556.762 15.6358L556.626 16.117C558.219 16.5665 559.807 17.0254 561.39 17.4938L561.532 17.0143C563.117 17.4833 564.697 17.9617 566.272 18.4495L566.124 18.9271C567.705 19.4166 569.28 19.9155 570.85 20.4239L571.004 19.9482C572.583 20.4596 574.157 20.9805 575.725 21.5109L575.565 21.9846C577.131 22.5143 578.692 23.0535 580.247 23.6021L580.413 23.1306C581.971 23.68 583.522 24.2388 585.068 24.807L584.896 25.2763C586.453 25.8486 588.004 26.4305 589.55 27.022L589.728 26.555C591.277 27.1475 592.819 27.7496 594.356 28.3612L594.171 28.8257C595.705 29.4365 597.233 30.0567 598.755 30.6864L598.946 30.2243C600.476 30.8571 602 31.4994 603.517 32.1512L603.319 32.6106C604.843 33.265 606.359 33.9288 607.869 34.6023L608.073 34.1456C609.585 34.8199 611.091 35.5038 612.59 36.1972L612.38 36.651C613.877 37.3434 615.368 38.0453 616.851 38.7566L617.068 38.3057C618.565 39.0235 620.055 39.7508 621.538 40.4878L621.316 40.9355C622.798 41.672 624.274 42.4181 625.742 43.1736L625.971 42.729C627.442 43.4856 628.905 44.2517 630.361 45.0273L630.126 45.4686C631.585 46.2458 633.037 47.0324 634.481 47.8286L634.723 47.3907C636.176 48.1917 637.622 49.0022 639.06 49.8223L638.812 50.2566C640.248 51.0755 641.676 51.9039 643.097 52.7417L643.351 52.3111C644.774 53.1502 646.189 53.9988 647.596 54.8568L647.336 55.2837C648.751 56.1467 650.159 57.0193 651.558 57.9014L651.825 57.4784C653.226 58.3619 654.62 59.255 656.005 60.1576L655.732 60.5765C657.116 61.4778 658.491 62.3884 659.857 63.3085L660.137 62.8938C661.511 63.8187 662.876 64.7532 664.233 65.6972L663.948 66.1077C665.307 67.0529 666.657 68.0077 667.999 68.972L668.29 68.566C669.634 69.5317 670.969 70.507 672.296 71.4916L671.997 71.8931C673.323 72.8771 674.639 73.8706 675.947 74.8734L676.251 74.4767C677.567 75.486 678.874 76.5049 680.172 77.5332L679.862 77.9251C681.157 78.9517 682.444 79.9878 683.721 81.0333L684.038 80.6463C685.317 81.6935 686.587 82.75 687.847 83.8159L687.524 84.1977C688.787 85.2658 690.041 86.3434 691.285 87.4303L691.614 87.0538C692.861 88.1436 694.099 89.2429 695.326 90.3514L694.991 90.7225C696.217 91.8293 697.433 92.9453 698.639 94.0706L698.98 93.7051C700.19 94.834 701.39 95.9722 702.579 97.1197L702.232 97.4795C703.422 98.6275 704.602 99.7848 705.772 100.951L706.125 100.597C707.297 101.766 708.458 102.944 709.609 104.13L709.25 104.479C710.399 105.664 711.538 106.858 712.666 108.061L713.031 107.719C714.164 108.927 715.285 110.145 716.396 111.371L716.026 111.707C717.135 112.931 718.234 114.165 719.321 115.407L719.697 115.078C720.787 116.322 721.865 117.576 722.933 118.839L722.551 119.162C723.617 120.423 724.672 121.693 725.716 122.973L726.103 122.656C727.149 123.938 728.184 125.229 729.208 126.529L728.815 126.838C729.837 128.136 730.847 129.442 731.846 130.757L732.244 130.455C733.244 131.772 734.233 133.098 735.211 134.433L734.807 134.728C735.782 136.06 736.745 137.401 737.697 138.75L738.106 138.462C739.059 139.814 740.001 141.174 740.93 142.543L740.517 142.824C741.445 144.191 742.361 145.566 743.265 146.95L743.684 146.677C744.587 148.059 745.478 149.451 746.358 150.851L745.934 151.117C746.812 152.514 747.678 153.92 748.531 155.334L748.96 155.076C749.815 156.493 750.658 157.919 751.488 159.353L751.055 159.604C751.882 161.03 752.696 162.465 753.497 163.909L753.935 163.666C754.736 165.11 755.526 166.562 756.303 168.022L755.862 168.257C756.637 169.715 757.401 171.181 758.151 172.656L758.597 172.429C759.347 173.902 760.085 175.384 760.81 176.875L760.36 177.093C761.08 178.573 761.788 180.062 762.483 181.558L762.937 181.347C763.633 182.846 764.316 184.354 764.987 185.869L764.53 186.071C765.199 187.583 765.856 189.104 766.5 190.632L766.961 190.438C767.6 191.955 768.227 193.481 768.841 195.014L768.376 195.2C768.989 196.73 769.588 198.267 770.175 199.812L770.642 199.634Z" stroke="#E41E0A" stroke-dasharray="5 5"/>
</svg>
