<svg width="198" height="94" viewBox="0 0 198 94" fill="none" xmlns="http://www.w3.org/2000/svg">
<g clip-path="url(#clip0)">
<path d="M3.25629 25.7308L3.60685 9.65584L16.6207 20.2015" stroke="#E41F09" stroke-width="4" stroke-miterlimit="10" stroke-linecap="round" stroke-linejoin="round"/>
<path d="M195.078 80.3366C172.615 83.2114 147.638 86.388 127.293 74.6361C119.294 70.014 112.266 63.1873 108.956 54.7244C107.516 51.0328 105.781 45.5936 107.881 41.8407C110.167 37.7492 116.564 39.3233 119.834 41.2739C127.36 45.7614 129.654 55.6022 126.312 63.1509C122.454 71.867 113.633 77.7295 104.514 80.71C84.9813 87.1038 62.6935 81.4186 46.6452 69.831C29.3592 57.3482 18.2483 38.6852 10.7565 19.601C9.80641 17.1651 8.89582 14.7148 8.03762 12.237C7.2254 9.91037 3.40767 11.0659 4.22039 13.4052C11.608 34.6222 22.6375 55.6594 40.8489 70.2859C57.8186 83.9154 81.958 91.1602 103.783 84.945C113.949 82.0512 123.897 75.9791 128.927 66.8096C133.632 58.2263 132.57 47.7513 125.412 40.7128C122.063 37.4141 117.344 35.3159 112.474 35.5308C106.389 35.7929 103.126 40.2156 103.019 45.701C102.837 55.4723 109.063 65.0327 116.291 71.482C134.928 88.1188 161.458 88.1068 185.343 85.3806C188.643 84.9973 191.942 84.5886 195.226 84.1549C197.753 83.8272 197.631 80.0078 195.078 80.3366Z" fill="#E41F09"/>
</g>
<defs>
<clipPath id="clip0">
<rect width="193.268" height="85.0861" fill="white" transform="translate(0.76416 8.04553) rotate(-2.22705)"/>
</clipPath>
</defs>
</svg>
