<svg width="823" height="599" viewBox="0 0 823 599" fill="none" xmlns="http://www.w3.org/2000/svg">
<path d="M777.675 367.388C777.423 369.029 777.143 370.669 776.833 372.307L776.342 372.215C776.187 373.031 776.025 373.847 775.856 374.662C775.687 375.477 775.511 376.29 775.328 377.101L775.816 377.211C775.448 378.837 775.053 380.453 774.631 382.059L774.147 381.932C773.726 383.534 773.277 385.125 772.801 386.706L773.28 386.85C772.799 388.446 772.292 390.031 771.757 391.605L771.284 391.444C770.751 393.013 770.191 394.571 769.604 396.119L770.072 396.296C769.483 397.85 768.867 399.394 768.224 400.927L767.763 400.733C767.123 402.261 766.456 403.778 765.763 405.284L766.217 405.493C765.523 407.002 764.803 408.499 764.057 409.986L763.61 409.761C762.868 411.24 762.1 412.708 761.308 414.164L761.747 414.403C760.952 415.863 760.132 417.312 759.287 418.75L758.856 418.496C758.02 419.919 757.159 421.331 756.274 422.732L756.697 422.999C755.809 424.404 754.897 425.798 753.961 427.181L753.547 426.9C752.622 428.266 751.674 429.621 750.703 430.965L751.108 431.258C750.136 432.602 749.141 433.935 748.124 435.257L747.728 434.952C746.719 436.263 745.687 437.562 744.634 438.851L745.021 439.167C743.974 440.447 742.905 441.716 741.815 442.973L741.437 442.646C740.351 443.9 739.242 445.143 738.113 446.375L738.481 446.713C737.367 447.928 736.232 449.132 735.077 450.325L734.717 449.977C733.567 451.166 732.396 452.344 731.205 453.511L731.555 453.868C730.372 455.027 729.169 456.175 727.947 457.313L727.606 456.947C726.4 458.069 725.174 459.182 723.931 460.283L724.262 460.657C723.015 461.761 721.75 462.854 720.466 463.936L720.144 463.554C718.888 464.612 717.614 465.66 716.324 466.697L716.637 467.087C715.344 468.126 714.035 469.153 712.708 470.171L712.404 469.774C711.091 470.78 709.761 471.777 708.415 472.762L708.71 473.166C707.379 474.14 706.032 475.104 704.669 476.057L704.382 475.648C703.022 476.599 701.646 477.54 700.254 478.471L700.532 478.887C699.161 479.804 697.774 480.711 696.373 481.607L696.103 481.186C694.713 482.076 693.307 482.956 691.887 483.825L692.148 484.252C690.728 485.122 689.292 485.981 687.843 486.831L687.59 486.399C686.174 487.23 684.744 488.05 683.301 488.86L683.546 489.296C682.1 490.108 680.64 490.91 679.168 491.702L678.931 491.261C677.471 492.046 675.998 492.821 674.513 493.586L674.742 494.031C673.277 494.786 671.799 495.531 670.309 496.266L670.088 495.817C668.601 496.551 667.101 497.276 665.59 497.99L665.804 498.442C664.306 499.15 662.797 499.849 661.277 500.537L661.071 500.082C659.569 500.761 658.057 501.432 656.533 502.093L656.733 502.552C655.207 503.214 653.669 503.866 652.121 504.509L651.93 504.047C650.405 504.681 648.87 505.305 647.324 505.919L647.509 506.384C645.974 506.994 644.428 507.596 642.872 508.188L642.695 507.72C641.141 508.311 639.578 508.893 638.004 509.466L638.175 509.936C636.623 510.501 635.06 511.057 633.488 511.604L633.324 511.132C631.765 511.674 630.197 512.207 628.619 512.732L628.777 513.206C627.197 513.731 625.608 514.248 624.01 514.755L623.859 514.278C622.286 514.777 620.704 515.268 619.113 515.749L619.258 516.228C617.676 516.706 616.085 517.177 614.486 517.638L614.348 517.157C612.751 517.618 611.145 518.07 609.532 518.513L609.664 518.995C608.069 519.433 606.465 519.863 604.853 520.283L604.727 519.8C603.13 520.217 601.526 520.625 599.913 521.025L600.034 521.51C598.42 521.91 596.798 522.302 595.169 522.685L595.054 522.198C593.442 522.577 591.822 522.947 590.196 523.309L590.304 523.797C588.693 524.156 587.074 524.506 585.448 524.848L585.345 524.358C583.721 524.7 582.09 525.032 580.453 525.357L580.55 525.847C578.919 526.171 577.281 526.485 575.637 526.792L575.545 526.3C573.926 526.602 572.299 526.895 570.667 527.181L570.753 527.673C569.118 527.959 567.478 528.237 565.831 528.506L565.75 528.012C564.106 528.281 562.455 528.542 560.798 528.794L560.873 529.288C559.245 529.536 557.61 529.776 555.969 530.008L555.899 529.513C554.261 529.744 552.616 529.968 550.966 530.183L551.031 530.679C549.379 530.895 547.722 531.102 546.059 531.302L545.999 530.805C544.358 531.002 542.712 531.191 541.061 531.372L541.116 531.869C539.471 532.049 537.822 532.221 536.167 532.385L536.118 531.888C534.465 532.052 532.807 532.208 531.144 532.356L531.188 532.854C529.533 533.001 527.873 533.141 526.207 533.272L526.168 532.774C524.524 532.904 522.874 533.026 521.22 533.14L521.255 533.639C519.6 533.754 517.94 533.861 516.275 533.959L516.245 533.46C514.582 533.559 512.915 533.65 511.243 533.733L511.268 534.233C509.619 534.314 507.965 534.389 506.308 534.455L506.288 533.956C504.635 534.022 502.977 534.081 501.316 534.132L501.331 534.632C499.668 534.683 498.002 534.727 496.331 534.762L496.32 534.262C494.661 534.298 492.998 534.326 491.332 534.346L491.338 534.846C489.685 534.866 488.029 534.878 486.369 534.883L486.368 534.383C484.709 534.388 483.047 534.386 481.382 534.375L481.379 534.875C479.712 534.865 478.041 534.847 476.367 534.822L476.375 534.322C474.724 534.297 473.069 534.264 471.411 534.224L471.399 534.724C469.744 534.684 468.085 534.636 466.423 534.581L466.439 534.082C464.779 534.027 463.115 533.965 461.448 533.895L461.427 534.394C459.765 534.325 458.1 534.247 456.432 534.163L456.457 533.664C454.808 533.58 453.157 533.489 451.502 533.391L451.473 533.89C449.817 533.791 448.158 533.686 446.496 533.573L446.53 533.074C444.87 532.961 443.208 532.84 441.542 532.712L441.504 533.211C439.851 533.084 438.196 532.95 436.538 532.808L436.58 532.31C434.933 532.17 433.283 532.022 431.63 531.867L431.583 532.364C429.93 532.209 428.274 532.047 426.615 531.877L426.666 531.379C425.009 531.21 423.35 531.032 421.688 530.848L421.633 531.345C419.99 531.163 418.345 530.973 416.697 530.776L416.756 530.28C415.113 530.084 413.467 529.88 411.819 529.67L411.755 530.165C410.106 529.955 408.455 529.737 406.802 529.511L406.869 529.016C405.221 528.791 403.57 528.559 401.918 528.32L401.846 528.815C400.21 528.578 398.573 528.334 396.933 528.083L397.009 527.589C395.371 527.338 393.731 527.08 392.09 526.815L392.01 527.309C390.368 527.044 388.724 526.771 387.078 526.492L387.162 525.999C385.524 525.721 383.885 525.436 382.245 525.143L382.157 525.636C380.528 525.345 378.898 525.048 377.267 524.744L377.359 524.252C375.729 523.948 374.097 523.637 372.465 523.319L372.369 523.809C370.735 523.491 369.1 523.165 367.463 522.833L367.563 522.343C367.247 522.278 366.931 522.214 366.615 522.149C366.113 522.046 365.611 521.943 365.109 521.839C364.291 521.669 363.474 521.498 362.657 521.325L362.554 521.814C360.92 521.468 359.29 521.116 357.664 520.758L357.772 520.27C356.147 519.913 354.527 519.549 352.91 519.179L352.799 519.667C351.181 519.297 349.567 518.921 347.958 518.54L348.073 518.053C346.452 517.669 344.835 517.278 343.222 516.882L343.102 517.368C341.481 516.969 339.864 516.565 338.252 516.155L338.375 515.67C336.764 515.261 335.157 514.845 333.555 514.423L333.427 514.907C331.823 514.485 330.224 514.057 328.629 513.624L328.76 513.141C327.149 512.703 325.542 512.259 323.941 511.809L323.805 512.291C322.199 511.84 320.597 511.383 319 510.92L319.14 510.44C317.544 509.978 315.953 509.51 314.367 509.036L314.224 509.515C312.634 509.04 311.049 508.559 309.469 508.073L309.616 507.595C308.018 507.103 306.425 506.605 304.838 506.102L304.687 506.579C303.097 506.075 301.513 505.565 299.934 505.049L300.09 504.574C298.512 504.059 296.939 503.538 295.372 503.012L295.213 503.486C293.635 502.956 292.063 502.421 290.496 501.879L290.659 501.407C289.08 500.861 287.507 500.31 285.939 499.754L285.772 500.225C284.202 499.668 282.639 499.105 281.08 498.536L281.252 498.067C279.694 497.499 278.143 496.925 276.597 496.346L276.421 496.814C274.857 496.228 273.299 495.636 271.746 495.039L271.926 494.572C270.369 493.973 268.818 493.368 267.273 492.758L267.089 493.223C265.542 492.612 264.001 491.996 262.467 491.374L262.654 490.91C261.117 490.288 259.586 489.659 258.062 489.025L257.87 489.487C256.324 488.844 254.784 488.196 253.251 487.542L253.447 487.083C251.915 486.429 250.389 485.771 248.869 485.106L248.669 485.564C247.148 484.9 245.634 484.229 244.125 483.553L244.33 483.097C242.809 482.416 241.294 481.729 239.786 481.036L239.578 481.49C238.059 480.793 236.547 480.09 235.042 479.381L235.255 478.929C233.751 478.221 232.254 477.508 230.764 476.789L230.546 477.24C229.052 476.519 227.565 475.793 226.084 475.062L226.306 474.613C224.805 473.872 223.311 473.125 221.825 472.373L221.599 472.819C220.111 472.066 218.631 471.308 217.158 470.544L217.388 470.1C215.916 469.337 214.451 468.569 212.994 467.796L212.76 468.237C211.285 467.454 209.817 466.666 208.357 465.872L208.596 465.432C207.129 464.635 205.67 463.832 204.219 463.024L203.975 463.461C202.523 462.652 201.078 461.838 199.641 461.018L199.889 460.584C198.446 459.761 197.01 458.933 195.584 458.1L195.331 458.532C193.885 457.687 192.447 456.837 191.017 455.982L191.274 455.553C189.846 454.699 188.426 453.84 187.015 452.975L186.754 453.402C185.341 452.536 183.936 451.666 182.541 450.79L182.806 450.367C181.387 449.476 179.976 448.581 178.574 447.68L178.304 448.1C176.9 447.198 175.505 446.291 174.119 445.379L174.394 444.961C173.01 444.05 171.635 443.133 170.268 442.212L169.989 442.627C168.602 441.691 167.225 440.751 165.857 439.806L166.142 439.394C164.768 438.445 163.404 437.491 162.05 436.532L161.761 436.94C160.406 435.979 159.06 435.014 157.724 434.044L158.018 433.639C156.669 432.66 155.331 431.676 154.002 430.687L153.704 431.088C152.361 430.089 151.029 429.084 149.707 428.075L150.011 427.677C148.691 426.669 147.381 425.656 146.082 424.639L145.774 425.032C144.462 424.005 143.162 422.973 141.872 421.936L142.186 421.547C140.881 420.498 139.588 419.445 138.307 418.387L137.988 418.772C136.705 417.713 135.432 416.649 134.172 415.58L134.495 415.199C133.227 414.124 131.971 413.045 130.726 411.961L130.397 412.338C129.133 411.237 127.881 410.132 126.64 409.021L126.974 408.649C125.735 407.54 124.508 406.427 123.294 405.309L122.955 405.677C121.731 404.55 120.519 403.418 119.319 402.282L119.663 401.919C118.447 400.767 117.244 399.612 116.054 398.451L115.705 398.809C114.513 397.647 113.334 396.481 112.169 395.31L112.523 394.957C111.35 393.778 110.189 392.595 109.043 391.408L108.683 391.755C107.518 390.549 106.368 389.339 105.231 388.124L105.596 387.783C104.461 386.57 103.341 385.353 102.234 384.133L101.863 384.468C100.742 383.232 99.6357 381.991 98.5437 380.746L98.9196 380.416C97.8171 379.159 96.7296 377.898 95.6571 376.633L95.2757 376.956C94.2015 375.689 93.1423 374.417 92.0984 373.142L92.4853 372.826C91.4267 371.532 90.3839 370.235 89.357 368.935L88.9646 369.244C87.9285 367.932 86.9086 366.616 85.9049 365.296L86.303 364.993C85.3012 363.675 84.3156 362.354 83.3465 361.029L82.943 361.324C81.9511 359.968 80.9765 358.608 80.0191 357.245L80.4283 356.958C79.4715 355.595 78.5321 354.229 77.6102 352.859L77.1954 353.138C76.2664 351.758 75.3551 350.375 74.4617 348.988L74.8821 348.717C73.9756 347.309 73.0875 345.899 72.2182 344.484L71.7923 344.746C70.9211 343.329 70.0687 341.909 69.2351 340.485L69.6665 340.233C68.8234 338.793 67.9997 337.35 67.1955 335.904L66.7585 336.147C65.946 334.686 65.1534 333.222 64.3808 331.755L64.8232 331.522C64.0517 330.057 63.3003 328.589 62.5692 327.118L62.1215 327.341C61.3741 325.837 60.6479 324.331 59.9431 322.822L60.3962 322.61C59.6931 321.105 59.0114 319.598 58.3512 318.088L57.8931 318.288C57.2244 316.758 56.5778 315.226 55.9534 313.692L56.4165 313.503C55.7882 311.959 55.1825 310.413 54.5996 308.864L54.1316 309.041C53.5466 307.486 52.9844 305.93 52.4454 304.372L52.918 304.208C52.3717 302.629 51.8493 301.048 51.351 299.465L50.874 299.615C50.3743 298.027 49.8988 296.438 49.4476 294.847L49.9286 294.711C49.4745 293.11 49.0452 291.507 48.6409 289.903L48.1561 290.025C47.7484 288.408 47.3661 286.789 47.0094 285.17L47.4977 285.062C47.1411 283.443 46.8102 281.822 46.5052 280.201L46.0138 280.293C45.7052 278.652 45.423 277.011 45.1675 275.368L45.6615 275.291C45.4069 273.654 45.1789 272.017 44.9778 270.378L44.4815 270.439C44.2783 268.784 44.1025 267.129 43.9542 265.473L44.4522 265.429C44.3043 263.777 44.184 262.125 44.0916 260.473L43.5923 260.501C43.4994 258.841 43.4344 257.18 43.3978 255.52L43.8977 255.509C43.8611 253.852 43.8528 252.195 43.873 250.538L43.3731 250.532C43.3934 248.87 43.4423 247.209 43.5202 245.548L44.0197 245.572C44.0972 243.919 44.2034 242.266 44.3386 240.615L43.8403 240.574C43.976 238.917 44.1408 237.261 44.335 235.606L44.8316 235.665C45.024 234.025 45.2454 232.386 45.496 230.749L45.0017 230.673C45.253 229.032 45.5334 227.392 45.8434 225.754L46.3347 225.847C46.4891 225.03 46.6509 224.215 46.8201 223.399C46.9893 222.584 47.1654 221.771 47.3485 220.96L46.8608 220.85C47.2281 219.224 47.6233 217.608 48.0458 216.002L48.5294 216.129C48.9508 214.528 49.3996 212.936 49.8755 211.355L49.3967 211.211C49.8769 209.615 50.3845 208.03 50.9193 206.456L51.3927 206.617C51.9256 205.048 52.4855 203.49 53.072 201.943L52.6045 201.765C53.1937 200.211 53.8097 198.667 54.4522 197.135L54.9133 197.328C55.5537 195.8 56.2206 194.283 56.9135 192.777L56.4593 192.568C57.1534 191.06 57.8736 189.562 58.6195 188.076L59.0664 188.3C59.8084 186.821 60.576 185.354 61.3688 183.897L60.9296 183.658C61.7243 182.198 62.5442 180.749 63.389 179.312L63.8201 179.565C64.6563 178.142 65.5171 176.73 66.4021 175.329L65.9794 175.062C66.8672 173.657 67.7792 172.263 68.7152 170.881L69.1292 171.161C70.0541 169.795 71.0024 168.44 71.9738 167.096L71.5686 166.803C72.5403 165.459 73.535 164.126 74.5525 162.804L74.9487 163.109C75.9577 161.799 76.9891 160.499 78.0427 159.211L77.6557 158.894C78.7025 157.614 79.771 156.345 80.8611 155.088L81.2389 155.415C82.3258 154.161 83.4342 152.918 84.5638 151.687L84.1952 151.349C85.3097 150.133 86.4446 148.929 87.5998 147.736L87.959 148.084C89.1098 146.895 90.2807 145.717 91.4715 144.551L91.1215 144.194C92.3048 143.034 93.5076 141.886 94.7296 140.749L95.0703 141.115C96.2767 139.992 97.5019 138.88 98.7458 137.779L98.4143 137.404C99.6612 136.3 100.927 135.207 102.211 134.125L102.533 134.508C103.789 133.449 105.062 132.401 106.353 131.364L106.04 130.974C107.332 129.936 108.642 128.908 109.968 127.891L110.273 128.287C111.586 127.281 112.915 126.285 114.262 125.299L113.966 124.896C115.298 123.921 116.645 122.957 118.008 122.004L118.294 122.413C119.654 121.462 121.03 120.521 122.422 119.59L122.144 119.175C123.516 118.257 124.902 117.351 126.304 116.454L126.573 116.875C127.964 115.985 129.369 115.106 130.789 114.236L130.528 113.81C131.949 112.94 133.384 112.08 134.833 111.23L135.086 111.662C136.502 110.832 137.932 110.012 139.376 109.201L139.131 108.765C140.577 107.953 142.036 107.151 143.509 106.36L143.746 106.8C145.205 106.015 146.678 105.24 148.164 104.475L147.935 104.03C149.4 103.276 150.877 102.531 152.367 101.795L152.588 102.244C154.076 101.51 155.575 100.785 157.087 100.071L156.873 99.6188C158.37 98.911 159.879 98.2127 161.4 97.524L161.606 97.9795C163.107 97.2997 164.619 96.6293 166.143 95.9683L165.944 95.5096C167.47 94.8476 169.007 94.1951 170.555 93.552L170.747 94.0138C172.271 93.3806 173.807 92.7566 175.352 92.1419L175.168 91.6773C176.703 91.0669 178.248 90.4656 179.804 89.8736L179.982 90.3409C181.535 89.7498 183.099 89.1679 184.672 88.5952L184.501 88.1254C186.054 87.5603 187.616 87.0043 189.188 86.4574L189.352 86.9296C190.911 86.3873 192.48 85.8538 194.057 85.3294L193.899 84.8549C195.479 84.3298 197.068 83.8137 198.666 83.3066L198.817 83.7832C200.391 83.284 201.973 82.7937 203.563 82.3122L203.419 81.8336C205.001 81.3548 206.591 80.8847 208.19 80.4234L208.329 80.9038C209.926 80.4432 211.531 79.9913 213.145 79.5483L213.012 79.0661C214.608 78.628 216.212 78.1985 217.823 77.7778L217.95 78.2616C219.546 77.8447 221.151 77.4364 222.763 77.0367L222.643 76.5514C224.257 76.1512 225.879 75.7596 227.508 75.3767L227.622 75.8634C229.234 75.4845 230.854 75.1141 232.481 74.7522L232.372 74.2642C233.984 73.9056 235.603 73.5555 237.228 73.2137L237.331 73.703C238.955 73.3617 240.586 73.0288 242.224 72.7043L242.127 72.2138C243.757 71.8907 245.395 71.5759 247.039 71.2696L247.131 71.7611C248.751 71.4594 250.377 71.1657 252.01 70.8804L251.924 70.3878C253.558 70.1021 255.199 69.8247 256.846 69.5555L256.926 70.049C258.571 69.7802 260.221 69.5197 261.878 69.2675L261.803 68.7732C263.432 68.5252 265.067 68.2853 266.707 68.0535L266.777 68.5485C268.416 68.3169 270.06 68.0934 271.71 67.8779L271.646 67.3821C273.297 67.1664 274.955 66.9589 276.618 66.7595L276.677 67.2559C278.318 67.0591 279.964 66.8704 281.615 66.6895L281.561 66.1925C283.205 66.0125 284.855 65.8403 286.509 65.6761L286.559 66.1737C288.211 66.0096 289.869 65.8536 291.532 65.7055L291.488 65.2074C293.143 65.06 294.804 64.9205 296.469 64.7889L296.508 65.2873C298.153 65.1574 299.802 65.0352 301.456 64.9208L301.421 64.4219C303.077 64.3074 304.737 64.2007 306.401 64.1018L306.431 64.6009C308.094 64.5021 309.761 64.4112 311.433 64.3281L311.408 63.8287C313.057 63.7467 314.711 63.6724 316.369 63.6058L316.389 64.1054C318.042 64.0389 319.699 63.9801 321.36 63.929L321.345 63.4293C323.008 63.3781 324.675 63.3346 326.346 63.2989L326.356 63.7988C328.015 63.7633 329.678 63.7355 331.345 63.7153L331.339 63.2154C332.991 63.1953 334.647 63.1829 336.307 63.178L336.309 63.678C337.967 63.6731 339.629 63.6757 341.295 63.686L341.298 63.186C342.965 63.1962 344.635 63.2141 346.309 63.2396L346.301 63.7395C347.953 63.7647 349.607 63.7972 351.265 63.8373L351.277 63.3374C352.933 63.3774 354.592 63.4249 356.254 63.4798L356.237 63.9795C357.898 64.0344 359.561 64.0967 361.228 64.1665L361.249 63.667C362.911 63.7366 364.576 63.8137 366.244 63.8983L366.219 64.3977C367.868 64.4813 369.52 64.5722 371.174 64.6705L371.204 64.1714C372.86 64.2698 374.519 64.3755 376.18 64.4886L376.146 64.9875C377.806 65.1005 379.469 65.2209 381.134 65.3487L381.172 64.8502C382.825 64.9771 384.481 65.1113 386.139 65.2528L386.096 65.751C387.744 65.8916 389.394 66.0395 391.046 66.1946L391.093 65.6968C392.747 65.8521 394.403 66.0147 396.061 66.1845L396.01 66.6819C397.667 66.8517 399.326 67.0287 400.988 67.2131L401.043 66.7162C402.686 66.8985 404.332 67.088 405.979 67.2848L405.92 67.7812C407.564 67.9775 409.21 68.181 410.857 68.3917L410.921 67.8957C412.57 68.1066 414.221 68.3247 415.874 68.55L415.807 69.0454C417.456 69.2701 419.106 69.502 420.759 69.7412L420.83 69.2463C422.466 69.4831 424.104 69.7269 425.743 69.9779L425.667 70.4721C427.305 70.7229 428.945 70.9808 430.586 71.2458L430.666 70.7522C432.308 71.0174 433.953 71.2897 435.598 71.5693L435.515 72.0622C437.152 72.3403 438.791 72.6256 440.432 72.9179L440.519 72.4257C442.148 72.716 443.778 73.0133 445.409 73.3176L445.318 73.8091C446.948 74.1132 448.579 74.4244 450.212 74.7426L450.307 74.2518C451.941 74.5703 453.577 74.8959 455.213 75.2285L455.114 75.7185C455.931 75.8847 456.749 76.0527 457.567 76.2224C458.385 76.3922 459.203 76.5635 460.019 76.7363L460.123 76.2472C461.756 76.593 463.386 76.9449 465.012 77.3028L464.904 77.7911C466.529 78.1487 468.149 78.5122 469.766 78.8817L469.877 78.3943C471.495 78.7641 473.109 79.1399 474.719 79.5215L474.603 80.008C476.225 80.3924 477.842 80.7828 479.455 81.179L479.574 80.6935C481.195 81.0918 482.812 81.496 484.424 81.9062L484.301 82.3907C485.912 82.8006 487.519 83.2163 489.122 83.6379L489.249 83.1543C490.853 83.5763 492.452 84.0041 494.047 84.4377L493.916 84.9202C495.527 85.3581 497.134 85.802 498.736 86.2518L498.871 85.7704C500.477 86.2213 502.079 86.6782 503.676 87.1409L503.537 87.6211C505.133 88.0834 506.723 88.5515 508.31 89.0254L508.453 88.5463C510.043 89.0213 511.627 89.502 513.208 89.9884L513.061 90.4663C514.658 90.9581 516.251 91.4558 517.839 91.9593L517.99 91.4827C519.579 91.9866 521.163 92.4963 522.742 93.0118L522.587 93.4871C524.165 94.0021 525.737 94.5229 527.305 95.0493L527.464 94.5754C529.041 95.1052 530.614 95.6407 532.181 96.1819L532.017 96.6545C533.596 97.1998 535.169 97.7508 536.737 98.3075L536.905 97.8363C538.474 98.3935 540.038 98.9564 541.596 99.5249L541.425 99.9947C542.982 100.563 544.533 101.136 546.079 101.716L546.255 101.247C547.819 101.834 549.377 102.425 550.93 103.023L550.75 103.489C552.307 104.088 553.859 104.693 555.404 105.303L555.587 104.838C557.134 105.449 558.675 106.065 560.21 106.687L560.022 107.151C561.559 107.774 563.09 108.402 564.615 109.036L564.807 108.574C566.353 109.217 567.892 109.865 569.426 110.519L569.23 110.979C570.762 111.632 572.288 112.291 573.807 112.955L574.007 112.497C575.528 113.162 577.043 113.832 578.551 114.508L578.347 114.964C579.868 115.646 581.382 116.333 582.89 117.025L583.099 116.571C584.617 117.268 586.129 117.971 587.635 118.68L587.422 119.132C588.925 119.84 590.423 120.553 591.913 121.272L592.13 120.822C593.624 121.542 595.112 122.268 596.592 123L596.371 123.448C597.871 124.189 599.365 124.936 600.851 125.688L601.077 125.242C602.565 125.995 604.045 126.753 605.519 127.517L605.289 127.961C606.76 128.724 608.225 129.492 609.682 130.266L609.916 129.824C611.392 130.607 612.86 131.396 614.32 132.19L614.081 132.629C615.548 133.426 617.007 134.229 618.458 135.037L618.701 134.6C620.154 135.409 621.599 136.223 623.035 137.043L622.788 137.477C624.231 138.3 625.666 139.128 627.093 139.961L627.345 139.529C628.791 140.374 630.229 141.224 631.659 142.079L631.402 142.508C632.831 143.362 634.25 144.221 635.662 145.086L635.923 144.659C637.336 145.525 638.74 146.395 640.136 147.271L639.87 147.694C641.29 148.585 642.7 149.481 644.102 150.381L644.372 149.961C645.776 150.863 647.171 151.77 648.557 152.683L648.282 153.1C649.667 154.012 651.042 154.928 652.408 155.849L652.687 155.435C654.074 156.37 655.451 157.31 656.819 158.255L656.535 158.667C657.908 159.616 659.272 160.57 660.626 161.53L660.915 161.122C662.271 162.082 663.617 163.047 664.953 164.017L664.659 164.422C666.007 165.401 667.346 166.385 668.674 167.374L668.973 166.973C670.315 167.973 671.647 168.977 672.969 169.987L672.666 170.384C673.986 171.392 675.295 172.405 676.594 173.423L676.903 173.029C678.214 174.056 679.514 175.088 680.804 176.125L680.491 176.515C681.795 177.563 683.088 178.616 684.37 179.674L684.688 179.289C685.972 180.348 687.244 181.412 688.505 182.481L688.182 182.862C689.449 183.937 690.706 185.016 691.951 186.1L692.279 185.723C693.543 186.824 694.796 187.93 696.036 189.04L695.703 189.412C696.941 190.521 698.168 191.634 699.382 192.752L699.721 192.384C700.946 193.512 702.158 194.643 703.358 195.779L703.014 196.142C704.23 197.294 705.433 198.45 706.622 199.61L706.972 199.252C708.163 200.414 709.342 201.581 710.508 202.751L710.153 203.104C711.327 204.283 712.487 205.466 713.634 206.654L713.994 206.306C715.158 207.512 716.309 208.722 717.445 209.937L717.08 210.279C718.215 211.491 719.336 212.708 720.443 213.929L720.813 213.593C721.934 214.83 723.041 216.071 724.133 217.316L723.757 217.645C724.859 218.902 725.947 220.163 727.019 221.429L727.401 221.105C728.475 222.372 729.534 223.644 730.578 224.919L730.191 225.236C731.25 226.529 732.292 227.826 733.319 229.127L733.712 228.817C734.748 230.129 735.768 231.445 736.771 232.766L736.373 233.068C737.375 234.386 738.361 235.707 739.33 237.032L739.733 236.737C740.725 238.093 741.7 239.453 742.657 240.816L742.248 241.104C743.205 242.466 744.144 243.832 745.066 245.202L745.481 244.923C746.41 246.303 747.321 247.687 748.215 249.074L747.794 249.344C748.701 250.752 749.589 252.163 750.458 253.577L750.884 253.315C751.755 254.732 752.608 256.152 753.441 257.576L753.01 257.829C753.853 259.268 754.677 260.711 755.481 262.157L755.918 261.914C756.73 263.375 757.523 264.839 758.296 266.306L757.853 266.539C758.625 268.005 759.376 269.473 760.107 270.943L760.555 270.721C761.302 272.224 762.028 273.73 762.733 275.239L762.28 275.451C762.983 276.956 763.665 278.464 764.325 279.974L764.783 279.773C765.452 281.303 766.099 282.835 766.723 284.369L766.26 284.558C766.888 286.102 767.494 287.648 768.077 289.197L768.545 289.021C769.13 290.575 769.692 292.131 770.231 293.69L769.758 293.853C770.305 295.432 770.827 297.014 771.325 298.597L771.802 298.447C772.302 300.034 772.778 301.623 773.229 303.214L772.748 303.35C773.202 304.952 773.631 306.554 774.035 308.158L774.52 308.036C774.928 309.653 775.31 311.272 775.667 312.892L775.179 312.999C775.535 314.619 775.866 316.239 776.171 317.86L776.663 317.768C776.971 319.409 777.253 321.051 777.509 322.693L777.015 322.77C777.269 324.407 777.498 326.045 777.699 327.683L778.195 327.622C778.398 329.277 778.574 330.932 778.722 332.588L778.224 332.633C778.372 334.284 778.492 335.936 778.585 337.588L779.084 337.56C779.177 339.221 779.242 340.881 779.279 342.541L778.779 342.552C778.815 344.21 778.824 345.867 778.803 347.523L779.303 347.529C779.283 349.191 779.234 350.852 779.156 352.513L778.657 352.489C778.579 354.142 778.473 355.795 778.338 357.446L778.836 357.487C778.7 359.144 778.535 360.8 778.341 362.455L777.845 362.396C777.652 364.036 777.431 365.675 777.18 367.312L777.675 367.388Z" stroke="#E41E0A" stroke-dasharray="5 5"/>
</svg>
