<svg width="1897" height="1265" viewBox="0 0 1897 1265" fill="none"
  xmlns="http://www.w3.org/2000/svg">
  <path d="M789.975 520.404C789.534 522.001 789.069 523.594 788.581 525.185L788.103 525.038C787.86 525.831 787.611 526.623 787.356 527.414C787.101 528.205 786.84 528.993 786.575 529.779L787.049 529.939C786.516 531.515 785.963 533.08 785.389 534.634L784.919 534.461C784.347 536.011 783.754 537.55 783.14 539.078L783.604 539.265C782.984 540.808 782.344 542.339 781.683 543.86L781.224 543.661C780.565 545.179 779.884 546.686 779.184 548.181L779.637 548.393C778.934 549.895 778.21 551.385 777.466 552.863L777.02 552.639C776.276 554.118 775.512 555.585 774.728 557.041L775.169 557.278C774.383 558.738 773.577 560.187 772.751 561.624L772.318 561.375C771.494 562.808 770.651 564.23 769.789 565.64L770.215 565.901C769.35 567.315 768.466 568.717 767.562 570.108L767.143 569.836C766.242 571.223 765.322 572.598 764.383 573.961L764.795 574.245C763.856 575.608 762.898 576.959 761.922 578.298L761.518 578.004C760.545 579.34 759.553 580.664 758.543 581.976L758.939 582.281C757.928 583.593 756.9 584.894 755.853 586.183L755.465 585.868C754.425 587.148 753.367 588.417 752.292 589.674L752.672 589.999C751.594 591.26 750.498 592.508 749.385 593.745L749.013 593.41C747.91 594.635 746.791 595.849 745.654 597.05L746.017 597.394C744.88 598.596 743.726 599.786 742.555 600.965L742.201 600.612C741.035 601.786 739.852 602.949 738.653 604.099L738.999 604.46C737.809 605.602 736.603 606.732 735.381 607.851L735.044 607.482C733.825 608.598 732.59 609.702 731.34 610.795L731.669 611.171C730.423 612.26 729.161 613.337 727.885 614.403L727.564 614.019C726.3 615.075 725.021 616.118 723.727 617.15L724.039 617.541C722.743 618.576 721.431 619.599 720.106 620.61L719.803 620.212C718.493 621.211 717.169 622.198 715.832 623.174L716.127 623.578C714.792 624.552 713.444 625.514 712.082 626.465L711.795 626.055C710.436 627.004 709.063 627.941 707.677 628.867L707.955 629.283C706.586 630.197 705.204 631.1 703.81 631.992L703.54 631.571C702.15 632.46 700.746 633.338 699.331 634.205L699.592 634.631C698.176 635.498 696.748 636.353 695.308 637.197L695.055 636.765C693.638 637.596 692.209 638.415 690.768 639.223L691.012 639.659C689.569 640.469 688.113 641.268 686.646 642.056L686.41 641.615C684.952 642.398 683.484 643.169 682.004 643.929L682.232 644.374C680.767 645.127 679.291 645.868 677.805 646.599L677.584 646.15C676.1 646.88 674.605 647.599 673.1 648.307L673.313 648.759C671.815 649.463 670.306 650.157 668.787 650.839L668.582 650.383C667.082 651.058 665.572 651.721 664.052 652.375L664.249 652.834C662.726 653.488 661.194 654.132 659.651 654.764L659.461 654.302C657.933 654.929 656.396 655.545 654.848 656.151L655.031 656.617C653.496 657.217 651.952 657.808 650.4 658.388L650.225 657.92C648.674 658.499 647.115 659.067 645.547 659.625L645.714 660.096C644.156 660.651 642.588 661.196 641.012 661.73L640.851 661.256C639.293 661.784 637.726 662.302 636.151 662.81L636.305 663.286C634.727 663.794 633.141 664.292 631.548 664.78L631.401 664.302C629.82 664.786 628.231 665.26 626.635 665.723L626.774 666.203C625.192 666.663 623.602 667.112 622.005 667.551L621.872 667.069C620.277 667.508 618.675 667.937 617.065 668.355L617.191 668.839C615.586 669.256 613.974 669.664 612.355 670.061L612.236 669.575C610.639 669.967 609.035 670.349 607.424 670.721L607.537 671.208C605.924 671.581 604.304 671.944 602.678 672.297L602.572 671.808C600.951 672.16 599.323 672.502 597.688 672.835L597.788 673.325C596.176 673.652 594.557 673.97 592.932 674.279L592.839 673.788C591.216 674.096 589.587 674.395 587.952 674.683L588.039 675.176C586.402 675.465 584.758 675.745 583.109 676.014L583.029 675.521C581.406 675.787 579.777 676.043 578.143 676.29L578.218 676.784C576.584 677.031 574.945 677.268 573.3 677.495L573.232 677C571.589 677.228 569.941 677.446 568.287 677.654L568.35 678.15C566.711 678.357 565.067 678.554 563.418 678.742L563.362 678.245C561.724 678.432 560.082 678.61 558.434 678.778L558.485 679.275C556.836 679.443 555.181 679.602 553.522 679.752L553.477 679.254C551.828 679.403 550.174 679.543 548.516 679.673L548.555 680.172C546.913 680.301 545.265 680.421 543.614 680.532L543.58 680.033C541.931 680.144 540.276 680.245 538.618 680.338L538.646 680.837C536.986 680.93 535.321 681.014 533.652 681.088L533.63 680.589C531.987 680.662 530.339 680.726 528.688 680.782L528.705 681.281C527.053 681.337 525.398 681.383 523.738 681.421L523.727 680.921C522.07 680.959 520.408 680.987 518.743 681.007L518.749 681.507C517.095 681.526 515.437 681.537 513.775 681.538L513.775 681.038C512.127 681.04 510.476 681.033 508.821 681.017L508.816 681.517C507.16 681.501 505.5 681.476 503.836 681.443L503.847 680.943C502.186 680.91 500.522 680.867 498.856 680.816L498.84 681.316C497.194 681.265 495.545 681.206 493.893 681.139L493.914 680.639C492.264 680.571 490.61 680.495 488.954 680.41L488.929 680.909C487.271 680.824 485.61 680.731 483.947 680.628L483.978 680.129C482.328 680.027 480.675 679.917 479.02 679.798L478.984 680.297C477.338 680.179 475.69 680.052 474.039 679.917L474.08 679.419C472.431 679.284 470.779 679.14 469.125 678.988L469.079 679.486C467.423 679.334 465.765 679.173 464.105 679.004L464.155 678.506C462.518 678.339 460.878 678.164 459.235 677.98L459.18 678.477C457.537 678.293 455.892 678.101 454.246 677.9L454.306 677.404C452.661 677.203 451.014 676.995 449.365 676.777L449.299 677.273C447.656 677.056 446.01 676.831 444.362 676.598L444.432 676.103C442.801 675.872 441.168 675.633 439.533 675.385L439.458 675.879C437.822 675.631 436.184 675.375 434.544 675.111L434.623 674.617C432.985 674.353 431.345 674.081 429.704 673.8L429.62 674.293C427.99 674.014 426.36 673.727 424.727 673.432L424.816 672.94C423.193 672.646 421.568 672.345 419.942 672.035L419.848 672.526C418.221 672.216 416.592 671.898 414.962 671.571L415.06 671.081C413.431 670.755 411.801 670.42 410.17 670.078L410.067 670.567C408.454 670.228 406.839 669.881 405.223 669.526L405.331 669.037C403.718 668.683 402.104 668.321 400.489 667.95L400.377 668.437C398.761 668.066 397.143 667.687 395.525 667.3L395.642 666.814C394.028 666.428 392.414 666.034 390.799 665.632L390.678 666.117C389.078 665.719 387.477 665.313 385.876 664.898L386.001 664.414C384.401 664.001 382.8 663.579 381.199 663.149L381.069 663.632C379.467 663.202 377.863 662.764 376.259 662.317L376.393 661.836C374.798 661.392 373.202 660.94 371.605 660.48L371.467 660.961C369.881 660.504 368.295 660.04 366.709 659.568L366.851 659.088C365.267 658.617 363.681 658.137 362.096 657.649L361.949 658.127C360.362 657.639 358.775 657.143 357.187 656.64L357.339 656.163C356.546 655.911 355.753 655.658 354.959 655.402C354.167 655.147 353.375 654.889 352.584 654.631L352.429 655.106C350.846 654.588 349.268 654.063 347.695 653.533L347.855 653.059C346.283 652.529 344.716 651.993 343.154 651.45L342.99 651.922C341.426 651.379 339.867 650.83 338.314 650.275L338.482 649.804C336.917 649.245 335.358 648.68 333.804 648.108L333.631 648.577C332.068 648.003 330.511 647.422 328.959 646.835L329.136 646.368C327.585 645.781 326.039 645.189 324.498 644.591L324.317 645.057C322.775 644.458 321.239 643.853 319.707 643.242L319.892 642.777C318.347 642.161 316.806 641.538 315.271 640.909L315.082 641.371C313.542 640.741 312.008 640.104 310.479 639.461L310.673 639C309.145 638.358 307.624 637.71 306.107 637.055L305.909 637.515C304.39 636.859 302.877 636.198 301.369 635.531L301.571 635.074C300.047 634.399 298.529 633.719 297.016 633.032L296.81 633.488C295.296 632.801 293.787 632.108 292.285 631.409L292.496 630.956C290.995 630.258 289.5 629.554 288.01 628.844L287.795 629.295C286.298 628.582 284.807 627.862 283.321 627.137L283.541 626.688C282.044 625.957 280.554 625.221 279.07 624.479L278.846 624.926C277.361 624.183 275.881 623.434 274.408 622.68L274.636 622.235C273.164 621.481 271.699 620.721 270.239 619.956L270.007 620.399C268.534 619.626 267.066 618.848 265.605 618.064L265.842 617.623C264.376 616.837 262.917 616.044 261.465 615.246L261.224 615.685C259.77 614.886 258.322 614.081 256.882 613.271L257.127 612.836C255.686 612.026 254.252 611.21 252.825 610.39L252.576 610.823C251.129 609.991 249.689 609.153 248.256 608.31L248.51 607.879C247.078 607.036 245.654 606.188 244.236 605.335L243.978 605.763C242.559 604.909 241.147 604.049 239.742 603.184L240.004 602.758C238.591 601.888 237.185 601.012 235.787 600.131L235.52 600.554C234.11 599.666 232.707 598.772 231.312 597.873L231.583 597.453C230.189 596.555 228.802 595.651 227.423 594.742L227.148 595.16C225.767 594.25 224.394 593.335 223.028 592.415L223.308 592C221.925 591.069 220.55 590.131 219.182 589.189L218.898 589.601C217.529 588.657 216.167 587.707 214.813 586.753L215.101 586.344C213.748 585.391 212.404 584.432 211.067 583.468L210.775 583.874C209.427 582.902 208.087 581.925 206.756 580.944L207.052 580.541C205.712 579.553 204.38 578.56 203.057 577.561L202.755 577.96C201.43 576.961 200.114 575.956 198.805 574.947L199.111 574.551C197.803 573.542 196.503 572.527 195.212 571.508L194.902 571.901C193.591 570.866 192.288 569.826 190.995 568.781L191.309 568.392C190.017 567.348 188.733 566.3 187.459 565.246L187.14 565.632C185.864 564.577 184.597 563.518 183.339 562.454L183.662 562.072C182.392 560.998 181.131 559.918 179.879 558.835L179.552 559.213C178.293 558.122 177.043 557.027 175.802 555.927L176.134 555.553C174.895 554.454 173.665 553.351 172.445 552.243L172.109 552.614C170.88 551.498 169.661 550.378 168.451 549.253L168.791 548.887C167.571 547.752 166.36 546.613 165.16 545.469L164.815 545.831C163.613 544.685 162.421 543.536 161.239 542.381L161.588 542.024C160.405 540.869 159.233 539.71 158.071 538.547L157.717 538.9C156.536 537.718 155.365 536.531 154.205 535.341L154.563 534.992C153.405 533.802 152.257 532.609 151.119 531.411L150.757 531.755C149.618 530.556 148.49 529.352 147.372 528.145L147.739 527.805C146.606 526.581 145.485 525.353 144.374 524.12L144.003 524.455C142.889 523.219 141.786 521.978 140.694 520.734L141.07 520.404C139.98 519.161 138.901 517.914 137.833 516.664L137.453 516.988C136.371 515.72 135.3 514.448 134.241 513.173L134.626 512.853C133.563 511.573 132.513 510.29 131.474 509.002L131.085 509.316C130.045 508.026 129.017 506.733 128.001 505.437L128.394 505.128C127.369 503.819 126.356 502.507 125.355 501.191L124.957 501.493C123.948 500.167 122.952 498.836 121.968 497.502L122.371 497.206C121.388 495.874 120.419 494.539 119.462 493.2L119.056 493.491C118.088 492.137 117.133 490.779 116.192 489.419L116.603 489.134C115.656 487.765 114.722 486.393 113.802 485.017L113.386 485.295C112.465 483.918 111.556 482.537 110.661 481.153L111.081 480.882C110.179 479.486 109.291 478.088 108.417 476.687L107.992 476.951C107.11 475.537 106.241 474.12 105.387 472.699L105.816 472.442C104.963 471.024 104.125 469.603 103.301 468.179L102.868 468.43C102.034 466.989 101.214 465.545 100.409 464.099L100.846 463.855C100.038 462.402 99.2439 460.945 98.4653 459.486L98.0242 459.722C97.2442 458.26 96.4793 456.796 95.7296 455.33L96.1748 455.103C95.4174 453.621 94.6756 452.137 93.9496 450.651L93.5003 450.871C92.7694 449.374 92.0543 447.876 91.3553 446.376L91.8085 446.164C91.1108 444.667 90.429 443.167 89.7634 441.665L89.3063 441.868C88.6299 440.342 87.9702 438.814 87.3271 437.284L87.7881 437.09C87.1449 435.56 86.5184 434.027 85.9089 432.494L85.4442 432.678C84.8329 431.14 84.2386 429.6 83.6614 428.058L84.1297 427.883C83.5451 426.322 82.9781 424.759 82.4289 423.195L81.9571 423.361C81.4068 421.794 80.8741 420.225 80.3593 418.655L80.8344 418.499C80.3186 416.926 79.8207 415.352 79.341 413.776L78.8627 413.922C78.377 412.327 77.9099 410.731 77.4615 409.134L77.9428 408.999C77.4954 407.405 77.0666 405.811 76.6566 404.216L76.1724 404.341C75.7584 402.73 75.3635 401.119 74.9879 399.507L75.4749 399.394C75.0981 397.777 74.7407 396.16 74.4029 394.542L73.9135 394.644C73.5749 393.023 73.2559 391.401 72.9567 389.779L73.4484 389.688C73.147 388.054 72.8657 386.42 72.6046 384.786L72.1109 384.864C71.8489 383.224 71.6072 381.584 71.3861 379.944L71.8816 379.877C71.6606 378.238 71.4601 376.599 71.2804 374.961L70.7834 375.015C70.6019 373.362 70.4415 371.708 70.3023 370.056L70.8006 370.014C70.6617 368.365 70.5441 366.717 70.4477 365.07L69.9485 365.1C69.8516 363.442 69.7761 361.786 69.7223 360.13L70.222 360.114C70.1683 358.459 70.1362 356.805 70.1261 355.152L69.6261 355.155C69.6159 353.498 69.6277 351.842 69.6616 350.187L70.1615 350.197C70.1954 348.542 70.2515 346.888 70.33 345.236L69.8305 345.213C69.9092 343.556 70.0103 341.901 70.134 340.248L70.6326 340.285C70.756 338.637 70.9019 336.991 71.0704 335.346L70.573 335.295C70.742 333.647 70.9338 332 71.1484 330.356L71.6442 330.42C71.8583 328.781 72.0952 327.143 72.3551 325.509L71.8613 325.43C72.1211 323.796 72.404 322.164 72.7099 320.534L73.2013 320.626C73.506 319.003 73.8338 317.383 74.1847 315.765L73.6961 315.659C74.0476 314.039 74.4223 312.421 74.8203 310.807L75.3057 310.927C75.7 309.328 76.1172 307.732 76.5575 306.139L76.0756 306.006C76.5171 304.409 76.9819 302.815 77.4699 301.225L77.9479 301.372C78.1913 300.579 78.4404 299.787 78.6954 298.996C78.9503 298.205 79.2105 297.417 79.476 296.631L79.0023 296.471C79.5347 294.895 80.0882 293.33 80.6624 291.775L81.1315 291.949C81.7041 290.399 82.2974 288.86 82.9111 287.331L82.4471 287.145C83.0667 285.602 83.7071 284.07 84.368 282.55L84.8266 282.749C85.4863 281.231 86.1666 279.724 86.8671 278.229L86.4143 278.016C87.1175 276.515 87.841 275.025 88.5846 273.546L89.0313 273.771C89.775 272.292 90.5388 270.825 91.3226 269.369L90.8823 269.132C91.6682 267.672 92.4742 266.223 93.2998 264.786L93.7333 265.035C94.5567 263.602 95.3998 262.18 96.2623 260.77L95.8357 260.509C96.7006 259.095 97.585 257.692 98.4886 256.302L98.9078 256.574C99.8089 255.187 100.729 253.812 101.668 252.448L101.256 252.165C102.195 250.802 103.153 249.451 104.129 248.111L104.533 248.406C105.506 247.07 106.498 245.746 107.508 244.434L107.112 244.129C108.123 242.816 109.151 241.516 110.198 240.227L110.586 240.542C111.626 239.261 112.684 237.993 113.759 236.735L113.379 236.41C114.457 235.15 115.553 233.902 116.666 232.665L117.038 232.999C118.141 231.774 119.26 230.561 120.397 229.36L120.034 229.016C121.171 227.814 122.325 226.623 123.495 225.445L123.85 225.797C125.016 224.623 126.199 223.461 127.398 222.31L127.052 221.95C128.242 220.808 129.448 219.677 130.67 218.559L131.007 218.928C132.226 217.812 133.461 216.708 134.711 215.615L134.382 215.239C135.628 214.15 136.89 213.072 138.166 212.007L138.486 212.391C139.751 211.335 141.03 210.291 142.324 209.259L142.012 208.868C143.308 207.834 144.62 206.811 145.945 205.8L146.248 206.197C147.558 205.199 148.882 204.211 150.219 203.236L149.924 202.832C151.259 201.858 152.607 200.895 153.969 199.945L154.256 200.355C155.615 199.406 156.988 198.468 158.374 197.542L158.096 197.127C159.465 196.212 160.847 195.309 162.241 194.418L162.511 194.839C163.901 193.95 165.304 193.072 166.72 192.205L166.459 191.778C167.875 190.912 169.303 190.057 170.743 189.213L170.996 189.645C172.413 188.814 173.842 187.995 175.283 187.186L175.039 186.75C176.482 185.94 177.938 185.142 179.405 184.354L179.641 184.795C181.099 184.012 182.567 183.241 184.047 182.48L183.819 182.036C185.284 181.283 186.76 180.541 188.246 179.811L188.467 180.259C189.951 179.53 191.446 178.811 192.951 178.103L192.738 177.651C194.236 176.946 195.745 176.253 197.264 175.57L197.469 176.026C198.969 175.352 200.479 174.688 201.999 174.035L201.802 173.576C203.325 172.922 204.857 172.278 206.4 171.645L206.59 172.108C208.118 171.481 209.655 170.865 211.203 170.259L211.02 169.793C212.555 169.192 214.099 168.602 215.651 168.022L215.826 168.49C217.377 167.911 218.936 167.343 220.504 166.784L220.337 166.313C221.895 165.758 223.463 165.214 225.039 164.68L225.2 165.154C226.758 164.626 228.325 164.108 229.9 163.6L229.746 163.124C231.324 162.616 232.91 162.118 234.503 161.63L234.65 162.108C236.231 161.624 237.82 161.15 239.416 160.687L239.277 160.206C240.859 159.747 242.449 159.298 244.046 158.858L244.179 159.341C245.774 158.902 247.376 158.473 248.986 158.055L248.86 157.571C250.465 157.153 252.077 156.746 253.696 156.349L253.815 156.835C255.412 156.443 257.016 156.061 258.627 155.689L258.514 155.201C260.127 154.829 261.747 154.466 263.373 154.113L263.479 154.601C265.1 154.249 266.728 153.907 268.363 153.575L268.263 153.085C269.875 152.757 271.494 152.439 273.119 152.131L273.212 152.622C274.835 152.314 276.464 152.015 278.099 151.726L278.012 151.234C279.649 150.945 281.292 150.665 282.942 150.395L283.022 150.889C284.645 150.623 286.274 150.367 287.908 150.12L287.833 149.626C289.467 149.379 291.106 149.142 292.751 148.914L292.819 149.41C294.462 149.182 296.11 148.964 297.764 148.756L297.701 148.26C299.34 148.053 300.984 147.856 302.633 147.668L302.689 148.164C304.327 147.978 305.969 147.8 307.617 147.632L307.566 147.135C309.215 146.966 310.87 146.807 312.529 146.658L312.574 147.155C314.223 147.007 315.876 146.867 317.535 146.737L317.496 146.238C319.138 146.109 320.786 145.989 322.437 145.878L322.471 146.377C324.12 146.266 325.775 146.164 327.433 146.072L327.405 145.572C329.065 145.48 330.73 145.396 332.399 145.322L332.421 145.821C334.064 145.748 335.712 145.684 337.363 145.628L337.346 145.128C338.998 145.073 340.653 145.026 342.312 144.989L342.324 145.489C343.981 145.451 345.643 145.423 347.308 145.403L347.302 144.903C348.956 144.884 350.614 144.873 352.276 144.871L352.276 145.371C353.924 145.37 355.575 145.377 357.23 145.393L357.235 144.893C358.891 144.909 360.551 144.933 362.215 144.967L362.204 145.467C363.865 145.5 365.529 145.542 367.195 145.594L367.211 145.094C368.857 145.144 370.506 145.203 372.158 145.271L372.137 145.771C373.787 145.838 375.441 145.915 377.097 146L377.122 145.5C378.78 145.585 380.441 145.679 382.104 145.782L382.073 146.281C383.723 146.382 385.376 146.493 387.031 146.611L387.067 146.113C388.713 146.231 390.361 146.357 392.012 146.493L391.971 146.991C393.62 147.126 395.272 147.269 396.926 147.421L396.972 146.924C398.628 147.076 400.286 147.237 401.946 147.406L401.896 147.903C403.533 148.07 405.173 148.246 406.816 148.43L406.871 147.933C408.514 148.117 410.159 148.309 411.805 148.51L411.745 149.006C413.39 149.206 415.037 149.415 416.686 149.633L416.752 149.137C418.395 149.353 420.041 149.578 421.689 149.812L421.619 150.307C423.25 150.538 424.883 150.777 426.518 151.025L426.593 150.53C428.229 150.778 429.867 151.034 431.507 151.299L431.428 151.792C433.066 152.057 434.706 152.329 436.347 152.61L436.431 152.117C438.061 152.396 439.691 152.683 441.324 152.978L441.235 153.47C442.858 153.763 444.483 154.065 446.109 154.375L446.203 153.884C447.83 154.194 449.459 154.512 451.089 154.839L450.991 155.329C452.62 155.655 454.25 155.99 455.881 156.332L455.984 155.843C457.597 156.182 459.212 156.529 460.828 156.884L460.72 157.372C462.333 157.727 463.947 158.089 465.562 158.46L465.674 157.972C467.29 158.343 468.908 158.722 470.526 159.109L470.409 159.596C472.023 159.982 473.637 160.376 475.252 160.778L475.373 160.292C476.973 160.691 478.574 161.097 480.175 161.511L480.05 161.995C481.65 162.409 483.251 162.831 484.852 163.261L484.982 162.778C486.584 163.208 488.188 163.646 489.792 164.092L489.658 164.574C491.253 165.018 492.849 165.47 494.446 165.929L494.584 165.449C496.17 165.905 497.756 166.37 499.342 166.842L499.199 167.321C500.784 167.793 502.37 168.273 503.955 168.76L504.102 168.282C505.689 168.77 507.276 169.266 508.864 169.77L508.712 170.247C509.505 170.498 510.298 170.752 511.092 171.008C511.884 171.263 512.676 171.52 513.466 171.779L513.622 171.304C515.205 171.822 516.783 172.346 518.356 172.877L518.196 173.351C519.768 173.881 521.335 174.417 522.897 174.96L523.061 174.487C524.625 175.03 526.184 175.58 527.737 176.135L527.569 176.606C529.134 177.165 530.693 177.73 532.247 178.302L532.42 177.832C533.982 178.407 535.54 178.988 537.092 179.574L536.915 180.042C538.466 180.628 540.012 181.221 541.553 181.819L541.734 181.353C543.276 181.952 544.812 182.557 546.344 183.168L546.159 183.632C547.704 184.249 549.245 184.872 550.78 185.501L550.969 185.038C552.509 185.669 554.043 186.306 555.572 186.949L555.378 187.41C556.905 188.052 558.427 188.7 559.944 189.354L560.142 188.895C561.661 189.551 563.174 190.212 564.682 190.879L564.48 191.336C566.004 192.011 567.522 192.691 569.035 193.377L569.241 192.922C570.755 193.609 572.264 194.302 573.766 195L573.555 195.454C575.056 196.152 576.551 196.856 578.041 197.566L578.256 197.114C579.753 197.828 581.244 198.547 582.73 199.273L582.51 199.722C584.007 200.452 585.497 201.189 586.981 201.931L587.205 201.484C588.69 202.227 590.17 202.976 591.643 203.73L591.415 204.175C592.887 204.929 594.352 205.688 595.811 206.453L596.044 206.011C597.517 206.783 598.985 207.562 600.446 208.346L600.209 208.786C601.675 209.573 603.134 210.365 604.586 211.163L604.827 210.725C606.281 211.524 607.729 212.328 609.169 213.138L608.924 213.574C610.365 214.384 611.798 215.199 613.226 216.02L613.475 215.587C614.922 216.419 616.362 217.257 617.795 218.1L617.541 218.531C618.973 219.373 620.397 220.222 621.815 221.075L622.073 220.647C623.492 221.501 624.904 222.361 626.309 223.226L626.047 223.652C627.46 224.522 628.866 225.398 630.264 226.279L630.531 225.856C631.941 226.744 633.344 227.637 634.739 228.537L634.468 228.957C635.862 229.855 637.249 230.759 638.628 231.667L638.903 231.25C640.284 232.159 641.657 233.074 643.023 233.995L642.743 234.409C644.126 235.341 645.501 236.278 646.869 237.221L647.153 236.809C648.522 237.753 649.884 238.703 651.238 239.657L650.95 240.066C652.303 241.019 653.647 241.978 654.984 242.941L655.276 242.536C656.624 243.507 657.964 244.484 659.295 245.466L658.999 245.869C660.339 246.857 661.671 247.85 662.994 248.849L663.296 248.449C664.621 249.449 665.937 250.454 667.246 251.463L666.94 251.859C668.248 252.868 669.548 253.882 670.839 254.902L671.149 254.509C672.46 255.544 673.763 256.584 675.056 257.629L674.742 258.018C676.034 259.061 677.318 260.11 678.592 261.163L678.911 260.778C680.186 261.833 681.453 262.892 682.712 263.956L682.389 264.338C683.659 265.412 684.92 266.491 686.172 267.575L686.499 267.197C687.758 268.288 689.008 269.383 690.249 270.483L689.917 270.857C691.156 271.955 692.386 273.059 693.606 274.166L693.942 273.796C695.171 274.912 696.39 276.032 697.6 277.157L697.259 277.523C698.48 278.658 699.691 279.797 700.891 280.941L701.236 280.579C702.438 281.724 703.63 282.874 704.812 284.028L704.463 284.386C705.646 285.541 706.818 286.7 707.98 287.863L708.334 287.51C709.515 288.692 710.686 289.878 711.846 291.069L711.488 291.418C712.646 292.607 713.794 293.801 714.932 294.999L715.294 294.655C716.433 295.854 717.561 297.058 718.679 298.265L718.312 298.605C719.445 299.829 720.566 301.057 721.677 302.29L722.048 301.955C723.162 303.191 724.265 304.432 725.357 305.676L724.981 306.006C726.071 307.249 727.15 308.496 728.218 309.746L728.598 309.422C729.68 310.689 730.751 311.961 731.81 313.237L731.425 313.556C732.488 314.836 733.538 316.12 734.577 317.408L734.966 317.094C736.006 318.383 737.034 319.676 738.05 320.973L737.657 321.282C738.682 322.59 739.695 323.903 740.696 325.219L741.094 324.916C742.103 326.243 743.099 327.573 744.083 328.907L743.68 329.204C744.663 330.536 745.632 331.871 746.589 333.21L746.995 332.919C747.963 334.273 748.918 335.631 749.859 336.991L749.448 337.276C750.395 338.645 751.329 340.017 752.249 341.392L752.665 341.114C753.586 342.492 754.495 343.873 755.39 345.257L754.97 345.528C755.872 346.923 756.76 348.322 757.634 349.723L758.059 349.458C758.941 350.873 759.81 352.29 760.664 353.71L760.235 353.968C761.088 355.386 761.926 356.807 762.75 358.23L763.183 357.98C764.017 359.421 764.837 360.865 765.641 362.311L765.205 362.554C766.013 364.008 766.807 365.464 767.586 366.923L768.027 366.688C768.807 368.149 769.572 369.613 770.321 371.08L769.876 371.307C770.634 372.789 771.375 374.273 772.101 375.759L772.551 375.539C773.282 377.035 773.997 378.534 774.696 380.034L774.242 380.245C774.94 381.743 775.622 383.243 776.288 384.745L776.745 384.542C777.421 386.068 778.081 387.596 778.724 389.126L778.263 389.32C778.906 390.85 779.533 392.382 780.142 393.916L780.607 393.732C781.218 395.27 781.812 396.81 782.39 398.351L781.921 398.527C782.506 400.088 783.073 401.65 783.622 403.214L784.094 403.049C784.644 404.616 785.177 406.185 785.692 407.755L785.217 407.91C785.732 409.484 786.23 411.058 786.71 412.634L787.188 412.488C787.674 414.083 788.141 415.679 788.59 417.276L788.108 417.411C788.556 419.004 788.984 420.599 789.394 422.194L789.879 422.069C790.293 423.68 790.687 425.291 791.063 426.903L790.576 427.016C790.953 428.633 791.31 430.25 791.648 431.868L792.138 431.766C792.476 433.387 792.795 435.009 793.094 436.631L792.603 436.722C792.904 438.356 793.185 439.99 793.446 441.624L793.94 441.545C794.202 443.185 794.444 444.826 794.665 446.465L794.169 446.532C794.39 448.171 794.591 449.81 794.771 451.449L795.268 451.394C795.449 453.048 795.609 454.701 795.749 456.354L795.25 456.396C795.389 458.045 795.507 459.692 795.603 461.339L796.102 461.31C796.199 462.968 796.275 464.624 796.329 466.279L795.829 466.296C795.883 467.951 795.915 469.605 795.925 471.258L796.425 471.255C796.435 472.912 796.423 474.568 796.389 476.223L795.889 476.212C795.856 477.868 795.799 479.521 795.721 481.173L796.22 481.197C796.142 482.854 796.041 484.509 795.917 486.162L795.418 486.124C795.295 487.773 795.149 489.419 794.981 491.063L795.478 491.114C795.309 492.763 795.117 494.41 794.903 496.054L794.407 495.989C794.193 497.629 793.956 499.266 793.696 500.901L794.19 500.98C793.93 502.614 793.647 504.246 793.341 505.876L792.85 505.783C792.545 507.406 792.217 509.027 791.866 510.645L792.355 510.75C792.003 512.371 791.629 513.988 791.231 515.603L790.745 515.483C790.351 517.082 789.934 518.678 789.493 520.27L789.975 520.404Z" stroke="#E41E0A" stroke-dasharray="5 5"/>
  <path d="M1791.76 286.236C1792.38 287.774 1792.98 289.323 1793.55 290.885L1793.08 291.057C1793.37 291.835 1793.65 292.616 1793.92 293.4C1794.19 294.184 1794.46 294.969 1794.72 295.755L1795.2 295.598C1795.72 297.177 1796.22 298.762 1796.69 300.353L1796.21 300.494C1796.68 302.08 1797.12 303.671 1797.54 305.268L1798.02 305.142C1798.44 306.745 1798.83 308.353 1799.2 309.967L1798.71 310.078C1799.08 311.69 1799.42 313.307 1799.73 314.93L1800.22 314.835C1800.54 316.463 1800.83 318.096 1801.09 319.734L1800.6 319.813C1800.86 321.446 1801.1 323.083 1801.31 324.726L1801.8 324.662C1802.02 326.3 1802.2 327.943 1802.36 329.591L1801.87 329.639C1802.03 331.282 1802.16 332.93 1802.27 334.582L1802.77 334.548C1802.88 336.205 1802.97 337.867 1803.03 339.533L1802.53 339.552C1802.59 341.194 1802.63 342.84 1802.64 344.49L1803.14 344.486C1803.16 346.138 1803.14 347.794 1803.11 349.454L1802.61 349.443C1802.58 351.098 1802.52 352.757 1802.44 354.42L1802.93 354.445C1802.85 356.094 1802.75 357.746 1802.62 359.402L1802.12 359.363C1802 361 1801.85 362.641 1801.68 364.285L1802.18 364.336C1802.01 365.985 1801.81 367.637 1801.6 369.292L1801.1 369.227C1800.89 370.868 1800.65 372.513 1800.39 374.161L1800.89 374.238C1800.63 375.857 1800.36 377.48 1800.07 379.105L1799.57 379.016C1799.28 380.637 1798.96 382.262 1798.63 383.889L1799.12 383.99C1798.78 385.621 1798.42 387.255 1798.05 388.891L1797.56 388.778C1797.19 390.373 1796.8 391.97 1796.39 393.57L1796.88 393.693C1796.47 395.287 1796.05 396.883 1795.6 398.481L1795.12 398.347C1794.68 399.942 1794.22 401.539 1793.73 403.138L1794.21 403.282C1793.73 404.871 1793.24 406.462 1792.72 408.055L1792.24 407.901C1791.74 409.454 1791.22 411.008 1790.68 412.565L1791.16 412.728C1790.62 414.287 1790.06 415.849 1789.48 417.412L1789.01 417.239C1788.44 418.799 1787.85 420.36 1787.24 421.923L1787.71 422.105C1787.11 423.638 1786.5 425.173 1785.87 426.709L1785.4 426.52C1784.78 428.034 1784.14 429.549 1783.49 431.066L1783.95 431.264C1783.29 432.783 1782.62 434.304 1781.94 435.825L1781.48 435.62C1780.79 437.139 1780.09 438.659 1779.38 440.18L1779.83 440.394C1779.13 441.873 1778.42 443.354 1777.69 444.835L1777.24 444.615C1776.52 446.086 1775.78 447.559 1775.03 449.032L1775.47 449.26C1774.72 450.735 1773.95 452.211 1773.17 453.689L1772.72 453.454C1771.94 454.929 1771.15 456.405 1770.33 457.881L1770.77 458.122C1769.99 459.552 1769.19 460.983 1768.37 462.414L1767.94 462.167C1767.13 463.594 1766.31 465.021 1765.47 466.449L1765.9 466.702C1765.06 468.132 1764.21 469.562 1763.34 470.992L1762.92 470.733C1762.05 472.162 1761.18 473.591 1760.29 475.02L1760.71 475.285C1759.85 476.671 1758.97 478.058 1758.08 479.446L1757.66 479.176C1756.77 480.557 1755.88 481.938 1754.97 483.32L1755.39 483.595C1754.48 484.978 1753.55 486.361 1752.62 487.745L1752.2 487.465C1751.27 488.846 1750.32 490.228 1749.37 491.609L1749.78 491.894C1748.84 493.244 1747.89 494.594 1746.94 495.943L1746.53 495.653C1745.58 496.989 1744.62 498.324 1743.65 499.66L1744.05 499.954C1743.08 501.29 1742.1 502.627 1741.1 503.963L1740.7 503.665C1739.71 504.999 1738.7 506.334 1737.69 507.668L1738.09 507.971C1737.08 509.289 1736.07 510.607 1735.05 511.925L1734.65 511.618C1733.65 512.908 1732.63 514.199 1731.61 515.488L1732 515.799C1730.98 517.09 1729.94 518.381 1728.9 519.671L1728.51 519.356C1727.46 520.645 1726.41 521.933 1725.35 523.221L1725.73 523.54C1724.67 524.829 1723.59 526.117 1722.5 527.405L1722.12 527.083C1721.07 528.332 1720.01 529.581 1718.94 530.829L1719.31 531.155C1718.24 532.401 1717.16 533.647 1716.08 534.892L1715.7 534.563C1714.61 535.807 1713.51 537.05 1712.41 538.293L1712.78 538.625C1711.67 539.869 1710.56 541.112 1709.43 542.355L1709.06 542.019C1707.95 543.248 1706.82 544.477 1705.69 545.705L1706.06 546.044C1704.95 547.247 1703.83 548.45 1702.7 549.651L1702.34 549.309C1701.21 550.51 1700.08 551.71 1698.94 552.909L1699.3 553.254C1698.16 554.454 1697 555.653 1695.84 556.851L1695.48 556.503C1694.32 557.701 1693.16 558.897 1691.98 560.092L1692.34 560.443C1691.18 561.62 1690.01 562.796 1688.84 563.971L1688.48 563.618C1687.32 564.777 1686.16 565.935 1684.98 567.092L1685.33 567.448C1684.16 568.606 1682.98 569.762 1681.79 570.918L1681.44 570.559C1680.25 571.714 1679.05 572.868 1677.84 574.021L1678.19 574.382C1676.98 575.536 1675.77 576.688 1674.55 577.84L1674.21 577.476C1673.01 578.606 1671.8 579.734 1670.59 580.862L1670.93 581.228C1669.73 582.346 1668.52 583.462 1667.3 584.577L1666.96 584.208C1665.75 585.322 1664.52 586.436 1663.29 587.548L1663.63 587.918C1662.4 589.031 1661.16 590.143 1659.91 591.253L1659.58 590.88C1659.08 591.323 1658.58 591.767 1658.08 592.21C1657.33 592.875 1656.58 593.54 1655.82 594.204L1656.15 594.58C1654.91 595.67 1653.67 596.758 1652.41 597.846L1652.09 597.468C1650.85 598.543 1649.6 599.617 1648.35 600.69L1648.68 601.07C1647.42 602.143 1646.16 603.215 1644.9 604.286L1644.57 603.905C1643.31 604.975 1642.03 606.044 1640.76 607.111L1641.08 607.495C1639.8 608.563 1638.51 609.63 1637.22 610.695L1636.9 610.309C1635.62 611.362 1634.34 612.414 1633.05 613.464L1633.36 613.852C1632.09 614.888 1630.81 615.923 1629.53 616.956L1629.21 616.566C1628.69 616.985 1628.17 617.403 1627.65 617.821C1626.88 618.435 1626.11 619.047 1625.34 619.659L1625.65 620.051C1624.35 621.081 1623.05 622.11 1621.74 623.137L1621.43 622.744C1620.12 623.771 1618.81 624.796 1617.49 625.82L1617.8 626.215C1616.48 627.236 1615.15 628.256 1613.82 629.274L1613.52 628.877C1612.22 629.874 1610.91 630.868 1609.6 631.862L1609.9 632.261C1608.59 633.255 1607.27 634.247 1605.95 635.238L1605.65 634.838C1604.32 635.828 1602.99 636.817 1601.66 637.804L1601.96 638.206C1600.62 639.194 1599.28 640.18 1597.93 641.165L1597.64 640.761C1596.29 641.745 1594.94 642.728 1593.58 643.709L1593.88 644.114C1592.54 645.08 1591.2 646.045 1589.85 647.008L1589.56 646.601C1588.22 647.556 1586.88 648.51 1585.53 649.463L1585.82 649.871C1584.47 650.824 1583.12 651.775 1581.76 652.725L1581.47 652.315C1580.11 653.264 1578.75 654.211 1577.38 655.157L1577.67 655.568C1576.3 656.514 1574.92 657.459 1573.54 658.402L1573.26 657.989C1572.6 658.441 1571.94 658.892 1571.28 659.343C1570.56 659.83 1569.84 660.317 1569.12 660.803L1569.4 661.217C1568.04 662.137 1566.68 663.054 1565.31 663.97L1565.03 663.554C1563.66 664.47 1562.29 665.384 1560.91 666.295L1561.18 666.712C1559.8 667.625 1558.42 668.536 1557.03 669.445L1556.76 669.026C1555.37 669.935 1553.97 670.841 1552.58 671.746L1552.85 672.166C1551.45 673.071 1550.05 673.975 1548.64 674.877L1548.37 674.456C1546.97 675.349 1545.57 676.241 1544.17 677.13L1544.44 677.553C1543.05 678.433 1541.65 679.311 1540.26 680.187L1539.99 679.764C1538.59 680.64 1537.19 681.514 1535.78 682.386L1536.05 682.811C1534.64 683.684 1533.23 684.555 1531.81 685.424L1531.55 684.998C1530.14 685.866 1528.72 686.733 1527.29 687.598L1527.55 688.025C1526.13 688.891 1524.7 689.754 1523.27 690.616L1523.01 690.187C1521.59 691.038 1520.17 691.887 1518.75 692.734L1519 693.164C1517.59 694.005 1516.17 694.844 1514.75 695.682L1514.49 695.251C1513.07 696.088 1511.64 696.924 1510.21 697.757L1510.46 698.189C1509.03 699.023 1507.6 699.855 1506.16 700.685L1505.91 700.252C1504.47 701.081 1503.03 701.909 1501.58 702.735L1501.83 703.169C1500.38 703.995 1498.93 704.819 1497.47 705.641L1497.22 705.206C1495.79 706.017 1494.35 706.826 1492.9 707.634L1493.15 708.07C1491.71 708.873 1490.27 709.675 1488.82 710.474L1488.58 710.037C1487.13 710.836 1485.68 711.633 1484.23 712.428L1484.47 712.867C1483.02 713.662 1481.56 714.456 1480.1 715.248L1479.86 714.808C1478.4 715.599 1476.94 716.388 1475.47 717.175L1475.71 717.616C1474.24 718.404 1472.76 719.189 1471.29 719.972L1471.05 719.531C1470.56 719.795 1470.06 720.059 1469.56 720.323C1468.6 720.832 1467.63 721.339 1466.67 721.846L1466.9 722.289C1465.44 723.055 1463.98 723.819 1462.51 724.581L1462.28 724.137C1461.77 724.403 1461.26 724.668 1460.75 724.933C1459.79 725.428 1458.84 725.923 1457.88 726.416L1458.1 726.861C1456.63 727.619 1455.15 728.375 1453.67 729.128L1453.45 728.683C1451.97 729.436 1450.48 730.188 1449 730.937L1449.22 731.383C1447.74 732.133 1446.24 732.88 1444.75 733.626L1444.53 733.178C1443.05 733.916 1441.56 734.653 1440.08 735.387L1440.3 735.835C1438.82 736.564 1437.34 737.292 1435.85 738.017L1435.63 737.567C1434.15 738.292 1432.66 739.015 1431.17 739.735L1431.39 740.185C1429.9 740.906 1428.41 741.625 1426.91 742.341L1426.69 741.89C1425.2 742.606 1423.7 743.32 1422.19 744.032L1422.41 744.484C1420.9 745.196 1419.39 745.906 1417.88 746.614L1417.67 746.161C1416.17 746.865 1414.66 747.567 1413.15 748.267L1413.36 748.72C1411.87 749.413 1410.37 750.104 1408.87 750.792L1408.66 750.338C1407.16 751.026 1405.66 751.712 1404.15 752.396L1404.36 752.851C1402.85 753.536 1401.34 754.218 1399.83 754.897L1399.62 754.441C1398.11 755.121 1396.59 755.798 1395.08 756.473L1395.28 756.93C1393.76 757.605 1392.24 758.278 1390.71 758.949L1390.51 758.491C1388.99 759.162 1387.46 759.83 1385.93 760.496L1386.13 760.954C1384.62 761.611 1383.1 762.266 1381.59 762.918L1381.39 762.459C1379.87 763.111 1378.36 763.761 1376.83 764.409L1377.03 764.869C1375.51 765.517 1373.98 766.162 1372.46 766.806L1372.26 766.345C1370.73 766.988 1369.2 767.629 1367.67 768.267L1367.86 768.729C1366.33 769.368 1364.79 770.004 1363.26 770.639L1363.06 770.176C1361.53 770.81 1359.99 771.442 1358.44 772.071L1358.63 772.534C1357.1 773.159 1355.56 773.781 1354.02 774.401L1353.84 773.938C1352.31 774.554 1350.77 775.168 1349.24 775.78L1349.43 776.244C1347.89 776.856 1346.35 777.466 1344.81 778.074L1344.63 777.608C1343.09 778.216 1341.55 778.82 1340 779.423L1340.18 779.889C1338.64 780.492 1337.09 781.092 1335.53 781.69L1335.36 781.223C1333.8 781.821 1332.25 782.417 1330.69 783.01L1330.87 783.477C1329.32 784.069 1327.76 784.66 1326.2 785.248L1326.02 784.78C1324.48 785.361 1322.94 785.939 1321.39 786.515L1321.56 786.984C1320.02 787.56 1318.47 788.134 1316.91 788.706L1316.74 788.237C1315.19 788.808 1313.63 789.377 1312.08 789.944L1312.25 790.414C1310.69 790.981 1309.13 791.545 1307.57 792.107L1307.4 791.637C1305.84 792.199 1304.27 792.758 1302.7 793.315L1302.87 793.786C1301.3 794.344 1299.73 794.898 1298.16 795.451L1298 794.979C1297.66 795.097 1297.33 795.214 1296.99 795.332C1296.54 795.49 1296.09 795.648 1295.64 795.805C1294.85 796.08 1294.06 796.354 1293.28 796.627L1293.44 797.099C1291.87 797.646 1290.29 798.188 1288.72 798.728L1288.55 798.255C1286.98 798.794 1285.41 799.33 1283.84 799.863L1284 800.336C1282.42 800.869 1280.85 801.398 1279.28 801.924L1279.12 801.45C1277.55 801.975 1275.98 802.497 1274.41 803.016L1274.56 803.491C1272.99 804.01 1271.42 804.525 1269.85 805.037L1269.7 804.562C1268.13 805.074 1266.56 805.582 1264.99 806.087L1265.14 806.563C1263.56 807.074 1261.97 807.582 1260.38 808.086L1260.23 807.609C1258.65 808.113 1257.06 808.614 1255.47 809.112L1255.62 809.589C1254.04 810.086 1252.45 810.58 1250.86 811.071L1250.72 810.593C1249.13 811.083 1247.55 811.57 1245.96 812.053L1246.11 812.532C1244.53 813.015 1242.94 813.495 1241.36 813.972L1241.22 813.493C1239.63 813.969 1238.05 814.442 1236.47 814.911L1236.62 815.39C1235.03 815.862 1233.44 816.331 1231.85 816.796L1231.71 816.316C1230.11 816.785 1228.51 817.25 1226.91 817.711L1227.05 818.191C1225.45 818.653 1223.85 819.111 1222.25 819.565L1222.11 819.084C1220.52 819.538 1218.92 819.989 1217.33 820.436L1217.46 820.917C1215.86 821.364 1214.27 821.808 1212.67 822.248L1212.54 821.766C1210.95 822.206 1209.35 822.642 1207.76 823.075L1207.89 823.557C1206.3 823.99 1204.71 824.419 1203.12 824.845L1202.99 824.362C1201.38 824.794 1199.76 825.222 1198.15 825.646L1198.28 826.129C1196.67 826.554 1195.06 826.975 1193.45 827.392L1193.32 826.908C1191.71 827.325 1190.11 827.738 1188.5 828.148L1188.62 828.632C1187.02 829.042 1185.41 829.448 1183.8 829.851L1183.68 829.366C1182.08 829.768 1180.47 830.167 1178.87 830.562L1178.99 831.047C1177.39 831.442 1175.79 831.834 1174.18 832.222L1174.07 831.736C1172.45 832.127 1170.83 832.515 1169.22 832.899L1169.34 833.386C1167.71 833.772 1166.09 834.155 1164.47 834.534L1164.36 834.047C1163.46 834.257 1162.56 834.465 1161.66 834.673C1160.94 834.84 1160.22 835.006 1159.5 835.171L1159.61 835.659C1157.99 836.03 1156.38 836.397 1154.76 836.761L1154.65 836.273C1153.04 836.637 1151.42 836.997 1149.81 837.353L1149.92 837.841C1148.31 838.197 1146.69 838.55 1145.08 838.898L1144.98 838.41C1143.36 838.761 1141.74 839.108 1140.12 839.452L1140.22 839.941C1138.59 840.288 1136.96 840.63 1135.33 840.97L1135.22 840.48C1133.59 840.819 1131.97 841.154 1130.34 841.485L1130.44 841.975C1128.81 842.306 1127.18 842.634 1125.56 842.957L1125.46 842.467C1123.84 842.79 1122.22 843.11 1120.6 843.426L1120.69 843.917C1119.07 844.233 1117.45 844.545 1115.83 844.853L1115.74 844.362C1115.43 844.42 1115.12 844.479 1114.81 844.538C1113.49 844.788 1112.18 845.035 1110.86 845.279L1110.95 845.771C1109.31 846.076 1107.67 846.378 1106.03 846.676L1105.94 846.184C1104.3 846.482 1102.66 846.775 1101.03 847.065L1101.12 847.557C1099.48 847.847 1097.84 848.133 1096.21 848.415L1096.13 847.922C1094.5 848.204 1092.86 848.481 1091.24 848.755L1091.32 849.248C1089.69 849.522 1088.06 849.792 1086.44 850.058L1086.36 849.565C1084.72 849.832 1083.09 850.095 1081.46 850.355L1081.54 850.849C1079.89 851.111 1078.24 851.37 1076.59 851.625L1076.52 851.131C1074.87 851.385 1073.23 851.635 1071.58 851.882L1071.66 852.376C1070.01 852.623 1068.37 852.865 1066.73 853.103L1066.66 852.609C1065.02 852.847 1063.39 853.081 1061.75 853.311L1061.82 853.806C1060.19 854.036 1058.55 854.262 1056.92 854.484L1056.85 853.988C1055.21 854.212 1053.57 854.431 1051.93 854.646L1052 855.142C1050.34 855.36 1048.69 855.574 1047.03 855.783L1046.97 855.287C1045.32 855.496 1043.66 855.701 1042.02 855.902L1042.08 856.399C1040.43 856.6 1038.78 856.796 1037.14 856.989L1037.08 856.492C1035.43 856.685 1033.79 856.873 1032.15 857.057L1032.21 857.554C1030.57 857.738 1028.93 857.918 1027.3 858.094L1027.25 857.596C1025.59 857.774 1023.94 857.947 1022.29 858.116L1022.34 858.614C1020.68 858.784 1019.02 858.951 1017.36 859.113L1017.31 858.615C1015.66 858.777 1014 858.934 1012.35 859.087L1012.4 859.585C1010.74 859.738 1009.09 859.887 1007.44 860.031L1007.4 859.533C1005.75 859.677 1004.11 859.817 1002.47 859.953L1002.51 860.451C1000.87 860.587 999.228 860.718 997.591 860.845L997.553 860.347C995.886 860.476 994.221 860.601 992.56 860.721L992.596 861.22C990.93 861.34 989.266 861.456 987.606 861.568L987.572 861.069C985.912 861.18 984.256 861.287 982.602 861.39L982.633 861.889C980.978 861.991 979.327 862.089 977.678 862.183L977.65 861.683C976.003 861.777 974.358 861.866 972.717 861.95L972.742 862.449C971.088 862.534 969.438 862.615 967.79 862.69L967.767 862.191C966.094 862.268 964.425 862.34 962.759 862.408L962.779 862.907C961.112 862.975 959.448 863.037 957.788 863.096L957.771 862.596C956.111 862.654 954.455 862.707 952.803 862.756L952.818 863.256C951.164 863.304 949.514 863.348 947.868 863.387L947.856 862.888C946.21 862.927 944.568 862.961 942.93 862.991L942.939 863.491C941.265 863.521 939.594 863.547 937.927 863.568L937.921 863.068C936.25 863.088 934.583 863.104 932.92 863.115L932.923 863.615C931.259 863.626 929.598 863.632 927.941 863.633L927.941 863.133C926.285 863.134 924.634 863.13 922.986 863.121L922.983 863.621C921.334 863.612 919.689 863.598 918.048 863.58L918.054 863.08C916.39 863.061 914.731 863.037 913.075 863.008L913.066 863.508C911.391 863.479 909.721 863.444 908.054 863.404L908.066 862.905C906.401 862.865 904.74 862.82 903.083 862.77L903.068 863.27C901.41 863.22 899.757 863.165 898.108 863.105L898.126 862.605C896.478 862.545 894.834 862.48 893.195 862.409L893.173 862.909C891.516 862.838 889.863 862.761 888.215 862.68L888.24 862.18C886.565 862.097 884.896 862.009 883.231 861.915L883.203 862.414C881.537 862.32 879.876 862.221 878.22 862.117L878.251 861.618C876.596 861.513 874.946 861.403 873.3 861.288L873.265 861.787C871.619 861.671 869.977 861.55 868.341 861.424L868.379 860.926C866.728 860.798 865.081 860.666 863.44 860.527L863.398 861.026C861.725 860.885 860.058 860.738 858.396 860.586L858.441 860.088C856.78 859.936 855.125 859.778 853.475 859.614L853.425 860.112C851.774 859.948 850.128 859.779 848.488 859.604L848.541 859.107C846.902 858.932 845.268 858.752 843.64 858.566L843.583 859.062C841.933 858.874 840.288 858.679 838.648 858.479L838.709 857.983C837.044 857.779 835.385 857.57 833.732 857.354L833.668 857.85C832.014 857.635 830.365 857.413 828.723 857.186L828.792 856.69C827.151 856.463 825.517 856.23 823.889 855.991L823.816 856.485C822.186 856.246 820.563 856.001 818.945 855.749L819.022 855.255C817.372 854.999 815.728 854.736 814.091 854.467L814.01 854.961C812.355 854.689 810.708 854.411 809.067 854.127L809.152 853.634C807.513 853.35 805.88 853.06 804.254 852.763L804.164 853.255C802.537 852.958 800.917 852.655 799.303 852.345L799.397 851.854C797.782 851.544 796.173 851.228 794.572 850.906L794.473 851.396C792.822 851.063 791.178 850.724 789.542 850.378L789.645 849.889C788.011 849.543 786.384 849.191 784.764 848.832L784.656 849.32C783.035 848.961 781.422 848.595 779.816 848.222L779.929 847.735C778.325 847.363 776.728 846.984 775.14 846.599L775.022 847.085C773.4 846.691 771.786 846.29 770.181 845.883L770.304 845.398C768.679 844.986 767.062 844.566 765.454 844.14L765.325 844.623C763.715 844.196 762.114 843.762 760.521 843.32L760.655 842.838C759.064 842.398 757.481 841.95 755.908 841.495L755.769 841.975C754.179 841.516 752.597 841.049 751.025 840.575L751.169 840.096C749.559 839.611 747.959 839.118 746.369 838.618L746.219 839.095C744.626 838.594 743.043 838.085 741.469 837.569L741.625 837.094C740.054 836.579 738.492 836.056 736.939 835.526L736.778 835.999C735.219 835.466 733.67 834.926 732.13 834.378L732.298 833.907C730.711 833.343 729.136 832.77 727.57 832.19L727.396 832.659C725.829 832.077 724.272 831.488 722.726 830.891L722.906 830.424C721.363 829.828 719.829 829.223 718.307 828.611L718.121 829.075C716.594 828.46 715.077 827.838 713.572 827.207L713.765 826.746C712.212 826.095 710.67 825.436 709.14 824.769L708.94 825.227C707.408 824.558 705.888 823.881 704.379 823.195L704.586 822.74C703.08 822.055 701.586 821.362 700.104 820.66L699.89 821.112C698.398 820.406 696.919 819.691 695.452 818.967L695.673 818.519C694.164 817.774 692.668 817.021 691.186 816.259L690.958 816.704C689.473 815.94 688.001 815.168 686.543 814.386L686.779 813.945C685.324 813.165 683.881 812.376 682.453 811.577L682.209 812.014C680.759 811.204 679.323 810.384 677.902 809.556L678.153 809.124C676.704 808.279 675.27 807.425 673.85 806.561L673.59 806.988C672.167 806.123 670.76 805.248 669.367 804.363L669.635 803.941C668.245 803.058 666.87 802.165 665.509 801.263L665.233 801.679C663.838 800.754 662.458 799.818 661.095 798.873L661.38 798.462C660.007 797.51 658.651 796.548 657.312 795.576L657.018 795.98C655.675 795.006 654.349 794.021 653.039 793.027L653.342 792.628C652.027 791.63 650.73 790.621 649.449 789.602L649.138 789.994C647.823 788.948 646.527 787.892 645.248 786.825L645.569 786.441C644.293 785.376 643.036 784.301 641.796 783.215L641.467 783.591C640.224 782.503 639 781.403 637.794 780.293L638.132 779.925C636.905 778.796 635.697 777.655 634.508 776.504L634.16 776.863C632.962 775.702 631.782 774.529 630.622 773.345L630.98 772.995C629.823 771.815 628.686 770.623 627.569 769.42L627.202 769.76C626.072 768.543 624.962 767.315 623.873 766.075L624.248 765.745C623.149 764.494 622.071 763.232 621.013 761.958L620.629 762.278C619.568 761 618.529 759.711 617.511 758.41L617.905 758.102C616.888 756.802 615.892 755.491 614.918 754.168L614.515 754.464C613.527 753.122 612.56 751.767 611.616 750.401L612.027 750.117C611.086 748.754 610.167 747.38 609.27 745.995L608.85 746.266C607.951 744.876 607.074 743.474 606.22 742.06L606.648 741.802C605.792 740.384 604.959 738.955 604.149 737.513L603.713 737.758C602.9 736.312 602.11 734.853 601.344 733.383L601.787 733.152C601.024 731.686 600.283 730.209 599.567 728.719L599.116 728.936C598.398 727.444 597.704 725.941 597.034 724.426L597.491 724.224C596.824 722.714 596.18 721.193 595.56 719.66L595.097 719.848C594.475 718.31 593.877 716.761 593.304 715.199L593.773 715.027C593.487 714.249 593.207 713.468 592.934 712.684C592.66 711.9 592.393 711.115 592.133 710.329L591.658 710.486C591.135 708.907 590.639 707.322 590.168 705.731L590.648 705.589C590.179 704.004 589.736 702.413 589.319 700.816L588.836 700.942C588.417 699.339 588.025 697.731 587.658 696.116L588.146 696.006C587.78 694.394 587.439 692.776 587.125 691.154L586.634 691.249C586.319 689.621 586.029 687.988 585.765 686.35L586.259 686.27C585.996 684.638 585.758 683.001 585.546 681.358L585.05 681.422C584.839 679.784 584.652 678.141 584.491 676.493L584.989 676.445C584.828 674.802 584.692 673.154 584.581 671.502L584.082 671.536C583.971 669.879 583.884 668.217 583.823 666.551L584.322 666.532C584.262 664.89 584.225 663.244 584.212 661.594L583.712 661.598C583.699 659.946 583.71 658.29 583.745 656.63L584.245 656.641C584.28 654.986 584.338 653.326 584.42 651.663L583.921 651.639C584.002 649.99 584.106 648.338 584.233 646.682L584.732 646.72C584.858 645.084 585.006 643.443 585.176 641.799L584.679 641.747C584.85 640.099 585.043 638.447 585.259 636.792L585.755 636.857C585.969 635.215 586.204 633.571 586.462 631.923L585.968 631.846C586.221 630.226 586.495 628.604 586.79 626.978L587.282 627.068C587.576 625.446 587.891 623.822 588.227 622.195L587.738 622.094C588.074 620.463 588.431 618.829 588.809 617.193L589.297 617.305C589.665 615.711 590.053 614.114 590.46 612.514L589.976 612.391C590.382 610.797 590.807 609.201 591.252 607.603L591.733 607.737C592.177 606.142 592.64 604.545 593.121 602.946L592.643 602.801C593.121 601.213 593.619 599.622 594.135 598.029L594.61 598.183C595.113 596.63 595.634 595.076 596.173 593.519L595.7 593.356C596.24 591.796 596.797 590.235 597.372 588.672L597.841 588.845C598.414 587.285 599.006 585.724 599.614 584.161L599.148 583.979C599.746 582.446 600.359 580.911 600.99 579.374L601.452 579.564C602.074 578.05 602.711 576.535 603.365 575.018L602.906 574.82C603.561 573.301 604.232 571.78 604.919 570.258L605.375 570.464C606.06 568.945 606.762 567.425 607.48 565.903L607.028 565.69C607.726 564.211 608.439 562.73 609.167 561.249L609.616 561.469C610.339 559.998 611.077 558.525 611.83 557.052L611.384 556.824C612.138 555.349 612.907 553.872 613.69 552.395L614.131 552.63C614.913 551.155 615.71 549.679 616.521 548.203L616.083 547.962C616.868 546.532 617.668 545.101 618.481 543.67L618.915 543.917C619.726 542.49 620.55 541.063 621.387 539.635L620.955 539.382C621.794 537.952 622.645 536.522 623.51 535.092L623.938 535.35C624.802 533.922 625.679 532.493 626.57 531.064L626.145 530.799C627.009 529.412 627.886 528.025 628.774 526.638L629.195 526.908C630.08 525.527 630.977 524.145 631.887 522.764L631.469 522.489C632.38 521.106 633.302 519.723 634.237 518.339L634.651 518.619C635.585 517.238 636.531 515.856 637.489 514.474L637.078 514.19C638.014 512.84 638.961 511.49 639.919 510.141L640.327 510.43C641.276 509.095 642.236 507.76 643.207 506.424L642.802 506.13C643.774 504.794 644.758 503.457 645.752 502.121L646.153 502.419C647.146 501.084 648.151 499.75 649.166 498.416L648.768 498.113C649.771 496.794 650.785 495.477 651.81 494.159L652.204 494.466C653.208 493.175 654.221 491.885 655.245 490.596L654.854 490.285C655.878 488.994 656.914 487.703 657.959 486.413L658.347 486.728C659.391 485.439 660.446 484.151 661.51 482.863L661.125 482.544C662.19 481.255 663.266 479.967 664.351 478.679L664.733 479.001C665.786 477.752 666.848 476.503 667.92 475.255L667.541 474.929C668.611 473.683 669.691 472.437 670.78 471.192L671.156 471.521C672.244 470.277 673.341 469.033 674.447 467.791L674.074 467.458C675.181 466.215 676.298 464.971 677.424 463.729L677.794 464.065C678.909 462.836 680.032 461.607 681.164 460.379L680.796 460.04C681.906 458.837 683.024 457.634 684.151 456.433L684.515 456.775C685.641 455.574 686.775 454.374 687.918 453.175L687.556 452.83C688.7 451.63 689.852 450.431 691.012 449.233L691.371 449.581C692.531 448.383 693.699 447.187 694.876 445.992L694.519 445.641C695.678 444.464 696.844 443.288 698.019 442.113L698.373 442.466C699.531 441.307 700.698 440.149 701.872 438.992L701.521 438.636C702.696 437.478 703.879 436.321 705.069 435.166L705.418 435.524C706.607 434.37 707.805 433.216 709.01 432.063L708.665 431.702C709.871 430.548 711.085 429.395 712.306 428.244L712.649 428.608C713.848 427.478 715.054 426.349 716.268 425.222L715.927 424.856C717.13 423.738 718.339 422.622 719.556 421.507L719.894 421.876C721.11 420.761 722.333 419.648 723.564 418.536L723.229 418.165C724.46 417.053 725.698 415.941 726.944 414.831L727.277 415.204C728.521 414.095 729.773 412.986 731.032 411.879L730.702 411.504C731.941 410.414 733.187 409.326 734.44 408.238L734.768 408.616C736.007 407.541 737.253 406.467 738.505 405.394L738.18 405.014C739.433 403.941 740.693 402.868 741.96 401.797L742.283 402.179C743.548 401.109 744.821 400.04 746.1 398.973L745.779 398.589C747.059 397.521 748.345 396.454 749.638 395.389L749.956 395.774C751.234 394.721 752.518 393.67 753.808 392.62L753.493 392.232C754.765 391.196 756.044 390.161 757.33 389.128L757.643 389.518C758.927 388.485 760.218 387.454 761.514 386.425L761.203 386.033C762.501 385.003 763.804 383.974 765.113 382.947L765.422 383.34C766.731 382.313 768.045 381.288 769.366 380.264L769.06 379.869C770.377 378.848 771.701 377.828 773.03 376.81L773.334 377.207C774.635 376.21 775.942 375.215 777.254 374.222L776.953 373.823C778.266 372.829 779.584 371.837 780.909 370.846L781.208 371.246C782.532 370.256 783.861 369.267 785.196 368.28L784.899 367.878C786.235 366.89 787.576 365.904 788.923 364.919L789.218 365.323C790.564 364.338 791.915 363.356 793.273 362.375L792.98 361.97C794.317 361.004 795.659 360.039 797.006 359.076L797.297 359.483C798.634 358.527 799.977 357.573 801.324 356.621L801.036 356.213C802.384 355.26 803.738 354.309 805.097 353.359L805.383 353.769C806.741 352.82 808.104 351.873 809.473 350.927L809.189 350.516C810.558 349.569 811.932 348.625 813.312 347.682L813.594 348.095C814.969 347.155 816.349 346.217 817.734 345.281L817.454 344.866C818.814 343.947 820.179 343.03 821.549 342.114L821.827 342.529C823.196 341.614 824.57 340.7 825.949 339.788L825.673 339.371C827.052 338.459 828.437 337.548 829.826 336.639L830.1 337.058C831.488 336.149 832.881 335.243 834.279 334.338L834.007 333.918C835.406 333.013 836.81 332.109 838.218 331.207L838.487 331.628C839.883 330.735 841.282 329.843 842.687 328.954L842.419 328.531C843.808 327.651 845.202 326.773 846.6 325.897L846.865 326.32C848.263 325.444 849.664 324.57 851.071 323.698L850.807 323.273C852.214 322.4 853.625 321.529 855.041 320.66L855.303 321.086C856.718 320.218 858.138 319.351 859.562 318.486L859.302 318.058C860.727 317.193 862.156 316.33 863.59 315.468L863.848 315.897C865.263 315.046 866.683 314.197 868.107 313.35L867.852 312.92C869.267 312.079 870.685 311.239 872.109 310.402L872.362 310.833C873.785 309.995 875.211 309.16 876.642 308.327L876.39 307.895C877.822 307.061 879.258 306.229 880.697 305.399L880.947 305.832C882.386 305.003 883.829 304.175 885.277 303.349L885.029 302.915C886.477 302.089 887.929 301.265 889.385 300.443L889.631 300.878C891.068 300.067 892.509 299.258 893.953 298.45L893.709 298.014C895.147 297.21 896.589 296.409 898.035 295.609L898.277 296.047C899.722 295.248 901.17 294.451 902.623 293.655L902.383 293.217C903.836 292.421 905.294 291.628 906.755 290.836L906.993 291.276C908.453 290.485 909.918 289.696 911.386 288.908L911.15 288.468C912.618 287.68 914.091 286.895 915.567 286.111L915.802 286.553C917.26 285.779 918.722 285.007 920.188 284.237L919.956 283.795C921.414 283.029 922.876 282.265 924.342 281.503L924.573 281.946C926.038 281.185 927.507 280.425 928.979 279.668L928.751 279.223C930.224 278.465 931.701 277.709 933.181 276.955L933.408 277.401C934.887 276.648 936.371 275.896 937.857 275.147L937.632 274.701C939.12 273.951 940.611 273.204 942.105 272.458L942.328 272.906C943.809 272.167 945.293 271.431 946.78 270.697L946.559 270.249C948.036 269.519 949.517 268.792 951.001 268.067L951.221 268.517C952.704 267.792 954.191 267.069 955.681 266.349L955.464 265.899C956.955 265.178 958.449 264.459 959.947 263.743L960.162 264.194C961.659 263.478 963.16 262.764 964.663 262.052L964.449 261.6C965.953 260.888 967.461 260.178 968.972 259.47L969.184 259.923C970.687 259.219 972.193 258.517 973.702 257.817L973.492 257.363C974.986 256.671 976.484 255.98 977.985 255.291L978.193 255.746C979.693 255.058 981.197 254.372 982.703 253.688L982.496 253.232C984.003 252.548 985.514 251.866 987.027 251.187L987.232 251.643C988.744 250.963 990.26 250.286 991.779 249.611L991.576 249.154C993.096 248.479 994.618 247.806 996.144 247.135L996.345 247.593C997.87 246.922 999.398 246.254 1000.93 245.588L1000.73 245.129C1002.24 244.473 1003.75 243.818 1005.27 243.166L1005.47 243.625C1006.98 242.973 1008.5 242.323 1010.02 241.675L1009.83 241.215C1011.35 240.567 1012.87 239.922 1014.4 239.278L1014.59 239.739C1016.12 239.096 1017.65 238.455 1019.18 237.816L1018.99 237.355C1020.52 236.716 1022.06 236.079 1023.6 235.445L1023.79 235.907C1025.33 235.274 1026.87 234.642 1028.41 234.012L1028.23 233.549C1029.76 232.925 1031.29 232.302 1032.83 231.682L1033.02 232.146C1034.55 231.53 1036.08 230.916 1037.61 230.304L1037.43 229.839C1038.97 229.227 1040.5 228.618 1042.04 228.01L1042.23 228.475C1043.77 227.868 1045.31 227.263 1046.86 226.661L1046.67 226.195C1048.22 225.592 1049.77 224.992 1051.32 224.394L1051.5 224.86C1053.05 224.263 1054.6 223.667 1056.16 223.074L1055.98 222.607C1057.54 222.014 1059.1 221.424 1060.66 220.836L1060.83 221.304C1062.37 220.723 1063.92 220.145 1065.47 219.569L1065.29 219.1C1066.84 218.524 1068.39 217.95 1069.94 217.378L1070.11 217.847C1071.67 217.276 1073.22 216.707 1074.78 216.14L1074.61 215.67C1076.16 215.103 1077.72 214.539 1079.29 213.977L1079.46 214.447C1081.02 213.885 1082.58 213.326 1084.15 212.769L1083.98 212.298C1085.55 211.74 1087.12 211.186 1088.69 210.633L1088.86 211.105C1089.65 210.829 1090.43 210.553 1091.22 210.279C1092.01 210.004 1092.79 209.73 1093.58 209.457L1093.42 208.985C1094.99 208.438 1096.56 207.895 1098.14 207.356L1098.3 207.829C1099.87 207.289 1101.45 206.754 1103.02 206.221L1102.86 205.748C1104.43 205.215 1106 204.686 1107.58 204.16L1107.73 204.634C1109.31 204.108 1110.88 203.586 1112.45 203.068L1112.29 202.593C1113.86 202.074 1115.43 201.559 1117 201.047L1117.16 201.522C1118.73 201.01 1120.3 200.502 1121.86 199.997L1121.71 199.521C1123.3 199.01 1124.89 198.502 1126.47 197.998L1126.62 198.475C1128.21 197.97 1129.8 197.47 1131.38 196.972L1131.23 196.495C1132.82 195.998 1134.41 195.504 1135.99 195.013L1136.14 195.491C1137.72 195.001 1139.31 194.514 1140.89 194.03L1140.74 193.552C1142.33 193.069 1143.91 192.589 1145.49 192.112L1145.64 192.591C1147.22 192.115 1148.8 191.642 1150.38 191.173L1150.24 190.693C1151.83 190.221 1153.42 189.753 1155.01 189.288L1155.15 189.768C1156.75 189.299 1158.35 188.834 1159.95 188.373L1159.81 187.893C1161.41 187.431 1163.01 186.973 1164.6 186.519L1164.74 187C1166.34 186.546 1167.93 186.095 1169.53 185.648L1169.4 185.167C1170.99 184.719 1172.59 184.276 1174.18 183.836L1174.31 184.318C1175.91 183.878 1177.5 183.442 1179.09 183.009L1178.96 182.527C1180.55 182.094 1182.15 181.665 1183.74 181.239L1183.87 181.722C1185.48 181.29 1187.09 180.862 1188.7 180.438L1188.57 179.954C1190.19 179.53 1191.8 179.109 1193.41 178.692L1193.53 179.176C1195.14 178.759 1196.75 178.346 1198.36 177.936L1198.23 177.452C1199.84 177.042 1201.45 176.636 1203.05 176.233L1203.17 176.718C1204.78 176.316 1206.38 175.917 1207.98 175.522L1207.86 175.037C1209.47 174.642 1211.07 174.25 1212.67 173.862L1212.79 174.348C1214.4 173.957 1216.02 173.569 1217.63 173.184L1217.52 172.698C1219.14 172.312 1220.76 171.929 1222.38 171.55L1222.5 172.037C1224.12 171.659 1225.74 171.284 1227.35 170.913L1227.24 170.425C1228.86 170.054 1230.48 169.687 1232.09 169.323L1232.2 169.811C1233.82 169.447 1235.43 169.087 1237.04 168.731L1236.94 168.243C1238.55 167.887 1240.16 167.534 1241.77 167.185L1241.88 167.674C1243.5 167.323 1245.12 166.976 1246.74 166.632L1246.63 166.143C1248.27 165.796 1249.9 165.453 1251.53 165.114L1251.63 165.604C1253.26 165.265 1254.89 164.93 1256.52 164.599L1256.42 164.109C1258.04 163.778 1259.67 163.45 1261.29 163.126L1261.39 163.617C1263.02 163.293 1264.64 162.974 1266.26 162.658L1266.16 162.167C1267.79 161.851 1269.41 161.539 1271.02 161.231L1271.12 161.722C1272.74 161.412 1274.37 161.107 1275.99 160.805L1275.9 160.313C1277.54 160.007 1279.19 159.706 1280.83 159.408L1280.91 159.9C1282.55 159.602 1284.19 159.309 1285.83 159.019L1285.74 158.527C1287.38 158.237 1289.01 157.951 1290.64 157.669L1290.73 158.162C1292.36 157.88 1293.99 157.602 1295.62 157.329L1295.54 156.836C1297.16 156.562 1298.79 156.292 1300.42 156.026L1300.5 156.519C1302.13 156.252 1303.76 155.988 1305.39 155.729L1305.31 155.235C1306.97 154.972 1308.61 154.714 1310.26 154.459L1310.34 154.953C1311.99 154.699 1313.63 154.448 1315.27 154.202L1315.2 153.708C1316.84 153.461 1318.48 153.219 1320.12 152.981L1320.19 153.475C1321.83 153.237 1323.47 153.003 1325.1 152.773L1325.03 152.278C1326.67 152.048 1328.3 151.822 1329.93 151.6L1330 152.095C1331.64 151.872 1333.28 151.653 1334.92 151.437L1334.86 150.942C1336.51 150.724 1338.17 150.51 1339.82 150.301L1339.89 150.797C1341.54 150.587 1343.19 150.382 1344.84 150.181L1344.78 149.685C1346.43 149.484 1348.07 149.287 1349.72 149.095L1349.78 149.591C1351.42 149.399 1353.06 149.211 1354.7 149.027L1354.64 148.53C1356.28 148.346 1357.92 148.166 1359.56 147.99L1359.61 148.487C1361.26 148.31 1362.91 148.136 1364.56 147.967L1364.51 147.47C1366.17 147.299 1367.83 147.133 1369.49 146.971L1369.54 147.469C1371.2 147.307 1372.85 147.15 1374.51 146.997L1374.46 146.499C1376.11 146.346 1377.76 146.197 1379.41 146.053L1379.45 146.551C1381.1 146.406 1382.75 146.266 1384.39 146.131L1384.35 145.633C1385.99 145.497 1387.63 145.366 1389.26 145.239L1389.3 145.737C1390.97 145.608 1392.63 145.483 1394.3 145.363L1394.26 144.864C1395.93 144.744 1397.59 144.628 1399.25 144.516L1399.28 145.015C1400.94 144.903 1402.6 144.796 1404.25 144.694L1404.22 144.195C1405.88 144.093 1407.53 143.995 1409.18 143.901L1409.2 144.4C1410.85 144.307 1412.5 144.218 1414.14 144.134L1414.11 143.635C1415.77 143.55 1417.42 143.469 1419.07 143.393L1419.09 143.893C1420.76 143.816 1422.43 143.744 1424.1 143.676L1424.08 143.177C1425.74 143.109 1427.41 143.046 1429.07 142.988L1429.08 143.488C1430.74 143.43 1432.4 143.377 1434.05 143.328L1434.04 142.828C1435.69 142.78 1437.34 142.736 1438.99 142.696L1439 143.196C1440.64 143.157 1442.29 143.123 1443.93 143.093L1443.92 142.593C1445.59 142.562 1447.26 142.537 1448.93 142.516L1448.93 143.016C1450.6 142.996 1452.27 142.98 1453.94 142.969L1453.93 142.469C1455.6 142.458 1457.26 142.452 1458.91 142.451L1458.91 142.951C1460.57 142.95 1462.22 142.954 1463.87 142.963L1463.87 142.463C1465.52 142.472 1467.17 142.485 1468.81 142.504L1468.8 143.004C1470.46 143.023 1472.12 143.047 1473.78 143.076L1473.79 142.576C1475.46 142.605 1477.13 142.64 1478.8 142.679L1478.79 143.179C1480.45 143.219 1482.12 143.264 1483.77 143.314L1483.79 142.814C1485.44 142.864 1487.1 142.919 1488.75 142.979L1488.73 143.479C1490.38 143.539 1492.02 143.604 1493.66 143.675L1493.68 143.175C1495.34 143.246 1496.99 143.323 1498.64 143.404L1498.62 143.904C1500.29 143.987 1501.96 144.075 1503.62 144.169L1503.65 143.67C1505.32 143.763 1506.98 143.863 1508.64 143.967L1508.6 144.466C1510.26 144.571 1511.91 144.681 1513.55 144.796L1513.59 144.297C1515.24 144.413 1516.88 144.533 1518.51 144.66L1518.48 145.158C1520.13 145.285 1521.77 145.418 1523.42 145.557L1523.46 145.058C1525.13 145.199 1526.8 145.346 1528.46 145.498L1528.41 145.996C1530.07 146.148 1531.73 146.306 1533.38 146.469L1533.43 145.972C1535.08 146.135 1536.73 146.305 1538.37 146.48L1538.31 146.977C1539.95 147.152 1541.59 147.332 1543.21 147.518L1543.27 147.021C1544.92 147.21 1546.57 147.405 1548.21 147.605L1548.15 148.101C1549.81 148.305 1551.47 148.514 1553.12 148.729L1553.19 148.234C1554.84 148.449 1556.49 148.671 1558.13 148.898L1558.06 149.393C1559.7 149.621 1561.34 149.854 1562.97 150.093L1563.04 149.598C1564.67 149.838 1566.29 150.083 1567.91 150.335L1567.83 150.829C1569.48 151.085 1571.13 151.348 1572.76 151.617L1572.85 151.123C1574.5 151.395 1576.15 151.673 1577.79 151.957L1577.7 152.45C1579.34 152.734 1580.98 153.024 1582.6 153.321L1582.69 152.829C1584.32 153.126 1585.94 153.429 1587.55 153.739L1587.46 154.23C1589.07 154.54 1590.68 154.856 1592.28 155.178L1592.38 154.688C1594.03 155.021 1595.68 155.36 1597.31 155.706L1597.21 156.195C1598.84 156.541 1600.47 156.893 1602.09 157.252L1602.2 156.764C1603.82 157.123 1605.43 157.489 1607.04 157.861L1606.93 158.349C1608.53 158.721 1610.13 159.1 1611.72 159.485L1611.83 158.999C1613.46 159.393 1615.07 159.794 1616.67 160.201L1616.55 160.686C1618.18 161.098 1619.79 161.518 1621.4 161.944L1621.53 161.461C1623.14 161.888 1624.74 162.322 1626.33 162.764L1626.2 163.245C1627.79 163.686 1629.37 164.134 1630.95 164.589L1631.09 164.109C1632.68 164.568 1634.26 165.035 1635.83 165.509L1635.69 165.988C1637.3 166.473 1638.9 166.966 1640.49 167.466L1640.64 166.989C1642.23 167.49 1643.81 167.998 1645.39 168.514L1645.23 168.99C1646.8 169.505 1648.36 170.028 1649.92 170.558L1650.08 170.085C1651.64 170.618 1653.19 171.158 1654.72 171.706L1654.56 172.177C1656.14 172.741 1657.72 173.314 1659.28 173.894L1659.46 173.425C1661.03 174.007 1662.58 174.596 1664.13 175.193L1663.95 175.66C1665.49 176.256 1667.03 176.861 1668.55 177.473L1668.73 177.009C1670.26 177.624 1671.78 178.246 1673.28 178.876L1673.09 179.338C1674.64 179.988 1676.19 180.648 1677.72 181.315L1677.92 180.857C1679.45 181.526 1680.97 182.203 1682.48 182.889L1682.27 183.344C1683.77 184.029 1685.27 184.722 1686.75 185.424L1686.96 184.972C1688.46 185.678 1689.94 186.393 1691.4 187.117L1691.18 187.565C1692.69 188.309 1694.19 189.062 1695.67 189.825L1695.9 189.38C1697.38 190.144 1698.85 190.916 1700.31 191.698L1700.08 192.138C1701.53 192.919 1702.97 193.708 1704.4 194.506L1704.65 194.07C1706.1 194.88 1707.53 195.699 1708.95 196.528L1708.7 196.96C1710.15 197.805 1711.59 198.659 1713.01 199.523L1713.27 199.096C1714.69 199.961 1716.1 200.836 1717.49 201.721L1717.22 202.143C1718.61 203.026 1719.99 203.919 1721.35 204.821L1721.62 204.404C1723.02 205.33 1724.4 206.266 1725.76 207.211L1725.48 207.622C1726.85 208.574 1728.2 209.536 1729.54 210.508L1729.84 210.104C1731.18 211.078 1732.51 212.062 1733.82 213.057L1733.51 213.455C1734.83 214.454 1736.13 215.462 1737.41 216.481L1737.72 216.09C1739.03 217.136 1740.33 218.192 1741.61 219.259L1741.29 219.643C1742.56 220.707 1743.82 221.783 1745.06 222.869L1745.39 222.493C1746.63 223.581 1747.86 224.681 1749.06 225.791L1748.72 226.159C1749.95 227.288 1751.16 228.429 1752.35 229.58L1752.69 229.221C1753.89 230.382 1755.07 231.555 1756.23 232.739L1755.88 233.088C1757.03 234.269 1758.17 235.461 1759.29 236.664L1759.65 236.324C1760.78 237.541 1761.89 238.769 1762.98 240.009L1762.61 240.339C1763.71 241.589 1764.78 242.852 1765.84 244.126L1766.23 243.806C1767.29 245.084 1768.33 246.373 1769.34 247.674L1768.95 247.982C1769.97 249.282 1770.96 250.593 1771.94 251.916L1772.34 251.619C1773.33 252.962 1774.3 254.316 1775.24 255.683L1774.83 255.967C1775.77 257.329 1776.69 258.703 1777.59 260.089L1778 259.818C1778.9 261.208 1779.78 262.61 1780.63 264.024L1780.21 264.282C1781.06 265.7 1781.9 267.129 1782.71 268.57L1783.14 268.325C1783.96 269.772 1784.75 271.23 1785.51 272.701L1785.07 272.932C1785.83 274.398 1786.57 275.875 1787.29 277.365L1787.74 277.148C1788.46 278.639 1789.15 280.143 1789.82 281.658L1789.36 281.86C1790.03 283.37 1790.67 284.891 1791.29 286.423L1791.76 286.236Z" stroke="#E41E0A" stroke-dasharray="5 5"/>
  <path d="M1651.78 411.706C1652.42 413.251 1653.03 414.816 1653.6 416.401L1653.12 416.569C1653.41 417.357 1653.68 418.15 1653.93 418.948C1654.19 419.747 1654.44 420.547 1654.68 421.35L1655.16 421.209C1655.63 422.823 1656.06 424.446 1656.44 426.077L1655.96 426.191C1656.34 427.819 1656.67 429.455 1656.96 431.098L1657.46 431.011C1657.75 432.665 1657.99 434.326 1658.19 435.994L1657.7 436.054C1657.9 437.709 1658.05 439.371 1658.16 441.04L1658.66 441.007C1658.77 442.678 1658.84 444.356 1658.86 446.04L1658.36 446.046C1658.38 447.712 1658.36 449.384 1658.3 451.062L1658.8 451.08C1658.74 452.748 1658.64 454.422 1658.49 456.1L1657.99 456.056C1657.85 457.719 1657.66 459.387 1657.44 461.059L1657.93 461.125C1657.71 462.773 1657.45 464.425 1657.15 466.081L1656.66 465.992C1656.37 467.632 1656.03 469.275 1655.66 470.922L1656.15 471.032C1655.78 472.655 1655.38 474.281 1654.94 475.91L1654.46 475.78C1654.03 477.386 1653.56 478.994 1653.06 480.605L1653.54 480.753C1653.04 482.345 1652.51 483.938 1651.95 485.533L1651.48 485.367C1650.93 486.933 1650.34 488.5 1649.73 490.069L1650.19 490.251C1649.58 491.805 1648.94 493.36 1648.27 494.915L1647.81 494.717C1647.15 496.24 1646.46 497.763 1645.75 499.287L1646.2 499.5C1645.49 501.012 1644.75 502.524 1643.98 504.037L1643.54 503.81C1642.79 505.289 1642.01 506.768 1641.21 508.247L1641.64 508.486C1640.85 509.954 1640.02 511.421 1639.17 512.887L1638.74 512.637C1637.9 514.072 1637.05 515.507 1636.16 516.942L1636.59 517.204C1635.71 518.626 1634.82 520.047 1633.89 521.466L1633.47 521.194C1632.57 522.588 1631.64 523.981 1630.68 525.372L1631.1 525.655C1630.15 527.031 1629.19 528.405 1628.2 529.778L1627.8 529.486C1626.82 530.84 1625.83 532.193 1624.81 533.544L1625.21 533.844C1624.21 535.174 1623.19 536.502 1622.15 537.828L1621.76 537.519C1620.72 538.836 1619.67 540.15 1618.6 541.462L1618.98 541.779C1617.93 543.064 1616.86 544.346 1615.77 545.626L1615.39 545.302C1614.3 546.579 1613.2 547.854 1612.07 549.127L1612.45 549.458C1611.35 550.701 1610.23 551.942 1609.1 553.18L1608.73 552.843C1607.6 554.075 1606.46 555.305 1605.29 556.533L1605.66 556.877C1604.51 558.088 1603.34 559.296 1602.16 560.501L1601.8 560.151C1600.64 561.34 1599.46 562.526 1598.26 563.709L1598.61 564.065C1597.42 565.245 1596.21 566.422 1594.98 567.596L1594.63 567.234C1593.44 568.381 1592.22 569.525 1590.99 570.666L1591.33 571.032C1590.1 572.174 1588.86 573.313 1587.6 574.448L1587.27 574.077C1586.03 575.191 1584.78 576.302 1583.52 577.41L1583.84 577.786C1582.59 578.887 1581.32 579.984 1580.03 581.077L1579.71 580.697C1578.43 581.784 1577.14 582.868 1575.84 583.948L1576.16 584.333C1574.88 585.394 1573.58 586.451 1572.28 587.504L1571.96 587.115C1570.66 588.167 1569.34 589.215 1568.01 590.259L1568.32 590.652C1567.01 591.684 1565.68 592.711 1564.34 593.735L1564.04 593.338C1562.71 594.351 1561.38 595.36 1560.03 596.365L1560.33 596.766C1558.98 597.772 1557.62 598.774 1556.25 599.772L1555.95 599.367C1554.61 600.344 1553.25 601.317 1551.89 602.285L1552.18 602.693C1550.81 603.661 1549.43 604.626 1548.05 605.585L1547.76 605.174C1546.38 606.128 1544.99 607.078 1543.59 608.023L1543.87 608.438C1542.49 609.37 1541.1 610.297 1539.7 611.22L1539.42 610.803C1538.02 611.725 1536.61 612.643 1535.19 613.556L1535.46 613.976C1534.06 614.882 1532.64 615.783 1531.21 616.679L1530.94 616.256C1529.53 617.143 1528.11 618.025 1526.68 618.903L1526.94 619.329C1525.51 620.207 1524.07 621.081 1522.62 621.95L1522.36 621.521C1520.93 622.379 1519.49 623.232 1518.04 624.08L1518.29 624.511C1516.84 625.355 1515.39 626.195 1513.93 627.029L1513.68 626.595C1512.23 627.429 1510.76 628.257 1509.28 629.081L1509.52 629.518C1508.07 630.331 1506.6 631.139 1505.13 631.943L1504.89 631.504C1503.42 632.304 1501.94 633.099 1500.46 633.889L1500.7 634.331C1499.21 635.122 1497.72 635.908 1496.21 636.689L1495.98 636.245C1494.51 637.014 1493.02 637.777 1491.53 638.536L1491.75 638.982C1490.26 639.74 1488.76 640.493 1487.25 641.241L1487.03 640.793C1485.52 641.541 1484.01 642.283 1482.49 643.02L1482.7 643.47C1481.2 644.197 1479.69 644.919 1478.18 645.635L1477.97 645.183C1476.45 645.899 1474.93 646.609 1473.41 647.314L1473.62 647.768C1472.09 648.474 1470.55 649.174 1469.01 649.869L1468.8 649.413C1467.29 650.098 1465.76 650.777 1464.23 651.452L1464.43 651.909C1462.89 652.584 1461.35 653.253 1459.81 653.916L1459.61 653.457C1458.06 654.12 1456.51 654.777 1454.95 655.429L1455.15 655.89C1453.61 656.535 1452.06 657.174 1450.51 657.808L1450.32 657.345C1448.77 657.977 1447.21 658.604 1445.65 659.226L1445.84 659.69C1444.27 660.312 1442.71 660.928 1441.13 661.539L1440.95 661.073C1439.39 661.677 1437.83 662.275 1436.26 662.868L1436.44 663.335C1434.87 663.927 1433.3 664.513 1431.72 665.094L1431.55 664.624C1429.97 665.204 1428.39 665.779 1426.8 666.347L1426.97 666.818C1425.39 667.382 1423.81 667.941 1422.23 668.494L1422.06 668.022C1420.48 668.572 1418.9 669.117 1417.31 669.656L1417.47 670.129C1415.88 670.668 1414.28 671.202 1412.68 671.73L1412.52 671.255C1411.72 671.518 1410.92 671.78 1410.12 672.041C1409.32 672.302 1408.51 672.56 1407.71 672.817L1407.86 673.293C1406.26 673.807 1404.65 674.314 1403.05 674.812L1402.9 674.334C1401.3 674.832 1399.69 675.323 1398.09 675.805L1398.24 676.284C1396.63 676.769 1395.02 677.245 1393.41 677.715L1393.27 677.235C1391.65 677.707 1390.04 678.172 1388.42 678.629L1388.56 679.11C1386.94 679.567 1385.32 680.016 1383.71 680.458L1383.57 679.975C1381.96 680.417 1380.34 680.852 1378.72 681.278L1378.85 681.761C1377.22 682.192 1375.59 682.615 1373.96 683.03L1373.83 682.546C1372.2 682.96 1370.58 683.367 1368.95 683.765L1369.07 684.251C1367.44 684.65 1365.82 685.042 1364.19 685.425L1364.08 684.938C1362.43 685.326 1360.79 685.705 1359.15 686.077L1359.26 686.564C1357.62 686.936 1355.98 687.299 1354.34 687.654L1354.24 687.166C1352.6 687.521 1350.97 687.867 1349.33 688.206L1349.44 688.696C1347.78 689.039 1346.12 689.374 1344.47 689.701L1344.38 689.211C1342.73 689.537 1341.08 689.855 1339.44 690.165L1339.53 690.656C1337.88 690.967 1336.24 691.269 1334.59 691.562L1334.51 691.07C1332.84 691.367 1331.18 691.656 1329.52 691.937L1329.61 692.43C1327.95 692.71 1326.29 692.982 1324.64 693.246L1324.56 692.752C1322.9 693.015 1321.25 693.27 1319.6 693.517L1319.68 694.011C1318 694.261 1316.33 694.503 1314.67 694.736L1314.6 694.24C1312.93 694.473 1311.27 694.696 1309.61 694.911L1309.68 695.407C1308.01 695.623 1306.35 695.83 1304.69 696.028L1304.63 695.531C1302.96 695.732 1301.28 695.924 1299.61 696.106L1299.66 696.603C1297.99 696.786 1296.32 696.96 1294.66 697.124L1294.61 696.627C1292.94 696.792 1291.27 696.949 1289.61 697.096L1289.65 697.594C1287.97 697.743 1286.29 697.883 1284.61 698.014L1284.57 697.516C1282.9 697.646 1281.23 697.768 1279.57 697.88L1279.6 698.378C1277.92 698.492 1276.24 698.595 1274.57 698.69L1274.54 698.191C1272.86 698.286 1271.18 698.371 1269.5 698.447L1269.53 698.947C1267.85 699.023 1266.18 699.09 1264.51 699.147L1264.5 698.647C1262.81 698.705 1261.13 698.753 1259.45 698.791L1259.46 699.291C1257.77 699.329 1256.09 699.358 1254.42 699.377L1254.41 698.877C1252.74 698.895 1251.07 698.904 1249.41 698.903L1249.41 699.403C1247.71 699.402 1246.02 699.391 1244.34 699.37L1244.35 698.87C1242.66 698.848 1240.99 698.817 1239.32 698.775L1239.31 699.275C1237.63 699.232 1235.95 699.18 1234.28 699.117L1234.3 698.617C1232.61 698.553 1230.93 698.479 1229.25 698.394L1229.23 698.893C1227.55 698.808 1225.89 698.713 1224.23 698.607L1224.26 698.108C1222.57 698 1220.89 697.881 1219.22 697.751L1219.18 698.249C1217.5 698.119 1215.82 697.977 1214.16 697.825L1214.2 697.327C1212.53 697.173 1210.87 697.009 1209.21 696.833L1209.16 697.331C1207.47 697.152 1205.8 696.961 1204.13 696.76L1204.19 696.263C1202.53 696.062 1200.87 695.849 1199.23 695.625L1199.16 696.12C1197.48 695.891 1195.81 695.649 1194.15 695.396L1194.22 694.902C1192.56 694.648 1190.91 694.382 1189.26 694.105L1189.18 694.598C1187.52 694.317 1185.87 694.023 1184.22 693.718L1184.32 693.226C1182.65 692.917 1181 692.595 1179.37 692.26L1179.27 692.75C1177.62 692.414 1175.99 692.066 1174.37 691.705L1174.48 691.217C1172.82 690.848 1171.18 690.466 1169.55 690.07L1169.43 690.556C1167.8 690.16 1166.18 689.751 1164.57 689.329L1164.7 688.846C1163.06 688.415 1161.43 687.97 1159.82 687.512L1159.69 687.993C1158.06 687.532 1156.46 687.057 1154.87 686.568L1155.01 686.09C1153.4 685.594 1151.8 685.084 1150.22 684.56L1150.06 685.034C1148.45 684.503 1146.87 683.957 1145.3 683.397L1145.46 682.926C1143.87 682.36 1142.3 681.779 1140.75 681.183L1140.57 681.65C1138.99 681.044 1137.43 680.422 1135.88 679.785L1136.08 679.323C1134.52 678.681 1132.98 678.024 1131.46 677.351L1131.26 677.808C1129.71 677.121 1128.18 676.419 1126.67 675.7L1126.89 675.249C1125.37 674.525 1123.87 673.785 1122.39 673.029L1122.17 673.474C1120.66 672.701 1119.17 671.911 1117.71 671.105L1117.95 670.667C1116.47 669.855 1115.02 669.025 1113.6 668.179L1113.34 668.61C1111.88 667.745 1110.45 666.864 1109.04 665.965L1109.31 665.543C1107.89 664.636 1106.5 663.71 1105.13 662.768L1104.85 663.179C1103.46 662.219 1102.09 661.24 1100.76 660.243L1101.06 659.843C1099.7 658.834 1098.38 657.807 1097.09 656.761L1096.77 657.149C1095.46 656.089 1094.18 655.009 1092.93 653.911L1093.26 653.535C1092 652.421 1090.76 651.287 1089.56 650.134L1089.21 650.495C1088 649.331 1086.81 648.147 1085.67 646.943L1086.03 646.598C1084.87 645.377 1083.74 644.136 1082.64 642.875L1082.27 643.203C1081.16 641.93 1080.09 640.637 1079.06 639.324L1079.46 639.015C1078.42 637.695 1077.42 636.354 1076.46 634.992L1076.05 635.28C1075.08 633.904 1074.15 632.508 1073.26 631.09L1073.68 630.824C1072.79 629.409 1071.94 627.973 1071.13 626.516L1070.69 626.759C1069.88 625.291 1069.1 623.802 1068.36 622.293L1068.81 622.074C1068.08 620.573 1067.39 619.052 1066.75 617.511L1066.28 617.705C1065.64 616.16 1065.03 614.595 1064.47 613.01L1064.94 612.842C1064.66 612.054 1064.39 611.261 1064.13 610.462C1063.87 609.664 1063.62 608.863 1063.38 608.061L1062.9 608.202C1062.43 606.587 1062 604.965 1061.62 603.333L1062.11 603.219C1061.72 601.592 1061.39 599.956 1061.1 598.312L1060.61 598.399C1060.31 596.746 1060.07 595.085 1059.87 593.416L1060.36 593.356C1060.16 591.701 1060.01 590.039 1059.9 588.37L1059.4 588.403C1059.29 586.732 1059.22 585.055 1059.2 583.371L1059.7 583.364C1059.68 581.698 1059.7 580.026 1059.76 578.349L1059.26 578.33C1059.32 576.662 1059.43 574.989 1059.57 573.311L1060.07 573.354C1060.21 571.691 1060.4 570.024 1060.62 568.352L1060.13 568.285C1060.35 566.637 1060.61 564.985 1060.91 563.33L1061.4 563.419C1061.7 561.779 1062.03 560.136 1062.4 558.489L1061.91 558.379C1062.28 556.756 1062.68 555.13 1063.12 553.501L1063.6 553.631C1064.03 552.025 1064.5 550.417 1065 548.806L1064.53 548.657C1065.02 547.066 1065.55 545.473 1066.11 543.878L1066.58 544.044C1067.14 542.478 1067.72 540.911 1068.34 539.342L1067.87 539.159C1068.48 537.606 1069.12 536.051 1069.79 534.495L1070.25 534.694C1070.91 533.171 1071.6 531.647 1072.31 530.123L1071.86 529.911C1072.57 528.399 1073.31 526.886 1074.08 525.374L1074.52 525.6C1075.27 524.121 1076.05 522.642 1076.86 521.164L1076.42 520.925C1077.22 519.457 1078.04 517.99 1078.89 516.523L1079.32 516.774C1080.16 515.338 1081.01 513.903 1081.9 512.469L1081.47 512.207C1082.35 510.785 1083.25 509.364 1084.17 507.944L1084.59 508.217C1085.49 506.823 1086.42 505.43 1087.38 504.038L1086.96 503.756C1087.91 502.38 1088.87 501.006 1089.86 499.633L1090.26 499.925C1091.24 498.571 1092.23 497.218 1093.25 495.867L1092.85 495.567C1093.85 494.237 1094.87 492.909 1095.91 491.583L1096.3 491.892C1097.34 490.575 1098.39 489.261 1099.46 487.948L1099.08 487.632C1100.13 486.347 1101.2 485.065 1102.29 483.785L1102.67 484.109C1103.76 482.831 1104.86 481.556 1105.99 480.284L1105.61 479.953C1106.71 478.709 1107.83 477.468 1108.96 476.23L1109.33 476.568C1110.46 475.335 1111.6 474.105 1112.77 472.878L1112.41 472.534C1113.55 471.323 1114.72 470.115 1115.9 468.91L1116.26 469.26C1117.42 468.071 1118.6 466.884 1119.8 465.701L1119.45 465.346C1120.64 464.165 1121.86 462.989 1123.08 461.815L1123.43 462.176C1124.63 461.029 1125.84 459.885 1127.07 458.745L1126.73 458.379C1127.96 457.236 1129.2 456.098 1130.46 454.962L1130.8 455.334C1132.03 454.219 1133.28 453.108 1134.55 452.001L1134.22 451.625C1135.47 450.524 1136.74 449.427 1138.03 448.333L1138.35 448.714C1139.63 447.627 1140.92 446.543 1142.22 445.463L1141.9 445.078C1143.18 444.017 1144.48 442.96 1145.78 441.907L1146.1 442.296C1147.4 441.244 1148.72 440.196 1150.05 439.152L1149.74 438.759C1151.05 437.727 1152.38 436.699 1153.72 435.676L1154.02 436.073C1155.35 435.06 1156.68 434.051 1158.03 433.046L1157.73 432.645C1159.08 431.639 1160.44 430.637 1161.82 429.639L1162.11 430.043C1163.45 429.067 1164.81 428.094 1166.17 427.125L1165.88 426.718C1167.25 425.749 1168.63 424.785 1170.01 423.825L1170.3 424.236C1171.68 423.282 1173.07 422.333 1174.47 421.387L1174.19 420.973C1175.57 420.041 1176.96 419.113 1178.36 418.19L1178.64 418.608C1180.04 417.686 1181.45 416.768 1182.87 415.855L1182.6 415.434C1184 414.529 1185.42 413.628 1186.85 412.731L1187.12 413.155C1188.53 412.268 1189.95 411.386 1191.38 410.508L1191.12 410.082C1192.55 409.203 1193.99 408.33 1195.45 407.46L1195.7 407.889C1197.13 407.032 1198.58 406.179 1200.03 405.331L1199.77 404.899C1201.22 404.055 1202.67 403.216 1204.13 402.382L1204.38 402.816C1205.84 401.982 1207.3 401.153 1208.78 400.329L1208.54 399.893C1209.99 399.08 1211.46 398.271 1212.93 397.468L1213.17 397.907C1214.64 397.107 1216.12 396.312 1217.6 395.521L1217.37 395.08C1218.85 394.289 1220.34 393.503 1221.85 392.722L1222.08 393.166C1223.56 392.397 1225.04 391.633 1226.54 390.875L1226.31 390.429C1227.8 389.671 1229.3 388.917 1230.81 388.169L1231.03 388.617C1232.54 387.87 1234.05 387.128 1235.58 386.391L1235.36 385.941C1236.86 385.214 1238.37 384.492 1239.88 383.775L1240.1 384.227C1241.61 383.512 1243.13 382.802 1244.65 382.097L1244.44 381.643C1245.97 380.937 1247.51 380.237 1249.05 379.542L1249.26 379.998C1250.78 379.313 1252.3 378.633 1253.84 377.959L1253.63 377.501C1255.17 376.827 1256.71 376.158 1258.25 375.495L1258.45 375.954C1260 375.291 1261.55 374.633 1263.11 373.981L1262.91 373.52C1264.45 372.876 1266 372.236 1267.55 371.603L1267.74 372.066C1269.29 371.433 1270.85 370.806 1272.41 370.185L1272.22 369.72C1273.79 369.099 1275.36 368.482 1276.93 367.872L1277.11 368.338C1278.67 367.734 1280.23 367.136 1281.8 366.543L1281.62 366.075C1283.19 365.484 1284.76 364.897 1286.34 364.317L1286.51 364.786C1288.09 364.206 1289.67 363.632 1291.26 363.063L1291.09 362.593C1292.67 362.028 1294.25 361.47 1295.83 360.917L1296 361.389C1297.58 360.839 1299.16 360.294 1300.75 359.755L1300.59 359.282C1302.18 358.742 1303.78 358.209 1305.38 357.681L1305.54 358.156C1306.34 357.892 1307.14 357.63 1307.94 357.37C1308.75 357.109 1309.55 356.85 1310.35 356.593L1310.2 356.117C1311.8 355.603 1313.41 355.097 1315.01 354.599L1315.16 355.076C1316.77 354.578 1318.37 354.088 1319.97 353.606L1319.82 353.127C1321.43 352.642 1323.04 352.165 1324.65 351.696L1324.79 352.176C1326.41 351.703 1328.03 351.239 1329.64 350.782L1329.51 350.301C1331.12 349.844 1332.74 349.394 1334.36 348.953L1334.49 349.435C1336.1 348.993 1337.72 348.559 1339.34 348.133L1339.21 347.649C1340.84 347.218 1342.47 346.795 1344.1 346.38L1344.23 346.865C1345.86 346.45 1347.48 346.044 1349.11 345.645L1348.99 345.16C1350.62 344.76 1352.25 344.369 1353.87 343.986L1353.99 344.472C1355.63 344.085 1357.27 343.705 1358.91 343.334L1358.8 342.846C1360.44 342.475 1362.08 342.112 1363.72 341.757L1363.82 342.245C1365.46 341.89 1367.1 341.543 1368.73 341.205L1368.63 340.715C1370.28 340.371 1371.94 340.036 1373.59 339.709L1373.68 340.2C1375.33 339.873 1376.98 339.555 1378.63 339.246L1378.53 338.754C1380.18 338.444 1381.83 338.142 1383.47 337.849L1383.55 338.341C1385.22 338.043 1386.88 337.754 1388.54 337.474L1388.46 336.981C1390.12 336.7 1391.77 336.428 1393.43 336.165L1393.5 336.659C1395.16 336.395 1396.81 336.14 1398.46 335.894L1398.38 335.399C1400.06 335.149 1401.73 334.908 1403.4 334.675L1403.46 335.17C1405.13 334.938 1406.79 334.714 1408.45 334.499L1408.39 334.004C1410.05 333.788 1411.71 333.581 1413.37 333.383L1413.43 333.879C1415.11 333.679 1416.78 333.487 1418.45 333.304L1418.4 332.807C1420.07 332.625 1421.74 332.451 1423.4 332.286L1423.45 332.784C1425.12 332.618 1426.79 332.462 1428.45 332.315L1428.41 331.816C1430.09 331.667 1431.77 331.527 1433.45 331.396L1433.49 331.895C1435.16 331.764 1436.83 331.643 1438.49 331.531L1438.46 331.032C1440.14 330.919 1441.82 330.815 1443.49 330.721L1443.52 331.22C1445.2 331.125 1446.88 331.039 1448.56 330.963L1448.54 330.464C1450.21 330.388 1451.88 330.321 1453.55 330.264L1453.56 330.764C1455.25 330.706 1456.94 330.658 1458.61 330.62L1458.6 330.12C1460.29 330.081 1461.97 330.053 1463.64 330.034L1463.65 330.534C1465.32 330.515 1466.99 330.506 1468.65 330.507L1468.65 330.007C1470.35 330.008 1472.04 330.02 1473.72 330.041L1473.72 330.541C1475.4 330.562 1477.07 330.594 1478.74 330.636L1478.75 330.136C1480.43 330.178 1482.11 330.231 1483.78 330.294L1483.76 330.794C1485.45 330.857 1487.13 330.932 1488.81 331.017L1488.83 330.517C1490.51 330.602 1492.17 330.698 1493.83 330.804L1493.8 331.303C1495.49 331.411 1497.17 331.53 1498.85 331.66L1498.88 331.161C1500.57 331.292 1502.24 331.433 1503.9 331.586L1503.86 332.084C1505.53 332.237 1507.19 332.402 1508.85 332.577L1508.9 332.08C1510.59 332.259 1512.26 332.449 1513.93 332.651L1513.87 333.147C1515.53 333.349 1517.19 333.562 1518.83 333.786L1518.9 333.291C1520.58 333.52 1522.25 333.761 1523.91 334.014L1523.84 334.509C1525.5 334.763 1527.15 335.028 1528.8 335.306L1528.88 334.813C1530.54 335.094 1532.2 335.387 1533.84 335.693L1533.74 336.184C1535.41 336.494 1537.06 336.816 1538.7 337.15L1538.8 336.66C1540.44 336.996 1542.07 337.345 1543.69 337.706L1543.58 338.194C1545.24 338.563 1546.88 338.945 1548.51 339.34L1548.63 338.854C1550.27 339.25 1551.89 339.659 1553.49 340.081L1553.36 340.565C1555 340.996 1556.63 341.44 1558.24 341.898L1558.38 341.418C1560 341.879 1561.6 342.354 1563.19 342.842L1563.05 343.32C1564.66 343.817 1566.26 344.327 1567.85 344.851L1568 344.376C1569.61 344.908 1571.2 345.454 1572.77 346.014L1572.6 346.485C1574.19 347.051 1575.76 347.632 1577.31 348.227L1577.49 347.76C1579.07 348.367 1580.63 348.989 1582.18 349.625L1581.99 350.087C1583.54 350.729 1585.08 351.387 1586.6 352.059L1586.8 351.602C1588.35 352.289 1589.88 352.992 1591.39 353.711L1591.17 354.162C1592.69 354.886 1594.19 355.626 1595.67 356.382L1595.9 355.937C1597.4 356.71 1598.89 357.499 1600.35 358.305L1600.11 358.743C1601.59 359.556 1603.04 360.385 1604.47 361.231L1604.72 360.801C1606.18 361.665 1607.61 362.547 1609.02 363.446L1608.75 363.867C1610.17 364.775 1611.56 365.7 1612.93 366.643L1613.21 366.232C1614.6 367.192 1615.97 368.17 1617.3 369.167L1617 369.568C1618.36 370.577 1619.68 371.604 1620.97 372.65L1621.29 372.261C1622.6 373.322 1623.88 374.401 1625.13 375.5L1624.8 375.876C1626.07 376.99 1627.3 378.124 1628.5 379.277L1628.85 378.916C1630.06 380.08 1631.25 381.264 1632.39 382.467L1632.03 382.812C1633.2 384.033 1634.32 385.274 1635.42 386.535L1635.8 386.208C1636.9 387.48 1637.97 388.773 1639 390.087L1638.6 390.395C1639.64 391.716 1640.64 393.057 1641.6 394.418L1642.01 394.13C1642.98 395.506 1643.91 396.903 1644.8 398.32L1644.38 398.587C1645.27 400.002 1646.12 401.438 1646.93 402.895L1647.37 402.651C1648.19 404.119 1648.96 405.608 1649.7 407.118L1649.25 407.337C1649.98 408.837 1650.67 410.358 1651.32 411.9L1651.78 411.706Z" stroke="#E41E0A" stroke-dasharray="5 5"/>
</svg>
