<svg width="136" height="16" viewBox="0 0 136 16" fill="none" xmlns="http://www.w3.org/2000/svg">
<path d="M10.0526 7.48251C10.6041 8.02072 10.9887 8.54964 11.2153 9.0662C11.4419 9.58584 11.5522 10.1797 11.5522 10.8664C11.5522 12.1129 11.096 13.1708 10.1808 14.0338C9.96019 14.2503 9.74852 14.4235 9.54281 14.5596C9.33412 14.6926 9.09562 14.7978 8.85712 14.8751C8.61862 14.9524 8.3205 15.0081 8.02237 15.0359C7.69443 15.0669 7.33668 15.0792 6.8895 15.0792H3.312C2.80518 15.0792 2.41762 15.0328 2.14931 14.94C1.881 14.8473 1.61269 14.6307 1.37419 14.3523C1.23705 14.1977 1.12078 14.0183 1.02538 13.8265C0.929979 13.6347 0.864391 13.4553 0.816691 13.2698C0.804766 13.177 0.795823 13.0594 0.786879 12.9079C0.777935 12.7625 0.771973 12.4624 0.771973 12.0109V3.29133C0.777935 2.57991 1.01047 1.9984 1.43381 1.55917C1.881 1.10758 2.42359 0.878687 3.10331 0.878687H5.0292C5.39887 0.878687 5.70892 0.887966 5.96233 0.894152C6.20083 0.894152 6.40952 0.906525 6.6182 0.925083C6.79708 0.937456 6.94614 0.956015 7.0952 0.974574C7.24427 0.996225 7.36352 1.02097 7.51258 1.04881C8.44571 1.29007 9.21189 1.79735 9.80814 2.57063C10.3746 3.34391 10.6727 4.25329 10.6727 5.30186C10.6727 5.71325 10.622 6.06895 10.5326 6.3659C10.4431 6.66284 10.2702 7.03401 10.0258 7.47323L10.0526 7.48251ZM5.25577 6.37208H5.7924C6.10245 6.37208 6.32008 6.32568 6.44827 6.24836C6.56752 6.16793 6.62715 6.03184 6.62715 5.83078C6.62715 5.62973 6.55858 5.49054 6.42442 5.40393C6.28728 5.31732 6.06667 5.28021 5.74768 5.28021H5.27068V6.3628L5.25577 6.37208ZM5.25577 10.7025H6.01301C6.40952 10.7025 6.66888 10.6653 6.80304 10.588C6.9372 10.5107 6.99384 10.3622 6.99384 10.155C6.99384 9.93846 6.91633 9.7838 6.75534 9.69101C6.59435 9.59821 6.35585 9.5611 5.9981 9.5611H5.2826V10.7148L5.25577 10.7025ZM50.2726 2.02314C50.4515 1.65197 50.7198 1.35194 51.0776 1.11686C51.4353 0.891059 51.8229 0.767334 52.2522 0.767334C52.5205 0.767334 52.8067 0.829197 53.0959 0.937456C53.3851 1.0519 53.6236 1.20656 53.8114 1.40143C54.0081 1.60557 54.1542 1.8159 54.2586 2.0448C54.3659 2.27369 54.4494 2.57991 54.5179 2.96345L56.0682 12.1067C56.098 12.2614 56.1189 12.4068 56.1278 12.5336C56.1368 12.6604 56.1576 12.781 56.1576 12.9048C56.1576 13.2326 56.098 13.5327 55.9788 13.808C55.8655 14.0863 55.7104 14.3276 55.5107 14.5194C55.3139 14.7235 55.0784 14.8844 54.8071 15.005C54.5358 15.1256 54.2466 15.1782 53.9426 15.1782C53.3702 15.1782 52.8783 15.0143 52.4668 14.6895C52.0495 14.3616 51.811 13.9286 51.7036 13.3904L51.1849 10.7303L50.3054 13.2357C49.8582 14.5287 49.0831 15.1751 47.992 15.1751C47.4256 15.1751 46.9635 15.0205 46.5908 14.7173C46.2241 14.408 45.923 13.9224 45.6905 13.2636L44.7961 10.7272L44.4264 12.9852C44.3161 13.6657 44.0597 14.1977 43.6572 14.5936C43.2399 14.9772 42.739 15.172 42.1666 15.172C41.4809 15.172 40.9443 14.9339 40.5269 14.4606C40.0887 13.9843 39.8711 13.3718 39.8711 12.6202C39.8711 12.515 39.88 12.4191 39.886 12.3294C39.886 12.2367 39.9039 12.1439 39.9158 12.0387L41.4899 2.97583C41.6002 2.29534 41.8476 1.75404 42.2352 1.3674C42.6287 0.974574 43.1176 0.779707 43.7049 0.779707C44.1819 0.779707 44.6291 0.92199 45.0465 1.20347C45.4639 1.48185 45.771 1.86849 45.9647 2.34792L47.992 7.04948L50.2697 2.00768" fill="black"/>
<path d="M61.828 15.4327C61.1036 15.4327 60.4268 15.3399 59.8008 15.1543C59.1687 14.9749 58.6202 14.7213 58.1551 14.3934C57.69 14.0655 57.3293 13.682 57.0699 13.249C56.8314 12.8221 56.6824 12.3519 56.6824 11.8385C56.6824 11.5415 56.742 11.2632 56.8612 11.0095C56.9626 10.7528 57.0998 10.5301 57.2906 10.3383C57.4694 10.1465 57.693 9.99806 57.9464 9.88052C58.1998 9.76608 58.4711 9.7104 58.7514 9.7104C59.0197 9.7104 59.288 9.76298 59.5444 9.87124C59.7948 9.97641 60.0631 10.1496 60.3493 10.3909L60.9456 10.861C61.0946 10.9724 61.2198 11.0621 61.3152 11.1271C61.4047 11.1889 61.4941 11.2291 61.5537 11.2415C61.6253 11.257 61.7028 11.2632 61.7833 11.2632C61.9622 11.2632 62.1112 11.2075 62.2007 11.093C62.311 10.9817 62.3646 10.8301 62.3646 10.6476C62.3646 10.4064 62.2454 10.2084 62.0069 10.0506C61.9771 10.0383 61.9473 10.0197 61.9174 9.99806L61.7684 9.92383L61.5299 9.8001L61.1125 9.61451L60.5461 9.41346C60.3672 9.3516 60.1883 9.28973 59.9945 9.21241C58.009 8.48861 57.0133 7.14 57.0133 5.16967C57.0133 4.47062 57.1325 3.83962 57.383 3.27357C57.6334 2.70753 57.9733 2.2219 58.4115 1.80742C58.8497 1.39294 59.3715 1.07435 59.9916 0.848547C60.6176 0.619654 61.3033 0.508301 62.0427 0.508301C62.6568 0.508301 63.2352 0.588722 63.7628 0.755752C64.2995 0.910409 64.7616 1.13312 65.1581 1.4115C65.5576 1.68988 65.8676 2.01157 66.0942 2.38584C66.3178 2.75702 66.4281 3.1684 66.4281 3.60763C66.4281 4.17368 66.2552 4.63765 65.9272 4.99954C65.5993 5.36144 65.176 5.54394 64.6572 5.54394C64.3382 5.54394 64.0461 5.48208 63.7718 5.35835C63.5035 5.24081 63.1755 5.03357 62.788 4.73972C62.5584 4.53867 62.3706 4.40566 62.2364 4.33761C62.0963 4.26338 61.9681 4.22626 61.8489 4.22626C61.6998 4.22626 61.5686 4.27575 61.4613 4.38092C61.3629 4.48918 61.3123 4.62218 61.3123 4.77684C61.3123 4.99336 61.4017 5.16039 61.5806 5.28721C61.7714 5.41093 62.1321 5.56559 62.6657 5.75118C63.253 5.93677 63.8076 6.15329 64.3263 6.43167C64.845 6.69149 65.2624 6.96369 65.5784 7.24826C66.0018 7.61944 66.3357 8.09269 66.5831 8.68038C66.8216 9.26808 66.9468 9.90527 66.9468 10.5858C66.9468 11.2229 66.8335 11.8385 66.6099 12.4262C66.3804 13.0139 66.0644 13.5304 65.6559 13.9728C65.1879 14.4553 64.6423 14.8079 64.0222 15.0461C63.3961 15.2842 62.6657 15.4018 61.8161 15.4018L61.828 15.4327ZM69.946 5.20988C69.5465 5.20988 69.2155 5.16348 68.9472 5.05522C68.6789 4.96243 68.4494 4.80777 68.2437 4.59125C67.8263 4.12728 67.6176 3.60144 67.6176 3.04468C67.6176 2.6302 67.7309 2.24046 67.9545 1.86928C68.184 1.49811 68.4613 1.24138 68.7892 1.08363C68.9085 1.03414 69.0218 0.990831 69.1172 0.9599C69.2066 0.928968 69.3437 0.913503 69.5047 0.898037C69.6717 0.885664 69.8863 0.867105 70.1517 0.867105C70.42 0.860919 70.7777 0.854733 71.2249 0.854733H76.9191C77.0085 0.854733 77.0831 0.864012 77.1278 0.870199L77.3067 0.90113C77.8522 0.962993 78.2905 1.20116 78.6393 1.59709C78.9881 1.99301 79.152 2.47245 79.152 3.01993C79.152 3.33853 79.0805 3.63856 78.9523 3.94169C78.8182 4.23863 78.6363 4.49846 78.4038 4.7057C78.046 5.04594 77.4647 5.20988 76.6597 5.20988H75.661V12.2932C75.661 12.7138 75.6312 13.0665 75.5835 13.3294C75.5358 13.5923 75.4255 13.8552 75.2764 14.0934C75.0677 14.4336 74.8143 14.6965 74.4924 14.8821C74.1644 15.0615 73.8067 15.1543 73.4191 15.1543C73.0315 15.1543 72.6738 15.0708 72.3548 14.9007C72.0358 14.7337 71.7585 14.4924 71.5499 14.18C71.4008 13.9387 71.2994 13.6913 71.2517 13.4376C71.1921 13.1809 71.1623 12.8097 71.1623 12.3241V5.24081H69.9519L69.946 5.20988ZM82.4672 13.2057C82.1691 13.9047 81.8471 14.4058 81.4834 14.7089C81.1256 15.0182 80.6665 15.1667 80.121 15.1667C79.802 15.1667 79.5098 15.1048 79.2355 14.9873C78.9583 14.8636 78.7287 14.6996 78.52 14.4862C78.3262 14.2697 78.1623 14.0222 78.052 13.7439C77.9327 13.4562 77.8791 13.1562 77.8791 12.8252C77.8791 12.4447 77.9685 12.021 78.1623 11.6096L82.4553 2.17551C82.6401 1.74247 82.9203 1.39603 83.29 1.14549C83.6597 0.898037 84.0651 0.774311 84.5213 0.774311C84.9864 0.774311 85.4008 0.898037 85.7734 1.14549C86.1401 1.40841 86.4293 1.75793 86.632 2.21262L90.9339 11.7519C91.1128 12.0983 91.2023 12.4757 91.2023 12.8716C91.2023 13.1995 91.1426 13.4995 91.0115 13.7779C90.8922 14.0563 90.7282 14.3037 90.5225 14.5141C90.3138 14.7306 90.0753 14.8976 89.807 15.0182C89.5387 15.1389 89.2406 15.1976 88.9216 15.1976C88.3969 15.1976 87.9676 15.0554 87.6158 14.7646C87.264 14.4738 86.9391 13.9604 86.6231 13.2428H82.4493L82.4672 13.2057ZM102.045 11.3869C102.194 11.6281 102.304 11.8818 102.373 12.1416C102.442 12.4107 102.474 12.6613 102.474 12.9025C102.474 13.2273 102.415 13.5304 102.31 13.8057C102.191 14.0841 102.012 14.3254 101.81 14.5295C101.601 14.7337 101.362 14.9007 101.094 15.0244C100.817 15.1481 100.528 15.1976 100.209 15.1976C99.3828 15.1976 98.7627 14.8357 98.3364 14.115L96.4731 10.8982V12.8345C96.4731 13.1747 96.4135 13.484 96.3002 13.7717C96.1809 14.0501 96.017 14.2975 95.8232 14.5141C95.6205 14.7306 95.3879 14.8945 95.1226 15.009C94.8543 15.1327 94.5681 15.1945 94.2521 15.1945C93.9182 15.1945 93.5902 15.1203 93.2683 14.9718C92.9612 14.8172 92.7018 14.6223 92.4931 14.3532C92.1354 13.8892 91.9565 13.2211 91.9565 12.355V3.58598C91.9565 3.07252 92.0161 2.65804 92.1264 2.33635C92.2338 2.01775 92.4246 1.73937 92.6929 1.5012C92.9523 1.25375 93.2206 1.0929 93.4978 1.0063C93.781 0.922782 94.1954 0.882571 94.744 0.882571H96.6311C97.1916 0.882571 97.6149 0.898037 97.925 0.935155C98.2231 0.966086 98.5272 1.02176 98.8253 1.08981C99.353 1.25066 99.8389 1.48264 100.277 1.79505C100.724 2.13529 101.097 2.50647 101.41 2.93951C101.726 3.37255 101.971 3.85199 102.149 4.37782C102.328 4.90366 102.418 5.44805 102.418 6.01719C102.418 6.69768 102.298 7.31631 102.081 7.87307C101.851 8.42984 101.485 9.01754 100.96 9.63617L102.033 11.3993L102.045 11.3869ZM105.64 5.2439C105.244 5.2439 104.913 5.19751 104.645 5.08925C104.376 4.99645 104.144 4.84179 103.938 4.62527C103.491 4.1613 103.282 3.63547 103.282 3.0787C103.282 2.66422 103.387 2.27449 103.61 1.90331C103.837 1.53213 104.117 1.2754 104.445 1.11765C104.564 1.08672 104.683 1.02486 104.773 0.993924C104.868 0.962993 104.997 0.962993 105.16 0.932061C105.327 0.932061 105.548 0.90113 105.807 0.90113H112.605C112.694 0.90113 112.766 0.90113 112.813 0.916596L112.992 0.947527C113.535 1.02486 113.976 1.25684 114.322 1.65895C114.659 2.06106 114.829 2.52503 114.829 3.0818C114.829 3.39111 114.763 3.70042 114.632 3.99737C114.501 4.29431 114.328 4.55413 114.095 4.76137C113.738 5.10162 113.162 5.27793 112.354 5.27793H111.35V12.3303C111.35 12.751 111.32 13.1036 111.26 13.3665C111.2 13.6356 111.102 13.8923 110.953 14.1305C110.744 14.4707 110.476 14.7337 110.157 14.9193C109.838 15.1048 109.48 15.1976 109.084 15.1976C108.696 15.1976 108.347 15.1141 108.025 14.944C107.709 14.7739 107.438 14.5326 107.221 14.2202C107.071 13.9789 106.967 13.7315 106.91 13.4778C106.851 13.2211 106.827 12.8499 106.827 12.3643V5.25009H105.634L105.64 5.2439ZM121.987 10.694C122.479 10.694 122.857 10.7342 123.12 10.8116C123.388 10.892 123.641 11.0281 123.874 11.226C124.351 11.6684 124.589 12.222 124.589 12.8871C124.589 13.2149 124.53 13.5304 124.395 13.8336C124.267 14.1429 124.088 14.3903 123.859 14.6068C123.74 14.6996 123.632 14.7924 123.516 14.8543C123.397 14.9162 123.278 14.978 123.137 15.009C123 15.0399 122.839 15.0708 122.654 15.0863C122.476 15.0987 122.252 15.1079 121.993 15.1079H118.475C117.956 15.1079 117.586 15.0925 117.372 15.0646C117.151 15.0337 116.945 14.9904 116.755 14.9193C116.021 14.6099 115.592 14.0377 115.455 13.218L115.413 13.0139L115.383 12.7664L115.374 12.4014V4.07469C115.374 3.77775 115.374 3.53649 115.383 3.3509L115.413 2.89311C115.434 2.76939 115.455 2.67041 115.482 2.5838L115.577 2.28686C115.678 2.00848 115.824 1.77958 116.024 1.57544C116.224 1.37129 116.442 1.22591 116.671 1.11146C116.796 1.0496 116.91 1.01248 116.999 0.987738C117.097 0.956807 117.208 0.935154 117.342 0.925875C117.476 0.916596 117.64 0.894944 117.831 0.894944C118.025 0.882571 118.287 0.876385 118.615 0.876385H122.103C122.291 0.876385 122.44 0.885664 122.55 0.898037L122.818 0.9599L123.042 1.00939C123.519 1.13312 123.907 1.38057 124.184 1.75174C124.461 2.12292 124.601 2.55596 124.601 3.05086C124.601 3.39111 124.542 3.71589 124.413 4.01902C124.285 4.32215 124.094 4.57578 123.862 4.77065C123.659 4.95624 123.427 5.07997 123.167 5.16657C122.899 5.247 122.559 5.28411 122.136 5.28411H119.87V6.27392H121.659C122.225 6.27392 122.666 6.42858 122.994 6.73789C123.322 7.0472 123.486 7.44931 123.486 7.94422C123.486 8.50098 123.289 8.94949 122.89 9.28973C122.711 9.42274 122.532 9.52172 122.324 9.56812C122.133 9.61761 121.855 9.64235 121.498 9.64235H119.879V10.7095H121.954L121.987 10.694ZM135.34 11.39C135.489 11.6374 135.599 11.8849 135.668 12.154C135.736 12.42 135.772 12.6705 135.772 12.9118C135.772 13.2397 135.712 13.5428 135.593 13.8181C135.48 14.0965 135.325 14.3377 135.116 14.5419C134.907 14.7584 134.669 14.9131 134.401 15.0368C134.123 15.1605 133.834 15.2224 133.515 15.2224C132.692 15.2224 132.069 14.8512 131.646 14.1398L129.78 10.9229V12.853C129.78 13.1933 129.72 13.5026 129.601 13.7934C129.487 14.0717 129.332 14.3192 129.13 14.5357C128.927 14.7522 128.691 14.9069 128.423 15.0306C128.155 15.1543 127.866 15.2162 127.553 15.2162C127.213 15.2162 126.885 15.1358 126.569 14.9873C126.256 14.8326 125.996 14.6285 125.794 14.3594C125.436 13.8954 125.257 13.2273 125.257 12.3612V3.58598C125.257 3.07252 125.317 2.65804 125.424 2.33635C125.537 2.01775 125.722 1.73937 126.002 1.5012C126.271 1.25375 126.539 1.0929 126.816 1.0063C127.099 0.922782 127.514 0.882571 128.059 0.882571H129.938C130.504 0.882571 130.933 0.898037 131.234 0.935155C131.533 0.966086 131.84 1.02176 132.141 1.08981C132.677 1.25066 133.154 1.48264 133.587 1.79505C134.025 2.13529 134.401 2.50647 134.72 2.93951C135.03 3.37255 135.277 3.85199 135.453 4.37782C135.632 4.90366 135.721 5.44805 135.721 6.01719C135.721 6.69768 135.614 7.31631 135.387 7.87307C135.161 8.42984 134.791 9.01754 134.266 9.63617L135.331 11.3993" fill="#0087F7"/>
<path fill-rule="evenodd" clip-rule="evenodd" d="M25.555 7.06243H24.9796C24.908 6.54278 24.7709 6.0417 24.592 5.56845L25.0929 5.25914C25.2061 5.19727 25.2509 5.04262 25.1912 4.94982L24.5115 3.71257C24.4728 3.60431 24.3326 3.57338 24.2134 3.65071L23.7066 3.94456C23.4085 3.56101 23.0507 3.18983 22.6631 2.88052L22.9553 2.35469C23.0149 2.23096 22.9911 2.09177 22.8897 2.02991L21.7091 1.33396C21.6078 1.27209 21.4706 1.32158 21.411 1.43603L21.1129 1.96186C20.6597 1.77627 20.1798 1.63708 19.6819 1.55976V0.962782C19.6819 0.826685 19.5835 0.715332 19.4672 0.715332H18.1138C17.9945 0.715332 17.9051 0.826685 17.9051 0.962782V1.56904C17.3983 1.64327 16.9213 1.77937 16.4651 1.97114L16.167 1.44531C16.1074 1.32777 15.9881 1.28137 15.8689 1.34014L14.7032 2.04538C14.6018 2.10724 14.575 2.24643 14.6376 2.36397L14.9298 2.8898C14.5422 3.21149 14.1845 3.57647 13.8774 3.98477L13.3706 3.68164C13.2633 3.58885 13.1231 3.61978 13.0665 3.7435L12.4106 4.94982C12.351 5.04262 12.3987 5.19727 12.512 5.25914L13.0128 5.56845C12.834 6.03242 12.7028 6.52732 12.6253 7.05315H12.029C11.9008 7.05315 11.7905 7.14594 11.7905 7.26967V8.67395C11.7905 8.79767 11.9008 8.89047 12.029 8.89047H12.6074C12.6789 9.4163 12.8101 9.9112 12.995 10.3875L12.4971 10.6969C12.3778 10.7587 12.3361 10.8948 12.3957 11.0062L13.0725 12.2187C13.1321 12.3207 13.2722 12.3517 13.3825 12.2805L13.8804 11.9867C14.1934 12.395 14.5482 12.76 14.9387 13.0848L14.6525 13.5982C14.5929 13.7219 14.5989 13.8549 14.7122 13.9168L15.8748 14.6189C15.9732 14.6808 16.1133 14.6313 16.173 14.5169L16.4562 14.0003C16.9093 14.1952 17.3923 14.3313 17.8961 14.4024V14.9901C17.8961 15.1324 17.9915 15.2376 18.1048 15.2376H19.4732C19.5925 15.2376 19.6819 15.1324 19.6819 14.9901V14.4024C20.1887 14.3344 20.6746 14.1952 21.1338 14.0003L21.417 14.5169C21.4826 14.6282 21.6167 14.6715 21.7151 14.6158L22.8897 13.9044C22.9941 13.8426 23.0209 13.6972 22.9553 13.5796L22.6721 13.0755C23.0597 12.7569 23.4174 12.3888 23.7274 11.9805L24.2253 12.2836C24.3386 12.3548 24.4787 12.3238 24.5354 12.2218L25.2151 11.0031C25.2747 10.901 25.23 10.7556 25.1167 10.6938L24.6188 10.3968C24.8037 9.93285 24.9349 9.42867 25.0064 8.90593H25.5818C25.701 8.90593 25.8203 8.81314 25.8203 8.68941V7.29751C25.8203 7.17378 25.701 7.08099 25.5818 7.08099L25.555 7.06243ZM21.8999 9.03584L20.299 9.12245L20.7104 10.7309L19.3689 9.82459L18.7875 11.3773L18.2062 9.82459L16.8646 10.7309L17.273 9.12245L15.6721 9.02966L16.9153 7.978L15.6721 6.93252L17.273 6.83972L16.8616 5.2313L18.2032 6.14068L18.7845 4.58793L19.351 6.14068L20.6925 5.23439L20.2752 6.84282L21.8701 6.93561L20.624 7.98728L21.8671 9.03894L21.8999 9.03584Z" fill="black"/>
<path fill-rule="evenodd" clip-rule="evenodd" d="M39.4088 8.91192L38.8543 8.75726C38.9139 8.24999 38.9139 7.73034 38.8543 7.21069L39.4207 7.05603C39.54 7.01892 39.6294 6.89519 39.5996 6.77765L39.2419 5.42285C39.212 5.30531 39.0928 5.23726 38.9735 5.27438L38.4071 5.42904C38.2133 4.94651 37.9599 4.50109 37.6618 4.08971L38.0732 3.6876C38.1626 3.5948 38.1746 3.44015 38.0941 3.36591L37.1401 2.3761C37.0566 2.28331 36.9135 2.29568 36.8211 2.39157L36.4156 2.81842C36.0161 2.50911 35.5809 2.25238 35.1248 2.04514L35.2738 1.45744C35.3096 1.32134 35.244 1.19143 35.1367 1.1605L33.813 0.776948C33.6938 0.746017 33.5745 0.829531 33.5447 0.962537L33.3956 1.55023C32.9067 1.48837 32.4118 1.48837 31.905 1.55023L31.7559 0.962537C31.7261 0.829531 31.6069 0.746017 31.4876 0.776948L30.1759 1.14813C30.0626 1.17906 29.997 1.30897 30.0328 1.43888L30.1818 2.02658C29.7197 2.23073 29.2875 2.49055 28.8939 2.79987L28.4766 2.35445C28.3871 2.26166 28.2381 2.25238 28.1606 2.33899L27.2066 3.32879C27.1171 3.4154 27.129 3.56387 27.2215 3.65976L27.609 4.08661C27.3109 4.50109 27.0575 4.95269 26.8637 5.42595L26.2973 5.27129C26.178 5.23417 26.0468 5.30222 26.017 5.41357L25.6652 6.77456C25.6354 6.86735 25.71 6.99108 25.8352 7.05294L26.4016 7.2076C26.342 7.7025 26.342 8.22833 26.4016 8.75417L25.8441 8.90883C25.7249 8.93976 25.6444 9.06348 25.6742 9.15628L26.0319 10.5173C26.0618 10.6348 26.1899 10.7029 26.3152 10.6657L26.8727 10.5111C27.0724 10.9967 27.3198 11.4452 27.618 11.8535L27.2244 12.2958C27.129 12.3886 27.1201 12.5433 27.2036 12.6237L28.1576 13.6228C28.241 13.7063 28.3841 13.697 28.4766 13.6011L28.882 13.1805C29.2815 13.4898 29.7168 13.7527 30.1759 13.9599L30.0268 14.5322C29.997 14.6621 30.0566 14.792 30.1699 14.8229L31.4817 15.1941C31.589 15.225 31.7082 15.1632 31.741 15.0085L31.8901 14.4517C32.379 14.5136 32.8799 14.5136 33.3867 14.4517L33.5357 15.0394C33.5656 15.1694 33.6848 15.256 33.7951 15.225L35.1069 14.8539C35.2172 14.8229 35.2798 14.6992 35.247 14.5631L35.1277 13.994C35.5958 13.7867 36.0221 13.5238 36.4216 13.2207L36.8241 13.6321C36.9135 13.7249 37.0626 13.7372 37.1401 13.6537L38.0941 12.6515C38.1835 12.5711 38.1746 12.4226 38.0822 12.3268L37.6737 11.8937C37.9718 11.4823 38.2193 11.0276 38.419 10.5544L38.9706 10.709C39.0958 10.74 39.221 10.6781 39.2508 10.5606L39.5907 9.19958C39.6205 9.07586 39.543 8.95213 39.4178 8.9212L39.4088 8.91192ZM35.244 10.1182L33.7176 9.60788L33.5477 11.2627L32.6235 9.91719L31.5502 11.1544V9.48415L29.9851 9.83058L30.9242 8.48507L29.4634 7.80457L30.9838 7.28802L30.1789 5.84352L31.6993 6.35698L31.8722 4.70215L32.8173 6.0322L33.8905 4.79494L33.8995 6.46524L35.4676 6.125L34.5285 7.45505L35.9893 8.13554L34.4599 8.6521L35.2649 10.0935L35.244 10.1182Z" fill="black"/>
</svg>
