<?xml version="1.0" encoding="utf-8"?>
<!-- Generator: Adobe Illustrator 22.1.0, SVG Export Plug-In . SVG Version: 6.00 Build 0)  -->
<svg version="1.1" id="Layer_1" xmlns="http://www.w3.org/2000/svg" xmlns:xlink="http://www.w3.org/1999/xlink" x="0px" y="0px"
	 viewBox="0 0 578 153" style="enable-background:new 0 0 578 153;" xml:space="preserve">
<style type="text/css">
	.st0{fill:#253C77;}
</style>
<path class="st0" d="M159.441,101.929h-6.484c-0.666,0-0.998-0.356-0.998-1.069V51.998c0-0.712,0.332-1.068,0.998-1.068h7.767
	c0.57,0,0.95,0.261,1.14,0.784l8.693,16.174c1.805,3.373,3.823,7.553,6.057,12.541h0.285c2.232-4.987,4.251-9.167,6.057-12.541
	l8.622-16.174c0.285-0.522,0.688-0.784,1.211-0.784h7.695c0.713,0,1.069,0.356,1.069,1.068v48.863c0,0.713-0.356,1.069-1.069,1.069
	H194c-0.666,0-0.998-0.356-0.998-1.069V86.484c0-5.605,0.189-13.063,0.57-22.374l-0.214-0.071
	c-1.425,3.088-3.563,7.482-6.413,13.182l-6.27,12.184c-0.238,0.523-0.641,0.785-1.211,0.785h-5.415c-0.57,0-0.974-0.261-1.211-0.785
	l-6.27-12.184c-2.85-5.7-4.988-10.094-6.413-13.182l-0.214,0.071c0.38,9.311,0.57,16.769,0.57,22.374v14.375
	C160.51,101.573,160.154,101.929,159.441,101.929z"/>
<path class="st0" d="M241.26,88.338c0,4.417-1.472,7.922-4.418,10.509c-2.946,2.59-6.888,3.884-11.828,3.884
	c-4.941,0-8.883-1.294-11.829-3.884c-2.945-2.588-4.418-6.092-4.418-10.509v-9.548c0-4.465,1.472-8.027,4.418-10.689
	c2.945-2.66,6.887-3.99,11.829-3.99c4.94,0,8.882,1.33,11.828,3.99c2.945,2.662,4.418,6.224,4.418,10.689V88.338z M217.105,88.338
	c0,4.656,2.636,6.983,7.909,6.983c2.565,0,4.524-0.593,5.878-1.782c1.354-1.187,2.03-2.921,2.03-5.201v-9.548
	c0-2.328-0.689-4.121-2.066-5.38c-1.378-1.257-3.325-1.888-5.843-1.888c-2.566,0-4.525,0.618-5.879,1.853s-2.031,3.04-2.031,5.415
	v9.548H217.105z"/>
<path class="st0" d="M251.949,111.494h-5.772c-0.666,0-0.997-0.332-0.997-0.997V95.604c0-0.664,0.332-0.997,0.997-0.997h1.568
	c1.568-1.092,2.779-3.573,3.634-7.446c0.855-3.871,1.686-10.938,2.494-21.198c0.095-0.665,0.451-0.997,1.069-0.997h23.656
	c0.713,0,1.069,0.332,1.069,0.997v28.644h3.634c0.713,0,1.069,0.356,1.069,1.069v14.821c0,0.665-0.356,0.997-1.069,0.997h-5.771
	c-0.713,0-1.069-0.332-1.069-0.997v-8.568h-23.442v8.568C253.018,111.162,252.661,111.494,251.949,111.494z M261.568,72.234
	c-0.951,11.781-2.59,19.238-4.917,22.373h14.821V72.234H261.568z"/>
<path class="st0" d="M312.514,91.9V65.964c0-0.665,0.356-0.997,1.069-0.997h6.128c0.713,0,1.069,0.332,1.069,0.997v33.56
	c0,11.069-5.297,16.602-15.89,16.602c-5.7,0-10.356-1.496-13.966-4.489c-0.523-0.381-0.594-0.854-0.214-1.424l3.064-4.347
	c0.38-0.618,0.83-0.737,1.354-0.356c3.182,2.185,6.413,3.278,9.691,3.278c2.66,0,4.655-0.701,5.985-2.102
	c1.329-1.401,1.924-3.789,1.781-7.161c-2.756,0.855-5.297,1.283-7.624,1.283c-4.086,0-7.649-1.27-10.688-3.812
	c-3.041-2.54-4.56-6.115-4.56-10.723V65.964c0-0.665,0.356-0.997,1.069-0.997h6.199c0.665,0,0.998,0.332,0.998,0.997v19.951
	c0,2.564,0.759,4.442,2.28,5.629c1.52,1.188,3.467,1.781,5.843,1.781C308.523,93.373,310.661,92.897,312.514,91.9z"/>
<path class="st0" d="M340.231,89.761c-0.903,4.513-2.28,7.685-4.133,9.513s-4.799,2.814-8.836,2.957
	c-0.666,0-0.997-0.356-0.997-1.069V95.96c0-0.617,0.332-0.997,0.997-1.14c1.377-0.094,2.459-0.664,3.242-1.71
	c0.784-1.044,1.436-2.921,1.96-5.629c0.807-4.703,1.401-11.875,1.781-21.519c0.095-0.665,0.451-0.997,1.069-0.997h24.226
	c0.713,0,1.069,0.332,1.069,0.997v34.897c0,0.713-0.356,1.069-1.069,1.069h-6.128c-0.713,0-1.069-0.356-1.069-1.069V72.234H341.94
	C341.703,79.028,341.133,84.869,340.231,89.761z"/>
<path class="st0" d="M383.66,101.929h-14.75c-0.712,0-1.069-0.356-1.069-1.069V65.964c0-0.665,0.356-0.997,1.069-0.997h6.128
	c0.713,0,1.069,0.332,1.069,0.997v11.027h7.553c4.37,0,7.897,1.117,10.581,3.349c2.683,2.233,4.026,5.32,4.026,9.263
	c0,4.229-1.295,7.339-3.883,9.334C391.795,100.932,388.221,101.929,383.66,101.929z M376.107,83.759v11.329h6.128
	c5.13,0,7.695-1.876,7.695-5.629c0.047-1.947-0.57-3.384-1.853-4.31c-1.282-0.926-3.231-1.39-5.843-1.39
	C382.234,83.76,376.107,83.76,376.107,83.759z"/>
<path class="st0" d="M409.444,71.362h13.467c5.843,0,10.154,1.235,12.933,3.704c2.779,2.471,4.168,6.318,4.168,11.543
	c0,4.942-1.485,8.729-4.453,11.365c-2.969,2.636-7.066,3.955-12.292,3.955h-17.172c-0.427,0-0.641-0.189-0.641-0.57v-49.86
	c0-0.38,0.214-0.57,0.641-0.57h29.998c0.38,0,0.57,0.19,0.57,0.57v2.493c0,0.381-0.19,0.57-0.57,0.57h-26.649L409.444,71.362
	L409.444,71.362z M409.444,98.296h13.752c4.133,0,7.303-0.974,9.513-2.922c2.209-1.947,3.313-4.869,3.313-8.764
	c0-3.99-1.045-6.922-3.135-8.799c-2.091-1.876-5.392-2.815-9.904-2.815h-13.538v23.3H409.444z"/>
<path class="st0" d="M446.995,68.101c3.514-2.469,7.861-3.704,13.039-3.704c4.37,0,7.731,1.164,10.083,3.491
	c2.351,2.328,3.527,5.654,3.527,9.976v21.66c0,0.333-0.167,0.57-0.499,0.713c-4.181,1.616-8.598,2.423-13.253,2.423
	c-4.323,0-7.898-0.997-10.723-2.993c-2.827-1.994-4.24-4.845-4.24-8.551c0-3.609,1.329-6.388,3.99-8.336
	c2.66-1.947,6.317-2.922,10.973-2.922c2.517,0,5.843,0.381,9.976,1.14v-3.063c0-6.698-3.326-10.047-9.976-10.047
	c-4.133,0-7.767,0.975-10.902,2.922c-0.285,0.238-0.547,0.19-0.784-0.143l-1.211-1.853
	C446.756,68.482,446.756,68.243,446.995,68.101z M448.776,91.116c0,2.519,1.021,4.502,3.064,5.95
	c2.042,1.45,4.726,2.173,8.052,2.173c3.325,0,6.65-0.57,9.976-1.71V84.275c-3.278-0.713-6.603-1.069-9.976-1.069
	C452.481,83.206,448.776,85.842,448.776,91.116z"/>
<path class="st0" d="M484.072,101.929h-2.565c-0.427,0-0.641-0.189-0.641-0.57V65.821c0-0.427,0.214-0.641,0.641-0.641h2.565
	c0.38,0,0.57,0.214,0.57,0.641v15.32h20.45v-15.32c0-0.427,0.189-0.641,0.57-0.641h2.565c0.428,0,0.641,0.214,0.641,0.641v35.538
	c0,0.381-0.214,0.57-0.641,0.57h-2.565c-0.381,0-0.57-0.189-0.57-0.57V84.561h-20.45v16.799
	C484.642,101.74,484.452,101.929,484.072,101.929z"/>
<path class="st0" d="M544.554,101.947h-3.219c-0.334,0-0.465-0.075-0.715-0.358l-15.45-17.453l-5.365,5.007v12.214
	c0,0.382-0.191,0.572-0.572,0.572h-2.504c-0.429,0-0.644-0.19-0.644-0.572V65.753c0-0.429,0.215-0.643,0.644-0.643h2.504
	c0.381,0,0.572,0.215,0.572,0.643v18.741l19.814-19.099c0.234-0.226,0.405-0.286,0.787-0.286h3.219c0.238,0,0.394,0.071,0.465,0.215
	c0.071,0.143,0.012,0.311-0.178,0.501l-16.166,15.664l17.167,19.742C545.281,101.671,544.966,101.947,544.554,101.947z"/>
<g>
	<polygon class="st0" points="100.857,50.93 100.857,33.93 66.857,33.93 66.857,50.93 83.857,50.93 83.857,67.929 100.857,67.929 
		100.857,84.929 117.857,84.929 117.857,50.93 	"/>
	<rect x="100.857" y="101.929" class="st0" width="17" height="17"/>
	<rect x="83.857" y="84.929" class="st0" width="17" height="17"/>
	<polygon class="st0" points="83.857,84.929 83.857,67.929 66.857,67.929 66.857,50.93 49.857,50.93 49.857,33.93 32.857,33.93 
		32.857,67.929 49.857,67.929 49.857,84.929 32.857,84.929 32.857,118.929 49.857,118.929 49.857,101.929 66.857,101.929 
		66.857,84.929 	"/>
	<rect x="66.857" y="101.929" class="st0" width="17" height="17"/>
</g>
</svg>
