<svg width="1530" height="633" viewBox="0 0 1530 633" fill="none" xmlns="http://www.w3.org/2000/svg">
<path d="M1487.79 163.743C1488.93 165.015 1490.05 166.293 1491.15 167.579L1490.66 167.683C1491.21 168.324 1491.76 168.966 1492.29 169.611C1492.83 170.255 1493.36 170.899 1493.89 171.544L1494.38 171.45C1495.44 172.745 1496.47 174.042 1497.48 175.341L1496.97 175.425C1497.98 176.721 1498.96 178.019 1499.91 179.32L1500.42 179.247C1501.38 180.551 1502.31 181.858 1503.22 183.167L1502.7 183.229C1503.61 184.537 1504.49 185.847 1505.36 187.159L1505.88 187.109C1506.74 188.425 1507.58 189.745 1508.4 191.066L1507.86 191.106C1508.68 192.424 1509.46 193.743 1510.23 195.065L1510.77 195.036C1511.53 196.361 1512.28 197.688 1513 199.016L1512.45 199.035C1513.16 200.353 1513.85 201.673 1514.52 202.995L1515.07 202.986C1515.73 204.311 1516.38 205.638 1517 206.967L1516.44 206.965C1517.06 208.29 1517.66 209.617 1518.23 210.946L1518.79 210.958C1519.36 212.285 1519.91 213.613 1520.43 214.943L1519.87 214.921C1520.39 216.235 1520.88 217.55 1521.36 218.867L1521.92 218.9C1522.4 220.22 1522.85 221.542 1523.28 222.865L1522.71 222.823C1523.14 224.142 1523.55 225.464 1523.93 226.786L1524.5 226.838C1524.89 228.15 1525.24 229.464 1525.58 230.779L1525.01 230.718C1525.34 232.017 1525.65 233.317 1525.94 234.618L1526.52 234.688C1526.81 235.992 1527.08 237.297 1527.33 238.603L1526.75 238.525C1527 239.828 1527.23 241.132 1527.43 242.437L1528.02 242.525C1528.22 243.812 1528.4 245.101 1528.57 246.391L1527.98 246.295C1528.14 247.57 1528.28 248.845 1528.4 250.121L1528.99 250.225C1529.11 251.503 1529.21 252.783 1529.29 254.063L1528.71 253.952C1528.79 255.229 1528.85 256.508 1528.89 257.787L1529.48 257.906C1529.52 259.163 1529.54 260.421 1529.55 261.68L1528.96 261.554C1528.96 262.797 1528.95 264.041 1528.92 265.286L1529.5 265.419C1529.47 266.666 1529.42 267.913 1529.35 269.161L1528.76 269.021C1528.69 270.266 1528.6 271.512 1528.49 272.758L1529.08 272.905C1528.97 274.131 1528.85 275.358 1528.71 276.585L1528.13 276.431C1527.99 277.639 1527.83 278.847 1527.66 280.055L1528.24 280.215C1528.07 281.425 1527.88 282.636 1527.67 283.846L1527.09 283.681C1526.89 284.889 1526.66 286.098 1526.42 287.307L1527 287.478C1526.76 288.675 1526.51 289.873 1526.24 291.07L1525.66 290.892C1525.39 292.062 1525.11 293.231 1524.82 294.4L1525.4 294.583C1525.1 295.754 1524.79 296.924 1524.46 298.095L1523.88 297.907C1523.56 299.076 1523.21 300.245 1522.85 301.414L1523.43 301.607C1523.07 302.777 1522.7 303.947 1522.31 305.117L1521.73 304.919C1521.36 306.049 1520.96 307.179 1520.56 308.309L1521.13 308.512C1520.72 309.642 1520.3 310.772 1519.87 311.901L1519.3 311.694C1518.86 312.822 1518.42 313.95 1517.95 315.077L1518.52 315.289C1518.06 316.418 1517.58 317.546 1517.09 318.675L1516.52 318.459C1516.04 319.568 1515.54 320.677 1515.03 321.785L1515.59 322.005C1515.09 323.094 1514.58 324.183 1514.05 325.271L1513.48 325.047C1512.96 326.134 1512.41 327.22 1511.86 328.306L1512.42 328.535C1511.87 329.622 1511.3 330.708 1510.72 331.795L1510.16 331.563C1509.58 332.648 1508.98 333.732 1508.38 334.816L1508.93 335.051C1508.34 336.108 1507.74 337.164 1507.12 338.219L1506.57 337.98C1505.95 339.026 1505.33 340.072 1504.7 341.117L1505.25 341.359C1504.61 342.405 1503.97 343.451 1503.3 344.496L1502.75 344.25C1502.09 345.294 1501.42 346.337 1500.74 347.379L1501.29 347.628C1500.6 348.671 1499.91 349.714 1499.2 350.756L1498.65 350.504C1497.97 351.512 1497.27 352.52 1496.56 353.527L1497.11 353.782C1496.4 354.788 1495.68 355.793 1494.95 356.798L1494.41 356.54C1493.68 357.544 1492.94 358.546 1492.19 359.548L1492.73 359.809C1491.98 360.812 1491.22 361.814 1490.44 362.816L1489.9 362.552C1489.13 363.552 1488.35 364.552 1487.55 365.551L1488.09 365.817C1487.32 366.786 1486.54 367.754 1485.74 368.722L1485.21 368.453C1484.42 369.418 1483.62 370.382 1482.81 371.345L1483.34 371.616C1482.53 372.58 1481.71 373.543 1480.88 374.506L1480.35 374.232C1479.52 375.193 1478.67 376.153 1477.82 377.113L1478.35 377.389C1477.5 378.349 1476.64 379.309 1475.77 380.267L1475.24 379.988C1474.39 380.923 1473.53 381.856 1472.66 382.789L1473.18 383.069C1472.32 383.996 1471.45 384.922 1470.56 385.846L1470.04 385.563C1469.16 386.487 1468.27 387.41 1467.37 388.332L1467.89 388.617C1466.99 389.539 1466.08 390.461 1465.15 391.381L1464.64 391.094C1463.72 392.014 1462.79 392.933 1461.85 393.85L1462.37 394.14C1461.44 395.046 1460.5 395.951 1459.56 396.855L1459.04 396.564C1458.12 397.452 1457.18 398.339 1456.24 399.225L1456.75 399.518C1455.8 400.405 1454.85 401.29 1453.88 402.175L1453.37 401.88C1452.41 402.764 1451.44 403.646 1450.46 404.528L1450.97 404.825C1449.99 405.707 1449 406.588 1448 407.468L1447.49 407.169C1446.5 408.049 1445.49 408.927 1444.48 409.804L1444.98 410.105C1443.99 410.959 1443 411.811 1441.99 412.663L1441.49 412.36C1440.49 413.21 1439.48 414.058 1438.46 414.906L1438.96 415.21C1437.94 416.058 1436.92 416.904 1435.88 417.75L1435.39 417.444C1434.35 418.289 1433.31 419.133 1432.26 419.975L1432.76 420.283C1431.71 421.126 1430.65 421.968 1429.58 422.808L1429.09 422.499C1428.03 423.333 1426.97 424.166 1425.89 424.997L1426.39 425.307C1425.33 426.122 1424.27 426.936 1423.21 427.749L1422.72 427.437C1421.65 428.249 1420.58 429.06 1419.5 429.87L1419.98 430.183C1418.9 430.994 1417.81 431.803 1416.72 432.611L1416.23 432.296C1415.13 433.103 1414.03 433.909 1412.92 434.714L1413.4 435.03C1412.29 435.835 1411.17 436.639 1410.05 437.442L1409.56 437.124C1408.45 437.917 1407.33 438.708 1406.21 439.498L1406.69 439.817C1405.58 440.596 1404.46 441.374 1403.33 442.151L1402.85 441.83C1401.73 442.606 1400.6 443.381 1399.46 444.155L1399.94 444.476C1398.8 445.25 1397.65 446.023 1396.5 446.794L1396.03 446.471C1394.88 447.242 1393.72 448.012 1392.55 448.78L1393.02 449.104C1391.86 449.873 1390.69 450.64 1389.51 451.406L1389.03 451.081C1387.87 451.837 1386.7 452.592 1385.52 453.346L1385.99 453.673C1384.83 454.417 1383.66 455.16 1382.48 455.901L1382.01 455.574C1380.84 456.315 1379.65 457.055 1378.47 457.793L1378.93 458.122C1377.74 458.861 1376.55 459.598 1375.34 460.335L1374.88 460.004C1373.68 460.74 1372.47 461.475 1371.26 462.208L1371.72 462.539C1370.5 463.272 1369.28 464.004 1368.06 464.735L1367.6 464.402C1366.38 465.127 1365.16 465.85 1363.93 466.571L1364.38 466.904C1363.17 467.615 1361.96 468.324 1360.73 469.032L1360.28 468.697C1359.06 469.405 1357.83 470.111 1356.59 470.815L1357.05 471.151C1355.81 471.856 1354.57 472.559 1353.33 473.262L1352.87 472.925C1351.63 473.627 1350.37 474.327 1349.12 475.026L1349.57 475.364C1348.31 476.063 1347.04 476.761 1345.77 477.457L1345.32 477.119C1344.06 477.814 1342.78 478.508 1341.5 479.2L1341.95 479.539C1340.7 480.217 1339.44 480.894 1338.17 481.569L1337.73 481.228C1337.25 481.482 1336.78 481.735 1336.3 481.988C1335.51 482.409 1334.71 482.829 1333.92 483.248L1334.36 483.59C1333.08 484.262 1331.8 484.932 1330.52 485.602L1330.07 485.26C1328.79 485.929 1327.49 486.596 1326.2 487.262L1326.64 487.605C1325.34 488.272 1324.03 488.936 1322.73 489.6L1322.29 489.256C1320.98 489.919 1319.66 490.581 1318.34 491.241L1318.78 491.586C1317.48 492.237 1316.17 492.887 1314.86 493.536L1314.42 493.19C1313.12 493.833 1311.81 494.475 1310.5 495.115L1310.93 495.461C1309.62 496.102 1308.3 496.741 1306.97 497.378L1306.54 497.031C1305.22 497.668 1303.89 498.304 1302.56 498.938L1302.99 499.287C1301.65 499.921 1300.31 500.554 1298.97 501.185L1298.54 500.836C1297.19 501.468 1295.84 502.097 1294.49 502.725L1294.91 503.075C1293.56 503.703 1292.2 504.329 1290.84 504.953L1290.41 504.603C1289.85 504.86 1289.29 505.117 1288.72 505.374C1287.95 505.729 1287.17 506.082 1286.39 506.436L1286.81 506.787C1285.46 507.397 1284.11 508.005 1282.75 508.612L1282.33 508.26C1281.6 508.587 1280.86 508.914 1280.12 509.241C1279.5 509.519 1278.87 509.797 1278.24 510.074L1278.66 510.427C1277.29 511.031 1275.92 511.633 1274.54 512.234L1274.12 511.88C1273.7 512.064 1273.28 512.248 1272.85 512.432C1271.9 512.848 1270.94 513.262 1269.98 513.676L1270.39 514.031C1269.01 514.628 1267.61 515.224 1266.22 515.818L1265.8 515.463C1264.42 516.053 1263.02 516.641 1261.63 517.228L1262.04 517.584C1260.66 518.164 1259.27 518.742 1257.89 519.319L1257.47 518.962C1256.09 519.539 1254.69 520.114 1253.29 520.687L1253.7 521.045C1252.3 521.618 1250.9 522.19 1249.49 522.761L1249.09 522.403C1247.68 522.973 1246.27 523.542 1244.85 524.109L1245.26 524.468C1243.84 525.035 1242.42 525.601 1240.99 526.165L1240.59 525.806C1239.16 526.37 1237.73 526.932 1236.29 527.493L1236.7 527.853C1235.28 528.408 1233.85 528.962 1232.42 529.515L1232.02 529.154C1231.35 529.412 1230.68 529.67 1230.01 529.927C1229.26 530.216 1228.51 530.504 1227.75 530.792L1228.15 531.153C1226.72 531.697 1225.29 532.24 1223.86 532.782L1223.46 532.42C1222.02 532.961 1220.58 533.501 1219.14 534.039L1219.53 534.401C1218.09 534.939 1216.64 535.475 1215.19 536.01L1214.79 535.647C1213.34 536.182 1211.88 536.715 1210.42 537.247L1210.81 537.61C1209.35 538.142 1207.89 538.672 1206.42 539.2L1206.02 538.836C1204.57 539.359 1203.11 539.88 1201.64 540.4L1202.03 540.764C1200.58 541.28 1199.12 541.795 1197.66 542.308L1197.27 541.943C1195.81 542.455 1194.34 542.966 1192.87 543.476L1193.26 543.842C1191.79 544.351 1190.32 544.859 1188.84 545.366L1188.45 544.999C1186.97 545.505 1185.49 546.01 1184.01 546.513L1184.39 546.88C1182.9 547.383 1181.41 547.884 1179.92 548.384L1179.53 548.016C1178.04 548.516 1176.54 549.013 1175.04 549.51L1175.42 549.878C1173.93 550.37 1172.43 550.861 1170.93 551.35L1170.56 550.981C1169.07 551.466 1167.58 551.949 1166.08 552.431L1166.46 552.8C1164.97 553.282 1163.47 553.762 1161.97 554.24L1161.59 553.871C1160.09 554.349 1158.58 554.825 1157.07 555.3L1157.45 555.67C1155.94 556.146 1154.42 556.619 1152.9 557.091L1152.53 556.72C1151.01 557.192 1149.49 557.661 1147.97 558.13L1148.34 558.501C1146.81 558.969 1145.28 559.436 1143.75 559.9L1143.38 559.529C1141.86 559.991 1140.33 560.452 1138.79 560.911L1139.16 561.283C1137.64 561.738 1136.12 562.191 1134.6 562.642L1134.23 562.269C1133.61 562.453 1132.99 562.636 1132.37 562.819C1131.46 563.086 1130.55 563.352 1129.65 563.617L1130.01 563.99C1128.48 564.438 1126.94 564.884 1125.4 565.328L1125.04 564.955C1123.5 565.399 1121.96 565.842 1120.41 566.282L1120.77 566.656C1119.22 567.097 1117.67 567.536 1116.12 567.974L1115.76 567.599C1114.21 568.037 1112.65 568.472 1111.09 568.906L1111.44 569.281C1109.88 569.715 1108.32 570.147 1106.75 570.577L1106.39 570.202C1104.85 570.626 1103.3 571.049 1101.74 571.469L1102.1 571.845C1100.55 572.266 1098.99 572.685 1097.43 573.103L1097.07 572.727C1095.51 573.144 1093.95 573.56 1092.38 573.973L1092.74 574.35C1091.17 574.764 1089.6 575.176 1088.02 575.587L1087.67 575.21C1086.1 575.62 1084.52 576.029 1082.94 576.436L1083.29 576.813C1081.71 577.22 1080.12 577.625 1078.54 578.028L1078.19 577.651C1076.6 578.054 1075.01 578.456 1073.42 578.855L1073.76 579.233C1072.18 579.63 1070.59 580.025 1069 580.418L1068.66 580.04C1067.08 580.43 1065.5 580.82 1063.91 581.207L1064.25 581.586C1062.67 581.973 1061.08 582.359 1059.48 582.743L1059.14 582.364C1057.55 582.748 1055.95 583.13 1054.35 583.51L1054.69 583.89C1053.09 584.27 1051.49 584.649 1049.88 585.026L1049.54 584.646C1047.94 585.023 1046.33 585.397 1044.72 585.771L1045.05 586.151C1043.44 586.524 1041.82 586.896 1040.2 587.265L1039.87 586.885C1038.25 587.254 1036.63 587.621 1035.01 587.986L1035.34 588.368C1033.73 588.729 1032.13 589.089 1030.51 589.447L1030.18 589.065C1028.57 589.423 1026.96 589.779 1025.34 590.133L1025.67 590.515C1024.05 590.869 1022.43 591.222 1020.8 591.572L1020.48 591.19C1020.09 591.274 1019.7 591.358 1019.31 591.441C1018.07 591.707 1016.83 591.972 1015.59 592.236L1015.92 592.619C1014.29 592.966 1012.66 593.311 1011.02 593.654L1010.69 593.272C1009.06 593.615 1007.42 593.956 1005.78 594.296L1006.1 594.679C1004.46 595.019 1002.81 595.357 1001.16 595.693L1000.84 595.309C1000.46 595.388 1000.07 595.466 999.688 595.544C999.247 595.633 998.806 595.723 998.365 595.812C997.539 595.979 996.714 596.145 995.888 596.311L996.208 596.695C994.555 597.027 992.902 597.356 991.248 597.683L990.93 597.299C989.845 597.514 988.759 597.727 987.673 597.94C987.105 598.051 986.538 598.162 985.97 598.273L986.286 598.657C984.632 598.979 982.977 599.299 981.322 599.617L981.007 599.232C980.275 599.372 979.544 599.512 978.813 599.652C977.889 599.828 976.965 600.003 976.041 600.178L976.354 600.563C974.698 600.876 973.042 601.186 971.385 601.494L971.073 601.109C969.417 601.417 967.76 601.723 966.103 602.026L966.413 602.412C964.756 602.715 963.098 603.016 961.44 603.315L961.132 602.929C959.455 603.231 957.778 603.53 956.101 603.828L956.408 604.214C954.728 604.512 953.048 604.807 951.368 605.1L951.063 604.713C949.383 605.006 947.703 605.297 946.022 605.585L946.326 605.971C944.645 606.259 942.964 606.545 941.283 606.828L940.981 606.441C939.3 606.724 937.619 607.005 935.938 607.284L936.238 607.671C934.556 607.95 932.874 608.226 931.192 608.499L930.894 608.112C929.212 608.385 927.53 608.656 925.849 608.925L926.145 609.313C924.454 609.584 922.762 609.852 921.071 610.117L920.776 609.729C919.071 609.996 917.366 610.262 915.661 610.524L915.954 610.913C914.248 611.176 912.543 611.436 910.837 611.694L910.545 611.305C908.84 611.563 907.134 611.818 905.429 612.071L905.719 612.46C904.013 612.713 902.307 612.964 900.601 613.212L900.313 612.823C898.607 613.071 896.902 613.316 895.196 613.559L895.483 613.949C893.776 614.192 892.07 614.433 890.364 614.671L890.08 614.282C888.374 614.52 886.668 614.756 884.963 614.989L885.246 615.379C883.516 615.616 881.786 615.85 880.056 616.082L879.774 615.692C878.044 615.924 876.315 616.153 874.585 616.38L874.865 616.771C873.134 616.998 871.404 617.222 869.674 617.444L869.396 617.053C867.667 617.275 865.938 617.494 864.209 617.711L864.484 618.102C862.755 618.319 861.025 618.534 859.296 618.746L859.022 618.355C857.293 618.566 855.564 618.776 853.836 618.983L854.108 619.374C852.379 619.581 850.65 619.786 848.921 619.988L848.651 619.596C846.905 619.801 845.159 620.002 843.413 620.201L843.682 620.593C841.927 620.793 840.173 620.991 838.419 621.186L838.152 620.794C836.399 620.989 834.646 621.181 832.893 621.371L833.158 621.764C831.404 621.954 829.651 622.141 827.899 622.326L827.635 621.933C825.883 622.118 824.132 622.301 822.38 622.48L822.641 622.873C820.889 623.053 819.138 623.23 817.386 623.405L817.127 623.012C815.376 623.187 813.626 623.359 811.876 623.529L812.134 623.922C810.369 624.093 808.605 624.261 806.842 624.427L806.586 624.034C804.809 624.201 803.032 624.366 801.255 624.528L801.509 624.921C799.732 625.084 797.956 625.243 796.18 625.4L795.928 625.007C794.152 625.163 792.377 625.318 790.603 625.469L790.853 625.863C789.078 626.015 787.304 626.164 785.53 626.311L785.282 625.917C783.509 626.063 781.736 626.207 779.964 626.349L780.21 626.743C778.438 626.884 776.666 627.023 774.894 627.159L774.65 626.765C772.867 626.902 771.084 627.037 769.302 627.169L769.544 627.563C767.743 627.696 765.943 627.827 764.144 627.955L763.904 627.561C762.105 627.689 760.308 627.814 758.51 627.937L758.749 628.331C756.951 628.454 755.154 628.574 753.358 628.691L753.122 628.297C751.326 628.414 749.531 628.529 747.737 628.641L747.971 629.036C746.177 629.148 744.383 629.257 742.59 629.364L742.358 628.969C740.566 629.076 738.774 629.18 736.984 629.281L737.213 629.676C735.407 629.779 733.601 629.879 731.797 629.976L731.569 629.58C729.747 629.678 727.927 629.774 726.107 629.866L726.333 630.261C724.512 630.354 722.693 630.444 720.875 630.531L720.651 630.135C718.833 630.222 717.016 630.307 715.201 630.388L715.422 630.784C713.606 630.865 711.79 630.944 709.976 631.021L709.757 630.625C707.943 630.701 706.131 630.775 704.319 630.845L704.536 631.241C702.724 631.312 700.913 631.38 699.103 631.445L698.888 631.049C697.057 631.116 695.226 631.179 693.397 631.24L693.61 631.635C691.767 631.697 689.926 631.755 688.085 631.81L687.875 631.414C686.035 631.47 684.197 631.522 682.36 631.572L682.568 631.968C680.73 632.018 678.894 632.065 677.058 632.109L676.852 631.713C675.017 631.757 673.184 631.799 671.352 631.838L671.556 632.234C669.723 632.272 667.892 632.308 666.062 632.341L665.861 631.945C664.031 631.978 662.203 632.009 660.377 632.036L660.576 632.432C658.714 632.46 656.853 632.486 654.994 632.508L654.797 632.112C652.936 632.134 651.076 632.153 649.218 632.17L649.413 632.566C647.554 632.583 645.697 632.596 643.841 632.607L643.649 632.211C641.794 632.222 639.94 632.23 638.089 632.235L638.279 632.631C636.426 632.636 634.575 632.638 632.726 632.638L632.538 632.241C630.689 632.24 628.843 632.237 626.997 632.23L627.182 632.627C625.322 632.62 623.463 632.611 621.605 632.599L621.423 632.202C619.541 632.19 617.66 632.174 615.782 632.156L615.962 632.552C614.083 632.534 612.206 632.512 610.33 632.488L610.152 632.092C608.278 632.067 606.405 632.04 604.534 632.01L604.709 632.406C602.837 632.376 600.967 632.342 599.1 632.306L598.927 631.91C597.06 631.874 595.195 631.834 593.331 631.792L593.501 632.188C591.637 632.146 589.775 632.101 587.915 632.053L587.748 631.657C585.848 631.608 583.951 631.555 582.056 631.5L582.221 631.896C580.322 631.841 578.426 631.782 576.531 631.721L576.369 631.325C574.476 631.263 572.585 631.199 570.695 631.131L570.855 631.527C568.965 631.459 567.077 631.388 565.192 631.314L565.035 630.919C563.151 630.845 561.268 630.768 559.388 630.688L559.542 631.084C557.661 631.004 555.783 630.921 553.906 630.834L553.755 630.439C551.85 630.351 549.947 630.261 548.047 630.167L548.195 630.562C546.278 630.468 544.364 630.37 542.452 630.269L542.307 629.874C540.396 629.773 538.487 629.669 536.582 629.562L536.724 629.957C534.817 629.849 532.913 629.739 531.012 629.625L530.872 629.23C528.972 629.117 527.074 629 525.179 628.88L525.315 629.274C523.419 629.154 521.525 629.031 519.635 628.904L519.501 628.51C517.586 628.382 515.673 628.251 513.764 628.116L513.894 628.51C511.961 628.374 510.03 628.234 508.103 628.092L507.975 627.698C506.049 627.555 504.125 627.408 502.204 627.259L502.329 627.653C500.407 627.503 498.488 627.35 496.573 627.194L496.451 626.801C494.537 626.644 492.625 626.485 490.717 626.322L490.835 626.716C488.925 626.553 487.019 626.387 485.116 626.217L485.001 625.824C483.071 625.652 481.144 625.477 479.22 625.299L479.332 625.691C477.384 625.51 475.439 625.326 473.498 625.138L473.39 624.746C471.45 624.558 469.513 624.367 467.58 624.173L467.685 624.565C465.751 624.37 463.82 624.172 461.893 623.97L461.791 623.578C459.865 623.377 457.943 623.172 456.023 622.964L456.121 623.355C454.201 623.146 452.284 622.935 450.371 622.719L450.277 622.328C448.326 622.109 446.379 621.885 444.436 621.659L444.526 622.049C442.567 621.82 440.611 621.588 438.66 621.352L438.573 620.962C436.622 620.726 434.676 620.487 432.733 620.244L432.816 620.633C430.873 620.39 428.933 620.143 426.997 619.893L426.918 619.504C424.984 619.254 423.053 619 421.127 618.743L421.202 619.131C419.272 618.873 417.345 618.612 415.422 618.346L415.35 617.958C413.376 617.686 411.405 617.41 409.439 617.13L409.507 617.517C407.54 617.237 405.577 616.953 403.619 616.665L403.555 616.278C401.598 615.991 399.646 615.699 397.698 615.404L397.758 615.79C395.809 615.495 393.864 615.196 391.924 614.893L391.869 614.507C389.93 614.205 387.997 613.898 386.068 613.588L386.119 613.973C384.155 613.657 382.196 613.337 380.242 613.014L380.195 612.63C378.216 612.302 376.242 611.97 374.274 611.635L374.316 612.018C372.346 611.682 370.382 611.342 368.422 610.999L368.384 610.616C366.426 610.272 364.473 609.925 362.525 609.573L362.558 609.955C360.609 609.603 358.665 609.248 356.727 608.888L356.698 608.507C354.747 608.145 352.801 607.779 350.861 607.409L350.885 607.789C348.896 607.41 346.912 607.026 344.934 606.638L344.915 606.259C342.938 605.871 340.967 605.48 339.003 605.084L339.017 605.462C337.051 605.066 335.09 604.666 333.136 604.261L333.126 603.884C331.174 603.479 329.227 603.071 327.286 602.659L327.29 603.035C325.344 602.621 323.404 602.203 321.47 601.781L321.471 601.406C319.479 600.971 317.493 600.532 315.513 600.088L315.507 600.462C313.525 600.018 311.551 599.57 309.583 599.117L309.595 598.744C307.629 598.292 305.669 597.835 303.717 597.374L303.699 597.745C301.745 597.283 299.797 596.817 297.856 596.347L297.879 595.977C295.937 595.506 294.001 595.031 292.073 594.551L292.044 594.92C290.051 594.424 288.066 593.924 286.088 593.419L286.123 593.052C284.147 592.547 282.178 592.038 280.218 591.524L280.177 591.89C278.214 591.376 276.259 590.857 274.311 590.333L274.359 589.969C272.413 589.446 270.475 588.918 268.545 588.386L268.492 588.748C266.545 588.211 264.607 587.67 262.676 587.124L262.736 586.763C260.755 586.203 258.783 585.637 256.819 585.067L256.753 585.426C254.787 584.855 252.829 584.279 250.881 583.698L250.954 583.342C249.007 582.762 247.07 582.177 245.14 581.587L245.06 581.941C243.129 581.351 241.206 580.755 239.292 580.155L239.379 579.802C237.431 579.191 235.493 578.575 233.563 577.954L233.469 578.304C231.506 577.673 229.554 577.036 227.61 576.393L227.712 576.046C225.772 575.405 223.841 574.758 221.92 574.106L221.81 574.451C219.886 573.799 217.972 573.141 216.068 572.478L216.186 572.136C214.283 571.473 212.39 570.805 210.506 570.133L210.381 570.472C208.431 569.775 206.492 569.073 204.564 568.365L204.698 568.029C202.772 567.322 200.857 566.61 198.954 565.892L198.812 566.225C196.905 565.507 195.01 564.782 193.125 564.053L193.276 563.722C191.394 562.994 189.524 562.26 187.664 561.52L187.505 561.847C185.601 561.09 183.709 560.327 181.829 559.558L181.996 559.235C180.098 558.459 178.211 557.677 176.337 556.889L176.16 557.209C174.283 556.42 172.418 555.625 170.565 554.824L170.751 554.509C168.902 553.71 167.064 552.905 165.239 552.094L165.044 552.405C163.19 551.582 161.349 550.752 159.521 549.917L159.727 549.61C157.869 548.761 156.026 547.906 154.196 547.045L153.98 547.347C152.147 546.485 150.327 545.616 148.521 544.742L148.746 544.444C146.944 543.571 145.155 542.692 143.38 541.807L143.144 542.099C141.347 541.203 139.565 540.301 137.797 539.393L138.043 539.105C136.244 538.182 134.461 537.252 132.693 536.315L132.436 536.597C130.664 535.659 128.907 534.714 127.166 533.763L127.433 533.487C125.695 532.538 123.972 531.582 122.265 530.621L121.987 530.89C120.259 529.917 118.547 528.938 116.851 527.952L117.141 527.689C115.422 526.689 113.719 525.683 112.033 524.671L111.732 524.928C110.042 523.913 108.369 522.892 106.712 521.864L107.024 521.614C105.371 520.588 103.735 519.556 102.115 518.518L101.792 518.76C100.152 517.709 98.5298 516.651 96.9246 515.585L97.2593 515.35C95.6419 514.277 94.0422 513.197 92.4604 512.11L92.1142 512.338C90.5286 511.249 88.9608 510.153 87.4111 509.05L87.7689 508.83C86.2231 507.73 84.6953 506.623 83.1858 505.51L82.8166 505.721C81.2886 504.594 79.7793 503.46 78.2888 502.319L78.6695 502.117C77.1768 500.974 75.7031 499.825 74.2485 498.669L73.8564 498.863C72.398 497.703 70.9587 496.537 69.5388 495.365L69.9421 495.18C68.526 494.01 67.1291 492.834 65.7517 491.65L65.3373 491.826C63.9483 490.632 62.5791 489.432 61.2299 488.225L61.6553 488.059C60.3094 486.855 58.9833 485.644 57.6774 484.426L57.2412 484.582C55.9317 483.361 54.6424 482.133 53.3735 480.899L53.8201 480.753C52.5554 479.522 51.3109 478.285 50.087 477.041L49.6301 477.176C48.4052 475.931 47.2008 474.679 46.0171 473.421L46.4838 473.295C45.3033 472.04 44.1434 470.779 43.0042 469.51L42.5278 469.625C41.3855 468.353 40.2639 467.075 39.1635 465.789L39.6491 465.685C39.1003 465.044 38.5568 464.401 38.0186 463.757C37.4806 463.113 36.9488 462.469 36.4231 461.824L35.9286 461.918C34.8737 460.623 33.8432 459.326 32.8371 458.026L33.3401 457.943C32.3367 456.647 31.3577 455.349 30.4029 454.048L29.8919 454.121C28.9345 452.816 28.0013 451.51 27.0924 450.201L27.6111 450.139C26.7027 448.831 25.8186 447.521 24.9586 446.208L24.4326 446.259C23.5697 444.942 22.731 443.623 21.9164 442.302L22.4492 442.262C21.6368 440.944 20.8485 439.625 20.0841 438.303L19.5449 438.332C18.7787 437.007 18.0364 435.68 17.318 434.351L17.8631 434.333C17.1507 433.015 16.4619 431.695 15.7965 430.373L15.246 430.382C14.5788 429.056 13.9352 427.73 13.3151 426.401L13.8707 426.403C13.2521 425.078 12.6569 423.751 12.085 422.422L11.5247 422.41C10.9536 421.083 10.4056 419.754 9.88074 418.424L10.4452 418.447C9.92658 417.133 9.43053 415.817 8.95693 414.5L8.38879 414.468C7.91401 413.148 7.46177 411.826 7.03192 410.503L7.60339 410.545C7.17459 409.225 6.76816 407.904 6.38399 406.582L5.80962 406.53C5.42834 405.218 5.06895 403.904 4.73136 402.589L5.30828 402.649C4.97486 401.351 4.66275 400.051 4.37184 398.75L3.79275 398.68C3.5012 397.376 3.23091 396.071 2.98179 394.765L3.56272 394.843C3.31416 393.54 3.08673 392.236 2.88035 390.93L2.29792 390.843C2.0943 389.556 1.91113 388.267 1.7483 386.977L2.33191 387.073C2.17098 385.798 2.02996 384.523 1.9088 383.247L1.32432 383.143C1.2029 381.864 1.10138 380.585 1.01968 379.305L1.60479 379.416C1.52326 378.139 1.46148 376.86 1.41938 375.581L0.833894 375.462C0.792518 374.205 0.770125 372.946 0.766665 371.688L1.35228 371.814C1.34887 370.571 1.36395 369.327 1.39746 368.082L0.81193 367.949C0.845507 366.702 0.897546 365.455 0.967969 364.207L1.55321 364.347C1.62351 363.102 1.71217 361.856 1.81911 360.61L1.23434 360.463C1.33959 359.237 1.46252 358.01 1.60306 356.783L2.18718 356.936C2.32553 355.729 2.48095 354.521 2.65342 353.312L2.07009 353.153C2.24283 351.942 2.43263 350.732 2.63941 349.521L3.2218 349.687C3.42823 348.479 3.65163 347.27 3.89192 346.061L3.31063 345.89C3.54862 344.692 3.80314 343.495 4.07414 342.298L4.65424 342.475C4.9189 341.306 5.19929 340.137 5.49536 338.968L4.91656 338.785C5.21308 337.614 5.52529 336.443 5.85313 335.273L6.43054 335.461C6.75791 334.292 7.10089 333.123 7.45942 331.954L6.88351 331.761C7.24256 330.591 7.61717 329.42 8.00731 328.25L8.58163 328.448C8.95844 327.318 9.34974 326.189 9.75547 325.059L9.18276 324.856C9.58871 323.726 10.0091 322.596 10.4438 321.467L11.0148 321.674C11.449 320.546 11.8975 319.418 12.3603 318.291L11.7911 318.079C12.2545 316.95 12.7322 315.821 13.2242 314.693L13.7916 314.909C14.2754 313.8 14.7729 312.691 15.2843 311.583L14.7187 311.363C15.2211 310.274 15.7368 309.185 16.2656 308.097L16.8293 308.321C17.3575 307.234 17.899 306.147 18.4536 305.061L17.8918 304.833C18.4471 303.746 19.0154 302.659 19.5969 301.573L20.1567 301.805C20.7375 300.72 21.3314 299.636 21.9384 298.552L21.3807 298.316C21.9723 297.26 22.5763 296.204 23.1927 295.149L23.7484 295.388C24.3595 294.342 24.9827 293.296 25.6181 292.251L25.0643 292.009C25.7003 290.963 26.3484 289.917 27.0086 288.872L27.5603 289.118C28.2197 288.074 28.8912 287.031 29.5748 285.989L29.0252 285.74C29.7094 284.696 30.4056 283.654 31.1138 282.612L31.6613 282.864C32.3467 281.855 33.0433 280.848 33.7511 279.841L33.2056 279.586C33.9128 278.58 34.6311 277.574 35.3606 276.57L35.9039 276.828C36.6326 275.824 37.3725 274.821 38.1234 273.819L37.5821 273.559C38.3337 272.556 39.0964 271.554 39.8701 270.552L40.4092 270.816C41.1822 269.815 41.9661 268.816 42.7611 267.817L42.2241 267.551C42.9957 266.582 43.7775 265.613 44.5697 264.646L45.1046 264.915C45.8946 263.95 46.6947 262.986 47.5052 262.023L46.9724 261.751C47.7835 260.787 48.6048 259.824 49.4363 258.862L49.967 259.136C50.7978 258.175 51.6388 257.214 52.4899 256.255L51.9613 255.979C52.8131 255.019 53.6751 254.059 54.5471 253.101L55.0736 253.38C55.9239 252.445 56.7838 251.512 57.6533 250.579L57.1289 250.298C57.9929 249.372 58.8663 248.446 59.7491 247.522L60.2715 247.805C61.1536 246.881 62.0451 245.958 62.946 245.036L62.4258 244.751C63.3274 243.828 64.2383 242.907 65.1587 241.986L65.6768 242.274C66.5965 241.354 67.5254 240.435 68.4637 239.518L67.9476 239.228C68.8742 238.322 69.8099 237.417 70.7545 236.513L71.2685 236.804C72.1965 235.916 73.1331 235.029 74.0785 234.143L73.5665 233.85C74.5125 232.963 75.4672 232.077 76.4306 231.193L76.9406 231.488C77.9033 230.604 78.8747 229.722 79.8547 228.84L79.3468 228.543C80.3275 227.661 81.3168 226.78 82.3147 225.9L82.8205 226.199C83.8178 225.319 84.8236 224.441 85.838 223.564L85.3342 223.263C86.3219 222.409 87.3176 221.557 88.3215 220.705L88.8233 221.007C89.8247 220.158 90.8342 219.309 91.8517 218.462L91.3518 218.158C92.37 217.31 93.3962 216.464 94.4303 215.618L94.9282 215.924C95.9617 215.079 97.0032 214.235 98.0527 213.393L97.5569 213.085C98.607 212.242 99.6652 211.4 100.731 210.56L101.225 210.869C102.282 210.035 103.347 209.202 104.42 208.371L103.928 208.061C104.981 207.245 106.04 206.432 107.107 205.619L107.597 205.931C108.663 205.119 109.737 204.308 110.818 203.498L110.33 203.184C111.412 202.374 112.502 201.565 113.598 200.757L114.084 201.072C115.18 200.265 116.284 199.459 117.395 198.654L116.911 198.338C118.022 197.533 119.141 196.729 120.267 195.926L120.749 196.244C121.862 195.451 122.981 194.66 124.107 193.87L123.627 193.551C124.738 192.772 125.856 191.994 126.981 191.217L127.459 191.538C128.583 190.762 129.714 189.987 130.852 189.213L130.375 188.892C131.514 188.118 132.659 187.345 133.812 186.574L134.286 186.897C135.438 186.126 136.596 185.356 137.762 184.588L137.289 184.264C138.455 183.495 139.628 182.728 140.808 181.962L141.279 182.287C142.444 181.531 143.615 180.775 144.794 180.022L144.325 179.695C145.488 178.951 146.658 178.208 147.834 177.466L148.301 177.794C149.477 177.053 150.659 176.313 151.848 175.575L151.383 175.246C152.572 174.507 153.767 173.769 154.969 173.033L155.433 173.363C156.634 172.628 157.842 171.893 159.056 171.16L158.595 170.829C159.809 170.096 161.031 169.364 162.258 168.633L162.718 168.965C163.935 168.241 165.158 167.518 166.387 166.797L165.929 166.463C167.14 165.753 168.357 165.044 169.58 164.336L170.036 164.67C171.258 163.963 172.486 163.257 173.72 162.552L173.266 162.217C174.501 161.512 175.741 160.808 176.988 160.106L177.441 160.443C178.687 159.741 179.939 159.041 181.197 158.342L180.746 158.004C182.005 157.305 183.269 156.607 184.54 155.911L184.989 156.249C186.257 155.554 187.531 154.86 188.811 154.168L188.364 153.829C189.618 153.151 190.877 152.474 192.142 151.799L192.587 152.14C193.851 151.465 195.121 150.792 196.396 150.12L195.953 149.778C197.229 149.106 198.511 148.435 199.798 147.766L200.24 148.108C201.526 147.439 202.819 146.772 204.116 146.106L203.676 145.763C204.975 145.096 206.279 144.431 207.588 143.768L208.027 144.112C209.335 143.449 210.65 142.787 211.97 142.127L211.533 141.782C212.836 141.131 214.144 140.481 215.458 139.832L215.893 140.178C217.195 139.535 218.503 138.893 219.816 138.253L219.383 137.906C220.697 137.266 222.016 136.627 223.34 135.989L223.771 136.337C225.095 135.7 226.424 135.064 227.758 134.43L227.328 134.081C228.663 133.447 230.003 132.814 231.348 132.182L231.776 132.531C233.12 131.9 234.47 131.271 235.825 130.642L235.399 130.293C236.752 129.665 238.111 129.039 239.475 128.414L239.9 128.765C241.237 128.153 242.58 127.542 243.928 126.932L243.505 126.581C244.853 125.971 246.206 125.363 247.564 124.756L247.986 125.108C249.343 124.502 250.706 123.897 252.073 123.294L251.653 122.941C253.021 122.337 254.394 121.735 255.772 121.134L256.19 121.488C257.567 120.888 258.949 120.289 260.336 119.692L259.92 119.337C261.307 118.74 262.7 118.144 264.097 117.55L264.512 117.905C265.898 117.315 267.29 116.727 268.687 116.14L268.274 115.784C269.654 115.204 271.039 114.626 272.428 114.049L272.839 114.406C274.228 113.829 275.622 113.254 277.02 112.681L276.61 112.323C278.009 111.75 279.412 111.178 280.82 110.607L281.228 110.965C282.636 110.395 284.047 109.826 285.464 109.259L285.058 108.9C286.475 108.333 287.897 107.767 289.323 107.203L289.728 107.562C291.153 106.998 292.584 106.436 294.019 105.875L293.616 105.515C295.037 104.96 296.463 104.406 297.894 103.853L298.295 104.214C299.713 103.666 301.136 103.12 302.562 102.576L302.163 102.215C303.59 101.671 305.022 101.128 306.458 100.586L306.856 100.948C308.291 100.407 309.731 99.8673 311.175 99.3294L310.779 98.9671C312.223 98.4289 313.672 97.8924 315.126 97.3576L315.521 97.7205C316.973 97.1858 318.431 96.6528 319.892 96.1213L319.499 95.7578C320.961 95.2262 322.427 94.6963 323.898 94.168L324.289 94.5321C325.745 94.0092 327.205 93.4879 328.669 92.9682L328.279 92.6035C329.733 92.0874 331.191 91.5729 332.653 91.06L333.042 91.4253C334.503 90.9126 335.969 90.4015 337.439 89.8921L337.052 89.5263C338.523 89.0166 339.997 88.5087 341.476 88.0023L341.861 88.3687C343.339 87.8626 344.822 87.3581 346.308 86.8552L345.924 86.4883C347.411 85.9853 348.902 85.484 350.397 84.9843L350.779 85.3517C352.274 84.8523 353.772 84.3544 355.275 83.8583L354.894 83.4903C356.385 82.998 357.88 82.5073 359.379 82.0183L359.758 82.3869C361.244 81.902 362.735 81.4187 364.229 80.9371L363.852 80.568C365.347 80.0863 366.845 79.6062 368.348 79.1277L368.723 79.4973C370.225 79.019 371.731 78.5424 373.241 78.0675L372.867 77.6974C374.378 77.2223 375.892 76.7489 377.41 76.2772L377.782 76.6478C379.299 76.1762 380.821 75.7064 382.346 75.2382L381.975 74.8672C383.501 74.3989 385.03 73.9323 386.564 73.4674L386.933 73.8389C388.458 73.3764 389.988 72.9155 391.521 72.4564L391.154 72.0844C392.671 71.6299 394.193 71.1771 395.718 70.7259L396.084 71.0984C397.608 70.6474 399.137 70.1981 400.668 69.7505L400.304 69.3776C401.837 68.9298 403.373 68.4838 404.913 68.0394L405.275 68.4129C406.815 67.9687 408.357 67.5262 409.904 67.0855L409.543 66.7116C411.09 66.2707 412.641 65.8315 414.195 65.3941L414.555 65.7684C416.109 65.3311 417.666 64.8956 419.227 64.4618L418.869 64.087C420.43 63.6531 421.995 63.221 423.564 62.7906L423.92 63.1659C425.466 62.7417 427.016 62.3192 428.569 61.8984L428.214 61.5227C429.768 61.1018 431.325 60.6826 432.885 60.2651L433.239 60.6412C434.799 60.2239 436.362 59.8083 437.929 59.3945L437.578 59.018C439.145 58.604 440.716 58.1917 442.29 57.7812L442.64 58.1581C444.214 57.7478 445.792 57.3392 447.372 56.9323L447.024 56.555C448.605 56.148 450.19 55.7428 451.778 55.3394L452.125 55.7171C453.713 55.3138 455.303 54.9123 456.898 54.5126L456.553 54.1344C458.135 53.7378 459.72 53.3429 461.309 52.9498L461.653 53.3283C463.233 52.9374 464.816 52.5483 466.402 52.1609L466.06 51.7819C467.647 51.3944 469.238 51.0086 470.831 50.6246L471.172 51.0039C472.765 50.6201 474.361 50.238 475.961 49.8577L475.622 49.478C477.222 49.0975 478.825 48.7189 480.432 48.342L480.769 48.7221C482.375 48.3453 483.985 47.9704 485.597 47.5972L485.262 47.2168C486.875 46.8435 488.491 46.4721 490.111 46.1024L490.445 46.4832C492.062 46.1141 493.683 45.7469 495.306 45.3814L494.974 45.0003C496.579 44.6388 498.188 44.2792 499.8 43.9213L500.131 44.3028C501.743 43.9451 503.357 43.5891 504.975 43.2349L504.646 42.8531C506.264 42.4988 507.885 42.1463 509.51 41.7956L509.838 42.1778C511.462 41.8273 513.089 41.4785 514.719 41.1316L514.393 40.749C516.023 40.402 517.657 40.0568 519.294 39.7134L519.619 40.0963C521.255 39.753 522.894 39.4115 524.537 39.0719L524.214 38.6887C525.857 38.349 527.503 38.0111 529.152 37.675L529.474 38.0586C530.298 37.8906 531.123 37.7231 531.949 37.5561C532.774 37.3891 533.6 37.2228 534.425 37.057L534.106 36.6731C535.758 36.3413 537.412 36.0119 539.065 35.6848L539.383 36.069C541.036 35.742 542.69 35.4175 544.344 35.0952L544.027 34.7107C545.682 34.3884 547.337 34.0684 548.992 33.7509L549.307 34.1357C550.962 33.8182 552.617 33.503 554.272 33.1903L553.959 32.8052C555.615 32.4923 557.272 32.1818 558.929 31.8736L559.24 32.2591C560.896 31.951 562.553 31.6453 564.21 31.342L563.9 30.9563C565.558 30.6528 567.215 30.3517 568.873 30.053L569.182 30.439C570.858 30.137 572.535 29.8374 574.212 29.5401L573.906 29.1538C575.585 28.8561 577.265 28.5608 578.946 28.2679L579.251 28.6545C580.931 28.3617 582.611 28.0714 584.291 27.7834L583.988 27.3965C585.669 27.1084 587.35 26.8227 589.031 26.5395L589.333 26.9266C591.014 26.6434 592.695 26.3626 594.376 26.0843L594.076 25.6968C595.757 25.4183 597.439 25.1422 599.121 24.8685L599.42 25.2563C601.101 24.9827 602.783 24.7114 604.465 24.4426L604.168 24.0546C605.86 23.7843 607.551 23.5163 609.243 23.2508L609.538 23.6391C611.243 23.3715 612.948 23.1064 614.653 22.8437L614.359 22.4551C616.065 22.1924 617.771 21.932 619.477 21.6741L619.768 22.0629C621.474 21.8051 623.179 21.5497 624.884 21.2968L624.594 20.9078C626.3 20.6548 628.006 20.4042 629.713 20.1561L630.001 20.5454C631.706 20.2973 633.412 20.0517 635.117 19.8085L634.831 19.419C636.537 19.1757 638.243 18.9349 639.949 18.6965L640.234 19.0863C641.94 18.848 643.645 18.6121 645.35 18.3786L645.067 17.9886C646.798 17.7517 648.528 17.5174 650.258 17.2855L650.539 17.6758C652.269 17.444 653.999 17.2146 655.728 16.9878L655.449 16.5973C657.179 16.3704 658.909 16.1459 660.639 15.924L660.917 16.3147C662.647 16.0929 664.376 15.8735 666.105 15.6566L665.829 15.2656C667.559 15.0486 669.288 14.8341 671.018 14.6221L671.292 15.0133C673.021 14.8014 674.749 14.5919 676.478 14.3849L676.206 13.9935C677.935 13.7864 679.663 13.5819 681.392 13.3797L681.663 13.7714C683.409 13.5672 685.155 13.3656 686.9 13.1664L686.632 12.7746C688.386 12.5745 690.141 12.3769 691.895 12.1818L692.161 12.5739C693.915 12.3789 695.668 12.1865 697.421 11.9966L697.156 11.6043C698.909 11.4143 700.662 11.2269 702.415 11.042L702.678 11.4344C704.43 11.2496 706.182 11.0673 707.933 10.8875L707.672 10.4949C709.424 10.3151 711.176 10.1377 712.927 9.96297L713.187 10.3558C714.937 10.1811 716.687 10.0089 718.437 9.83919L718.18 9.44619C719.944 9.27509 721.708 9.10654 723.472 8.94056L723.728 9.33375C725.505 9.16649 727.282 9.00182 729.058 8.83974L728.804 8.44638C730.581 8.28425 732.358 8.12471 734.134 7.96776L734.386 8.3613C736.161 8.20442 737.936 8.05013 739.71 7.89842L739.46 7.50471C741.235 7.35296 743.01 7.20378 744.783 7.0572L745.032 7.45107C746.805 7.30453 748.577 7.16059 750.349 7.01922L750.103 6.62519C751.876 6.48376 753.648 6.34492 755.419 6.20866L755.663 6.60285C757.447 6.46564 759.23 6.33105 761.012 6.19908L760.77 5.80475C762.57 5.67141 764.37 5.54075 766.17 5.41273L766.41 5.8072C768.208 5.67924 770.006 5.55393 771.803 5.43127L771.565 5.03665C773.363 4.91394 775.16 4.79391 776.956 4.6765L777.192 5.07125C778.988 4.9539 780.782 4.83919 782.576 4.72714L782.342 4.33225C784.137 4.22015 785.931 4.1107 787.724 4.00389L787.956 4.39889C789.748 4.29213 791.539 4.18798 793.33 4.08649L793.1 3.69137C794.907 3.58897 796.712 3.48926 798.517 3.39223L798.745 3.78746C800.566 3.68953 802.387 3.59431 804.207 3.50183L803.981 3.10647C805.801 3.01395 807.621 2.92417 809.439 2.83709L809.663 3.23254C811.48 3.1455 813.297 3.06119 815.113 2.97959L814.891 2.58405C816.708 2.50241 818.523 2.42349 820.337 2.34729L820.557 2.74295C822.37 2.66677 824.183 2.59331 825.994 2.52256L825.777 2.12685C827.589 2.05608 829.4 1.988 831.21 1.92264L831.426 2.31843C833.257 2.25231 835.087 2.18893 836.916 2.12832L836.703 1.73245C838.546 1.6714 840.388 1.61314 842.228 1.5577L842.439 1.95366C844.279 1.89823 846.117 1.84561 847.954 1.79579L847.745 1.39977C849.583 1.34992 851.42 1.30285 853.255 1.2586L853.462 1.65469C855.296 1.61045 857.129 1.56902 858.961 1.53035L858.757 1.13421C860.59 1.09554 862.421 1.05965 864.251 1.02653L864.453 1.42272C866.282 1.38963 868.11 1.35932 869.937 1.33179L869.737 0.935574C871.599 0.907503 873.46 0.882331 875.319 0.860017L875.516 1.25625C877.378 1.23394 879.237 1.21449 881.095 1.19795L880.9 0.80169C882.759 0.785132 884.617 0.771455 886.472 0.760649L886.665 1.15693C888.52 1.14613 890.373 1.13823 892.225 1.13318L892.035 0.736905C893.888 0.731855 895.739 0.72969 897.588 0.7304L897.776 1.12668C899.624 1.12739 901.471 1.13096 903.316 1.13738L903.131 0.741111C904.992 0.747597 906.851 0.757005 908.708 0.769302L908.891 1.16558C910.773 1.17804 912.653 1.19348 914.531 1.21193L914.351 0.815661C916.231 0.834088 918.108 0.855526 919.983 0.879914L920.161 1.27616C922.036 1.30053 923.909 1.32788 925.779 1.35822L925.604 0.962021C927.476 0.992369 929.346 1.02568 931.214 1.06195L931.387 1.4581C933.254 1.49435 935.119 1.53357 936.982 1.57576L936.812 1.17966C938.676 1.22187 940.538 1.26703 942.398 1.31513L942.566 1.71116C944.465 1.7603 946.362 1.81251 948.258 1.86779L948.093 1.47185C949.991 1.52724 951.888 1.58572 953.782 1.64728L953.944 2.04315C955.838 2.10467 957.729 2.16928 959.618 2.23695L959.459 1.84118C961.349 1.90889 963.236 1.97966 965.122 2.05352L965.278 2.44923C967.163 2.52305 969.045 2.59992 970.925 2.67989L970.771 2.28431C972.652 2.36431 974.531 2.44735 976.407 2.53347L976.558 2.92894C978.463 3.01638 980.366 3.10697 982.267 3.20072L982.118 2.80543C984.035 2.9 985.95 2.99775 987.862 3.09871L988.007 3.49387C989.918 3.5948 991.826 3.69891 993.732 3.8062L993.589 3.41119C995.496 3.51855 997.4 3.62908 999.302 3.74281L999.441 4.13767C1001.34 4.25132 1003.24 4.36818 1005.13 4.48822L1005 4.09357C1006.89 4.21365 1008.79 4.33691 1010.68 4.46336L1010.81 4.85782C1012.73 4.98589 1014.64 5.11724 1016.55 5.25181L1016.42 4.85756C1018.35 4.99383 1020.28 5.13344 1022.21 5.27637L1022.34 5.67037C1024.26 5.81323 1026.19 5.95941 1028.11 6.1089L1027.98 5.7151C1029.91 5.86466 1031.83 6.01755 1033.74 6.17375L1033.86 6.56729C1035.78 6.72341 1037.69 6.88282 1039.6 7.04553L1039.48 6.65227C1041.39 6.81508 1043.29 6.98122 1045.2 7.15063L1045.31 7.5436C1047.24 7.71542 1049.17 7.89062 1051.09 8.06922L1050.98 7.6765C1052.93 7.85735 1054.87 8.04167 1056.82 8.22946L1056.92 8.62184C1058.86 8.80951 1060.8 9.00065 1062.73 9.19524L1062.63 8.80322C1064.56 8.99793 1066.49 9.1961 1068.42 9.39772L1068.52 9.78938C1070.45 9.99087 1072.37 10.1958 1074.29 10.4042L1074.19 10.0129C1076.11 10.2214 1078.03 10.4334 1079.94 10.6488L1080.04 11.0397C1081.99 11.2593 1083.93 11.4826 1085.88 11.7093L1085.79 11.3188C1087.75 11.5475 1089.7 11.7798 1091.65 12.0158L1091.74 12.4058C1093.69 12.6416 1095.64 12.881 1097.58 13.124L1097.5 12.7344C1099.44 12.9776 1101.38 13.2243 1103.32 13.4747L1103.4 13.8638C1105.33 14.1141 1107.26 14.3679 1109.19 14.6253L1109.11 14.2366C1111.04 14.4947 1112.97 14.7563 1114.89 15.0216L1114.96 15.4096C1116.94 15.6821 1118.91 15.9583 1120.87 16.2383L1120.81 15.8508C1122.77 16.131 1124.74 16.415 1126.69 16.7028L1126.76 17.0897C1128.72 17.3773 1130.67 17.6687 1132.62 17.9638L1132.56 17.5775C1134.5 17.8729 1136.45 18.172 1138.39 18.4749L1138.44 18.8606C1140.38 19.1633 1142.32 19.4697 1144.25 19.78L1144.19 19.3949C1146.16 19.7107 1148.12 20.0304 1150.07 20.354L1150.12 20.7384C1152.1 21.066 1154.07 21.3977 1156.04 21.7333L1156 21.3497C1157.97 21.6856 1159.93 22.0255 1161.89 22.3693L1161.93 22.7521C1163.89 23.0957 1165.84 23.4432 1167.79 23.7947L1167.75 23.4127C1169.7 23.7645 1171.65 24.1202 1173.59 24.4799L1173.62 24.861C1175.57 25.223 1177.51 25.589 1179.45 25.959L1179.43 25.5788C1181.42 25.9582 1183.4 26.3418 1185.38 26.7297L1185.4 27.109C1187.38 27.4965 1189.35 27.8882 1191.31 28.2841L1191.3 27.9057C1193.26 28.302 1195.22 28.7023 1197.18 29.1069L1197.19 29.4842C1199.14 29.8884 1201.09 30.2968 1203.03 30.7093L1203.02 30.3331C1204.97 30.7467 1206.91 31.1646 1208.84 31.5866L1208.84 31.9617C1210.83 32.3965 1212.82 32.8358 1214.8 33.2794L1214.81 32.9055C1216.79 33.3495 1218.76 33.798 1220.73 34.2509L1220.72 34.6236C1222.68 35.0761 1224.64 35.533 1226.6 35.9942L1226.61 35.6228C1228.57 36.0845 1230.52 36.5506 1232.46 37.0211L1232.43 37.3911C1234.38 37.862 1236.31 38.3373 1238.24 38.817L1238.27 38.4483C1240.26 38.944 1242.25 39.4442 1244.23 39.9492L1244.19 40.3163C1246.17 40.8208 1248.14 41.3299 1250.1 41.8436L1250.14 41.4781C1252.1 41.9924 1254.05 42.5113 1256 43.0349L1255.95 43.3988C1257.9 43.9218 1259.84 44.4495 1261.77 44.9818L1261.82 44.6196C1263.77 45.1564 1265.71 45.698 1267.64 46.2443L1267.58 46.6047C1269.56 47.1651 1271.53 47.7304 1273.49 48.3007L1273.56 47.9422C1275.53 48.5131 1277.48 49.0889 1279.43 49.6697L1279.36 50.0262C1281.31 50.6063 1283.24 51.1912 1285.17 51.7811L1285.25 51.4267C1287.18 52.0173 1289.11 52.6128 1291.02 53.2132L1290.93 53.5654C1292.88 54.1764 1294.82 54.7925 1296.75 55.4136L1296.84 55.0637C1298.81 55.6954 1300.76 56.3323 1302.7 56.9745L1302.6 57.322C1304.54 57.9633 1306.47 58.6098 1308.39 59.2615L1308.5 58.9165C1310.43 59.5691 1312.34 60.2269 1314.25 60.8898L1314.13 61.2321C1316.03 61.8947 1317.92 62.5624 1319.81 63.2354L1319.93 62.8958C1321.88 63.5926 1323.82 64.2948 1325.75 65.0026L1325.62 65.3391C1327.54 66.0459 1329.46 66.7581 1331.36 67.4758L1331.5 67.1424C1333.41 67.8612 1335.3 68.5855 1337.19 69.3152L1337.04 69.6454C1338.92 70.374 1340.79 71.1082 1342.65 71.8477L1342.81 71.5209C1344.71 72.2782 1346.6 73.0412 1348.48 73.8098L1348.32 74.1331C1350.22 74.9092 1352.1 75.691 1353.98 76.4787L1354.15 76.1594C1356.03 76.9483 1357.9 77.7431 1359.75 78.5437L1359.56 78.8591C1361.41 79.6583 1363.25 80.4633 1365.07 81.274L1365.27 80.9627C1367.12 81.7863 1368.96 82.6158 1370.79 83.4512L1370.59 83.7582C1372.44 84.607 1374.29 85.4619 1376.12 86.3228L1376.33 86.0205C1378.17 86.883 1379.99 87.7516 1381.79 88.6264L1381.57 88.9239C1383.37 89.797 1385.16 90.6761 1386.93 91.5613L1387.17 91.2688C1388.97 92.1647 1390.75 93.0669 1392.52 93.9752L1392.27 94.2624C1394.07 95.1862 1395.85 96.1163 1397.62 97.0527L1397.88 96.771C1399.65 97.7094 1401.41 98.6541 1403.15 99.6052L1402.88 99.881C1404.62 100.83 1406.34 101.786 1408.05 102.747L1408.33 102.477C1410.05 103.45 1411.77 104.43 1413.46 105.416L1413.17 105.679C1414.89 106.679 1416.59 107.684 1418.28 108.697L1418.58 108.44C1420.27 109.455 1421.94 110.476 1423.6 111.504L1423.29 111.754C1424.94 112.779 1426.58 113.812 1428.2 114.85L1428.52 114.607C1430.16 115.659 1431.78 116.717 1433.39 117.782L1433.05 118.018C1434.67 119.091 1436.27 120.171 1437.85 121.257L1438.2 121.03C1439.78 122.119 1441.35 123.215 1442.9 124.318L1442.54 124.537C1444.09 125.638 1445.62 126.744 1447.13 127.858L1447.5 127.647C1449.02 128.774 1450.53 129.908 1452.02 131.048L1451.64 131.251C1453.14 132.394 1454.61 133.543 1456.07 134.699L1456.46 134.505C1457.92 135.664 1459.35 136.83 1460.77 138.003L1460.37 138.188C1461.79 139.358 1463.18 140.534 1464.56 141.718L1464.98 141.542C1466.37 142.736 1467.73 143.936 1469.08 145.143L1468.66 145.309C1470 146.513 1471.33 147.724 1472.64 148.941L1473.07 148.786C1474.38 150.007 1475.67 151.235 1476.94 152.469L1476.49 152.615C1477.76 153.846 1479 155.083 1480.23 156.327L1480.68 156.192C1481.91 157.437 1483.11 158.689 1484.3 159.947L1483.83 160.072C1485.01 161.327 1486.17 162.589 1487.31 163.858L1487.79 163.743Z" stroke="#E41E0A" stroke-dasharray="5 5"/>
</svg>
