<svg width="1135" height="412" viewBox="0 0 1135 412" fill="none" xmlns="http://www.w3.org/2000/svg">
<path d="M1129 126.127C1129.63 127.696 1130.2 129.277 1130.72 130.87L1130.23 130.951C1130.49 131.742 1130.73 132.536 1130.96 133.333C1131.19 134.13 1131.4 134.928 1131.6 135.726L1132.1 135.679C1132.51 137.287 1132.85 138.898 1133.14 140.511L1132.63 140.524C1132.91 142.122 1133.14 143.721 1133.31 145.323L1133.82 145.342C1133.99 146.948 1134.1 148.557 1134.16 150.167L1133.64 150.115C1133.7 151.701 1133.7 153.289 1133.65 154.879L1134.16 154.961C1134.11 156.537 1134 158.113 1133.84 159.691L1133.33 159.579C1133.17 161.135 1132.97 162.692 1132.71 164.25L1133.22 164.388C1132.96 165.91 1132.66 167.433 1132.32 168.956L1131.81 168.792C1131.47 170.307 1131.07 171.822 1130.63 173.338L1131.13 173.524C1130.71 174.979 1130.24 176.433 1129.73 177.887L1129.24 177.68C1128.74 179.128 1128.19 180.576 1127.6 182.024L1128.08 182.25C1127.51 183.653 1126.9 185.056 1126.25 186.458L1125.77 186.215C1125.13 187.588 1124.46 188.962 1123.75 190.335L1124.22 190.594C1123.51 191.954 1122.77 193.313 1122 194.672L1121.53 194.398C1120.79 195.696 1120.02 196.993 1119.21 198.29L1119.66 198.576C1118.85 199.877 1118.01 201.177 1117.14 202.476L1116.69 202.177C1115.85 203.425 1114.98 204.672 1114.08 205.919L1114.52 206.228C1113.63 207.453 1112.72 208.678 1111.78 209.901L1111.34 209.582C1110.4 210.802 1109.44 212.021 1108.44 213.239L1108.86 213.567C1107.91 214.726 1106.94 215.884 1105.94 217.041L1105.52 216.705C1104.53 217.854 1103.51 219.002 1102.47 220.149L1102.88 220.493C1101.84 221.64 1100.77 222.785 1099.68 223.929L1099.28 223.578C1098.24 224.662 1097.19 225.744 1096.11 226.825L1096.51 227.182C1095.43 228.264 1094.33 229.346 1093.21 230.425L1092.82 230.063C1091.69 231.14 1090.55 232.217 1089.39 233.291L1089.77 233.66C1088.67 234.682 1087.54 235.703 1086.4 236.723L1086.02 236.349C1084.87 237.366 1083.71 238.382 1082.53 239.395L1082.91 239.774C1081.72 240.789 1080.52 241.803 1079.3 242.815L1078.93 242.432C1077.76 243.405 1076.57 244.376 1075.36 245.345L1075.73 245.732C1074.53 246.691 1073.32 247.649 1072.09 248.605L1071.73 248.214C1070.5 249.169 1069.26 250.122 1068 251.074L1068.35 251.468C1067.11 252.403 1065.86 253.337 1064.59 254.269L1064.24 253.871C1063 254.775 1061.76 255.677 1060.49 256.578L1060.84 256.979C1059.57 257.881 1058.3 258.781 1057 259.679L1056.66 259.274C1055.37 260.172 1054.06 261.067 1052.74 261.96L1053.07 262.367C1051.8 263.229 1050.51 264.088 1049.21 264.946L1048.88 264.536C1047.59 265.387 1046.28 266.236 1044.97 267.083L1045.29 267.495C1043.98 268.344 1042.64 269.19 1041.3 270.034L1040.97 269.619C1039.64 270.458 1038.29 271.295 1036.93 272.13L1037.25 272.547C1035.94 273.353 1034.61 274.157 1033.27 274.959L1032.95 274.54C1031.62 275.341 1030.27 276.141 1028.91 276.939L1029.22 277.36C1027.86 278.159 1026.49 278.956 1025.1 279.75L1024.79 279.327C1023.42 280.112 1022.04 280.896 1020.65 281.677L1020.96 282.103C1019.61 282.863 1018.24 283.622 1016.87 284.378L1016.57 283.951C1015.19 284.706 1013.81 285.46 1012.42 286.212L1012.72 286.642C1011.32 287.394 1009.91 288.145 1008.5 288.894L1008.2 288.463C1006.8 289.204 1005.39 289.943 1003.97 290.681L1004.26 291.113C1002.88 291.831 1001.48 292.547 1000.08 293.26L999.788 292.826C998.386 293.54 996.974 294.251 995.553 294.961L995.841 295.396C994.419 296.106 992.988 296.815 991.547 297.521L991.261 297.084C989.826 297.787 988.381 298.489 986.926 299.189L987.209 299.627C985.799 300.305 984.381 300.981 982.955 301.656L982.675 301.216C981.249 301.89 979.815 302.562 978.372 303.232L978.649 303.673C977.205 304.343 975.753 305.012 974.292 305.678L974.018 305.236C972.558 305.902 971.09 306.566 969.613 307.228L969.885 307.672C968.444 308.318 966.994 308.962 965.537 309.605L965.268 309.16C963.823 309.797 962.371 310.432 960.91 311.065L961.177 311.511C959.715 312.144 958.246 312.776 956.769 313.405L956.505 312.959C955.03 313.588 953.546 314.215 952.055 314.84L952.316 315.288C950.838 315.908 949.352 316.526 947.858 317.142L947.599 316.693C946.138 317.296 944.67 317.896 943.196 318.495L943.452 318.944C941.977 319.543 940.494 320.14 939.004 320.735L938.75 320.285C937.261 320.879 935.765 321.472 934.262 322.063L934.514 322.514C933.01 323.105 931.499 323.694 929.982 324.281L929.732 323.829C928.245 324.404 926.751 324.977 925.251 325.548L925.499 326.001C924.011 326.568 922.517 327.132 921.017 327.695L920.771 327.241C919.271 327.803 917.765 328.363 916.253 328.921L916.496 329.376C914.982 329.935 913.463 330.491 911.937 331.046L911.696 330.59C910.171 331.144 908.639 331.697 907.101 332.247L907.34 332.703C905.841 333.24 904.335 333.774 902.824 334.307L902.587 333.849C901.078 334.381 899.564 334.911 898.043 335.439L898.278 335.896C896.756 336.424 895.229 336.95 893.696 337.474L893.464 337.016C891.932 337.539 890.394 338.061 888.85 338.581L889.08 339.04C887.539 339.559 885.993 340.075 884.441 340.59L884.212 340.13C882.695 340.633 881.173 341.134 879.646 341.632L879.873 342.093C878.345 342.592 876.811 343.089 875.272 343.584L875.048 343.123C873.51 343.618 871.966 344.111 870.418 344.601L870.64 345.063C869.091 345.554 867.536 346.043 865.976 346.53L865.755 346.068C864.2 346.553 862.639 347.037 861.073 347.518L861.292 347.981C859.758 348.453 858.219 348.923 856.675 349.39L856.458 348.927C854.915 349.394 853.367 349.859 851.814 350.323L852.029 350.787C850.476 351.251 848.917 351.712 847.354 352.172L847.141 351.707C845.578 352.166 844.01 352.624 842.438 353.079L842.649 353.544C841.076 354 839.499 354.453 837.916 354.904L837.707 354.438C836.159 354.88 834.606 355.319 833.049 355.757L833.257 356.223C831.699 356.661 830.138 357.096 828.571 357.529L828.365 357.063C826.799 357.496 825.229 357.927 823.654 358.356L823.859 358.824C822.283 359.253 820.704 359.68 819.12 360.105L818.917 359.638C817.333 360.063 815.746 360.486 814.153 360.907L814.354 361.375C812.786 361.789 811.213 362.202 809.637 362.612L809.438 362.144C807.869 362.552 806.296 362.958 804.719 363.363L804.917 363.832C803.339 364.236 801.758 364.638 800.172 365.039L799.977 364.569C798.391 364.969 796.802 365.367 795.209 365.763L795.403 366.234C793.809 366.63 792.211 367.024 790.609 367.416L790.417 366.945C788.829 367.334 787.237 367.72 785.641 368.105L785.832 368.576C784.252 368.956 782.669 369.335 781.081 369.711L780.893 369.24C779.306 369.616 777.716 369.99 776.121 370.362L776.309 370.834C774.714 371.206 773.115 371.577 771.513 371.945L771.328 371.473C769.726 371.841 768.12 372.207 766.511 372.57L766.695 373.043C765.086 373.407 763.472 373.768 761.855 374.128L761.673 373.655C760.085 374.008 758.493 374.36 756.898 374.709L757.078 375.182C755.483 375.531 753.883 375.878 752.28 376.223L752.101 375.75C750.499 376.095 748.893 376.438 747.284 376.779L747.462 377.252C745.852 377.593 744.239 377.932 742.622 378.269L742.446 377.795C740.83 378.131 739.21 378.466 737.588 378.798L737.762 379.273C736.151 379.602 734.537 379.93 732.919 380.256L732.747 379.781C731.143 380.104 729.537 380.424 727.928 380.743L728.099 381.218C726.488 381.537 724.875 381.853 723.259 382.168L723.089 381.692C721.473 382.007 719.854 382.319 718.232 382.629L718.4 383.105C716.777 383.415 715.151 383.723 713.521 384.029L713.355 383.553C712.714 383.673 712.072 383.794 711.429 383.913C710.441 384.098 709.451 384.281 708.46 384.464L708.625 384.94C707.01 385.238 705.393 385.534 703.773 385.827L703.609 385.351C701.993 385.644 700.374 385.934 698.752 386.223L698.914 386.7C697.291 386.988 695.665 387.275 694.037 387.559L693.877 387.082C692.248 387.366 690.617 387.649 688.984 387.929L689.142 388.406C687.508 388.686 685.871 388.964 684.23 389.24L684.073 388.762C682.437 389.037 680.798 389.31 679.156 389.581L679.312 390.059C677.689 390.327 676.063 390.592 674.435 390.856L674.281 390.377C672.653 390.641 671.022 390.902 669.389 391.161L669.542 391.639C667.908 391.898 666.271 392.155 664.632 392.41L664.481 391.931C662.842 392.186 661.201 392.439 659.557 392.689L659.706 393.168C658.062 393.418 656.415 393.667 654.765 393.913L654.617 393.433C652.975 393.678 651.331 393.921 649.684 394.161L649.831 394.641C648.197 394.879 646.561 395.116 644.922 395.35L644.777 394.87C643.139 395.105 641.498 395.337 639.855 395.566L639.998 396.046C638.354 396.276 636.708 396.504 635.059 396.729L634.917 396.249C633.269 396.475 631.619 396.698 629.966 396.919L630.106 397.399C628.453 397.62 626.797 397.839 625.138 398.056L624.999 397.576C624.17 397.684 623.341 397.792 622.511 397.899C621.681 398.006 620.851 398.113 620.021 398.218L620.158 398.699C618.498 398.911 616.84 399.12 615.182 399.326L615.046 398.846C613.389 399.052 611.733 399.256 610.077 399.457L610.212 399.938C608.556 400.139 606.902 400.338 605.248 400.534L605.115 400.052C603.462 400.248 601.81 400.441 600.159 400.632L600.291 401.113C598.639 401.304 596.989 401.492 595.34 401.677L595.21 401.196C593.548 401.383 591.887 401.567 590.227 401.748L590.356 402.23C588.687 402.412 587.021 402.592 585.355 402.769L585.228 402.287C583.563 402.464 581.899 402.638 580.237 402.81L580.362 403.292C578.699 403.464 577.037 403.633 575.376 403.799L575.253 403.317C573.593 403.483 571.934 403.647 570.277 403.808L570.399 404.29C568.741 404.451 567.085 404.609 565.429 404.765L565.309 404.282C563.634 404.44 561.961 404.595 560.29 404.747L560.409 405.229C558.733 405.382 557.059 405.531 555.386 405.678L555.269 405.196C554.573 405.257 553.877 405.317 553.182 405.378C552.206 405.462 551.231 405.546 550.257 405.628L550.373 406.111C548.703 406.252 547.035 406.391 545.369 406.527L545.254 406.044C543.588 406.18 541.924 406.314 540.261 406.444L540.374 406.928C538.707 407.059 537.041 407.187 535.377 407.312L535.266 406.829C533.581 406.956 531.898 407.081 530.216 407.202L530.326 407.686C528.644 407.807 526.963 407.926 525.285 408.042L525.177 407.559C523.499 407.675 521.822 407.788 520.148 407.899L520.254 408.382C518.579 408.493 516.905 408.601 515.234 408.706L515.129 408.222C513.458 408.327 511.789 408.429 510.122 408.529L510.225 409.013C508.543 409.113 506.862 409.211 505.184 409.306L505.082 408.822C503.391 408.918 501.702 409.01 500.015 409.1L500.115 409.584C498.428 409.674 496.742 409.761 495.058 409.846L494.961 409.362C493.278 409.446 491.597 409.528 489.918 409.606L490.014 410.091C488.335 410.169 486.657 410.245 484.982 410.318L484.887 409.834C483.213 409.907 481.54 409.978 479.87 410.045L479.963 410.529C478.262 410.598 476.564 410.664 474.868 410.727L474.777 410.243C473.081 410.306 471.388 410.366 469.697 410.423L469.786 410.907C468.094 410.965 466.405 411.019 464.718 411.071L464.63 410.586C462.944 410.638 461.26 410.686 459.578 410.732L459.664 411.217C457.982 411.262 456.302 411.305 454.625 411.345L454.541 410.861C452.846 410.901 451.153 410.939 449.464 410.973L449.546 411.458C447.841 411.493 446.139 411.525 444.44 411.554L444.36 411.069C442.661 411.099 440.965 411.125 439.271 411.148L439.35 411.633C437.656 411.656 435.964 411.676 434.276 411.693L434.199 411.209C432.511 411.226 430.825 411.24 429.143 411.252L429.218 411.737C427.526 411.748 425.838 411.757 424.152 411.763L424.079 411.278C422.367 411.284 420.658 411.286 418.953 411.286L419.024 411.771C417.317 411.77 415.614 411.767 413.913 411.761L413.844 411.276C412.144 411.27 410.447 411.26 408.753 411.248L408.821 411.733C407.126 411.72 405.435 411.705 403.746 411.687L403.681 411.202C401.993 411.184 400.308 411.162 398.626 411.138L398.689 411.623C396.97 411.598 395.254 411.57 393.541 411.539L393.479 411.054C391.767 411.023 390.058 410.989 388.353 410.951L388.412 411.436C386.706 411.399 385.003 411.358 383.304 411.315L383.246 410.83C381.548 410.787 379.852 410.74 378.16 410.69L378.216 411.175C376.523 411.125 374.834 411.072 373.149 411.017L373.095 410.532C371.374 410.475 369.657 410.415 367.944 410.351L367.995 410.836C366.277 410.772 364.563 410.705 362.852 410.635L362.803 410.151C361.093 410.081 359.386 410.008 357.684 409.931L357.731 410.416C356.028 410.339 354.329 410.26 352.634 410.177L352.589 409.693C350.894 409.61 349.203 409.524 347.517 409.435L347.56 409.919C345.833 409.828 344.111 409.733 342.392 409.635L342.352 409.151C340.63 409.053 338.913 408.952 337.2 408.847L337.239 409.331C335.525 409.226 333.816 409.118 332.111 409.007L332.075 408.523C330.37 408.412 328.67 408.298 326.975 408.18L327.008 408.663C325.31 408.545 323.616 408.424 321.927 408.299L321.895 407.816C320.163 407.688 318.434 407.557 316.711 407.422L316.74 407.905C315.016 407.77 313.296 407.632 311.582 407.49L311.555 407.007C309.842 406.866 308.133 406.721 306.428 406.572L306.452 407.055C304.747 406.906 303.047 406.754 301.352 406.599L301.331 406.116C299.621 405.96 297.917 405.8 296.217 405.636L296.236 406.118C294.502 405.951 292.773 405.78 291.049 405.606L291.033 405.124C289.31 404.95 287.593 404.772 285.88 404.591L285.894 405.073C284.181 404.891 282.474 404.706 280.771 404.518L280.76 404.037C279.059 403.848 277.363 403.656 275.673 403.461L275.682 403.942C273.954 403.742 272.231 403.538 270.515 403.331L270.509 402.85C268.778 402.641 267.053 402.428 265.334 402.211L265.337 402.692C263.617 402.475 261.903 402.255 260.195 402.03L260.195 401.55C258.488 401.326 256.787 401.098 255.092 400.867L255.089 401.346C253.38 401.113 251.678 400.876 249.981 400.635L249.988 400.155C248.249 399.908 246.518 399.657 244.793 399.403L244.784 399.881C243.058 399.626 241.339 399.367 239.627 399.104L239.64 398.626C237.929 398.363 236.225 398.097 234.527 397.826L234.511 398.304C232.813 398.033 231.122 397.758 229.437 397.48L229.456 397.003C227.718 396.715 225.988 396.424 224.265 396.128L224.242 396.605C222.513 396.308 220.791 396.007 219.077 395.702L219.103 395.226C217.39 394.921 215.685 394.612 213.988 394.299L213.958 394.774C212.26 394.461 210.569 394.143 208.886 393.822L208.919 393.347C207.19 393.016 205.47 392.682 203.758 392.343L203.72 392.817C201.991 392.474 200.269 392.127 198.557 391.776L198.598 391.303C196.887 390.952 195.184 390.596 193.49 390.236L193.445 390.709C191.75 390.349 190.064 389.984 188.386 389.615L188.435 389.144C186.71 388.765 184.994 388.381 183.288 387.992L183.235 388.463C181.509 388.07 179.792 387.672 178.086 387.27L178.143 386.8C176.438 386.398 174.743 385.991 173.057 385.58L172.995 386.049C171.308 385.637 169.631 385.221 167.965 384.8L168.031 384.332C166.304 383.896 164.588 383.455 162.883 383.009L162.812 383.475C161.095 383.026 159.389 382.572 157.695 382.113L157.771 381.649C156.079 381.19 154.397 380.727 152.727 380.258L152.645 380.721C150.961 380.249 149.289 379.772 147.628 379.29L147.715 378.828C145.993 378.328 144.283 377.822 142.585 377.311L142.493 377.771C140.793 377.26 139.107 376.743 137.433 376.221L137.531 375.762C135.859 375.241 134.2 374.714 132.554 374.182L132.45 374.638C130.753 374.09 129.07 373.535 127.401 372.976L127.511 372.521C125.814 371.952 124.13 371.377 122.462 370.796L122.345 371.248C120.674 370.666 119.018 370.079 117.376 369.486L117.5 369.036C115.841 368.437 114.198 367.831 112.569 367.22L112.439 367.668C110.745 367.032 109.067 366.39 107.407 365.742L107.545 365.298C105.886 364.65 104.245 363.997 102.62 363.337L102.474 363.779C100.846 363.118 99.2338 362.45 97.6392 361.777L97.7928 361.338C96.1168 360.631 94.4597 359.916 92.8218 359.194L92.6595 359.629C91.0186 358.906 89.3969 358.176 87.7946 357.439L87.9658 357.009C86.3665 356.274 84.7867 355.532 83.2264 354.784L83.046 355.21C81.3986 354.419 79.7729 353.621 78.1693 352.816L78.3598 352.395C76.7564 351.59 75.1753 350.777 73.6165 349.958L73.4156 350.373C71.8469 349.548 70.3006 348.716 68.7773 347.876L68.989 347.466C67.3886 346.583 65.8137 345.693 64.2645 344.794L64.041 345.197C62.4878 344.296 60.9602 343.387 59.4587 342.47L59.6943 342.074C58.1673 341.141 56.6674 340.2 55.1949 339.251L54.9465 339.639C53.4141 338.651 51.9111 337.654 50.438 336.648L50.7002 336.269C49.2317 335.266 47.7931 334.255 46.3848 333.235L46.1083 333.603C44.6341 332.536 43.1928 331.458 41.7848 330.371L42.0764 330.014C40.6548 328.916 39.2674 327.809 37.9147 326.692L37.6071 327.037C36.2261 325.897 34.881 324.747 33.5721 323.587L33.8961 323.256C32.5452 322.059 31.2333 320.851 29.9609 319.633L29.6195 319.947C28.3413 318.724 27.1025 317.489 25.9038 316.245L26.2628 315.947C25.0133 314.65 23.8077 313.341 22.6466 312.021L22.2691 312.298C21.1015 310.971 19.9784 309.632 18.9004 308.282L19.2962 308.027C18.1926 306.645 17.1367 305.251 16.1291 303.846L15.7149 304.077C14.6931 302.652 13.7206 301.215 12.798 299.765L13.2301 299.561C12.2989 298.098 11.4191 296.624 10.5912 295.137L10.1421 295.313C9.30187 293.804 8.51466 292.283 7.78126 290.75L8.24609 290.604C7.51474 289.075 6.8373 287.534 6.21447 285.981L5.73565 286.095C5.10658 284.526 4.5328 282.945 4.01506 281.352L4.50583 281.271C4.24875 280.48 4.00559 279.686 3.77643 278.889C3.54724 278.092 3.33271 277.294 3.13277 276.495L2.63238 276.543C2.22974 274.934 1.88583 273.324 1.60004 271.711L2.1076 271.697C1.82466 270.1 1.59909 268.5 1.43028 266.899L0.918052 266.879C0.748779 265.273 0.63623 263.665 0.579818 262.055L1.09431 262.106C1.03873 260.52 1.03799 258.932 1.09155 257.342L0.577032 257.26C0.630099 255.685 0.736128 254.108 0.894569 252.531L1.40715 252.642C1.56339 251.086 1.77092 249.529 2.02925 247.971L1.52028 247.833C1.7726 246.311 2.07307 244.789 2.42119 243.266L2.92527 243.429C3.27147 241.915 3.66511 240.399 4.10573 238.884L3.60767 238.697C4.0304 237.243 4.49608 235.788 5.00431 234.334L5.49576 234.541C6.00167 233.093 6.54999 231.645 7.14034 230.197L6.65616 229.971C7.22815 228.568 7.83934 227.166 8.48933 225.763L8.96603 226.007C9.60274 224.633 10.2769 223.26 10.9882 221.887L10.5193 221.627C11.2238 220.268 11.9645 218.908 12.741 217.55L13.2022 217.823C13.9441 216.526 14.7189 215.228 15.5263 213.932L15.0728 213.645C15.8827 212.345 16.7253 211.045 17.6003 209.746L18.0461 210.044C18.8868 208.796 19.7575 207.549 20.658 206.303L20.2196 205.994C21.1051 204.768 22.0193 203.544 22.9617 202.321L23.3928 202.639C24.3328 201.419 25.3012 200.2 26.2977 198.982L25.8738 198.654C26.8224 197.495 27.7962 196.337 28.7952 195.181L29.2122 195.516C30.2048 194.367 31.2223 193.219 32.2644 192.072L31.8541 191.729C32.8964 190.582 33.9634 189.436 35.0546 188.292L35.4583 188.643C36.4918 187.56 37.5473 186.477 38.6245 185.397L38.2269 185.04C39.3062 183.957 40.4072 182.876 41.5297 181.796L41.9212 182.159C43.0418 181.081 44.1839 180.005 45.3474 178.93L44.9618 178.562C46.0689 177.539 47.1952 176.518 48.3406 175.499L48.7206 175.872C49.8633 174.855 51.0251 173.84 52.2059 172.826L51.8313 172.448C53.0138 171.432 54.2153 170.419 55.4356 169.407L55.8048 169.79C56.9776 168.817 58.1679 167.846 59.3755 166.876L59.0113 166.49C60.2065 165.53 61.4185 164.572 62.6472 163.616L63.0065 164.007C64.2336 163.052 65.4774 162.099 66.7379 161.148L66.3834 160.753C67.6227 159.818 68.878 158.884 70.1491 157.952L70.4989 158.35C71.7321 157.446 72.9802 156.544 74.2433 155.643L73.8979 155.242C75.1624 154.341 76.4417 153.441 77.7357 152.543L78.0767 152.947C79.3693 152.05 80.6766 151.155 81.9985 150.261L81.6618 149.854C82.9362 148.993 84.2241 148.133 85.5254 147.276L85.8581 147.686C87.1491 146.835 88.4534 145.986 89.7708 145.138L89.4421 144.726C90.7608 143.878 92.0926 143.032 93.4375 142.187L93.7623 142.602C95.098 141.763 96.4466 140.927 97.808 140.092L97.487 139.675C98.8012 138.869 100.127 138.065 101.465 137.262L101.783 137.682C103.119 136.88 104.468 136.08 105.828 135.283L105.514 134.861C106.876 134.062 108.249 133.266 109.633 132.471L109.944 132.895C111.312 132.109 112.692 131.326 114.083 130.544L113.777 130.118C115.129 129.358 116.493 128.6 117.867 127.843L118.171 128.271C119.544 127.515 120.927 126.761 122.321 126.009L122.021 125.58C123.416 124.827 124.822 124.076 126.238 123.328L126.535 123.759C127.937 123.017 129.349 122.278 130.771 121.541L130.477 121.108C131.861 120.391 133.254 119.675 134.658 118.961L134.949 119.395C136.351 118.682 137.763 117.97 139.184 117.261L138.896 116.825C140.318 116.115 141.749 115.407 143.19 114.701L143.475 115.138C144.911 114.434 146.356 113.732 147.81 113.033L147.528 112.594C148.937 111.916 150.355 111.24 151.782 110.566L152.062 111.005C153.487 110.332 154.922 109.66 156.365 108.99L156.088 108.549C157.531 107.878 158.984 107.21 160.444 106.543L160.719 106.985C162.178 106.319 163.647 105.655 165.123 104.993L164.852 104.55C166.293 103.903 167.742 103.259 169.199 102.617L169.468 103.061C170.913 102.424 172.366 101.789 173.827 101.156L173.56 100.711C175.021 100.077 176.491 99.4455 177.967 98.816L178.231 99.2626C179.707 98.6334 181.191 98.0062 182.682 97.381L182.42 96.9333C183.899 96.3134 185.385 95.6955 186.878 95.0795L187.138 95.5283C188.598 94.9258 190.066 94.3253 191.541 93.7267L191.284 93.277C192.76 92.6781 194.243 92.0812 195.733 91.4862L195.987 91.9368C197.476 91.3422 198.972 90.7495 200.475 90.1588L200.223 89.7073C201.727 89.1163 203.237 88.5273 204.755 87.9403L205.005 88.3928C206.492 87.8177 207.985 87.2445 209.485 86.6734L209.238 86.2201C210.725 85.6537 212.22 85.0892 213.72 84.5267L213.965 84.9808C215.465 84.4186 216.972 83.8583 218.484 83.3001L218.241 82.8451C219.754 82.2866 221.274 81.7301 222.8 81.1756L223.041 81.6313C224.566 81.0771 226.098 80.5248 227.635 79.9747L227.397 79.5182C228.896 78.9817 230.401 78.4472 231.913 77.9147L232.149 78.3719C233.658 77.8403 235.173 77.3106 236.694 76.7829L236.459 76.3249C237.98 75.797 239.507 75.271 241.04 74.7471L241.273 75.2057C242.805 74.682 244.343 74.1603 245.887 73.6407L245.656 73.1813C247.197 72.6626 248.744 72.1459 250.296 71.6313L250.525 72.0913C252.041 71.5886 253.563 71.0878 255.091 70.589L254.864 70.1283C256.392 69.6292 257.926 69.1322 259.464 68.6371L259.689 69.0985C261.227 68.6036 262.77 68.1108 264.319 67.62L264.096 67.1581C265.646 66.6671 267.201 66.1781 268.76 65.6912L268.981 66.1537C270.537 65.6681 272.098 65.1846 273.664 64.7031L273.445 64.24C274.979 63.7684 276.518 63.2988 278.061 62.8311L278.278 63.2948C279.822 62.8274 281.37 62.362 282.923 61.8986L282.707 61.4343C284.261 60.9707 285.82 60.5092 287.383 60.0496L287.596 60.5144C289.159 60.0551 290.726 59.5978 292.299 59.1425L292.087 58.6772C293.66 58.2218 295.238 57.7684 296.821 57.3172L297.03 57.783C298.578 57.3416 300.131 56.9022 301.688 56.4648L301.48 55.9984C303.037 55.5609 304.599 55.1255 306.165 54.692L306.372 55.1589C307.937 54.7256 309.508 54.2944 311.082 53.8652L310.878 53.3978C312.453 52.9685 314.033 52.5412 315.617 52.116L315.82 52.5838C317.403 52.1587 318.991 51.7357 320.584 51.3148L320.383 50.8465C321.951 50.432 323.523 50.0195 325.1 49.6091L325.299 50.0778C326.868 49.6695 328.44 49.2632 330.017 48.8589L329.82 48.3897C331.397 47.9853 332.979 47.5829 334.565 47.1826L334.76 47.6522C336.345 47.2521 337.934 46.854 339.528 46.4579L339.334 45.9879C340.928 45.5917 342.525 45.1976 344.127 44.8057L344.319 45.2761C345.908 44.8875 347.5 44.501 349.096 44.1165L348.905 43.6456C350.485 43.2651 352.068 42.8867 353.655 42.5103L353.844 42.9816C355.431 42.6053 357.021 42.2311 358.615 41.8589L358.428 41.3873C360.023 41.015 361.621 40.6448 363.224 40.2767L363.409 40.7488C365.011 40.3808 366.616 40.0149 368.226 39.6511L368.042 39.1787C369.651 38.8148 371.264 38.4531 372.881 38.0934L373.064 38.5662C374.652 38.213 376.244 37.8618 377.839 37.5127L377.658 37.0395C379.254 36.6902 380.853 36.3431 382.456 35.998L382.635 36.4715C384.238 36.1265 385.843 35.7836 387.453 35.4428L387.275 34.969C388.885 34.6281 390.498 34.2892 392.115 33.9526L392.291 34.4268C393.907 34.0902 395.526 33.7557 397.149 33.4234L396.975 32.9489C398.586 32.619 400.2 32.2912 401.817 31.9656L401.99 32.4404C403.593 32.1177 405.2 31.797 406.809 31.4785L406.638 31.0033C408.248 30.6846 409.862 30.3681 411.478 30.0536L411.648 30.5291C413.264 30.2147 414.883 29.9025 416.505 29.5923L416.337 29.1166C417.96 28.8064 419.586 28.4983 421.215 28.1923L421.382 28.6684C423.01 28.3625 424.642 28.0588 426.277 27.7573L426.112 27.2809C427.726 26.9832 429.344 26.6875 430.964 26.394L431.127 26.8706C432.743 26.5778 434.363 26.2871 435.985 25.9986L435.823 25.5216C437.446 25.233 439.071 24.9465 440.7 24.6621L440.86 25.1393C442.488 24.855 444.119 24.5728 445.753 24.2928L445.594 23.8153C447.229 23.5352 448.866 23.2573 450.506 22.9815L450.663 23.4593C452.299 23.1841 453.938 22.9112 455.58 22.6404L455.425 22.1624C457.048 21.8948 458.673 21.6293 460.302 21.3659L460.456 21.8441C462.084 21.5808 463.714 21.3196 465.348 21.0606L465.195 20.5821C466.829 20.323 468.466 20.0661 470.105 19.8113L470.256 20.29C471.894 20.0353 473.536 19.7828 475.18 19.5325L475.03 19.0535C476.675 18.8031 478.322 18.5549 479.972 18.3088L480.12 18.788C481.761 18.5431 483.406 18.3005 485.052 18.06L484.906 17.5806C486.54 17.3421 488.176 17.1057 489.815 16.8714L489.96 17.351C491.598 17.1168 493.239 16.8848 494.882 16.655L494.739 16.1752C496.382 15.9453 498.029 15.7176 499.677 15.4921L499.819 15.9721C501.467 15.7466 503.118 15.5234 504.771 15.3023L504.631 14.8221C506.284 14.601 507.94 14.3821 509.599 14.1654L509.737 14.6458C510.566 14.5375 511.396 14.4298 512.226 14.3226C513.056 14.2154 513.886 14.1088 514.716 14.003L514.578 13.5223C516.238 13.3105 517.897 13.1014 519.555 12.8949L519.691 13.3757C521.348 13.1693 523.004 12.9656 524.659 12.7644L524.525 12.2834C526.18 12.0823 527.835 11.8837 529.489 11.6878L529.622 12.169C531.275 11.9732 532.927 11.78 534.577 11.5894L534.446 11.1081C536.097 10.9175 537.747 10.7295 539.397 10.5441L539.526 11.0257C541.189 10.8388 542.85 10.6547 544.509 10.4732L544.381 9.99147C546.049 9.80907 547.716 9.62937 549.382 9.45234L549.509 9.93422C551.174 9.75725 552.837 9.58297 554.5 9.41136L554.375 8.92932C556.038 8.75766 557.7 8.58869 559.36 8.42238L559.484 8.90457C561.144 8.73831 562.803 8.57473 564.46 8.41379L564.338 7.93145C565.996 7.77048 567.652 7.61217 569.307 7.45652L569.428 7.93901C571.102 7.78155 572.775 7.6268 574.447 7.47476L574.328 6.99213C576.004 6.83973 577.678 6.69007 579.35 6.54312L579.468 7.0259C581.14 6.879 582.81 6.73482 584.48 6.59334L584.364 6.11043C586.033 5.96892 587.701 5.83012 589.368 5.69403L589.482 6.17708C591.148 6.04102 592.813 5.90768 594.476 5.77704L594.363 5.29386C596.03 5.16289 597.696 5.03463 599.359 4.90908L599.47 5.39238C601.155 5.26522 602.839 5.14084 604.52 5.01923L604.411 4.53582C606.093 4.41417 607.773 4.2953 609.452 4.17919L609.56 4.66272C611.238 4.54664 612.914 4.43332 614.589 4.32276L614.483 3.83912C616.158 3.72852 617.831 3.62068 619.503 3.51559L619.607 3.99933C621.278 3.89427 622.948 3.79196 624.615 3.69239L624.512 3.20855C626.194 3.10809 627.874 3.01041 629.553 2.91551L629.654 3.39946C631.345 3.30385 633.034 3.21107 634.721 3.12111L634.622 2.63708C636.309 2.54708 637.995 2.45993 639.678 2.37556L639.776 2.85967C641.459 2.77534 643.14 2.69381 644.819 2.6151L644.723 2.13089C646.402 2.05214 648.079 1.9762 649.755 1.90305L649.849 2.38732C651.524 2.3142 653.196 2.24387 654.867 2.17633L654.774 1.69198C656.474 1.62322 658.173 1.55734 659.869 1.49435L659.96 1.97877C661.656 1.91579 663.349 1.85569 665.04 1.79846L664.951 1.31398C666.642 1.25674 668.332 1.20236 670.019 1.15085L670.106 1.63539C671.793 1.5839 673.477 1.53527 675.158 1.4895L675.072 1.00492C676.755 0.959136 678.434 0.916201 680.112 0.876124L680.196 1.36076C681.891 1.32026 683.583 1.28267 685.273 1.24799L685.191 0.763323C686.895 0.72834 688.597 0.696304 690.297 0.667219L690.377 1.15192C692.076 1.12284 693.772 1.09671 695.465 1.07351L695.387 0.588772C697.081 0.56556 698.772 0.545292 700.461 0.527949L700.538 1.0127C702.226 0.995354 703.911 0.980943 705.594 0.969449L705.519 0.484677C707.21 0.473124 708.899 0.464505 710.585 0.458839L710.658 0.943621C712.37 0.93786 714.078 0.935137 715.784 0.935429L715.713 0.450644C717.419 0.450938 719.123 0.454265 720.823 0.460594L720.893 0.945371C722.593 0.951702 724.29 0.961043 725.984 0.973393L725.916 0.488621C727.611 0.500972 729.302 0.516336 730.99 0.53469L731.056 1.01944C732.744 1.03779 734.429 1.05914 736.111 1.08348L736.047 0.59875C737.767 0.623626 739.483 0.65163 741.196 0.682745L741.258 1.16743C742.97 1.19854 744.679 1.23276 746.384 1.27007L746.324 0.785415C748.031 0.822746 749.733 0.86318 751.433 0.906703L751.49 1.3913C753.189 1.43481 754.884 1.48142 756.576 1.5311L756.521 1.04655C758.213 1.09625 759.902 1.14905 761.588 1.20491L761.641 1.6894C763.362 1.74643 765.079 1.80667 766.793 1.8701L766.742 1.38569C768.46 1.4493 770.174 1.51613 771.885 1.58616L771.934 2.07048C773.644 2.14048 775.35 2.21368 777.053 2.29007L777.005 1.80583C778.708 1.88225 780.408 1.96187 782.103 2.04467L782.148 2.5288C783.843 2.61157 785.533 2.69751 787.22 2.78662L787.177 2.3026C788.904 2.39381 790.626 2.48834 792.344 2.58618L792.385 3.07009C794.106 3.16811 795.823 3.26946 797.536 3.37412L797.498 2.89035C799.212 2.99506 800.921 3.10308 802.626 3.2144L802.662 3.69802C804.366 3.8093 806.066 3.92387 807.762 4.04174L807.728 3.55827C809.427 3.67633 811.121 3.79768 812.81 3.92233L812.841 4.40563C814.574 4.53346 816.302 4.66476 818.026 4.7995L817.997 4.31638C819.721 4.45119 821.44 4.58945 823.155 4.73115L823.181 5.21407C824.895 5.3557 826.604 5.50077 828.308 5.64926L828.284 5.16655C829.989 5.31511 831.689 5.46711 833.385 5.62252L833.406 6.10501C835.116 6.26171 836.82 6.4219 838.519 6.58554L838.5 6.1033C840.235 6.27032 841.964 6.44094 843.687 6.61516L843.704 7.09715C845.427 7.27127 847.144 7.44899 848.856 7.63028L848.843 7.14858C850.556 7.32996 852.263 7.51493 853.965 7.70347L853.976 8.18488C855.677 8.37332 857.373 8.56532 859.063 8.76087L859.055 8.27976C860.783 8.47969 862.505 8.68332 864.222 8.89066L864.227 9.37144C865.958 9.58055 867.684 9.79342 869.403 10.01L869.4 9.52961C871.12 9.74636 872.834 9.96686 874.542 10.1911L874.542 10.6711C876.249 10.8952 877.95 11.1231 879.644 11.3546L879.647 10.875C881.356 11.1085 883.059 11.3458 884.755 11.5868L884.749 12.0661C886.487 12.3131 888.219 12.564 889.943 12.8189L889.953 12.3401C891.678 12.5951 893.397 12.8541 895.109 13.117L895.097 13.5954C896.808 13.8581 898.512 14.1248 900.209 14.3953L900.225 13.9176C901.924 14.1883 903.615 14.463 905.299 14.7416L905.28 15.2188C907.018 15.5063 908.749 15.7978 910.472 16.0935L910.495 15.6169C912.224 15.9137 913.946 16.2146 915.66 16.5197L915.633 16.9958C917.346 17.3006 919.051 17.6096 920.749 17.9228L920.778 17.4474C922.477 17.7607 924.168 18.0782 925.85 18.3998L925.817 18.8745C927.546 19.2049 929.267 19.5397 930.979 19.8788L931.016 19.4048C932.746 19.7473 934.467 20.0942 936.18 20.4456L936.139 20.9188C937.85 21.2699 939.553 21.6253 941.247 21.9851L941.291 21.5128C942.987 21.8729 944.673 22.2373 946.35 22.6061L946.302 23.0776C948.027 23.4569 949.742 23.8408 951.448 24.2292L951.502 23.7587C953.228 24.1517 954.944 24.5494 956.651 24.9517L956.593 25.4213C958.298 25.8233 959.994 26.23 961.679 26.6413L961.741 26.1728C963.428 26.5845 965.105 27.0008 966.772 27.4218L966.706 27.8891C968.432 28.3252 970.148 28.7662 971.853 29.2121L971.925 28.7461C973.642 29.1951 975.347 29.6491 977.042 30.1081L976.965 30.5728C978.658 31.0314 980.34 31.4949 982.01 31.9633L982.092 31.5C983.775 31.9722 985.448 32.4495 987.108 32.9317L987.021 33.3935C988.744 33.8937 990.454 34.3993 992.152 34.9103L992.244 34.4501C993.943 34.9616 995.63 35.4785 997.304 36.0007L997.206 36.4591C998.878 36.9808 1000.54 37.5077 1002.18 38.0399L1002.29 37.5833C1003.98 38.1319 1005.67 38.6861 1007.34 39.2459L1007.23 39.7004C1008.92 40.2698 1010.61 40.8449 1012.28 41.4258L1012.39 40.9735C1014.06 41.5551 1015.72 42.1425 1017.36 42.7357L1017.24 43.1856C1018.9 43.7849 1020.54 44.39 1022.17 45.0009L1022.3 44.5536C1023.99 45.1892 1025.67 45.8311 1027.33 46.4793L1027.19 46.9238C1028.85 47.571 1030.49 48.2244 1032.12 48.884L1032.26 48.4426C1033.89 49.1038 1035.5 49.7712 1037.1 50.4448L1036.94 50.8829C1038.62 51.5909 1040.28 52.3057 1041.91 53.0273L1042.08 52.5929C1043.72 53.3158 1045.34 54.0455 1046.94 54.782L1046.77 55.2124C1048.37 55.9475 1049.95 56.6893 1051.51 57.4378L1051.69 57.0118C1053.34 57.8022 1054.96 58.6 1056.57 59.4052L1056.38 59.8263C1057.98 60.6315 1059.56 61.444 1061.12 62.2639L1061.32 61.8481C1062.89 62.6732 1064.44 63.5058 1065.96 64.3458L1065.75 64.7558C1067.35 65.6383 1068.92 66.5289 1070.47 67.4276L1070.7 67.0243C1072.25 67.9253 1073.78 68.8344 1075.28 69.7517L1075.04 70.1477C1076.57 71.0805 1078.07 72.0216 1079.54 72.9709L1079.79 72.5829C1081.32 73.5708 1082.83 74.5678 1084.3 75.5737L1084.04 75.9525C1085.5 76.9552 1086.94 77.9667 1088.35 78.9868L1088.63 78.618C1090.1 79.6859 1091.54 80.7634 1092.95 81.8504L1092.66 82.2079C1094.08 83.3055 1095.47 84.4127 1096.82 85.5294L1097.13 85.1846C1098.51 86.3247 1099.86 87.4748 1101.16 88.6348L1100.84 88.9655C1102.19 90.1628 1103.5 91.3705 1104.78 92.5886L1105.12 92.274C1106.4 93.4977 1107.63 94.732 1108.83 95.9769L1108.47 96.274C1109.72 97.5715 1110.93 98.8802 1112.09 100.2L1112.47 99.9231C1113.64 101.25 1114.76 102.589 1115.84 103.939L1115.44 104.194C1116.54 105.576 1117.6 106.97 1118.61 108.375L1119.02 108.144C1120.04 109.57 1121.02 111.007 1121.94 112.456L1121.51 112.66C1122.44 114.123 1123.32 115.598 1124.15 117.084L1124.59 116.908C1125.43 118.417 1126.22 119.938 1126.96 121.471L1126.49 121.617C1127.22 123.146 1127.9 124.687 1128.52 126.241L1129 126.127Z" stroke="#E41E0A" stroke-dasharray="5 5"/>
</svg>
