<svg width="1138" height="404" viewBox="0 0 1138 404" fill="none" xmlns="http://www.w3.org/2000/svg">
<path d="M1133 140.805C1133.57 142.394 1134.09 143.993 1134.56 145.603L1134.06 145.667C1134.29 146.466 1134.51 147.268 1134.71 148.072C1134.91 148.877 1135.1 149.681 1135.27 150.486L1135.78 150.456C1136.12 152.077 1136.41 153.698 1136.64 155.32L1136.14 155.316C1136.37 156.922 1136.54 158.528 1136.65 160.135L1137.16 160.172C1137.28 161.783 1137.34 163.394 1137.34 165.005L1136.83 164.936C1136.83 166.523 1136.77 168.11 1136.67 169.697L1137.18 169.797C1137.07 171.369 1136.91 172.941 1136.7 174.513L1136.19 174.384C1135.98 175.934 1135.72 177.483 1135.41 179.031L1135.92 179.187C1135.61 180.699 1135.26 182.21 1134.86 183.721L1134.37 183.541C1133.97 185.043 1133.52 186.544 1133.03 188.044L1133.52 188.247C1133.05 189.686 1132.54 191.124 1131.98 192.56L1131.5 192.337C1130.94 193.766 1130.34 195.195 1129.71 196.622L1130.18 196.865C1129.56 198.248 1128.9 199.629 1128.21 201.009L1127.74 200.749C1127.06 202.1 1126.34 203.45 1125.58 204.798L1126.04 205.073C1125.29 206.409 1124.5 207.742 1123.68 209.074L1123.23 208.785C1122.44 210.057 1121.63 211.327 1120.78 212.596L1121.22 212.897C1120.37 214.17 1119.48 215.441 1118.56 216.709L1118.13 216.396C1117.24 217.615 1116.33 218.832 1115.39 220.047L1115.82 220.371C1114.89 221.566 1113.94 222.759 1112.95 223.949L1112.53 223.616C1111.55 224.804 1110.54 225.989 1109.51 227.173L1109.92 227.515C1108.93 228.642 1107.92 229.766 1106.88 230.888L1106.48 230.538C1105.44 231.654 1104.39 232.767 1103.31 233.878L1103.71 234.235C1102.63 235.346 1101.52 236.455 1100.39 237.561L1100 237.197C1098.93 238.245 1097.84 239.291 1096.73 240.335L1097.11 240.705C1096 241.751 1094.86 242.794 1093.7 243.835L1093.32 243.46C1092.17 244.499 1090.99 245.536 1089.79 246.571L1090.16 246.952C1089.02 247.937 1087.86 248.919 1086.68 249.899L1086.32 249.513C1085.14 250.491 1083.94 251.466 1082.73 252.44L1083.09 252.831C1081.87 253.805 1080.64 254.778 1079.39 255.748L1079.03 255.353C1077.82 256.286 1076.6 257.216 1075.36 258.144L1075.71 258.543C1074.49 259.461 1073.24 260.378 1071.98 261.292L1071.64 260.889C1070.38 261.802 1069.1 262.713 1067.81 263.621L1068.15 264.027C1066.88 264.92 1065.6 265.811 1064.29 266.699L1063.96 266.29C1062.69 267.152 1061.42 268.011 1060.12 268.869L1060.46 269.281C1059.16 270.14 1057.85 270.996 1056.53 271.85L1056.2 271.434C1054.88 272.287 1053.54 273.138 1052.19 273.986L1052.51 274.404C1051.21 275.222 1049.9 276.038 1048.57 276.851L1048.25 276.43C1046.93 277.237 1045.6 278.041 1044.25 278.844L1044.57 279.267C1043.22 280.07 1041.86 280.871 1040.49 281.669L1040.18 281.244C1038.81 282.037 1037.44 282.827 1036.05 283.616L1036.35 284.044C1035.01 284.805 1033.66 285.564 1032.3 286.32L1031.99 285.89C1030.63 286.646 1029.26 287.4 1027.87 288.152L1028.17 288.584C1026.78 289.336 1025.38 290.086 1023.97 290.833L1023.68 290.399C1022.28 291.138 1020.88 291.875 1019.46 292.609L1019.75 293.045C1018.37 293.759 1016.99 294.471 1015.59 295.18L1015.3 294.743C1013.9 295.452 1012.49 296.159 1011.07 296.863L1011.36 297.302C1009.94 298.007 1008.51 298.71 1007.07 299.411L1006.79 298.97C1005.36 299.664 1003.92 300.355 1002.48 301.044L1002.76 301.486C1001.35 302.156 999.933 302.825 998.506 303.491L998.23 303.047C996.804 303.713 995.369 304.376 993.925 305.037L994.198 305.482C992.753 306.144 991.298 306.803 989.835 307.461L989.564 307.014C988.106 307.669 986.638 308.322 985.161 308.972L985.428 309.419C983.997 310.049 982.557 310.677 981.108 311.303L980.843 310.854C979.396 311.48 977.939 312.103 976.475 312.724L976.737 313.174C975.271 313.795 973.797 314.414 972.315 315.031L972.056 314.58C970.574 315.196 969.084 315.81 967.586 316.422L967.842 316.875C966.38 317.472 964.91 318.067 963.432 318.66L963.178 318.206C961.713 318.794 960.239 319.38 958.758 319.963L959.01 320.418C957.528 321.001 956.038 321.583 954.541 322.162L954.292 321.707C952.796 322.286 951.292 322.863 949.781 323.437L950.027 323.894C948.528 324.463 947.022 325.031 945.509 325.596L945.265 325.139C943.785 325.691 942.297 326.242 940.803 326.79L941.044 327.249C939.549 327.797 938.047 328.344 936.538 328.888L936.299 328.429C934.791 328.973 933.276 329.515 931.754 330.055L931.99 330.515C930.468 331.054 928.938 331.592 927.401 332.127L927.167 331.667C925.662 332.191 924.15 332.714 922.631 333.234L922.863 333.695C921.357 334.211 919.845 334.725 918.326 335.237L918.096 334.774C916.578 335.286 915.054 335.795 913.524 336.302L913.751 336.765C912.22 337.272 910.682 337.777 909.138 338.279L908.913 337.816C907.37 338.318 905.821 338.818 904.265 339.316L904.488 339.781C902.972 340.266 901.449 340.749 899.921 341.231L899.7 340.766C898.174 341.246 896.642 341.724 895.104 342.2L895.323 342.666C893.785 343.142 892.241 343.616 890.691 344.088L890.474 343.622C888.925 344.094 887.371 344.563 885.81 345.03L886.025 345.497C884.468 345.964 882.904 346.428 881.336 346.89L881.123 346.422C879.59 346.874 878.052 347.323 876.509 347.77L876.72 348.238C875.176 348.685 873.626 349.13 872.072 349.573L871.863 349.104C870.309 349.547 868.75 349.987 867.185 350.426L867.392 350.895C865.827 351.333 864.257 351.769 862.681 352.203L862.476 351.734C860.905 352.166 859.329 352.597 857.748 353.025L857.951 353.496C856.402 353.915 854.848 354.333 853.289 354.748L853.088 354.277C851.53 354.692 849.967 355.105 848.399 355.516L848.599 355.987C847.03 356.398 845.457 356.807 843.879 357.213L843.682 356.741C842.104 357.148 840.522 357.552 838.935 357.954L839.131 358.426C837.544 358.828 835.951 359.228 834.355 359.625L834.161 359.153C832.599 359.542 831.032 359.928 829.461 360.313L829.653 360.786C828.082 361.171 826.506 361.553 824.926 361.934L824.736 361.46C823.157 361.84 821.573 362.218 819.984 362.594L820.173 363.068C818.584 363.444 816.991 363.818 815.393 364.189L815.206 363.715C813.609 364.086 812.008 364.455 810.402 364.822L810.587 365.297C809.006 365.658 807.421 366.017 805.831 366.374L805.648 365.899C804.066 366.254 802.481 366.607 800.891 366.958L801.073 367.434C799.482 367.785 797.888 368.133 796.29 368.48L796.11 368.004C794.513 368.35 792.911 368.695 791.305 369.037L791.483 369.513C789.877 369.855 788.267 370.195 786.652 370.533L786.476 370.056C784.876 370.391 783.272 370.723 781.664 371.054L781.838 371.531C780.247 371.858 778.651 372.183 777.052 372.505L776.88 372.028C775.281 372.35 773.679 372.671 772.073 372.989L772.244 373.466C770.638 373.785 769.028 374.101 767.414 374.414L767.245 373.936C765.631 374.25 764.014 374.562 762.394 374.871L762.562 375.349C760.941 375.659 759.316 375.966 757.688 376.27L757.522 375.792C755.923 376.091 754.32 376.388 752.714 376.684L752.878 377.163C751.272 377.458 749.662 377.751 748.048 378.042L747.885 377.562C746.272 377.853 744.656 378.141 743.036 378.428L743.197 378.907C741.577 379.194 739.953 379.478 738.326 379.76L738.166 379.28C736.54 379.562 734.91 379.841 733.277 380.119L733.435 380.599C731.814 380.874 730.189 381.147 728.562 381.418L728.405 380.938C726.792 381.206 725.176 381.472 723.556 381.736L723.711 382.217C722.091 382.481 720.468 382.743 718.842 383.003L718.689 382.522C717.063 382.781 715.434 383.039 713.802 383.294L713.954 383.775C712.322 384.031 710.686 384.284 709.048 384.534L708.897 384.053C708.252 384.152 707.607 384.25 706.961 384.348C705.966 384.499 704.971 384.649 703.974 384.798L704.123 385.28C702.499 385.523 700.873 385.764 699.244 386.003L699.097 385.521C697.471 385.759 695.843 385.995 694.212 386.228L694.358 386.71C692.726 386.944 691.092 387.176 689.455 387.405L689.311 386.922C687.674 387.152 686.035 387.379 684.392 387.603L684.535 388.086C682.892 388.311 681.246 388.533 679.597 388.753L679.457 388.271C677.812 388.49 676.165 388.708 674.515 388.923L674.654 389.406C673.023 389.619 671.389 389.829 669.753 390.037L669.615 389.554C667.979 389.762 666.341 389.968 664.7 390.172L664.836 390.656C663.194 390.859 661.55 391.061 659.903 391.26L659.768 390.777C658.122 390.976 656.473 391.173 654.821 391.368L654.955 391.851C653.303 392.046 651.648 392.239 649.991 392.429L649.859 391.945C648.21 392.134 646.559 392.321 644.905 392.506L645.035 392.99C643.394 393.173 641.751 393.354 640.105 393.533L639.976 393.049C638.331 393.228 636.683 393.404 635.033 393.578L635.16 394.063C633.51 394.237 631.857 394.409 630.202 394.579L630.076 394.094C628.421 394.264 626.764 394.431 625.104 394.596L625.228 395.081C623.568 395.246 621.906 395.409 620.241 395.57L620.119 395.085C619.286 395.165 618.454 395.245 617.621 395.324C616.787 395.403 615.954 395.481 615.121 395.559L615.242 396.044C613.576 396.2 611.912 396.353 610.248 396.503L610.128 396.018C608.465 396.169 606.803 396.316 605.142 396.461L605.26 396.947C603.598 397.092 601.938 397.234 600.279 397.374L600.162 396.889C598.503 397.029 596.846 397.166 595.19 397.301L595.305 397.786C593.648 397.921 591.992 398.053 590.338 398.183L590.224 397.697C588.557 397.828 586.89 397.956 585.225 398.081L585.337 398.567C583.664 398.693 581.992 398.816 580.322 398.937L580.211 398.451C578.541 398.572 576.872 398.69 575.205 398.805L575.314 399.291C573.646 399.407 571.979 399.519 570.314 399.63L570.207 399.143C568.542 399.254 566.879 399.361 565.217 399.466L565.323 399.952C563.66 400.057 561.999 400.159 560.34 400.259L560.236 399.773C558.557 399.874 556.88 399.972 555.204 400.067L555.306 400.554C553.627 400.65 551.949 400.743 550.272 400.833L550.171 400.347C549.473 400.384 548.776 400.421 548.079 400.458C547.101 400.509 546.124 400.56 545.147 400.61L545.247 401.096C543.573 401.181 541.901 401.264 540.231 401.343L540.133 400.857C538.464 400.937 536.796 401.014 535.129 401.088L535.226 401.575C533.555 401.649 531.886 401.721 530.219 401.791L530.124 401.304C528.436 401.374 526.749 401.442 525.065 401.506L525.158 401.993C523.473 402.058 521.789 402.12 520.107 402.179L520.016 401.693C518.335 401.752 516.656 401.809 514.978 401.863L515.068 402.349C513.39 402.403 511.714 402.455 510.04 402.503L509.952 402.016C508.278 402.065 506.607 402.111 504.937 402.154L505.023 402.641C503.339 402.685 501.656 402.726 499.975 402.764L499.89 402.277C498.197 402.315 496.506 402.351 494.817 402.384L494.9 402.871C493.211 402.904 491.523 402.934 489.838 402.962L489.756 402.475C488.071 402.502 486.388 402.527 484.708 402.549L484.788 403.036C483.107 403.058 481.428 403.077 479.751 403.094L479.673 402.607C477.997 402.623 476.323 402.637 474.651 402.648L474.727 403.135C473.026 403.147 471.326 403.155 469.629 403.161L469.554 402.674C467.857 402.679 466.163 402.682 464.471 402.682L464.544 403.169C462.851 403.17 461.161 403.167 459.473 403.161L459.402 402.674C457.715 402.669 456.03 402.661 454.348 402.649L454.417 403.137C452.735 403.126 451.054 403.112 449.376 403.095L449.309 402.608C447.613 402.591 445.921 402.572 444.231 402.549L444.297 403.037C442.592 403.014 440.89 402.989 439.19 402.96L439.126 402.473C437.428 402.445 435.731 402.414 434.038 402.38L434.101 402.867C432.407 402.833 430.716 402.796 429.027 402.756L428.967 402.269C427.279 402.23 425.594 402.187 423.912 402.142L423.971 402.629C422.28 402.583 420.592 402.535 418.907 402.484L418.85 401.997C417.139 401.945 415.431 401.89 413.726 401.832L413.781 402.319C412.076 402.261 410.373 402.2 408.674 402.136L408.621 401.649C406.922 401.586 405.227 401.519 403.534 401.45L403.585 401.936C401.892 401.867 400.202 401.794 398.515 401.719L398.466 401.232C396.78 401.157 395.096 401.079 393.416 400.998L393.463 401.484C391.746 401.401 390.032 401.315 388.321 401.227L388.275 400.74C386.565 400.651 384.858 400.559 383.155 400.464L383.199 400.951C381.495 400.856 379.794 400.758 378.097 400.657L378.056 400.171C376.36 400.07 374.667 399.966 372.978 399.859L373.017 400.346C371.327 400.239 369.641 400.129 367.958 400.016L367.921 399.53C366.203 399.415 364.489 399.297 362.778 399.176L362.813 399.662C361.098 399.54 359.387 399.415 357.68 399.288L357.647 398.802C355.94 398.674 354.237 398.544 352.539 398.41L352.569 398.895C350.87 398.761 349.174 398.624 347.483 398.484L347.454 397.999C345.763 397.859 344.077 397.716 342.394 397.57L342.42 398.055C340.698 397.906 338.98 397.753 337.266 397.598L337.241 397.113C335.524 396.956 333.812 396.797 332.103 396.635L332.125 397.12C330.416 396.957 328.711 396.791 327.011 396.623L326.991 396.138C325.292 395.969 323.597 395.797 321.906 395.622L321.923 396.107C320.23 395.931 318.541 395.753 316.857 395.571L316.842 395.087C315.114 394.901 313.392 394.711 311.674 394.519L311.686 395.002C309.968 394.809 308.254 394.613 306.545 394.414L306.535 393.93C304.827 393.731 303.124 393.528 301.426 393.322L301.433 393.805C299.734 393.599 298.04 393.39 296.351 393.178L296.346 392.695C294.643 392.48 292.945 392.263 291.252 392.042L291.255 392.524C289.527 392.299 287.805 392.07 286.088 391.838L286.088 391.355C284.372 391.123 282.661 390.888 280.956 390.649L280.954 391.131C279.248 390.891 277.547 390.649 275.853 390.403L275.858 389.922C274.164 389.676 272.476 389.427 270.793 389.174L270.785 389.655C269.065 389.397 267.35 389.135 265.642 388.87L265.653 388.39C263.93 388.122 262.213 387.851 260.502 387.577L260.488 388.057C258.776 387.782 257.071 387.504 255.371 387.222L255.388 386.742C253.69 386.461 251.997 386.176 250.312 385.887L250.292 386.366C248.592 386.075 246.898 385.781 245.211 385.482L245.233 385.004C243.505 384.698 241.783 384.389 240.068 384.076L240.042 384.554C238.326 384.241 236.617 383.924 234.915 383.604L234.943 383.126C233.242 382.806 231.548 382.482 229.861 382.154L229.829 382.631C228.14 382.303 226.459 381.971 224.785 381.636L224.82 381.16C223.093 380.814 221.373 380.464 219.661 380.11L219.623 380.586C217.904 380.231 216.194 379.872 214.491 379.509L214.533 379.034C212.832 378.672 211.138 378.305 209.452 377.935L209.407 378.409C207.72 378.039 206.04 377.664 204.369 377.286L204.419 376.813C202.702 376.424 200.993 376.032 199.294 375.635L199.241 376.107C197.523 375.707 195.815 375.302 194.115 374.893L194.172 374.421C192.473 374.013 190.784 373.6 189.103 373.183L189.042 373.654C187.36 373.237 185.687 372.815 184.023 372.39L184.088 371.921C182.377 371.483 180.675 371.042 178.983 370.596L178.914 371.064C177.202 370.613 175.5 370.158 173.808 369.698L173.881 369.231C172.191 368.772 170.51 368.308 168.839 367.84L168.761 368.306C167.089 367.838 165.427 367.365 163.776 366.888L163.858 366.423C162.147 365.929 160.447 365.43 158.758 364.927L158.671 365.39C156.97 364.884 155.281 364.372 153.602 363.856L153.695 363.395C152.018 362.879 150.353 362.359 148.7 361.835L148.602 362.295C146.936 361.766 145.28 361.233 143.637 360.695L143.739 360.236C142.035 359.678 140.343 359.115 138.663 358.547L138.555 359.004C136.874 358.435 135.206 357.862 133.551 357.283L133.665 356.828C132.011 356.251 130.371 355.668 128.744 355.08L128.624 355.533C126.947 354.928 125.283 354.317 123.634 353.701L123.76 353.251C122.082 352.624 120.419 351.993 118.771 351.356L118.639 351.804C116.989 351.166 115.354 350.523 113.733 349.875L113.872 349.43C112.234 348.775 110.612 348.114 109.005 347.449L108.86 347.891C107.188 347.199 105.533 346.501 103.895 345.797L104.048 345.357C102.413 344.655 100.794 343.946 99.1927 343.232L99.0322 343.668C97.4268 342.953 95.8385 342.231 94.2675 341.504L94.4359 341.071C92.7847 340.307 91.1526 339.537 89.54 338.76L89.3632 339.189C87.7477 338.411 86.1515 337.627 84.575 336.837L84.7606 336.413C83.187 335.624 81.6331 334.829 80.0991 334.028L79.9043 334.448C78.2845 333.603 76.6868 332.75 75.1112 331.891L75.3158 331.477C73.7406 330.618 72.1877 329.753 70.6575 328.881L70.4427 329.29C68.9027 328.412 67.3855 327.528 65.8913 326.637L66.1167 326.234C64.5471 325.298 63.0031 324.355 61.4851 323.404L61.2482 323.8C59.7263 322.847 58.2303 321.887 56.7605 320.919L57.0094 320.531C55.5147 319.548 54.0475 318.556 52.6079 317.558L52.3465 317.937C50.8483 316.898 49.3798 315.851 47.9415 314.796L48.2164 314.426C46.7825 313.375 45.3789 312.315 44.0058 311.248L43.7171 311.607C42.2798 310.49 40.8757 309.365 39.5051 308.231L39.8087 307.883C38.4249 306.738 37.0757 305.585 35.7614 304.423L35.4424 304.757C34.1007 303.571 32.7951 302.377 31.5261 301.173L31.8611 300.854C30.5514 299.611 29.2811 298.36 28.0505 297.1L27.6986 297.403C26.4625 296.136 25.2661 294.861 24.1101 293.576L24.4789 293.292C23.2739 291.953 22.1132 290.604 20.9973 289.246L20.6107 289.51C19.4885 288.144 18.4113 286.768 17.3795 285.382L17.7837 285.141C16.7273 283.722 15.719 282.293 14.7595 280.855L14.3377 281.072C13.3646 279.613 12.4412 278.144 11.5681 276.664L12.0068 276.474C11.1255 274.981 10.296 273.478 9.51876 271.964L9.06398 272.125C8.27511 270.589 7.53971 269.042 6.85848 267.484L7.32796 267.355C6.64864 265.802 6.02361 264.239 5.45358 262.665L4.97119 262.763C4.39544 261.174 3.87536 259.574 3.41169 257.964L3.9049 257.9C3.67468 257.101 3.45846 256.299 3.25633 255.495C3.05418 254.69 2.86672 253.886 2.69384 253.081L2.19214 253.111C1.84401 251.491 1.55467 249.869 1.3235 248.247L1.83124 248.251C1.60237 246.645 1.43092 245.039 1.31628 243.432L0.804996 243.396C0.690041 241.785 0.631846 240.173 0.629815 238.563L1.14228 238.631C1.14028 237.044 1.19315 235.457 1.30034 233.87L0.788891 233.77C0.895099 232.198 1.05429 230.626 1.26589 229.055L1.77443 229.183C1.98309 227.634 2.24306 226.085 2.55384 224.536L2.04982 224.381C2.35337 222.868 2.70507 221.357 3.1044 219.847L3.60269 220.027C3.99981 218.525 4.44438 217.024 4.93592 215.524L4.44443 215.32C4.91601 213.881 5.43053 212.443 5.98756 211.007L6.47174 211.231C7.02623 209.801 7.62312 208.372 8.26201 206.945L7.78575 206.702C8.40477 205.319 9.06296 203.938 9.75993 202.559L10.2281 202.818C10.9108 201.467 11.631 200.117 12.3883 198.769L11.9283 198.494C12.6783 197.158 13.4645 195.825 14.2865 194.493L14.7381 194.782C15.5234 193.51 16.3415 192.24 17.1923 190.971L16.7487 190.67C17.6021 189.397 18.4881 188.127 19.4064 186.858L19.8418 187.171C20.7242 185.952 21.6365 184.735 22.5786 183.52L22.1509 183.196C23.0773 182.002 24.0322 180.809 25.0154 179.618L25.4355 179.951C26.4161 178.763 27.4251 177.578 28.4621 176.394L28.0496 176.052C29.0368 174.926 30.0492 173.801 31.0866 172.679L31.4921 173.029C32.5229 171.914 33.5785 170.8 34.6588 169.69L34.2603 169.332C35.3408 168.221 36.4457 167.112 37.575 166.006L37.9666 166.37C39.0361 165.322 40.1275 164.276 41.2406 163.232L40.8553 162.862C41.9705 161.817 43.1073 160.773 44.2657 159.732L44.6447 160.108C45.801 159.068 46.9788 158.031 48.178 156.996L47.8051 156.615C48.946 155.631 50.1061 154.648 51.2853 153.668L51.6525 154.054C52.8288 153.076 54.0243 152.101 55.2385 151.127L54.877 150.737C56.0931 149.762 57.3281 148.789 58.5818 147.819L58.9379 148.214C60.143 147.282 61.3653 146.351 62.6049 145.423L62.254 145.024C63.4809 144.106 64.7246 143.189 65.9849 142.275L66.3307 142.678C67.5894 141.765 68.8647 140.855 70.1565 139.946L69.8156 139.54C71.0857 138.647 72.3718 137.756 73.6736 136.868L74.0098 137.278C75.2728 136.416 76.5507 135.556 77.8434 134.699L77.5118 134.286C78.806 133.428 80.115 132.571 81.4386 131.717L81.7657 132.133C83.0879 131.28 84.4246 130.429 85.776 129.581L85.4532 129.163C86.7559 128.345 88.0721 127.53 89.4017 126.716L89.7203 127.137C91.0393 126.33 92.3715 125.526 93.7167 124.724L93.4021 124.3C94.7487 123.497 96.1083 122.696 97.481 121.898L97.7916 122.324C99.1548 121.53 100.531 120.74 101.92 119.951L101.613 119.523C102.954 118.762 104.306 118.003 105.67 117.247L105.973 117.677C107.336 116.921 108.711 116.167 110.097 115.416L109.798 114.984C111.186 114.231 112.585 113.482 113.995 112.734L114.291 113.168C115.686 112.429 117.091 111.692 118.508 110.958L118.216 110.523C119.594 109.809 120.982 109.097 122.381 108.387L122.67 108.824C124.068 108.115 125.476 107.409 126.895 106.704L126.609 106.265C128.029 105.56 129.459 104.857 130.899 104.156L131.182 104.597C132.608 103.904 134.044 103.212 135.49 102.524L135.211 102.081C136.618 101.411 138.035 100.743 139.462 100.076L139.738 100.52C141.163 99.8543 142.598 99.1909 144.043 98.5297L143.769 98.0848C145.214 97.4231 146.669 96.7637 148.133 96.1066L148.403 96.5529C149.862 95.8982 151.33 95.2457 152.807 94.5955L152.54 94.1479C153.971 93.5178 155.411 92.8898 156.86 92.2641L157.124 92.7129C158.572 92.0876 160.028 91.4644 161.493 90.8435L161.231 90.3935C162.697 89.7721 164.171 89.1531 165.653 88.5362L165.912 88.9874C167.394 88.3709 168.883 87.7568 170.382 87.1449L170.125 86.6926C171.587 86.0954 173.058 85.5004 174.536 84.9076L174.789 85.3609C176.255 84.7731 177.728 84.1874 179.209 83.6039L178.958 83.1496C180.44 82.5658 181.93 81.9842 183.427 81.4049L183.675 81.8602C185.172 81.2812 186.676 80.7044 188.187 80.1299L187.941 79.6736C189.44 79.104 190.946 78.5366 192.459 77.9714L192.703 78.4286C194.183 77.8758 195.67 77.3252 197.165 76.7767L196.923 76.3187C198.418 75.7699 199.92 75.2234 201.429 74.679L201.668 75.138C203.177 74.5939 204.692 74.0521 206.214 73.5125L205.977 73.0527C207.5 72.5128 209.03 71.9751 210.566 71.4397L210.801 71.9004C212.306 71.3758 213.818 70.8534 215.337 70.3332L215.105 69.8718C216.611 69.3559 218.123 68.8422 219.642 68.3307L219.871 68.7928C221.389 68.2815 222.914 67.7724 224.444 67.2656L224.217 66.8027C225.748 66.2955 227.285 65.7906 228.829 65.288L229.055 65.7516C230.598 65.2491 232.147 64.7489 233.703 64.251L233.479 63.7867C234.996 63.3012 236.519 62.8178 238.047 62.3366L238.268 62.8016C239.794 62.3211 241.326 61.8429 242.863 61.3668L242.644 60.9012C244.182 60.4249 245.726 59.9508 247.276 59.4789L247.493 59.9451C249.042 59.4734 250.597 59.004 252.157 58.5367L251.942 58.0698C253.5 57.6035 255.063 57.1393 256.632 56.6774L256.845 57.1448C258.378 56.6936 259.916 56.2444 261.459 55.7974L261.248 55.3294C262.792 54.8822 264.341 54.4372 265.896 53.9944L266.105 54.463C267.659 54.0204 269.218 53.5799 270.782 53.1417L270.575 52.6725C272.141 52.2341 273.711 51.7979 275.286 51.3639L275.491 51.8336C277.062 51.4008 278.639 50.9703 280.22 50.5419L280.017 50.0717C281.566 49.6521 283.12 49.2347 284.678 48.8195L284.88 49.2902C286.438 48.8752 288.001 48.4623 289.568 48.0516L289.369 47.5803C290.937 47.1694 292.511 46.7607 294.088 46.3542L294.286 46.826C295.863 46.4196 297.445 46.0155 299.032 45.6136L298.837 45.1414C300.424 44.7393 302.016 44.3395 303.613 43.9419L303.807 44.4146C305.369 44.0257 306.935 43.6389 308.506 43.2543L308.314 42.7812C309.886 42.3965 311.461 42.014 313.041 41.6337L313.231 42.1073C314.811 41.7271 316.395 41.3491 317.983 40.9733L317.795 40.4993C319.384 40.1234 320.977 39.7497 322.575 39.3782L322.761 39.8526C324.358 39.4812 325.959 39.1121 327.565 38.7452L327.38 38.2703C328.962 37.909 330.547 37.5498 332.137 37.1928L332.32 37.6681C333.901 37.3129 335.487 36.9599 337.076 36.6091L336.895 36.1335C338.485 35.7826 340.079 35.4338 341.678 35.0872L341.857 35.5632C343.455 35.2168 345.057 34.8726 346.662 34.5305L346.484 34.0542C348.091 33.7121 349.701 33.3721 351.315 33.0345L351.491 33.5112C353.092 33.1764 354.696 32.8438 356.304 32.5134L356.13 32.0364C357.721 31.7094 359.316 31.3846 360.915 31.062L361.088 31.5394C362.686 31.2169 364.289 30.8966 365.894 30.5785L365.723 30.1008C367.33 29.7826 368.94 29.4665 370.554 29.1527L370.723 29.6308C372.336 29.3171 373.953 29.0056 375.574 28.6964L375.406 28.218C377.027 27.9087 378.651 27.6016 380.279 27.2967L380.446 27.7754C382.045 27.476 383.648 27.1787 385.254 26.8836L385.089 26.4046C386.696 26.1095 388.306 25.8165 389.92 25.5257L390.083 26.005C391.696 25.7143 393.312 25.4258 394.932 25.1395L394.771 24.6599C396.391 24.3736 398.015 24.0894 399.642 23.8075L399.801 24.2873C401.428 24.0055 403.058 23.7259 404.691 23.4486L404.533 22.9684C406.154 22.6931 407.778 22.42 409.406 22.1492L409.563 22.6296C411.176 22.3612 412.792 22.0949 414.411 21.8309L414.256 21.3502C415.876 21.086 417.499 20.8241 419.126 20.5644L419.279 21.0453C420.905 20.7857 422.533 20.5283 424.165 20.2731L424.014 19.7919C425.646 19.5367 427.281 19.2836 428.92 19.0329L429.07 19.5143C430.708 19.2636 432.349 19.0151 433.993 18.7689L433.845 18.2873C435.468 18.0442 437.095 17.8033 438.724 17.5646L438.871 18.0465C440.496 17.8085 442.124 17.5726 443.755 17.339L443.61 16.8568C445.241 16.6231 446.876 16.3916 448.513 16.1624L448.657 16.6447C450.294 16.4155 451.933 16.1886 453.576 15.9639L453.433 15.4814C455.076 15.2566 456.722 15.0341 458.37 14.8138L458.511 15.2966C460.156 15.0769 461.803 14.8594 463.453 14.6442L463.314 14.1613C464.945 13.9485 466.578 13.738 468.215 13.5298L468.353 14.0129C469.988 13.8047 471.627 13.5988 473.268 13.395L473.132 12.9117C474.773 12.7079 476.418 12.5063 478.065 12.307L478.199 12.7906C479.846 12.5913 481.495 12.3944 483.146 12.1997L483.013 11.7159C484.665 11.5212 486.32 11.3287 487.977 11.1385L488.108 11.6223C489.757 11.4331 491.409 11.2461 493.063 11.0613L492.933 10.5773C494.574 10.394 496.217 10.2129 497.863 10.0342L497.991 10.5184C499.637 10.3396 501.284 10.1632 502.934 9.98894L502.807 9.50454C504.458 9.33027 506.111 9.15826 507.766 8.98852L507.892 9.47307C509.547 9.30339 511.204 9.13599 512.863 8.97087L512.739 8.48616C514.399 8.321 516.062 8.15812 517.726 7.99754L517.849 8.48239C518.681 8.40212 519.514 8.32244 520.347 8.24333C521.18 8.16421 522.014 8.08574 522.846 8.00794L522.725 7.52295C524.391 7.3673 526.056 7.21428 527.72 7.06388L527.839 7.54901C529.503 7.39865 531.165 7.25092 532.826 7.10578L532.708 6.62052C534.369 6.47534 536.03 6.33278 537.689 6.19281L537.805 6.67821C539.464 6.53829 541.122 6.40098 542.778 6.26625L542.663 5.78073C544.32 5.64597 545.975 5.5138 547.63 5.38422L547.743 5.86987C549.411 5.73925 551.077 5.61127 552.742 5.48591L552.63 5.00015C554.303 4.87416 555.975 4.75083 557.646 4.63014L557.757 5.11602C559.427 4.99536 561.096 4.87734 562.763 4.76196L562.654 4.27597C564.322 4.16055 565.989 4.04777 567.654 3.93761L567.761 4.4237C569.426 4.31357 571.089 4.20607 572.751 4.10118L572.645 3.61499C574.307 3.51008 575.968 3.40777 577.628 3.30808L577.732 3.79437C579.411 3.69352 581.088 3.59534 582.764 3.49982L582.661 3.01344C584.341 2.91769 586.019 2.82463 587.696 2.73423L587.797 3.2207C589.473 3.13032 591.148 3.04262 592.821 2.95758L592.721 2.47103C594.394 2.38596 596.066 2.30355 597.736 2.22379L597.834 2.71042C599.504 2.63069 601.172 2.55361 602.838 2.47917L602.742 1.99247C604.413 1.91785 606.082 1.84588 607.749 1.77657L607.843 2.26334C609.532 2.19314 611.218 2.12566 612.903 2.06088L612.81 1.57405C614.495 1.50926 616.179 1.44717 617.86 1.3878L617.952 1.87469C619.633 1.81533 621.312 1.75866 622.989 1.7047L622.9 1.21774C624.578 1.16376 626.254 1.11247 627.928 1.06386L628.016 1.55086C629.689 1.50227 631.361 1.45636 633.031 1.41313L632.944 0.926089C634.629 0.882471 636.312 0.841572 637.992 0.80339L638.077 1.29048C639.77 1.25201 641.462 1.2163 643.151 1.18334L643.067 0.696219C644.757 0.663245 646.445 0.633033 648.13 0.605547L648.212 1.09269C649.896 1.06522 651.579 1.04049 653.26 1.01848L653.18 0.531304C654.861 0.509291 656.54 0.490014 658.217 0.473458L658.295 0.960652C659.971 0.944101 661.645 0.930273 663.317 0.919158L663.24 0.431944C664.942 0.420628 666.642 0.412124 668.339 0.40642L668.414 0.893638C670.11 0.887934 671.805 0.885036 673.497 0.884924L673.424 0.397704C675.116 0.397594 676.807 0.400278 678.494 0.405749L678.566 0.892964C680.253 0.898434 681.938 0.906684 683.62 0.917706L683.55 0.430498C685.233 0.441528 686.913 0.455326 688.591 0.471896L688.659 0.959095C690.354 0.975836 692.047 0.995401 693.737 1.01778L693.671 0.53061C695.376 0.553187 697.078 0.578624 698.777 0.60692L698.841 1.09406C700.54 1.12235 702.236 1.15349 703.929 1.18747L703.867 0.700348C705.561 0.734337 707.252 0.771177 708.94 0.81085L709.001 1.29792C710.689 1.33757 712.374 1.38006 714.056 1.42538L713.997 0.938348C715.688 0.983895 717.376 1.03229 719.061 1.08353L719.117 1.5705C720.828 1.62253 722.536 1.67749 724.241 1.73537L724.186 1.24845C725.892 1.30635 727.594 1.36718 729.294 1.43092L729.347 1.91776C731.045 1.98147 732.741 2.04809 734.433 2.11761L734.382 1.63084C736.076 1.70039 737.765 1.77284 739.452 1.84818L739.502 2.33487C741.188 2.4102 742.871 2.48841 744.551 2.56951L744.504 2.08291C746.222 2.16582 747.936 2.25174 749.647 2.34066L749.692 2.82716C751.402 2.91604 753.109 3.00792 754.812 3.10279L754.769 2.6164C756.473 2.7113 758.174 2.8092 759.871 2.91006L759.912 3.39633C761.608 3.49716 763.301 3.60097 764.99 3.70774L764.951 3.22158C766.641 3.32839 768.327 3.43817 770.01 3.5509L770.047 4.03692C771.765 4.15201 773.479 4.27019 775.189 4.39143L775.154 3.90556C776.869 4.02713 778.581 4.1518 780.288 4.27953L780.321 4.76525C782.027 4.89293 783.73 5.02368 785.429 5.1575L785.398 4.67194C787.098 4.80581 788.793 4.94274 790.485 5.08272L790.513 5.5681C792.204 5.70802 793.891 5.85098 795.574 5.99698L795.547 5.51179C797.27 5.66124 798.988 5.81386 800.702 5.96965L800.726 6.45465C802.443 6.61072 804.156 6.76998 805.864 6.9324L805.842 6.44761C807.552 6.61011 809.256 6.77577 810.957 6.94459L810.976 7.42915C812.676 7.5979 814.371 7.76979 816.062 7.94483L816.044 7.4605C817.738 7.63582 819.427 7.81429 821.111 7.9959L821.126 8.47998C822.853 8.66623 824.576 8.85579 826.294 9.04863L826.281 8.56481C828 8.75775 829.714 8.95397 831.423 9.15347L831.433 9.63701C833.141 9.83641 834.844 10.0391 836.542 10.245L836.534 9.76178C838.233 9.96781 839.927 10.1771 841.616 10.3897L841.622 10.8726C843.325 11.0869 845.023 11.3045 846.716 11.5255L846.713 11.0429C848.441 11.2683 850.163 11.4972 851.88 11.7295L851.88 12.2118C853.596 12.444 855.306 12.6796 857.011 12.9186L857.014 12.4367C858.72 12.6758 860.42 12.9183 862.115 13.1642L862.11 13.6457C863.804 13.8914 865.492 14.1406 867.175 14.3931L867.183 13.912C868.903 14.1701 870.617 14.4318 872.326 14.6969L872.315 15.1776C874.038 15.445 875.755 15.716 877.466 15.9905L877.479 15.5103C879.191 15.785 880.897 16.0632 882.596 16.345L882.58 16.8248C884.278 17.1063 885.97 17.3915 887.656 17.6801L887.676 17.2008C889.376 17.4919 891.069 17.7865 892.757 18.0847L892.734 18.5635C894.463 18.869 896.185 19.1782 897.9 19.4912L897.926 19.013C899.642 19.3261 901.351 19.643 903.053 19.9636L903.024 20.4412C904.726 20.7615 906.42 21.0856 908.107 21.4133L908.139 20.9363C909.827 21.2643 911.508 21.5959 913.182 21.9312L913.147 22.4075C914.875 22.7534 916.594 23.1033 918.306 23.457L918.345 22.9814C920.063 23.3363 921.774 23.6952 923.477 24.058L923.434 24.5329C925.136 24.8954 926.83 25.2618 928.515 25.6321L928.561 25.1579C930.248 25.5285 931.927 25.9028 933.598 26.2811L933.549 26.7544C935.266 27.143 936.974 27.5356 938.674 27.9323L938.727 27.4598C940.444 27.8606 942.153 28.2654 943.853 28.6744L943.796 29.1459C945.494 29.5546 947.184 29.9673 948.865 30.3841L948.925 29.9135C950.607 30.3306 952.28 30.7518 953.945 31.177L953.88 31.6466C955.591 32.0839 957.293 32.5254 958.985 32.9713L959.054 32.5028C960.766 32.9538 962.468 33.4092 964.16 33.869L964.087 34.3363C965.777 34.7957 967.458 35.2593 969.128 35.7273L969.206 35.2612C970.878 35.7296 972.54 36.2023 974.192 36.6793L974.11 37.1441C975.821 37.6382 977.521 38.1369 979.21 38.6401L979.297 38.1768C980.998 38.6835 982.687 39.1948 984.365 39.7107L984.273 40.1727C985.949 40.6881 987.614 41.2081 989.268 41.7327L989.365 41.2723C991.032 41.8011 992.687 42.3345 994.331 42.8726L994.228 43.3312C995.933 43.8893 997.625 44.4523 999.304 45.0203L999.412 44.5635C1001.09 45.132 1002.76 45.7056 1004.42 46.284L1004.3 46.7389C1005.96 47.3166 1007.6 47.8992 1009.22 48.4867L1009.34 48.0339C1011.02 48.6395 1012.68 49.2502 1014.33 49.866L1014.21 50.3165C1015.89 50.9429 1017.55 51.5745 1019.2 52.2113L1019.33 51.7633C1020.98 52.401 1022.61 53.044 1024.23 53.6922L1024.1 54.1377C1025.73 54.7926 1027.36 55.4528 1028.96 56.1184L1029.11 55.6757C1030.78 56.3682 1032.43 57.0663 1034.07 57.7702L1033.92 58.2098C1035.55 58.9126 1037.17 59.621 1038.77 60.3351L1038.94 59.8989C1040.54 60.6147 1042.13 61.3361 1043.7 62.0632L1043.53 62.4959C1045.18 63.26 1046.82 64.0304 1048.43 64.8069L1048.6 64.3782C1050.22 65.1561 1051.82 65.9401 1053.39 66.7303L1053.21 67.1546C1054.78 67.9433 1056.33 68.738 1057.87 69.5388L1058.06 69.1191C1059.68 69.9646 1061.28 70.8168 1062.86 71.6758L1062.65 72.0902C1064.23 72.949 1065.78 73.8144 1067.31 74.6864L1067.52 74.2777C1069.06 75.1553 1070.58 76.0396 1072.08 76.9306L1071.85 77.3332C1073.42 78.2692 1074.96 79.2124 1076.48 80.1629L1076.72 79.7674C1078.24 80.7203 1079.74 81.6805 1081.21 82.6479L1080.96 83.0358C1082.45 84.0196 1083.92 85.0107 1085.36 86.0092L1085.62 85.6298C1087.12 86.6689 1088.59 87.7161 1090.03 88.7711L1089.75 89.1409C1091.19 90.1926 1092.59 91.252 1093.96 92.3192L1094.25 91.9598C1095.69 93.0769 1097.09 94.2024 1098.46 95.3364L1098.16 95.6839C1099.54 96.8288 1100.89 97.9822 1102.21 99.1439L1102.53 98.8097C1103.87 99.9957 1105.17 101.191 1106.44 102.394L1106.11 102.714C1107.42 103.956 1108.69 105.207 1109.92 106.468L1110.27 106.165C1111.51 107.431 1112.7 108.706 1113.86 109.991L1113.49 110.276C1114.69 111.615 1115.85 112.963 1116.97 114.322L1117.36 114.058C1118.48 115.423 1119.56 116.799 1120.59 118.185L1120.18 118.427C1121.24 119.845 1122.25 121.274 1123.21 122.712L1123.63 122.496C1124.6 123.954 1125.53 125.424 1126.4 126.903L1125.96 127.093C1126.84 128.586 1127.67 130.089 1128.45 131.603L1128.9 131.442C1129.69 132.979 1130.43 134.526 1131.11 136.083L1130.64 136.212C1131.32 137.765 1131.94 139.329 1132.51 140.902L1133 140.805Z" stroke="#E41E0A" stroke-dasharray="5 5"/>
</svg>
