<svg width="22" height="22" viewBox="0 0 22 22" fill="none" xmlns="http://www.w3.org/2000/svg">
<path d="M10.9379 5.51452C13.8857 5.51452 16.2634 7.89275 16.2634 10.8412C16.2634 13.7896 13.8857 16.1679 10.9379 16.1679C7.99009 16.1679 5.61239 13.7896 5.61239 10.8412C5.61239 7.89275 7.99009 5.51452 10.9379 5.51452ZM10.9379 7.37816C9.0283 7.37816 7.47561 8.9312 7.47561 10.8412C7.47561 12.7512 9.03294 14.3042 10.9379 14.3042C12.8428 14.3042 14.4001 12.7512 14.4001 10.8412C14.4001 8.9312 12.8475 7.37816 10.9379 7.37816ZM17.7234 5.29663C17.7234 5.98738 17.1672 6.53906 16.4812 6.53906C15.7906 6.53906 15.2391 5.98275 15.2391 5.29663C15.2391 4.61051 15.7952 4.0542 16.4812 4.0542C17.1672 4.0542 17.7234 4.61051 17.7234 5.29663ZM21.2505 6.5576C21.1717 4.89331 20.7917 3.41908 19.5727 2.20447C18.3583 0.989856 16.8844 0.60971 15.2205 0.526263C13.5056 0.428908 8.36551 0.428908 6.6506 0.526263C4.99131 0.605074 3.51741 0.98522 2.29844 2.19983C1.07946 3.41444 0.704035 4.88867 0.620607 6.55297C0.523274 8.26826 0.523274 13.4095 0.620607 15.1248C0.6994 16.7891 1.07946 18.2633 2.29844 19.4779C3.51741 20.6925 4.98668 21.0727 6.6506 21.1561C8.36551 21.2535 13.5056 21.2535 15.2205 21.1561C16.8844 21.0773 18.3583 20.6972 19.5727 19.4779C20.787 18.2633 21.1671 16.7891 21.2505 15.1248C21.3478 13.4095 21.3478 8.2729 21.2505 6.5576Z" fill="white"/>
</svg>
