<svg width="16" height="24" viewBox="0 0 16 24" fill="none" xmlns="http://www.w3.org/2000/svg">
<path fill-rule="evenodd" clip-rule="evenodd" d="M7.94737 2.9362C9.49847 2.94033 10.7415 4.19546 10.7274 5.74331C10.7129 7.29765 9.48252 8.51596 7.93408 8.50922C6.38386 8.50242 5.14492 7.26466 5.1514 5.72947C5.15821 4.17072 6.39803 2.93208 7.94737 2.9362ZM10.1562 10.9647C12.5514 9.92865 13.9019 7.57742 13.5833 4.99795C13.3039 2.73477 11.6391 0.818803 9.43586 0.238063C9.09032 0.14736 8.73385 0.0984737 8.38269 0.0301514L7.50141 0.0301514C7.42994 0.0445815 7.35935 0.0637236 7.28729 0.0719694C6.36673 0.180048 5.51793 0.488088 4.75538 1.00905C2.20722 2.75068 1.49605 6.06961 3.09559 8.71357C4.53033 11.0845 7.60891 12.0661 10.1562 10.9647Z" fill="white"/>
<mask id="mask0" mask-type="alpha" maskUnits="userSpaceOnUse" x="0" y="11" width="16" height="13">
<path d="M0.821289 11.5253L15.0036 11.5253L15.0036 23.0503L0.821289 23.0503L0.821289 11.5253Z" fill="white"/>
</mask>
<g mask="url(#mask0)">
<path fill-rule="evenodd" clip-rule="evenodd" d="M10.894 15.8739C12.3055 15.5511 13.5646 14.9357 14.5988 13.9188C15.0255 13.4994 15.1137 13.0198 14.8688 12.4634C14.6245 11.9081 14.225 11.5474 13.5773 11.5307C13.1515 11.52 12.7937 11.6975 12.4456 11.9209C9.93211 13.5344 7.29063 13.7276 4.54835 12.5612C4.04436 12.347 3.58613 12.0291 3.10532 11.7619C2.74573 11.5623 2.36263 11.4662 1.95356 11.5638C1.34877 11.7081 1.02844 12.14 0.871056 12.6907C0.705944 13.2696 0.96969 13.7249 1.39638 14.0972C2.4223 14.9925 3.61055 15.5858 4.94722 15.8815C5.52171 16.0085 6.10486 16.0976 6.72294 16.2112C6.5903 16.3489 6.47218 16.4768 6.3482 16.599C5.08357 17.846 3.81803 19.0917 2.55309 20.3384C2.4557 20.435 2.35768 20.5313 2.26925 20.6359C2.0021 20.9526 1.86451 21.3115 1.94274 21.7266C2.06302 22.3652 2.45972 22.7815 3.07286 22.983C3.65353 23.1739 4.11918 22.9383 4.52454 22.5363C5.47718 21.5914 6.43261 20.6502 7.38741 19.7077C7.47986 19.6169 7.57169 19.5251 7.6694 19.4403C7.87285 19.2643 7.97984 19.2649 8.18793 19.4452C8.29151 19.5348 8.38767 19.633 8.48537 19.7293C9.46244 20.6921 10.4367 21.6576 11.4175 22.6171C11.7261 22.9192 12.103 23.0854 12.5448 23.021C13.2041 22.9247 13.6508 22.5514 13.8691 21.936C14.0772 21.3495 13.8447 20.8784 13.4242 20.4645C12.12 19.182 10.8186 17.8961 9.51748 16.6106C9.38947 16.4841 9.2695 16.3498 9.12356 16.196C9.20952 16.1772 9.25868 16.1647 9.30846 16.1559C9.83719 16.0629 10.3718 15.9936 10.894 15.8739Z" fill="white"/>
</g>
</svg>
