<svg width="24" height="14" viewBox="0 0 24 14" fill="none" xmlns="http://www.w3.org/2000/svg">
<path d="M19.1537 8.02812C18.7819 7.53812 18.8883 7.32012 19.1537 6.88212C19.1585 6.87712 22.2282 2.45112 22.5444 0.950122L22.5464 0.949122C22.7035 0.402122 22.5464 0.000122121 21.7864 0.000122119L19.2716 0.000122114C18.6314 0.000122112 18.3363 0.345122 18.1781 0.731122C18.1781 0.731122 16.8977 3.92912 15.0864 6.00212C14.5018 6.60112 14.2316 6.79312 13.9124 6.79312C13.7553 6.79312 13.5109 6.60112 13.5109 6.05412L13.5109 0.949122C13.5109 0.293122 13.3317 0.0001221 12.8017 0.000122099L8.84747 0.00012209C8.44591 0.000122089 8.20728 0.306122 8.20728 0.591122C8.20728 1.21312 9.11293 1.35612 9.20685 3.10612L9.20685 6.90312C9.20685 7.73512 9.06214 7.88812 8.74109 7.88812C7.88623 7.88812 5.81136 4.67712 4.58178 1.00212C4.33356 0.289122 4.09109 0.00112201 3.44611 0.00112201L0.930401 0.001122C0.212584 0.001122 0.0678711 0.346122 0.0678711 0.732122C0.0678711 1.41412 0.922734 4.80512 4.04317 9.28512C6.12283 12.3431 9.0516 14.0001 11.7159 14.0001C13.3173 14.0001 13.5128 13.6321 13.5128 12.9991C13.5128 10.0771 13.3681 9.80112 14.1702 9.80112C14.5421 9.80112 15.1823 9.99312 16.6773 11.4681C18.3861 13.2171 18.6669 14.0001 19.6233 14.0001L22.1381 14.0001C22.855 14.0001 23.2182 13.6321 23.0092 12.9061C22.531 11.3791 19.2994 8.23812 19.1537 8.02812Z" fill="white"/>
</svg>
