<svg width="22" height="16" viewBox="0 0 22 16" fill="none" xmlns="http://www.w3.org/2000/svg">
<path d="M21.2566 13.5045C21.0111 14.4686 20.2878 15.2279 19.3693 15.4856C17.7046 15.9539 11.0292 15.9539 11.0292 15.9539C11.0292 15.9539 4.35385 15.9539 2.68908 15.4856C1.77064 15.2279 1.04729 14.4686 0.801779 13.5045C0.355713 11.7569 0.355713 8.11081 0.355713 8.11081C0.355713 8.11081 0.355713 4.46471 0.801779 2.71716C1.04729 1.75302 1.77064 1.02533 2.68908 0.767647C4.35385 0.299399 11.0292 0.299399 11.0292 0.299399C11.0292 0.299399 17.7046 0.299399 19.3693 0.767647C20.2878 1.02533 21.0111 1.75302 21.2566 2.71716C21.7027 4.46471 21.7027 8.11081 21.7027 8.11081C21.7027 8.11081 21.7027 11.7569 21.2566 13.5045ZM8.84598 4.80042L8.84598 11.4212L14.4253 8.11073L8.84598 4.80042Z" fill="white"/>
</svg>
