<svg width="358" height="284" viewBox="0 0 358 284" fill="none" xmlns="http://www.w3.org/2000/svg">
<path d="M342.851 155.529C342.775 157.159 342.654 158.792 342.489 160.427L341.992 160.377C341.91 161.188 341.817 162 341.713 162.813C341.609 163.626 341.494 164.435 341.369 165.241L341.863 165.318C341.61 166.942 341.315 168.552 340.979 170.149L340.489 170.045C340.152 171.644 339.773 173.228 339.353 174.797L339.836 174.927C339.411 176.513 338.945 178.084 338.438 179.64L337.963 179.485C337.457 181.036 336.911 182.571 336.325 184.091L336.792 184.27C336.202 185.799 335.573 187.311 334.904 188.807L334.448 188.603C333.783 190.09 333.08 191.56 332.339 193.014L332.784 193.241C332.041 194.699 331.259 196.14 330.441 197.563L330.008 197.314C329.197 198.723 328.351 200.115 327.468 201.49L327.889 201.76C327.007 203.135 326.089 204.491 325.137 205.83L324.73 205.54C323.788 206.865 322.812 208.172 321.803 209.46L322.197 209.769C321.189 211.055 320.149 212.323 319.078 213.572L318.698 213.247C317.641 214.48 316.552 215.694 315.433 216.89L315.798 217.231C314.685 218.422 313.541 219.593 312.369 220.746L312.018 220.389C310.86 221.528 309.673 222.648 308.459 223.749L308.795 224.119C307.585 225.216 306.349 226.294 305.085 227.352L304.764 226.969C303.519 228.012 302.249 229.036 300.953 230.041L301.259 230.437C299.972 231.435 298.661 232.414 297.326 233.374L297.034 232.968C295.715 233.917 294.372 234.846 293.007 235.757L293.284 236.173C291.925 237.079 290.544 237.966 289.141 238.833L288.878 238.408C287.498 239.261 286.097 240.096 284.675 240.912L284.924 241.345C283.511 242.156 282.078 242.948 280.625 243.72L280.39 243.279C278.953 244.043 277.498 244.788 276.024 245.513L276.245 245.962C274.781 246.682 273.3 247.383 271.801 248.065L271.594 247.61C270.116 248.283 268.621 248.937 267.11 249.571L267.304 250.032C265.799 250.664 264.278 251.277 262.741 251.871L262.561 251.404C261.043 251.991 259.509 252.558 257.961 253.107L258.128 253.578C256.593 254.122 255.043 254.647 253.48 255.153L253.326 254.677C251.777 255.178 250.214 255.661 248.639 256.124L248.78 256.603C247.214 257.064 245.634 257.506 244.043 257.928L243.914 257.445C242.344 257.862 240.761 258.26 239.167 258.639L239.283 259.126C237.694 259.504 236.094 259.863 234.482 260.203L234.379 259.714C232.787 260.05 231.183 260.368 229.57 260.667L229.661 261.158C228.058 261.455 226.445 261.733 224.822 261.992L224.743 261.498C223.133 261.756 221.513 261.994 219.884 262.214L219.951 262.709C218.335 262.927 216.711 263.126 215.078 263.306L215.023 262.809C213.405 262.988 211.779 263.148 210.144 263.29L210.187 263.788C208.558 263.929 206.922 264.051 205.278 264.155L205.246 263.656C203.624 263.758 201.995 263.842 200.358 263.907L200.378 264.406C198.745 264.471 197.106 264.518 195.46 264.546L195.451 264.046C193.824 264.073 192.19 264.082 190.55 264.072L190.547 264.572C188.915 264.563 187.278 264.535 185.635 264.488L185.649 263.989C184.018 263.942 182.381 263.878 180.74 263.794L180.714 264.294C179.087 264.211 177.455 264.11 175.819 263.991L175.855 263.492C174.228 263.374 172.597 263.237 170.961 263.082L170.914 263.579C169.29 263.425 167.662 263.253 166.031 263.062L166.089 262.565C165.275 262.47 164.46 262.37 163.645 262.266C162.829 262.161 162.015 262.052 161.204 261.939L161.135 262.435C159.508 262.208 157.889 261.965 156.279 261.705L156.359 261.211C154.737 260.949 153.124 260.671 151.519 260.375L151.429 260.867C149.815 260.57 148.211 260.256 146.615 259.926L146.716 259.436C145.107 259.103 143.507 258.753 141.917 258.387L141.804 258.874C140.203 258.505 138.611 258.12 137.03 257.717L137.153 257.233C135.564 256.829 133.985 256.408 132.416 255.972L132.282 256.453C130.696 256.012 129.121 255.553 127.557 255.079L127.703 254.6C126.136 254.125 124.58 253.633 123.036 253.126L122.88 253.601C121.315 253.086 119.762 252.555 118.221 252.008L118.388 251.537C116.842 250.988 115.309 250.423 113.788 249.842L113.609 250.309C112.075 249.723 110.553 249.121 109.045 248.503L109.234 248.041C107.713 247.418 106.206 246.779 104.712 246.124L104.512 246.582C103.007 245.922 101.516 245.246 100.039 244.555L100.251 244.102C98.7648 243.407 97.2933 242.695 95.837 241.969L95.6137 242.416C94.1401 241.681 92.6819 240.93 91.2396 240.163L91.4742 239.722C90.0271 238.953 88.5961 238.169 87.1815 237.369L86.9356 237.805C85.5018 236.995 84.0848 236.169 82.6851 235.329L82.9425 234.9C81.5345 234.055 80.144 233.194 78.7716 232.319L78.5027 232.74C77.1173 231.857 75.7501 230.958 74.4017 230.045L74.682 229.631C73.3218 228.71 71.9807 227.774 70.6593 226.824L70.3674 227.23C69.03 226.268 67.7126 225.292 66.4157 224.301L66.7192 223.904C65.4165 222.909 64.1346 221.899 62.874 220.876L62.5589 221.264C61.2804 220.226 60.0237 219.174 58.7893 218.108L59.116 217.73C57.8724 216.656 56.6515 215.568 55.4538 214.467L55.1154 214.835C53.9042 213.722 52.7166 212.594 51.5533 211.453L51.9034 211.096C50.7331 209.949 49.5876 208.788 48.4672 207.614L48.1055 207.959C46.9666 206.766 45.8537 205.56 44.7672 204.341L45.1404 204.008C44.0486 202.783 42.9836 201.545 41.9462 200.295L41.5614 200.614C40.5111 199.348 39.4888 198.07 38.4952 196.78L38.8913 196.475C37.8906 195.175 36.919 193.864 35.9773 192.54L35.5699 192.83C34.6143 191.488 33.6892 190.133 32.7952 188.767L33.2136 188.493C32.3158 187.122 31.4497 185.739 30.6159 184.345L30.1868 184.602C29.3426 183.191 28.5313 181.769 27.7536 180.336L28.193 180.098C27.4115 178.659 26.6642 177.209 25.9516 175.75L25.5023 175.969C24.7801 174.49 24.0933 173.001 23.4428 171.502L23.9015 171.303C23.2498 169.801 22.6348 168.291 22.0571 166.772L21.5897 166.949C21.0059 165.414 20.4599 163.87 19.9526 162.317L20.4278 162.162C19.9204 160.609 19.4519 159.049 19.023 157.48L18.5408 157.612C18.1076 156.029 17.7147 154.437 17.3627 152.839L17.851 152.732C17.5 151.138 17.19 149.538 16.9217 147.932L16.4285 148.014C16.1586 146.398 15.9307 144.776 15.7455 143.148L16.2423 143.092C16.0583 141.474 15.9167 139.85 15.8185 138.223L15.3194 138.253C15.2208 136.619 15.1655 134.981 15.1544 133.339L15.6544 133.335C15.6434 131.711 15.6758 130.082 15.7525 128.451L15.253 128.427C15.3295 126.797 15.45 125.165 15.615 123.529L16.1124 123.58C16.1943 122.768 16.2873 121.956 16.3914 121.143C16.4954 120.331 16.6102 119.521 16.7355 118.715L16.2414 118.639C16.4939 117.015 16.7889 115.404 17.1256 113.808L17.6148 113.911C17.9519 112.313 18.3309 110.729 18.7511 109.159L18.2681 109.03C18.6927 107.444 19.1591 105.872 19.6663 104.316L20.1417 104.471C20.647 102.921 21.1931 101.385 21.779 99.866L21.3125 99.6861C21.9019 98.1577 22.5313 96.6453 23.1999 95.1495L23.6564 95.3535C24.3208 93.8666 25.0242 92.3961 25.7655 90.9425L25.3201 90.7154C26.0635 89.2576 26.8448 87.8168 27.6631 86.3935L28.0965 86.6427C28.9068 85.2333 29.7535 83.841 30.6359 82.4663L30.2151 82.1963C31.0973 80.8218 32.0149 79.465 32.9669 78.1264L33.3743 78.4161C34.3163 77.0915 35.2923 75.7847 36.3013 74.4961L35.9076 74.1878C36.9148 72.9015 37.9547 71.6334 39.0265 70.384L39.406 70.7095C40.4634 69.4769 41.5519 68.2625 42.6709 67.0667L42.3058 66.7251C43.4195 65.535 44.563 64.3633 45.7355 63.2106L46.0861 63.5672C47.2443 62.4287 48.431 61.3086 49.6455 60.2075L49.3096 59.8371C50.519 58.7406 51.7557 57.6629 53.0188 56.6045L53.34 56.9877C54.5848 55.9446 55.8555 54.9202 57.1515 53.915L56.845 53.5199C58.1318 52.5217 59.4433 51.5424 60.7786 50.5823L61.0705 50.9882C62.3896 50.0398 63.7322 49.1102 65.0976 48.1998L64.8202 47.7838C66.1789 46.8779 67.56 45.9909 68.9628 45.1234L69.2258 45.5486C70.6059 44.6951 72.0071 43.8604 73.4287 43.0449L73.1799 42.6112C74.5932 41.8005 76.0266 41.0087 77.4794 40.2362L77.7142 40.6777C79.1507 39.9139 80.6064 39.169 82.0805 38.4433L81.8597 37.9947C83.3229 37.2744 84.8042 36.573 86.303 35.891L86.5101 36.3461C87.9879 35.6736 89.4828 35.0198 90.9942 34.3853L90.8006 33.9242C92.3054 33.2924 93.8263 32.6796 95.363 32.086L95.5431 32.5524C97.0614 31.9658 98.5951 31.3982 100.144 30.8496L99.9766 30.3783C101.512 29.8346 103.061 29.3096 104.625 28.8037L104.778 29.2794C106.327 28.7783 107.89 28.2959 109.465 27.8327L109.324 27.353C110.891 26.8925 112.47 26.4508 114.062 26.0282L114.19 26.5115C115.76 26.0946 117.343 25.6964 118.937 25.3171L118.821 24.8306C120.41 24.4526 122.01 24.0933 123.622 23.7531L123.725 24.2423C125.318 23.9061 126.921 23.5885 128.535 23.2899L128.444 22.7982C130.047 22.5015 131.66 22.2235 133.282 21.9643L133.361 22.4581C134.972 22.2009 136.591 21.9625 138.22 21.7429L138.153 21.2474C139.769 21.0296 141.393 20.8304 143.026 20.6501L143.081 21.1471C144.699 20.9683 146.326 20.8081 147.96 20.6666L147.917 20.1685C149.546 20.0275 151.183 19.9051 152.827 19.8016L152.858 20.3006C154.48 20.1985 156.11 20.1148 157.746 20.0497L157.726 19.5501C159.359 19.4851 160.998 19.4386 162.644 19.4109L162.653 19.9109C164.281 19.8835 165.915 19.8745 167.554 19.8841L167.557 19.3841C169.189 19.3936 170.827 19.4216 172.469 19.4682L172.455 19.968C174.087 20.0142 175.723 20.0788 177.365 20.1621L177.39 19.6627C179.017 19.7453 180.649 19.846 182.286 19.9653L182.249 20.464C183.876 20.5826 185.508 20.7194 187.143 20.8748L187.19 20.377C188.814 20.5313 190.442 20.7039 192.073 20.8948L192.015 21.3914C192.829 21.4867 193.644 21.5865 194.459 21.691C195.275 21.7954 196.089 21.9042 196.9 22.0171L196.969 21.5219C198.596 21.7483 200.215 21.9916 201.825 22.2516L201.746 22.7452C203.367 23.007 204.98 23.2857 206.585 23.5811L206.675 23.0893C208.289 23.3864 209.894 23.7002 211.489 24.0304L211.388 24.52C212.997 24.8532 214.597 25.2031 216.188 25.5696L216.3 25.0823C217.901 25.4513 219.493 25.837 221.074 26.239L220.951 26.7236C222.541 27.1276 224.12 27.5481 225.688 27.9849L225.822 27.5032C227.408 27.9449 228.983 28.4031 230.547 28.8776L230.402 29.356C231.969 29.8314 233.524 30.3231 235.068 30.8308L235.224 30.3558C236.789 30.8704 238.342 31.4013 239.883 31.9483L239.716 32.4195C241.262 32.9683 242.796 33.5333 244.316 34.1141L244.495 33.647C246.029 34.2331 247.551 34.8352 249.06 35.4531L248.87 35.9158C250.391 36.5388 251.898 37.1779 253.392 37.8325L253.593 37.3746C255.098 38.0344 256.589 38.71 258.065 39.4012L257.853 39.854C259.339 40.5497 260.811 41.2611 262.267 41.9879L262.49 41.5405C263.964 42.2759 265.422 43.0269 266.865 43.7932L266.63 44.2348C268.077 45.0036 269.508 45.7878 270.923 46.5871L271.169 46.1517C272.602 46.9618 274.019 47.7873 275.419 48.6277L275.162 49.0564C276.57 49.9018 277.96 50.7624 279.333 51.6377L279.601 51.2161C280.987 52.0997 282.354 52.9983 283.702 53.9114L283.422 54.3254C284.782 55.2465 286.123 56.1824 287.445 57.1327L287.737 56.7267C289.074 57.6885 290.392 58.6649 291.689 59.6555L291.385 60.0529C292.688 61.0479 293.97 62.0573 295.23 63.0806L295.545 62.6924C296.824 63.7302 298.08 64.7822 299.315 65.8481L298.988 66.2265C300.232 67.3003 301.453 68.3881 302.65 69.4893L302.989 69.1213C304.2 70.235 305.388 71.3625 306.551 72.5032L306.201 72.8602C307.371 74.0077 308.517 75.1686 309.637 76.3424L309.999 75.9972C311.138 77.1903 312.251 78.3967 313.337 79.6158L312.964 79.9485C314.056 81.1736 315.121 82.4116 316.158 83.6619L316.543 83.3426C317.593 84.6082 318.615 85.8865 319.609 87.1768L319.213 87.4819C320.214 88.7813 321.185 90.0929 322.127 91.4161L322.534 91.1261C323.49 92.4688 324.415 93.8234 325.309 95.1893L324.891 95.4631C325.788 96.8347 326.654 98.2177 327.488 99.6114L327.917 99.3547C328.762 100.766 329.573 102.188 330.351 103.62L329.911 103.859C330.693 105.298 331.44 106.748 332.153 108.207L332.602 107.987C333.324 109.467 334.011 110.956 334.661 112.455L334.203 112.654C334.854 114.155 335.469 115.666 336.047 117.185L336.514 117.007C337.098 118.543 337.644 120.087 338.152 121.639L337.676 121.795C338.184 123.347 338.652 124.908 339.081 126.476L339.563 126.344C339.997 127.928 340.39 129.519 340.741 131.117L340.253 131.225C340.604 132.818 340.914 134.418 341.182 136.025L341.676 135.942C341.946 137.558 342.174 139.181 342.359 140.808L341.862 140.865C342.046 142.483 342.187 144.106 342.286 145.734L342.785 145.704C342.883 147.337 342.939 148.976 342.95 150.618L342.45 150.621C342.461 152.246 342.428 153.874 342.352 155.506L342.851 155.529Z" stroke="#E41E0A" stroke-dasharray="5 5"/>
</svg>
