<svg width="331" height="298" viewBox="0 0 331 298" fill="none" xmlns="http://www.w3.org/2000/svg">
<path d="M305.647 115.118C306.066 116.737 306.449 118.372 306.796 120.022L306.306 120.125C306.479 120.944 306.642 121.767 306.796 122.594C306.95 123.421 307.094 124.248 307.228 125.074L307.721 124.994C307.991 126.658 308.222 128.321 308.413 129.983L307.917 130.04C308.108 131.706 308.261 133.371 308.375 135.033L308.873 134.999C308.988 136.681 309.064 138.361 309.1 140.038L308.6 140.048C308.637 141.725 308.634 143.397 308.593 145.066L309.093 145.078C309.051 146.761 308.971 148.439 308.852 150.112L308.353 150.077C308.234 151.747 308.077 153.412 307.883 155.071L308.379 155.129C308.183 156.799 307.949 158.463 307.678 160.12L307.185 160.039C306.914 161.69 306.607 163.335 306.263 164.972L306.752 165.075C306.406 166.718 306.024 168.355 305.606 169.982L305.121 169.858C304.705 171.477 304.253 173.088 303.766 174.689L304.244 174.835C303.756 176.441 303.232 178.038 302.674 179.625L302.202 179.459C301.647 181.035 301.058 182.602 300.436 184.158L300.9 184.344C300.277 185.901 299.62 187.448 298.93 188.983L298.474 188.778C297.79 190.301 297.073 191.813 296.325 193.313L296.772 193.536C296.023 195.036 295.243 196.524 294.431 197.999L293.993 197.758C293.188 199.222 292.351 200.672 291.485 202.109L291.913 202.367C291.047 203.804 290.152 205.227 289.226 206.635L288.808 206.361C287.892 207.756 286.947 209.137 285.973 210.503L286.381 210.793C285.408 212.157 284.408 213.507 283.38 214.841L282.984 214.535C281.965 215.858 280.919 217.165 279.846 218.457L280.231 218.776C279.16 220.066 278.062 221.339 276.939 222.596L276.566 222.263C275.453 223.508 274.315 224.737 273.151 225.949L273.512 226.295C272.353 227.503 271.169 228.694 269.961 229.867L269.612 229.508C268.415 230.671 267.194 231.817 265.95 232.945L266.285 233.315C265.044 234.44 263.779 235.548 262.491 236.637L262.168 236.255C260.893 237.334 259.595 238.395 258.276 239.436L258.586 239.829C257.272 240.866 255.938 241.884 254.582 242.883L254.285 242.481C252.942 243.471 251.578 244.442 250.193 245.394L250.477 245.806C249.095 246.755 247.694 247.685 246.274 248.594L246.004 248.173C244.598 249.074 243.172 249.955 241.728 250.815L241.984 251.244C240.546 252.101 239.09 252.937 237.617 253.752L237.375 253.314C235.914 254.123 234.435 254.91 232.94 255.676L233.168 256.121C231.676 256.886 230.167 257.629 228.642 258.351L228.428 257.899C226.92 258.613 225.396 259.306 223.856 259.977L224.055 260.435C222.521 261.104 220.971 261.751 219.407 262.376L219.221 261.911C217.67 262.531 216.104 263.128 214.524 263.704L214.695 264.174C213.12 264.747 211.532 265.298 209.929 265.827L209.773 265.352C208.19 265.874 206.593 266.374 204.983 266.852L205.125 267.331C203.52 267.807 201.902 268.261 200.271 268.692L200.143 268.209C198.527 268.636 196.898 269.04 195.258 269.421L195.371 269.908C193.744 270.287 192.104 270.642 190.454 270.975L190.355 270.485C189.532 270.651 188.707 270.811 187.878 270.965C187.05 271.119 186.222 271.267 185.395 271.408L185.479 271.901C183.819 272.184 182.162 272.442 180.507 272.675L180.438 272.18C178.77 272.414 177.105 272.623 175.443 272.806L175.498 273.303C173.821 273.488 172.148 273.646 170.479 273.78L170.439 273.281C168.765 273.415 167.096 273.523 165.43 273.605L165.455 274.104C163.77 274.188 162.089 274.245 160.414 274.276L160.405 273.777C158.723 273.808 157.047 273.814 155.377 273.794L155.371 274.294C153.686 274.274 152.007 274.228 150.335 274.156L150.357 273.657C148.679 273.585 147.007 273.487 145.343 273.363L145.306 273.862C143.623 273.737 141.948 273.586 140.281 273.41L140.334 272.913C138.662 272.736 137 272.533 135.346 272.304L135.278 272.8C133.609 272.569 131.95 272.313 130.301 272.031L130.385 271.538C128.728 271.255 127.081 270.946 125.444 270.612L125.344 271.102C123.692 270.764 122.05 270.401 120.42 270.012L120.536 269.526C118.902 269.136 117.28 268.721 115.67 268.28L115.538 268.763C113.914 268.318 112.302 267.848 110.703 267.353L110.851 266.876C109.246 266.378 107.653 265.855 106.075 265.308L105.911 265.78C104.318 265.227 102.74 264.649 101.176 264.046L101.356 263.579C99.7892 262.975 98.2377 262.345 96.702 261.691L96.506 262.151C94.9568 261.491 93.4237 260.806 91.9074 260.096L92.1194 259.643C90.5981 258.931 89.0938 258.194 87.6075 257.432L87.3795 257.877C85.8791 257.109 84.3968 256.315 82.9334 255.498L83.1773 255.061C81.7117 254.242 80.2653 253.399 78.8387 252.532L78.579 252.959C77.14 252.084 75.7212 251.185 74.3233 250.262L74.5988 249.844C73.1989 248.92 71.8202 247.972 70.4635 247L70.1723 247.406C68.8022 246.425 67.4543 245.419 66.1296 244.391L66.4362 243.996C65.111 242.967 63.809 241.914 62.5312 240.838L62.2092 241.221C60.9211 240.137 59.6574 239.029 58.419 237.899L58.756 237.53C57.5179 236.4 56.3052 235.247 55.1188 234.072L54.767 234.427C53.5714 233.243 52.4023 232.036 51.2606 230.808L51.6269 230.467C50.486 229.239 49.3727 227.989 48.2878 226.718L47.9074 227.042C46.8156 225.763 45.7524 224.461 44.7188 223.138L45.1128 222.831C44.082 221.511 43.0807 220.171 42.1099 218.81L41.7028 219.101C40.7268 217.732 39.7814 216.343 38.8676 214.934L39.2871 214.662C38.377 213.258 37.4983 211.835 36.652 210.391L36.2207 210.644C35.3714 209.195 34.5544 207.727 33.7708 206.24L34.2132 206.007C33.4346 204.529 32.6891 203.032 31.9776 201.516L31.525 201.729C30.8121 200.21 30.1332 198.674 29.4891 197.119L29.951 196.927C29.3122 195.385 28.7078 193.826 28.1388 192.249L27.6684 192.418C27.0993 190.841 26.5653 189.246 26.0673 187.635L26.545 187.488C26.0531 185.896 25.5965 184.288 25.1761 182.664L24.692 182.79C24.2728 181.17 23.8895 179.536 23.5428 177.886L24.0321 177.783C23.86 176.964 23.6969 176.14 23.543 175.314C23.3891 174.487 23.2451 173.66 23.1109 172.834L22.6174 172.914C22.3472 171.249 22.1168 169.586 21.9254 167.925L22.4221 167.868C22.2301 166.201 22.0776 164.537 21.964 162.875L21.4651 162.909C21.3501 161.226 21.2747 159.546 21.2383 157.87L21.7381 157.859C21.7017 156.183 21.7045 154.51 21.7457 152.842L21.2459 152.829C21.2874 151.147 21.368 149.469 21.4869 147.796L21.9856 147.831C22.1042 146.161 22.2612 144.496 22.4559 142.837L21.9593 142.779C22.1553 141.109 22.3892 139.445 22.6605 137.788L23.154 137.869C23.4243 136.217 23.7319 134.573 24.0761 132.936L23.5868 132.833C23.9324 131.189 24.3147 129.553 24.7331 127.925L25.2173 128.05C25.6335 126.431 26.0855 124.82 26.5727 123.218L26.0943 123.073C26.5828 121.467 27.1066 119.87 27.6649 118.283L28.1365 118.449C28.6913 116.872 29.2803 115.305 29.903 113.749L29.4388 113.563C30.0619 112.006 30.7186 110.46 31.4081 108.925L31.8642 109.129C32.5484 107.606 33.2652 106.094 34.0139 104.595L33.5665 104.371C34.3154 102.871 35.096 101.383 35.9077 99.9083L36.3458 100.149C37.1511 98.6861 37.9872 97.2355 38.8534 95.7985L38.4252 95.5404C39.2911 94.1039 40.187 92.6809 41.1123 91.2723L41.5302 91.5468C42.4464 90.1519 43.3916 88.771 44.3652 87.4049L43.958 87.1147C44.9301 85.7505 45.9304 84.401 46.9583 83.0669L47.3543 83.3721C48.3733 82.0496 49.4195 80.7423 50.4922 79.4509L50.1076 79.1314C51.1788 77.8419 52.2765 76.5683 53.3999 75.3114L53.7727 75.6446C54.8856 74.3994 56.0239 73.1705 57.1871 71.9587L56.8264 71.6125C57.9858 70.4047 59.1697 69.2138 60.3777 68.0405L60.7261 68.3992C61.9235 67.2362 63.1446 66.0906 64.3889 64.963L64.0532 64.5925C65.2951 63.4671 66.5599 62.3596 67.8472 61.2707L68.1701 61.6524C69.4457 60.5735 70.7433 59.5128 72.0626 58.4711L71.7527 58.0787C73.0662 57.0415 74.401 56.0232 75.7565 55.0242L76.0532 55.4267C77.3968 54.4364 78.7611 53.4653 80.1453 52.5139L79.8621 52.1018C81.2432 51.1526 82.6442 50.2229 84.0645 49.3135L84.3341 49.7345C85.7407 48.8338 87.1664 47.953 88.6107 47.0927L88.3548 46.6632C89.7924 45.8068 91.2482 44.9708 92.7219 44.1556L92.9639 44.5931C94.4247 43.785 95.9031 42.9975 97.3986 42.2312L97.1706 41.7862C98.6624 41.0217 100.171 40.2782 101.697 39.5562L101.91 40.0082C103.419 39.2943 104.943 38.6016 106.483 37.9306L106.283 37.4722C107.817 36.8038 109.367 36.1569 110.932 35.532L111.117 35.9964C112.668 35.377 114.234 34.7793 115.815 34.2038L115.644 33.734C117.218 33.1608 118.807 32.6096 120.409 32.0809L120.566 32.5558C122.149 32.0335 123.746 31.5333 125.356 31.0557L125.214 30.5764C126.819 30.1002 128.437 29.6464 130.068 29.2155L130.196 29.6989C131.812 29.272 133.44 28.8675 135.081 28.4862L134.968 27.9991C136.595 27.6208 138.234 27.2652 139.885 26.9326L139.984 27.4228C140.806 27.257 141.632 27.097 142.46 26.9428C143.289 26.7887 144.117 26.6409 144.944 26.4996L144.86 26.0067C146.519 25.7231 148.177 25.4652 149.831 25.2327L149.901 25.7278C151.569 25.4934 153.234 25.2848 154.896 25.1017L154.841 24.6047C156.517 24.42 158.191 24.2612 159.86 24.128L159.899 24.6264C161.573 24.4928 163.243 24.385 164.908 24.3027L164.883 23.8033C166.569 23.72 168.249 23.6627 169.925 23.6311L169.934 24.1311C171.616 24.0994 173.292 24.0936 174.962 24.1135L174.968 23.6135C176.653 23.6336 178.331 23.6796 180.003 23.7513L179.982 24.2509C181.66 24.3228 183.332 24.4207 184.996 24.5442L185.033 24.0455C186.715 24.1704 188.391 24.3213 190.058 24.4978L190.005 24.995C191.676 25.172 193.339 25.3749 194.993 25.6033L195.061 25.108C196.729 25.3384 198.388 25.5947 200.038 25.8765L199.954 26.3693C201.611 26.6524 203.258 26.9613 204.894 27.2956L204.994 26.8057C206.647 27.1433 208.288 27.5066 209.919 27.8954L209.803 28.3818C211.436 28.7715 213.059 29.1868 214.669 29.6272L214.801 29.145C216.425 29.5893 218.037 30.0593 219.635 30.5544L219.487 31.032C221.093 31.5294 222.685 32.0521 224.264 32.5999L224.428 32.1275C226.02 32.6804 227.599 33.2587 229.163 33.8619L228.983 34.3284C230.549 34.9328 232.101 35.5624 233.637 36.2167L233.833 35.7567C235.382 36.4168 236.915 37.102 238.431 37.8118L238.219 38.2646C239.741 38.9767 241.245 39.7137 242.731 40.4751L242.959 40.0301C244.46 40.7988 245.942 41.5922 247.405 42.4099L247.161 42.8464C248.627 43.6653 250.073 44.5087 251.5 45.376L251.76 44.9488C253.199 45.8237 254.617 46.723 256.015 47.6461L255.74 48.0633C257.14 48.9877 258.518 49.936 259.875 50.9079L260.166 50.5014C261.536 51.4829 262.884 52.4882 264.209 53.5169L263.902 53.9118C265.228 54.941 266.53 55.9936 267.807 57.0692L268.129 56.6866C269.417 57.7708 270.681 58.8783 271.92 60.0085L271.583 60.3779C272.821 61.5078 274.033 62.6605 275.22 63.8356L275.572 63.4803C276.767 64.6644 277.936 65.8712 279.078 67.1L278.712 67.4403C279.853 68.6682 280.966 69.9182 282.051 71.1898L282.431 70.8653C283.523 72.1449 284.586 73.4464 285.62 74.7691L285.226 75.077C286.257 76.3961 287.258 77.7364 288.229 79.0973L288.636 78.807C289.612 80.1752 290.557 81.5643 291.471 82.9737L291.051 83.2457C291.962 84.6493 292.84 86.0731 293.687 87.5165L294.118 87.2636C294.967 88.7121 295.784 90.1804 296.568 91.6679L296.125 91.9009C296.904 93.3789 297.649 94.8759 298.361 96.3914L298.814 96.1789C299.526 97.6972 300.205 99.234 300.849 100.789L300.388 100.98C301.026 102.522 301.631 104.082 302.2 105.659L302.67 105.489C303.239 107.067 303.773 108.661 304.271 110.272L303.794 110.42C304.286 112.011 304.742 113.619 305.163 115.243L305.647 115.118Z" stroke="#E41E0A" stroke-dasharray="5 5"/>
</svg>
