<svg width="872" height="248" viewBox="0 0 872 248" fill="none" xmlns="http://www.w3.org/2000/svg">
<path d="M825.331 203.857C825.783 205.474 826.202 207.103 826.587 208.743L826.1 208.857C826.291 209.674 826.475 210.494 826.649 211.317C826.824 212.14 826.989 212.964 827.146 213.788L827.637 213.695C827.952 215.35 828.23 217.009 828.473 218.67L827.979 218.742C828.221 220.399 828.428 222.057 828.599 223.719L829.096 223.667C829.269 225.341 829.406 227.017 829.508 228.694L829.009 228.725C829.111 230.395 829.177 232.068 829.209 233.742L829.709 233.732C829.741 235.41 829.738 237.089 829.701 238.77L829.201 238.759C829.164 240.432 829.092 242.108 828.987 243.784L829.486 243.816C829.381 245.486 829.242 247.157 829.071 248.829L828.573 248.778C828.403 250.442 828.199 252.106 827.962 253.772L828.457 253.842C828.222 255.498 827.955 257.154 827.656 258.811L827.164 258.722C826.867 260.365 826.539 262.008 826.18 263.652L826.669 263.758C826.311 265.395 825.923 267.031 825.504 268.666L825.02 268.543C824.607 270.155 824.164 271.768 823.693 273.38L824.172 273.52C823.7 275.133 823.199 276.745 822.669 278.357L822.194 278.2C821.675 279.776 821.129 281.351 820.555 282.924L821.025 283.096C820.45 284.674 819.846 286.252 819.216 287.829L818.752 287.643C818.135 289.184 817.493 290.724 816.824 292.263L817.283 292.462C816.616 293.997 815.923 295.531 815.205 297.063L814.753 296.851C814.044 298.363 813.31 299.873 812.552 301.382L812.999 301.607C812.251 303.095 811.479 304.581 810.684 306.065L810.243 305.829C809.45 307.31 808.633 308.788 807.793 310.265L808.228 310.512C807.407 311.955 806.564 313.395 805.699 314.834L805.27 314.576C804.41 316.007 803.527 317.437 802.622 318.864L803.045 319.131C802.148 320.547 801.23 321.959 800.291 323.37L799.874 323.093C798.954 324.474 798.014 325.854 797.054 327.231L797.464 327.517C796.501 328.896 795.519 330.273 794.517 331.648L794.113 331.353C793.134 332.695 792.137 334.035 791.12 335.371L791.518 335.674C790.507 337.004 789.478 338.33 788.43 339.654L788.038 339.344C786.993 340.663 785.931 341.98 784.85 343.293L785.236 343.611C784.183 344.891 783.113 346.168 782.025 347.443L781.645 347.118C780.559 348.39 779.457 349.659 778.337 350.925L778.712 351.256C777.599 352.515 776.471 353.769 775.325 355.021L774.956 354.684C773.836 355.908 772.7 357.129 771.549 358.347L771.912 358.69C770.759 359.91 769.59 361.126 768.406 362.339L768.048 361.99C766.88 363.187 765.696 364.381 764.498 365.571L764.85 365.926C763.669 367.099 762.473 368.269 761.264 369.435L760.917 369.075C759.708 370.239 758.486 371.4 757.25 372.558L757.591 372.923C756.369 374.067 755.134 375.207 753.884 376.344L753.548 375.974C752.317 377.094 751.074 378.21 749.817 379.323L750.148 379.697C748.89 380.811 747.618 381.922 746.333 383.028L746.007 382.65C744.74 383.741 743.46 384.829 742.167 385.913L742.489 386.297C741.212 387.367 739.924 388.434 738.623 389.498L738.306 389.111C737.007 390.173 735.696 391.231 734.373 392.286L734.685 392.677C733.373 393.722 732.049 394.764 730.713 395.803L730.406 395.408C729.093 396.429 727.769 397.446 726.433 398.459L726.735 398.857C725.398 399.871 724.05 400.882 722.69 401.888L722.393 401.486C721.042 402.487 719.68 403.483 718.307 404.476L718.6 404.881C717.252 405.856 715.893 406.826 714.524 407.793L714.236 407.385C712.868 408.351 711.491 409.312 710.103 410.27L710.387 410.682C708.997 411.641 707.598 412.595 706.188 413.546L705.908 413.132C704.531 414.06 703.144 414.985 701.747 415.906L702.022 416.324C700.626 417.245 699.22 418.162 697.804 419.074L697.533 418.654C696.119 419.566 694.695 420.474 693.262 421.377L693.529 421.8C692.114 422.692 690.691 423.58 689.258 424.464L688.995 424.038C687.576 424.914 686.147 425.786 684.71 426.653L684.968 427.081C683.53 427.949 682.083 428.813 680.627 429.673L680.372 429.243C678.925 430.098 677.468 430.948 676.003 431.795L676.254 432.228C674.811 433.061 673.361 433.891 671.902 434.716L671.656 434.281C670.198 435.105 668.733 435.925 667.259 436.741L667.502 437.178C666.027 437.995 664.544 438.807 663.053 439.615L662.815 439.176C661.347 439.971 659.872 440.762 658.389 441.549L658.624 441.99C657.147 442.774 655.663 443.553 654.171 444.328L653.941 443.884C652.451 444.658 650.953 445.428 649.448 446.193L649.674 446.639C648.174 447.402 646.666 448.16 645.15 448.915L644.928 448.467C643.436 449.209 641.938 449.947 640.433 450.681L640.652 451.13C639.146 451.865 637.632 452.594 636.112 453.32L635.897 452.868C634.378 453.593 632.852 454.314 631.319 455.029L631.531 455.482C630.013 456.191 628.489 456.896 626.958 457.596L626.75 457.141C625.231 457.835 623.706 458.525 622.175 459.21L622.379 459.667C620.847 460.352 619.308 461.034 617.762 461.711L617.562 461.253C616.018 461.929 614.467 462.601 612.911 463.268L613.108 463.728C611.574 464.385 610.034 465.038 608.488 465.686L608.295 465.225C606.752 465.872 605.204 466.515 603.65 467.153L603.84 467.615C602.284 468.254 600.723 468.887 599.156 469.517L598.969 469.053C597.408 469.68 595.84 470.302 594.267 470.92L594.45 471.385C592.896 471.995 591.337 472.601 589.773 473.201L589.594 472.735C588.03 473.335 586.461 473.931 584.887 474.522L585.063 474.99C583.487 475.582 581.906 476.169 580.32 476.751L580.148 476.282C578.571 476.86 576.99 477.434 575.403 478.003L575.572 478.474C573.999 479.038 572.421 479.598 570.838 480.152L570.673 479.681C569.091 480.235 567.505 480.785 565.913 481.33L566.075 481.803C564.482 482.348 562.883 482.889 561.28 483.425L561.122 482.951C559.532 483.483 557.936 484.01 556.336 484.532L556.492 485.007C554.902 485.526 553.308 486.041 551.709 486.55L551.557 486.074C549.959 486.583 548.356 487.087 546.749 487.587L546.898 488.064C545.289 488.564 543.676 489.059 542.058 489.55L541.913 489.071C540.31 489.557 538.702 490.038 537.089 490.515L537.231 490.994C535.626 491.469 534.018 491.938 532.404 492.402L532.266 491.922C530.654 492.386 529.038 492.846 527.417 493.3L527.552 493.782C525.93 494.236 524.304 494.687 522.674 495.132L522.542 494.649C520.926 495.091 519.305 495.527 517.68 495.959L517.809 496.442C516.192 496.872 514.57 497.297 512.945 497.717L512.82 497.233C511.195 497.652 509.567 498.067 507.935 498.477L508.056 498.962C506.423 499.372 504.786 499.778 503.144 500.178L503.026 499.692C501.397 500.09 499.765 500.482 498.129 500.869L498.244 501.356C496.615 501.742 494.983 502.122 493.347 502.498L493.235 502.011C491.6 502.386 489.961 502.757 488.319 503.123L488.428 503.611C486.784 503.977 485.137 504.338 483.486 504.694L483.381 504.205C483.079 504.27 482.777 504.335 482.475 504.4C481.952 504.512 481.428 504.624 480.904 504.735C480.077 504.91 479.251 505.084 478.425 505.256L478.527 505.746C476.874 506.091 475.222 506.429 473.572 506.762L473.473 506.272C471.823 506.605 470.175 506.931 468.529 507.252L468.624 507.743C466.976 508.063 465.33 508.378 463.685 508.687L463.593 508.195C461.94 508.506 460.289 508.81 458.64 509.108L458.729 509.6C457.066 509.9 455.405 510.195 453.746 510.483L453.66 509.99C452.002 510.278 450.346 510.56 448.691 510.836L448.773 511.329C447.117 511.606 445.463 511.876 443.81 512.139L443.731 511.646C442.071 511.911 440.413 512.17 438.757 512.423L438.832 512.917C437.162 513.172 435.493 513.421 433.826 513.664L433.754 513.169C432.088 513.412 430.425 513.648 428.763 513.878L428.832 514.373C427.169 514.604 425.508 514.828 423.85 515.046L423.784 514.551C422.117 514.77 420.452 514.983 418.789 515.19L418.851 515.686C417.174 515.894 415.498 516.097 413.826 516.293L413.767 515.796C412.096 515.992 410.426 516.182 408.759 516.366L408.814 516.863C407.146 517.046 405.48 517.224 403.817 517.395L403.766 516.897C402.091 517.07 400.42 517.236 398.75 517.395L398.798 517.893C397.115 518.054 395.435 518.209 393.758 518.357L393.714 517.859C392.038 518.007 390.365 518.149 388.694 518.284L388.734 518.783C387.063 518.918 385.394 519.047 383.727 519.17L383.691 518.672C382.009 518.796 380.331 518.913 378.655 519.025L378.688 519.523C377.002 519.635 375.319 519.741 373.639 519.84L373.61 519.341C371.931 519.44 370.255 519.532 368.583 519.618L368.609 520.117C366.935 520.203 365.265 520.283 363.597 520.356L363.575 519.857C361.887 519.931 360.202 519.999 358.52 520.06L358.538 520.559C356.85 520.621 355.166 520.675 353.485 520.723L353.471 520.224C351.792 520.272 350.116 520.313 348.444 520.348L348.454 520.848C346.778 520.883 345.106 520.911 343.437 520.933L343.431 520.433C341.737 520.456 340.048 520.471 338.362 520.48L338.365 520.98C336.678 520.989 334.994 520.991 333.315 520.986L333.317 520.486C331.639 520.482 329.966 520.47 328.296 520.452L328.291 520.952C326.607 520.934 324.928 520.909 323.254 520.878L323.263 520.378C321.572 520.346 319.885 520.307 318.202 520.262L318.189 520.761C316.505 520.716 314.825 520.663 313.151 520.604L313.168 520.104C311.495 520.045 309.826 519.979 308.162 519.906L308.14 520.405C306.449 520.331 304.763 520.25 303.082 520.162L303.108 519.663C301.422 519.574 299.741 519.479 298.064 519.377L298.034 519.876C296.356 519.773 294.683 519.664 293.016 519.547L293.051 519.049C291.376 518.932 289.707 518.808 288.043 518.677L288.004 519.175C286.314 519.042 284.629 518.902 282.949 518.754L282.993 518.256C281.315 518.109 279.643 517.954 277.976 517.793L277.928 518.29C276.26 518.129 274.597 517.959 272.941 517.783L272.994 517.286C271.311 517.107 269.635 516.921 267.965 516.728L267.907 517.224C266.228 517.03 264.554 516.828 262.887 516.618L262.95 516.122C261.284 515.913 259.625 515.696 257.972 515.472L257.905 515.968C256.237 515.742 254.575 515.508 252.92 515.268L252.992 514.773C251.315 514.529 249.646 514.277 247.983 514.018L247.906 514.512C246.242 514.253 244.585 513.986 242.935 513.711L243.017 513.218C241.366 512.943 239.723 512.661 238.087 512.371L238 512.864C236.326 512.567 234.659 512.263 233 511.951L233.093 511.459C231.435 511.148 229.786 510.828 228.144 510.5L228.046 510.991C226.403 510.663 224.767 510.327 223.139 509.984L223.242 509.495C221.585 509.145 219.935 508.788 218.295 508.422L218.186 508.91C216.535 508.542 214.893 508.166 213.259 507.782L213.373 507.295C211.741 506.911 210.118 506.52 208.503 506.12L208.383 506.605C206.741 506.199 205.108 505.784 203.485 505.361L203.611 504.877C201.973 504.451 200.346 504.016 198.727 503.573L198.595 504.055C196.975 503.611 195.364 503.159 193.763 502.699L193.901 502.218C192.279 501.752 190.668 501.277 189.067 500.794L188.922 501.273C187.299 500.783 185.686 500.285 184.083 499.778L184.234 499.301C182.634 498.794 181.044 498.279 179.465 497.756L179.308 498.23C177.704 497.699 176.112 497.158 174.531 496.609L174.695 496.136C173.095 495.581 171.507 495.016 169.93 494.442L169.759 494.912C168.18 494.337 166.612 493.754 165.057 493.161L165.235 492.694C163.656 492.093 162.09 491.482 160.536 490.863L160.351 491.327C158.776 490.7 157.214 490.062 155.665 489.416L155.858 488.954C154.311 488.309 152.777 487.654 151.256 486.99L151.056 487.448C149.502 486.77 147.96 486.081 146.433 485.383L146.641 484.928C145.104 484.226 143.581 483.514 142.073 482.792L141.857 483.243C140.346 482.52 138.849 481.787 137.366 481.045L137.59 480.598C136.069 479.836 134.564 479.064 133.074 478.283L132.842 478.725C131.346 477.941 129.867 477.146 128.403 476.342L128.644 475.904C127.172 475.095 125.717 474.276 124.278 473.447L124.028 473.88C122.554 473.031 121.097 472.171 119.658 471.301L119.916 470.873C118.48 470.005 117.061 469.126 115.659 468.237L115.391 468.659C113.96 467.751 112.547 466.833 111.153 465.904L111.43 465.488C110.025 464.551 108.638 463.603 107.27 462.644L106.983 463.054C105.608 462.09 104.253 461.116 102.917 460.131L103.214 459.729C101.847 458.72 100.5 457.701 99.1738 456.67L98.8669 457.064C97.5376 456.031 96.2291 454.986 94.9417 453.93L95.2589 453.543C93.9532 452.472 92.6694 451.389 91.4078 450.295L91.0802 450.673C89.802 449.564 88.5465 448.444 87.3138 447.312L87.6521 446.944C86.4164 445.809 85.2039 444.662 84.015 443.504L83.6661 443.862C82.4498 442.677 81.258 441.48 80.091 440.271L80.4507 439.924C79.2874 438.719 78.1488 437.501 77.0354 436.272L76.6649 436.608C75.526 435.351 74.4133 434.081 73.3272 432.799L73.7087 432.475C72.623 431.194 71.5639 429.9 70.5319 428.593L70.1396 428.903C69.0928 427.578 68.0737 426.241 67.0827 424.891L67.4858 424.595C66.4903 423.239 65.5233 421.87 64.5852 420.489L64.1716 420.77C63.2258 419.378 62.3091 417.972 61.4221 416.555L61.846 416.29C60.9537 414.863 60.0915 413.425 59.2599 411.973L58.826 412.222C57.9904 410.764 57.1855 409.293 56.4116 407.809L56.8549 407.578C56.078 406.089 55.3325 404.587 54.619 403.072L54.1667 403.285C53.4502 401.764 52.7658 400.231 52.1138 398.685L52.5745 398.491C51.9238 396.948 51.3055 395.392 50.7201 393.825L50.2517 393.999C49.6637 392.425 49.1087 390.838 48.5872 389.238L49.0626 389.083C48.545 387.495 48.0604 385.895 47.6094 384.283L47.1279 384.418C46.6756 382.801 46.2569 381.173 45.8722 379.532L46.359 379.418C46.1674 378.601 45.9843 377.781 45.8098 376.958C45.6352 376.135 45.4696 375.311 45.313 374.487L44.8218 374.58C44.5072 372.925 44.2286 371.266 43.9856 369.605L44.4804 369.533C44.2381 367.877 44.0313 366.218 43.8598 364.557L43.3624 364.608C43.1896 362.934 43.0524 361.259 42.9504 359.581L43.4495 359.55C43.348 357.88 43.2815 356.207 43.2498 354.533L42.7499 354.543C42.7181 352.865 42.721 351.186 42.7584 349.505L43.2582 349.517C43.2954 347.843 43.3668 346.167 43.4722 344.491L42.9732 344.459C43.0781 342.79 43.2165 341.118 43.3881 339.447L43.8855 339.498C44.0563 337.834 44.2601 336.169 44.4966 334.503L44.0015 334.433C44.2366 332.777 44.5038 331.121 44.8029 329.464L45.2949 329.553C45.5915 327.91 45.9195 326.267 46.2787 324.623L45.7902 324.517C46.1478 322.881 46.5361 321.245 46.9548 319.609L47.4392 319.733C47.852 318.12 48.2945 316.507 48.7663 314.895L48.2865 314.755C48.7585 313.142 49.2598 311.53 49.7901 309.918L50.265 310.075C50.7835 308.499 51.3297 306.925 51.9036 305.351L51.4338 305.179C52.0094 303.601 52.6126 302.023 53.2431 300.446L53.7074 300.632C54.3237 299.091 54.9663 297.551 55.6348 296.012L55.1762 295.813C55.843 294.278 56.5356 292.744 57.2537 291.212L57.7064 291.425C58.4151 289.912 59.1488 288.402 59.9071 286.893L59.4603 286.668C60.208 285.18 60.9796 283.694 61.7748 282.21L62.2155 282.446C63.0087 280.966 63.8255 279.487 64.6657 278.01L64.2311 277.763C65.052 276.32 65.895 274.88 66.7601 273.441L67.1886 273.699C68.0494 272.268 68.9321 270.838 69.8365 269.411L69.4142 269.144C70.3111 267.729 71.2293 266.316 72.1684 264.905L72.5846 265.182C73.5046 263.801 74.4449 262.421 75.4052 261.045L74.9951 260.759C75.9574 259.379 76.9398 258.002 77.9421 256.627L78.3461 256.922C79.3247 255.58 80.3223 254.24 81.3388 252.904L80.9408 252.601C81.9517 251.272 82.9813 249.945 84.0292 248.621L84.4212 248.931C85.4654 247.612 86.5279 246.296 87.6086 244.982L87.2225 244.664C88.2758 243.384 89.3464 242.107 90.4338 240.832L90.8142 241.157C91.8998 239.885 93.0023 238.616 94.1217 237.35L93.7471 237.019C94.8595 235.761 95.9884 234.506 97.1337 233.254L97.5026 233.592C98.6227 232.367 99.7586 231.146 100.91 229.929L100.547 229.585C101.7 228.365 102.869 227.149 104.053 225.936L104.411 226.285C105.579 225.088 106.763 223.894 107.961 222.704L107.609 222.349C108.79 221.176 109.986 220.007 111.195 218.84L111.542 219.2C112.75 218.036 113.973 216.875 115.209 215.717L114.868 215.352C116.09 214.208 117.325 213.068 118.575 211.931L118.911 212.301C120.142 211.181 121.385 210.065 122.642 208.952L122.311 208.578C123.569 207.464 124.841 206.353 126.126 205.247L126.452 205.626C127.719 204.534 128.999 203.446 130.292 202.362L129.97 201.979C131.247 200.908 132.535 199.841 133.836 198.777L134.152 199.164C135.452 198.102 136.763 197.044 138.086 195.989L137.774 195.598C139.086 194.553 140.41 193.511 141.746 192.473L142.053 192.867C143.366 191.847 144.69 190.83 146.026 189.816L145.724 189.418C147.061 188.404 148.409 187.393 149.768 186.387L150.066 186.789C151.417 185.788 152.779 184.792 154.152 183.799L153.859 183.394C155.207 182.42 156.566 181.449 157.935 180.482L158.223 180.89C159.591 179.925 160.968 178.963 162.356 178.005L162.072 177.593C163.462 176.635 164.861 175.68 166.271 174.729L166.551 175.144C167.928 174.215 169.315 173.29 170.712 172.369L170.436 171.951C171.833 171.03 173.239 170.114 174.655 169.201L174.926 169.621C176.34 168.709 177.764 167.801 179.197 166.898L178.93 166.475C180.345 165.583 181.768 164.695 183.201 163.811L183.464 164.237C184.883 163.361 186.312 162.489 187.749 161.622L187.49 161.194C188.929 160.326 190.376 159.462 191.832 158.602L192.086 159.032C193.534 158.178 194.991 157.327 196.455 156.48L196.205 156.047C197.648 155.214 199.098 154.384 200.557 153.559L200.803 153.995C202.261 153.17 203.726 152.35 205.2 151.534L204.957 151.097C206.432 150.28 207.915 149.468 209.406 148.66L209.644 149.099C211.112 148.304 212.587 147.513 214.07 146.727L213.835 146.285C215.312 145.502 216.796 144.722 218.288 143.948L218.518 144.391C220.008 143.617 221.506 142.847 223.011 142.082L222.785 141.636C224.285 140.873 225.793 140.115 227.309 139.36L227.531 139.808C229.023 139.066 230.521 138.328 232.026 137.594L231.807 137.145C233.313 136.411 234.827 135.681 236.347 134.955L236.562 135.407C238.081 134.682 239.607 133.962 241.14 133.246L240.928 132.793C242.446 132.084 243.97 131.379 245.501 130.68L245.709 131.134C247.228 130.44 248.753 129.75 250.284 129.065L250.08 128.609C251.612 127.923 253.151 127.241 254.697 126.564L254.897 127.022C256.441 126.346 257.992 125.674 259.548 125.007L259.351 124.547C260.885 123.89 262.425 123.237 263.971 122.589L264.164 123.05C265.707 122.403 267.255 121.76 268.809 121.123L268.619 120.66C270.175 120.022 271.736 119.388 273.303 118.759L273.49 119.223C275.051 118.596 276.619 117.973 278.192 117.355L278.009 116.89C279.563 116.28 281.122 115.675 282.686 115.074L282.865 115.541C284.429 114.94 285.998 114.344 287.572 113.753L287.396 113.285C288.972 112.694 290.552 112.107 292.139 111.524L292.311 111.994C293.887 111.415 295.469 110.841 297.056 110.272L296.887 109.801C298.46 109.237 300.038 108.678 301.62 108.123L301.786 108.595C303.368 108.04 304.954 107.49 306.546 106.945L306.384 106.472C307.977 105.927 309.575 105.386 311.179 104.85L311.337 105.324C312.927 104.792 314.523 104.265 316.123 103.743L315.967 103.268C317.557 102.749 319.151 102.235 320.75 101.725L320.902 102.202C322.5 101.692 324.103 101.188 325.71 100.689L325.561 100.211C327.17 99.7111 328.783 99.2159 330.401 98.7256L330.546 99.2041C332.149 98.718 333.757 98.2367 335.37 97.7602L335.228 97.2807C336.833 96.8066 338.441 96.3373 340.054 95.8727L340.193 96.3532C341.805 95.889 343.421 95.4296 345.042 94.975L344.907 94.4936C346.529 94.0387 348.155 93.5886 349.785 93.1435L349.917 93.6259C351.533 93.1845 353.154 92.748 354.778 92.3164L354.65 91.8331C356.267 91.4034 357.889 90.9785 359.514 90.5585L359.639 91.0426C361.264 90.6229 362.892 90.208 364.524 89.798L364.403 89.3131C366.036 88.9028 367.673 88.4975 369.315 88.0971L369.433 88.5829C371.062 88.1856 372.694 87.7933 374.33 87.4058L374.215 86.9193C375.843 86.5336 377.476 86.1529 379.112 85.777L379.224 86.2643C380.859 85.8887 382.498 85.5181 384.14 85.1524L384.031 84.6643C385.675 84.2984 387.322 83.9374 388.973 83.5814L389.078 84.0702C389.903 83.8923 390.728 83.7157 391.555 83.5404C392.382 83.365 393.208 83.1912 394.034 83.0188L393.932 82.5293C395.585 82.1845 397.237 81.8456 398.887 81.5129L398.986 82.003C400.636 81.6704 402.284 81.3439 403.93 81.0233L403.835 80.5325C405.483 80.2118 407.129 79.897 408.774 79.5882L408.866 80.0797C410.519 79.7695 412.17 79.4653 413.819 79.1672L413.73 78.6752C415.393 78.3747 417.054 78.0804 418.713 77.7921L418.799 78.2847C420.457 77.9967 422.113 77.7147 423.768 77.4389L423.686 76.9457C425.342 76.6696 426.996 76.3996 428.649 76.1357L428.727 76.6294C430.387 76.3643 432.046 76.1053 433.702 75.8523L433.626 75.3581C435.297 75.103 436.966 74.8541 438.633 74.6113L438.705 75.1061C440.37 74.8636 442.034 74.6272 443.696 74.3969L443.627 73.9017C445.29 73.6713 446.951 73.447 448.609 73.2289L448.675 73.7246C450.342 73.5054 452.007 73.2924 453.67 73.0855L453.608 72.5894C455.285 72.3807 456.961 72.1783 458.633 71.9822L458.692 72.4788C460.363 72.2828 462.033 72.0931 463.7 71.9096L463.645 71.4126C465.313 71.229 466.979 71.0516 468.642 70.8805L468.693 71.3779C470.368 71.2056 472.039 71.0396 473.709 70.8799L473.661 70.3821C475.344 70.2212 477.024 70.0665 478.701 69.9183L478.745 70.4164C480.421 70.2682 482.094 70.1264 483.765 69.9909L483.724 69.4926C485.396 69.357 487.065 69.2278 488.732 69.1049L488.768 69.6035C490.45 69.4794 492.128 69.3618 493.804 69.2506L493.771 68.7517C495.457 68.6398 497.14 68.5344 498.82 68.4354L498.849 68.9345C500.528 68.8356 502.203 68.7432 503.876 68.6571L503.85 68.1578C505.524 68.0717 507.194 67.992 508.862 67.9188L508.883 68.4183C510.572 68.3441 512.257 68.2765 513.939 68.2155L513.921 67.7158C515.609 67.6545 517.293 67.5999 518.974 67.5518L518.988 68.0516C520.667 68.0035 522.343 67.962 524.015 67.9271L524.005 67.4272C525.681 67.3922 527.353 67.3637 529.021 67.3418L529.028 67.8417C530.722 67.8195 532.411 67.8039 534.097 67.7951L534.094 67.2951C535.781 67.2863 537.464 67.2842 539.143 67.2888L539.142 67.7888C540.82 67.7934 542.493 67.8047 544.163 67.8227L544.168 67.3227C545.852 67.3408 547.531 67.3657 549.205 67.3973L549.196 67.8972C550.887 67.9291 552.574 67.9679 554.257 68.0135L554.27 67.5137C555.954 67.5594 557.633 67.6119 559.308 67.6713L559.291 68.171C560.964 68.2303 562.633 68.2964 564.297 68.3693L564.319 67.8698C566.01 67.9439 567.696 68.025 569.377 68.1131L569.351 68.6124C571.037 68.7008 572.718 68.7962 574.395 68.8985L574.425 68.3995C576.103 68.5019 577.775 68.6114 579.443 68.7278L579.408 69.2266C581.082 69.3435 582.752 69.4675 584.416 69.5985L584.455 69.1C586.145 69.2331 587.83 69.3734 589.51 69.5208L589.466 70.0189C591.144 70.1663 592.816 70.3208 594.483 70.4825L594.531 69.9848C596.199 70.1467 597.861 70.3157 599.518 70.4918L599.465 70.989C601.147 71.1679 602.824 71.3541 604.494 71.5476L604.552 71.0509C606.231 71.2456 607.905 71.4477 609.572 71.6571L609.509 72.1532C611.175 72.3624 612.834 72.5789 614.487 72.8029L614.554 72.3074C616.222 72.5334 617.884 72.7668 619.539 73.0077L619.467 73.5024C621.143 73.7464 622.813 73.998 624.476 74.2572L624.553 73.7631C626.217 74.0226 627.874 74.2896 629.524 74.5642L629.442 75.0574C631.093 75.332 632.736 75.6141 634.372 75.9038L634.459 75.4115C636.133 75.7079 637.8 76.0122 639.459 76.3244L639.366 76.8158C641.024 77.1276 642.673 77.4473 644.315 77.7747L644.413 77.2844C646.056 77.6122 647.692 77.9478 649.32 78.2911L649.217 78.7803C650.874 79.13 652.523 79.4876 654.164 79.8533L654.273 79.3653C655.924 79.7332 657.566 80.1092 659.2 80.4933L659.086 80.9801C660.718 81.3637 662.341 81.7554 663.956 82.155L664.076 81.6697C665.718 82.0762 667.351 82.4909 668.974 82.9139L668.848 83.3977C670.485 83.8242 672.113 84.2591 673.732 84.7023L673.864 84.22C675.484 84.6638 677.095 85.1159 678.696 85.5763L678.558 86.0568C680.179 86.523 681.791 86.9977 683.392 87.4808L683.537 87.0021C685.16 87.4919 686.773 87.9904 688.375 88.4976L688.225 88.9743C689.825 89.4807 691.415 89.9958 692.994 90.5195L693.151 90.0449C694.754 90.5766 696.347 91.1171 697.928 91.6664L697.764 92.1387C699.364 92.6946 700.952 93.2594 702.529 93.8332L702.7 93.3633C704.279 93.9379 705.847 94.5215 707.402 95.114L707.224 95.5813C708.803 96.1825 710.369 96.7928 711.923 97.4123L712.108 96.9478C713.683 97.5757 715.245 98.2128 716.794 98.8593L716.601 99.3208C718.148 99.9662 719.682 100.621 721.203 101.285L721.403 100.827C722.957 101.506 724.499 102.194 726.026 102.892L725.818 103.347C727.355 104.049 728.878 104.762 730.386 105.483L730.602 105.032C732.113 105.755 733.61 106.488 735.093 107.23L734.869 107.678C736.39 108.439 737.895 109.211 739.385 109.992L739.617 109.55C741.112 110.334 742.592 111.129 744.056 111.933L743.815 112.371C745.286 113.18 746.742 113.999 748.181 114.828L748.431 114.395C749.905 115.244 751.362 116.104 752.801 116.974L752.543 117.402C753.979 118.27 755.398 119.149 756.8 120.038L757.068 119.616C758.499 120.524 759.911 121.442 761.306 122.371L761.028 122.788C762.434 123.724 763.821 124.672 765.189 125.631L765.476 125.221C766.851 126.185 768.206 127.159 769.542 128.144L769.245 128.547C770.612 129.555 771.959 130.575 773.285 131.605L773.592 131.211C774.921 132.244 776.23 133.289 777.517 134.345L777.2 134.732C778.506 135.803 779.789 136.886 781.051 137.98L781.379 137.602C782.657 138.711 783.912 139.831 785.145 140.963L784.807 141.331C786.042 142.466 787.255 143.613 788.444 144.771L788.793 144.413C790.009 145.598 791.201 146.795 792.368 148.004L792.008 148.351C793.172 149.556 794.31 150.774 795.423 152.003L795.794 151.667C796.933 152.925 798.046 154.194 799.132 155.477L798.75 155.8C799.836 157.082 800.895 158.376 801.927 159.682L802.319 159.372C803.366 160.697 804.385 162.034 805.376 163.384L804.973 163.68C805.969 165.036 806.936 166.405 807.874 167.786L808.287 167.505C809.233 168.898 810.15 170.303 811.037 171.72L810.613 171.986C811.505 173.412 812.367 174.85 813.199 176.302L813.633 176.053C814.469 177.511 815.273 178.982 816.047 180.466L815.604 180.697C816.381 182.187 817.126 183.689 817.84 185.203L818.292 184.99C819.009 186.511 819.693 188.044 820.345 189.59L819.884 189.784C820.535 191.327 821.153 192.883 821.739 194.451L822.207 194.276C822.795 195.85 823.35 197.438 823.872 199.037L823.396 199.192C823.914 200.78 824.398 202.38 824.85 203.992L825.331 203.857Z" stroke="#E41E0A" stroke-dasharray="5 5"/>
</svg>
