<svg width="2869" height="826" viewBox="0 0 2869 826" fill="none" xmlns="http://www.w3.org/2000/svg">
<path d="M2816.93 2.73493C2823.75 76.6831 2794.09 153.269 2729.64 228.119C2665.19 302.97 2567.21 374.619 2441.29 438.977C2315.38 503.334 2163.99 559.139 1995.78 603.206C1827.57 647.273 1645.83 678.738 1460.93 695.805C1276.03 712.872 1091.6 715.207 918.165 702.676C744.73 690.146 585.687 662.995 450.118 622.774C314.549 582.553 205.108 530.049 128.045 468.262C50.981 406.474 7.80368 336.611 0.977863 262.663L284.5 234C289.854 292.002 343.82 347.436 404.265 395.899C464.71 444.363 550.551 485.544 656.885 517.092C763.22 548.639 887.965 569.935 1024 579.764C1160.04 589.592 1304.7 587.761 1449.72 574.374C1594.75 560.988 1737.3 536.308 1869.24 501.744C2001.17 467.18 2119.91 423.409 2218.68 372.93C2317.44 322.45 2394.29 266.252 2444.84 207.542C2495.4 148.833 2505.2 93.2392 2512.5 31.5001L2816.93 2.73493Z" fill="#F9F8F8"/>
</svg>
