<svg width="708" height="538" viewBox="0 0 708 538" fill="none" xmlns="http://www.w3.org/2000/svg">
<path d="M619.623 155.624C620.484 157.037 621.315 158.473 622.115 159.93L621.677 160.17C622.076 160.896 622.467 161.626 622.85 162.362C623.234 163.098 623.608 163.838 623.974 164.58L624.423 164.359C625.158 165.85 625.858 167.353 626.523 168.869L626.065 169.069C626.729 170.584 627.359 172.11 627.954 173.647L628.42 173.467C629.019 175.015 629.583 176.574 630.112 178.144L629.638 178.304C630.166 179.869 630.658 181.444 631.117 183.03L631.597 182.891C632.057 184.484 632.483 186.088 632.875 187.702L632.389 187.82C632.778 189.421 633.132 191.032 633.454 192.653L633.944 192.556C634.267 194.182 634.556 195.818 634.811 197.463L634.317 197.54C634.569 199.165 634.789 200.798 634.976 202.44L635.473 202.384C635.661 204.031 635.817 205.686 635.94 207.349L635.441 207.386C635.563 209.024 635.653 210.669 635.712 212.321L636.212 212.303C636.271 213.959 636.299 215.622 636.297 217.291L635.797 217.29C635.794 218.931 635.762 220.579 635.7 222.233L636.2 222.251C636.138 223.906 636.047 225.567 635.926 227.233L635.428 227.197C635.309 228.833 635.163 230.475 634.989 232.122L635.486 232.174C635.311 233.821 635.109 235.472 634.879 237.129L634.384 237.06C634.159 238.684 633.906 240.312 633.628 241.945L634.121 242.029C633.842 243.662 633.537 245.299 633.206 246.94L632.716 246.841C632.392 248.447 632.043 250.057 631.67 251.67L632.157 251.782C631.782 253.398 631.383 255.017 630.959 256.639L630.475 256.512C630.061 258.095 629.624 259.682 629.163 261.27L629.643 261.41C629.181 263.003 628.696 264.598 628.187 266.196L627.711 266.044C627.214 267.604 626.695 269.166 626.154 270.729L626.627 270.893C626.086 272.458 625.523 274.024 624.937 275.593L624.469 275.418C623.896 276.955 623.301 278.494 622.686 280.034L623.15 280.219C622.537 281.754 621.903 283.289 621.249 284.826L620.789 284.63C620.144 286.145 619.48 287.66 618.795 289.176L619.251 289.382C618.573 290.884 617.875 292.387 617.158 293.89L616.707 293.675C615.996 295.166 615.265 296.658 614.516 298.15L614.963 298.375C614.226 299.844 613.47 301.312 612.697 302.781L612.254 302.548C611.482 304.014 610.692 305.479 609.884 306.945L610.322 307.186C609.529 308.624 608.719 310.062 607.892 311.498L607.459 311.249C606.635 312.68 605.794 314.11 604.937 315.54L605.366 315.797C604.517 317.213 603.651 318.628 602.77 320.041L602.345 319.777C601.475 321.173 600.588 322.568 599.686 323.962L600.105 324.233C599.203 325.627 598.285 327.02 597.351 328.411L596.936 328.132C596.022 329.493 595.094 330.853 594.15 332.211L594.561 332.496C593.616 333.856 592.656 335.215 591.681 336.571L591.275 336.28C590.314 337.618 589.338 338.955 588.348 340.289L588.75 340.587C587.767 341.912 586.77 343.234 585.76 344.555L585.363 344.251C584.354 345.569 583.332 346.885 582.296 348.198L582.688 348.508C581.671 349.797 580.64 351.084 579.597 352.369L579.209 352.054C578.167 353.336 577.111 354.617 576.043 355.895L576.427 356.215C575.366 357.485 574.292 358.751 573.205 360.015L572.826 359.689C571.754 360.937 570.669 362.182 569.571 363.425L569.946 363.756C568.847 364.999 567.736 366.241 566.613 367.479L566.242 367.143C565.136 368.362 564.019 369.577 562.889 370.79L563.255 371.131C562.129 372.34 560.992 373.546 559.842 374.748L559.481 374.403C558.335 375.603 557.177 376.8 556.007 377.993L556.364 378.343C555.213 379.517 554.051 380.689 552.878 381.856L552.525 381.502C551.354 382.669 550.171 383.832 548.978 384.991L549.326 385.35C548.137 386.504 546.938 387.656 545.728 388.803L545.384 388.44C544.19 389.573 542.985 390.702 541.77 391.827L542.11 392.194C540.894 393.32 539.667 394.443 538.43 395.561L538.095 395.19C536.87 396.299 535.635 397.403 534.389 398.504L534.72 398.878C533.484 399.971 532.238 401.06 530.982 402.144L530.655 401.766C529.401 402.849 528.137 403.929 526.863 405.004L527.186 405.386C525.923 406.451 524.652 407.513 523.371 408.57L523.053 408.184C521.78 409.234 520.498 410.28 519.208 411.322L519.522 411.711C518.229 412.753 516.928 413.792 515.617 414.826L515.308 414.433C514.013 415.454 512.71 416.471 511.398 417.483L511.704 417.879C510.395 418.889 509.078 419.894 507.752 420.894L507.451 420.495C506.126 421.495 504.793 422.49 503.451 423.48L503.748 423.882C502.421 424.862 501.085 425.837 499.741 426.808L499.448 426.402C498.109 427.369 496.762 428.331 495.406 429.288L495.695 429.697C494.338 430.655 492.973 431.609 491.599 432.557L491.315 432.146C489.959 433.083 488.595 434.015 487.223 434.942L487.503 435.356C486.133 436.282 484.755 437.203 483.369 438.119L483.093 437.701C481.709 438.616 480.317 439.526 478.917 440.431L479.189 440.851C477.803 441.747 476.409 442.638 475.008 443.524L474.74 443.102C473.344 443.985 471.941 444.862 470.53 445.735L470.792 446.16C469.38 447.033 467.96 447.902 466.533 448.764L466.274 448.337C464.862 449.19 463.443 450.039 462.017 450.882L462.271 451.313C460.848 452.154 459.418 452.99 457.981 453.821L457.73 453.388C456.295 454.218 454.852 455.042 453.402 455.861L453.648 456.297C452.208 457.11 450.762 457.918 449.309 458.721L449.067 458.283C447.622 459.081 446.169 459.874 444.711 460.661L444.948 461.101C443.488 461.889 442.021 462.671 440.548 463.447L440.315 463.005C439.579 463.393 438.841 463.78 438.102 464.165C437.363 464.55 436.623 464.933 435.884 465.313L436.112 465.758C434.632 466.52 433.15 467.274 431.668 468.019L431.443 467.572C429.962 468.316 428.48 469.052 426.998 469.779L427.218 470.228C425.728 470.959 424.236 471.681 422.745 472.395L422.529 471.944C421.027 472.662 419.525 473.372 418.022 474.073L418.233 474.526C416.729 475.228 415.224 475.921 413.719 476.605L413.512 476.15C412.003 476.835 410.494 477.512 408.985 478.18L409.188 478.637C407.663 479.312 406.137 479.978 404.612 480.635L404.414 480.175C402.891 480.832 401.367 481.479 399.843 482.117L400.037 482.578C398.508 483.219 396.979 483.85 395.45 484.473L395.261 484.009C393.717 484.638 392.174 485.257 390.631 485.867L390.815 486.332C389.27 486.943 387.725 487.544 386.181 488.136L386.002 487.67C384.456 488.263 382.911 488.846 381.366 489.421L381.54 489.889C379.976 490.471 378.412 491.043 376.849 491.606L376.68 491.136C375.118 491.698 373.558 492.25 371.998 492.794L372.162 493.266C370.597 493.811 369.032 494.347 367.469 494.873L367.309 494.399C365.729 494.931 364.149 495.454 362.571 495.966L362.726 496.442C361.146 496.955 359.567 497.458 357.99 497.952L357.84 497.475C356.259 497.969 354.679 498.455 353.1 498.93L353.245 499.409C351.646 499.89 350.049 500.362 348.454 500.823L348.315 500.343C346.722 500.804 345.13 501.254 343.541 501.695L343.674 502.177C342.074 502.621 340.475 503.055 338.879 503.479L338.751 502.995C337.14 503.423 335.531 503.84 333.924 504.247L334.047 504.732C332.438 505.139 330.832 505.537 329.228 505.924L329.11 505.438C327.495 505.827 325.882 506.207 324.272 506.575L324.383 507.063C322.758 507.435 321.135 507.797 319.515 508.148L319.409 507.659C317.791 508.01 316.175 508.35 314.563 508.68L314.663 509.169C313.029 509.503 311.398 509.826 309.771 510.139L309.676 509.648C308.042 509.961 306.412 510.264 304.784 510.555L304.872 511.048C303.243 511.34 301.617 511.621 299.995 511.891L299.913 511.397C298.265 511.672 296.621 511.935 294.98 512.187L295.056 512.681C293.412 512.933 291.772 513.174 290.136 513.404L290.066 512.909C288.425 513.14 286.788 513.359 285.156 513.566L285.219 514.062C283.56 514.273 281.906 514.473 280.257 514.66L280.201 514.163C278.554 514.351 276.912 514.526 275.274 514.69L275.324 515.188C273.666 515.354 272.012 515.508 270.364 515.65L270.321 515.152C268.662 515.295 267.008 515.425 265.359 515.544L265.395 516.043C263.744 516.162 262.099 516.269 260.459 516.363L260.43 515.864C258.76 515.96 257.096 516.044 255.438 516.115L255.459 516.615C253.798 516.686 252.143 516.745 250.495 516.791L250.481 516.291C248.82 516.338 247.165 516.371 245.517 516.392L245.524 516.892C243.853 516.913 242.19 516.921 240.534 516.916L240.535 516.416C238.882 516.411 237.236 516.392 235.597 516.361L235.587 516.861C233.912 516.829 232.244 516.783 230.585 516.724L230.603 516.224C228.944 516.165 227.292 516.092 225.649 516.005L225.623 516.505C223.959 516.417 222.304 516.315 220.657 516.2L220.692 515.701C219.029 515.584 217.375 515.453 215.73 515.308L215.686 515.806C214.035 515.66 212.393 515.5 210.76 515.326L210.813 514.829C209.149 514.651 207.495 514.459 205.852 514.251L205.789 514.747C204.142 514.539 202.506 514.317 200.879 514.079L200.951 513.584C199.299 513.343 197.658 513.087 196.028 512.815L195.946 513.308C194.303 513.034 192.672 512.744 191.052 512.439L191.145 511.948C189.51 511.64 187.888 511.316 186.277 510.976L186.174 511.466C184.54 511.121 182.918 510.76 181.309 510.383L181.423 509.896C179.809 509.518 178.207 509.123 176.619 508.712L176.494 509.196C174.873 508.777 173.266 508.34 171.674 507.887L171.811 507.406C170.219 506.953 168.642 506.483 167.08 505.996L166.931 506.474C165.33 505.975 163.744 505.458 162.174 504.924L162.335 504.45C160.769 503.917 159.218 503.367 157.684 502.799L157.51 503.268C155.938 502.685 154.383 502.085 152.844 501.466L153.031 501.002C151.495 500.384 149.976 499.747 148.474 499.093L148.274 499.551C146.74 498.882 145.224 498.193 143.726 497.486L143.94 497.033C142.442 496.326 140.963 495.599 139.503 494.853L139.276 495.299C137.787 494.538 136.317 493.757 134.868 492.956L135.11 492.518C133.66 491.718 132.231 490.897 130.823 490.056L130.566 490.485C129.132 489.629 127.718 488.752 126.327 487.854L126.598 487.434C125.207 486.537 123.839 485.619 122.493 484.681L122.207 485.091C120.837 484.136 119.491 483.16 118.168 482.162L118.469 481.763C117.149 480.768 115.853 479.751 114.58 478.713L114.264 479.1C112.972 478.046 111.705 476.97 110.463 475.872L110.794 475.497C109.556 474.403 108.343 473.287 107.156 472.149L106.81 472.51C105.608 471.357 104.433 470.183 103.285 468.987L103.646 468.64C102.502 467.448 101.385 466.234 100.296 464.998L99.9206 465.329C98.8226 464.083 97.7525 462.814 96.7107 461.524L97.0998 461.21C96.0628 459.925 95.0541 458.619 94.0743 457.29L93.6719 457.587C92.6882 456.253 91.7335 454.897 90.8083 453.519L91.2234 453.241C90.3045 451.872 89.4148 450.482 88.5549 449.069L88.1278 449.329C87.2673 447.916 86.4364 446.481 85.6358 445.024L86.0739 444.783C85.6754 444.058 85.2844 443.327 84.9009 442.591C84.5175 441.855 84.1429 441.116 83.777 440.373L83.3285 440.594C82.5934 439.103 81.8935 437.6 81.2285 436.085L81.6863 435.884C81.0218 434.37 80.3922 432.844 79.7973 431.306L79.331 431.487C78.732 429.939 78.1681 428.379 77.6388 426.809L78.1126 426.649C77.5854 425.085 77.0928 423.509 76.6346 421.923L76.1542 422.062C75.6938 420.469 75.2679 418.865 74.8762 417.251L75.3621 417.133C74.9735 415.532 74.6187 413.921 74.2973 412.3L73.8069 412.398C73.4844 410.771 73.1956 409.135 72.94 407.49L73.4341 407.413C73.1818 405.789 72.962 404.155 72.7747 402.513L72.2779 402.57C72.09 400.923 71.9345 399.267 71.8112 397.604L72.3098 397.567C72.1884 395.93 72.0982 394.285 72.0391 392.632L71.5394 392.65C71.4801 390.994 71.4519 389.332 71.4544 387.662L71.9544 387.663C71.9568 386.022 71.989 384.374 72.0508 382.721L71.5512 382.702C71.6129 381.047 71.7042 379.386 71.8246 377.72L72.3233 377.756C72.4416 376.12 72.588 374.479 72.7625 372.832L72.2653 372.779C72.4397 371.133 72.642 369.481 72.8719 367.824L73.3672 367.893C73.5926 366.269 73.8446 364.641 74.1231 363.008L73.6303 362.924C73.9088 361.291 74.2136 359.654 74.5446 358.013L75.0347 358.112C75.3586 356.506 75.7076 354.897 76.0815 353.284L75.5944 353.171C75.9688 351.555 76.3681 349.936 76.7921 348.315L77.2758 348.441C77.6897 346.858 78.1271 345.272 78.588 343.683L78.1078 343.544C78.5699 341.951 79.0554 340.355 79.5641 338.757L80.0405 338.909C80.5371 337.349 81.0558 335.788 81.5966 334.224L81.1241 334.061C81.6653 332.496 82.2286 330.929 82.8136 329.36L83.2821 329.535C83.8555 327.998 84.4499 326.459 85.0652 324.919L84.6009 324.734C85.214 323.199 85.8477 321.664 86.5018 320.127L86.9619 320.323C87.6067 318.809 88.2714 317.293 88.9558 315.777L88.5001 315.572C89.1784 314.069 89.876 312.566 90.5928 311.063L91.0441 311.279C91.7555 309.787 92.4857 308.295 93.2348 306.803L92.788 306.579C93.5254 305.11 94.281 303.641 95.0546 302.172L95.4969 302.405C96.269 300.939 97.0591 299.474 97.867 298.009L97.4292 297.767C98.222 296.329 99.0321 294.892 99.8591 293.455L100.292 293.704C101.116 292.273 101.957 290.843 102.814 289.413L102.385 289.156C103.234 287.74 104.1 286.326 104.982 284.912L105.406 285.176C106.276 283.78 107.163 282.385 108.065 280.992L107.646 280.72C108.548 279.326 109.466 277.933 110.4 276.542L110.815 276.821C111.729 275.46 112.658 274.1 113.601 272.742L113.19 272.457C114.135 271.097 115.095 269.738 116.07 268.382L116.476 268.673C117.437 267.335 118.413 265.999 119.403 264.664L119.001 264.366C119.984 263.041 120.981 261.719 121.991 260.398L122.388 260.702C123.397 259.384 124.419 258.069 125.455 256.755L125.063 256.446C126.08 255.156 127.111 253.869 128.154 252.584L128.542 252.9C129.584 251.617 130.64 250.336 131.708 249.059L131.324 248.738C132.385 247.469 133.459 246.202 134.546 244.938L134.925 245.264C135.997 244.016 137.083 242.771 138.18 241.529L137.805 241.198C138.904 239.954 140.015 238.713 141.138 237.475L141.509 237.811C142.615 236.592 143.732 235.376 144.862 234.163L144.496 233.822C145.622 232.613 146.76 231.407 147.909 230.205L148.27 230.55C149.417 229.35 150.575 228.154 151.744 226.96L151.387 226.61C152.538 225.436 153.7 224.265 154.873 223.097L155.226 223.451C156.397 222.285 157.58 221.122 158.773 219.962L158.425 219.604C159.614 218.449 160.813 217.298 162.023 216.15L162.367 216.513C163.561 215.38 164.766 214.252 165.981 213.127L165.641 212.76C166.857 211.633 168.084 210.511 169.321 209.392L169.656 209.763C170.881 208.655 172.116 207.55 173.362 206.45L173.031 206.075C174.267 204.982 175.513 203.894 176.769 202.809L177.096 203.187C178.35 202.104 179.614 201.025 180.888 199.949L180.566 199.567C181.828 198.502 183.099 197.441 184.38 196.383L184.699 196.769C185.971 195.719 187.253 194.673 188.544 193.632L188.23 193.243C189.522 192.2 190.823 191.161 192.134 190.128L192.444 190.52C193.738 189.499 195.041 188.482 196.353 187.47L196.047 187.074C197.356 186.065 198.673 185.059 199.999 184.059L200.3 184.458C201.625 183.458 202.958 182.463 204.3 181.473L204.003 181.071C205.33 180.091 206.666 179.116 208.01 178.146L208.303 178.551C209.642 177.584 210.989 176.622 212.345 175.665L212.056 175.256C213.413 174.298 214.778 173.345 216.152 172.396L216.436 172.807C217.792 171.871 219.156 170.939 220.528 170.012L220.248 169.597C221.618 168.671 222.996 167.751 224.382 166.835L224.658 167.252C226.042 166.337 227.434 165.427 228.834 164.522L228.562 164.102C229.949 163.206 231.342 162.315 232.743 161.429L233.011 161.851C234.407 160.969 235.811 160.091 237.222 159.218L236.959 158.793C238.371 157.92 239.791 157.052 241.218 156.189L241.477 156.617C242.889 155.763 244.308 154.914 245.734 154.071L245.48 153.64C246.903 152.799 248.333 151.963 249.771 151.132L250.021 151.565C251.457 150.735 252.899 149.911 254.349 149.092L254.103 148.656C255.543 147.843 256.989 147.035 258.442 146.233L258.684 146.67C260.129 145.872 261.582 145.08 263.04 144.293L262.803 143.853C264.263 143.065 265.73 142.282 267.203 141.506L267.436 141.948C268.172 141.56 268.91 141.174 269.649 140.789C270.388 140.404 271.128 140.021 271.867 139.64L271.639 139.195C273.119 138.433 274.601 137.679 276.083 136.934L276.308 137.381C277.789 136.637 279.271 135.901 280.753 135.174L280.533 134.725C282.024 133.994 283.515 133.272 285.006 132.558L285.222 133.009C286.724 132.291 288.227 131.581 289.729 130.88L289.518 130.427C291.023 129.725 292.527 129.032 294.033 128.348L294.239 128.804C295.748 128.118 297.257 127.441 298.766 126.774L298.563 126.316C300.088 125.641 301.614 124.975 303.139 124.319L303.337 124.778C304.86 124.122 306.384 123.474 307.908 122.836L307.714 122.375C309.244 121.735 310.773 121.103 312.301 120.481L312.49 120.944C314.034 120.315 315.577 119.696 317.12 119.086L316.937 118.621C318.481 118.01 320.026 117.409 321.57 116.817L321.749 117.284C323.295 116.691 324.84 116.107 326.385 115.533L326.211 115.064C327.775 114.482 329.339 113.91 330.902 113.347L331.071 113.818C332.633 113.256 334.193 112.703 335.753 112.16L335.589 111.687C337.154 111.142 338.719 110.606 340.282 110.08L340.442 110.554C342.022 110.022 343.602 109.5 345.18 108.987L345.026 108.512C346.605 107.999 348.184 107.495 349.761 107.002L349.911 107.479C351.492 106.984 353.072 106.499 354.651 106.023L354.506 105.544C356.105 105.063 357.702 104.592 359.297 104.13L359.436 104.611C361.029 104.15 362.621 103.699 364.21 103.258L364.077 102.776C365.677 102.332 367.276 101.898 368.872 101.475L369 101.958C370.611 101.53 372.221 101.113 373.827 100.706L373.704 100.221C375.313 99.8138 376.919 99.4166 378.523 99.0297L378.641 99.5157C380.256 99.126 381.869 98.7467 383.479 98.3779L383.368 97.8905C384.993 97.5182 386.616 97.1564 388.236 96.8053L388.342 97.294C389.961 96.9433 391.576 96.6032 393.188 96.2736L393.088 95.7837C394.722 95.4498 396.353 95.1267 397.98 94.8145L398.075 95.3055C399.709 94.992 401.34 94.6895 402.967 94.3979L402.879 93.9057C404.508 93.6137 406.134 93.3327 407.756 93.0626L407.838 93.5558C409.486 93.2814 411.131 93.0183 412.771 92.7665L412.695 92.2722C414.339 92.0198 415.979 91.7788 417.615 91.549L417.685 92.0442C419.326 91.8137 420.963 91.5945 422.596 91.3868L422.532 90.8908C424.191 90.6798 425.845 90.4806 427.494 90.2931L427.55 90.7898C429.197 90.6026 430.84 90.427 432.477 90.2631L432.427 89.7656C434.085 89.5996 435.739 89.4456 437.387 89.3035L437.43 89.8017C439.089 89.6586 440.743 89.5278 442.392 89.409L442.356 88.9103C444.007 88.7914 445.652 88.6846 447.292 88.59L447.321 89.0892C448.991 88.9928 450.655 88.909 452.313 88.8379L452.292 88.3383C453.953 88.267 455.608 88.2083 457.256 88.1622L457.27 88.662C458.931 88.6156 460.586 88.582 462.234 88.5612L462.227 88.0612C463.898 88.0401 465.561 88.0322 467.217 88.0374L467.216 88.5374C468.869 88.5425 470.516 88.5608 472.154 88.5921L472.164 88.0922C473.839 88.1243 475.507 88.17 477.166 88.2293L477.148 88.729C478.808 88.7883 480.459 88.8612 482.102 88.9479L482.128 88.4485C483.792 88.5362 485.447 88.6379 487.094 88.7535L487.059 89.2523C488.722 89.369 490.376 89.4999 492.021 89.6451L492.065 89.1471C493.716 89.2928 495.358 89.4529 496.991 89.6273L496.938 90.1245C498.602 90.3021 500.256 90.4947 501.899 90.7021L501.962 90.206C503.609 90.4138 505.246 90.6365 506.872 90.874L506.8 91.3687C508.452 91.61 510.093 91.8667 511.723 92.1386L511.805 91.6455C513.448 91.9195 515.079 92.2092 516.699 92.5143L516.606 93.0056C518.241 93.3136 519.864 93.6374 521.474 93.977L521.577 93.4877C523.211 93.8322 524.833 94.1931 526.442 94.5701L526.328 95.0569C527.942 95.4353 529.544 95.83 531.132 96.2411L531.257 95.757C532.878 96.1765 534.485 96.6129 536.077 97.0663L535.94 97.5472C537.532 98.0002 539.109 98.4701 540.671 98.9571L540.82 98.4797C542.421 98.9785 544.007 99.4951 545.577 100.029L545.416 100.503C546.982 101.036 548.533 101.586 550.067 102.155L550.241 101.686C551.813 102.268 553.368 102.868 554.907 103.487L554.72 103.951C556.256 104.569 557.775 105.206 559.277 105.861L559.477 105.402C561.011 106.072 562.527 106.76 564.025 107.468L563.811 107.92C565.309 108.627 566.788 109.354 568.248 110.1L568.475 109.655C569.965 110.416 571.434 111.196 572.883 111.997L572.641 112.435C574.091 113.236 575.52 114.056 576.928 114.897L577.185 114.468C578.619 115.324 580.033 116.201 581.424 117.099L581.153 117.519C582.544 118.416 583.912 119.334 585.258 120.273L585.544 119.862C586.914 120.817 588.26 121.793 589.583 122.791L589.282 123.19C590.602 124.186 591.899 125.202 593.171 126.24L593.487 125.853C594.779 126.907 596.047 127.983 597.288 129.081L596.957 129.456C598.196 130.55 599.408 131.667 600.595 132.805L600.941 132.444C602.143 133.596 603.318 134.77 604.466 135.967L604.105 136.313C605.249 137.505 606.366 138.719 607.455 139.955L607.83 139.625C608.928 140.871 609.999 142.139 611.04 143.429L610.651 143.743C611.688 145.028 612.697 146.334 613.677 147.663L614.079 147.366C615.063 148.7 616.018 150.056 616.943 151.434L616.528 151.713C617.447 153.081 618.336 154.472 619.196 155.884L619.623 155.624Z" stroke="#E41E0A" stroke-dasharray="5 5"/>
</svg>
