<svg width="1076" height="878" viewBox="0 0 1076 878" fill="none" xmlns="http://www.w3.org/2000/svg">
<path d="M985.192 304.819C985.695 306.4 986.181 307.989 986.651 309.585L986.171 309.726C986.406 310.523 986.636 311.321 986.862 312.121C987.088 312.922 987.309 313.722 987.526 314.523L988.009 314.393C988.444 315.999 988.86 317.607 989.259 319.218L988.774 319.338C989.171 320.944 989.551 322.553 989.913 324.163L990.401 324.054C990.764 325.67 991.108 327.287 991.435 328.906L990.945 329.005C991.274 330.632 991.584 332.26 991.876 333.89L992.368 333.802C992.661 335.436 992.936 337.071 993.193 338.707L992.699 338.785C992.955 340.418 993.193 342.052 993.414 343.688L993.909 343.621C994.131 345.266 994.335 346.912 994.521 348.56L994.024 348.616C994.209 350.261 994.377 351.907 994.527 353.555L995.025 353.509C995.175 355.16 995.308 356.812 995.422 358.465L994.924 358.5C995.038 360.15 995.135 361.801 995.214 363.453L995.714 363.429C995.793 365.084 995.855 366.741 995.899 368.398L995.399 368.412C995.443 370.065 995.47 371.72 995.479 373.375L995.979 373.372C995.989 375.03 995.981 376.688 995.955 378.347L995.455 378.339C995.43 379.991 995.388 381.643 995.328 383.296L995.828 383.314C995.768 384.97 995.691 386.626 995.598 388.283L995.098 388.254C995.005 389.907 994.894 391.561 994.767 393.214L995.265 393.252C995.138 394.901 994.994 396.55 994.834 398.199L994.336 398.15C994.176 399.795 994 401.439 993.806 403.083L994.303 403.141C994.109 404.789 993.899 406.436 993.673 408.082L993.178 408.014C992.953 409.651 992.711 411.288 992.454 412.924L992.948 413.001C992.691 414.634 992.418 416.266 992.129 417.898L991.636 417.811C991.348 419.44 991.044 421.068 990.723 422.696L991.214 422.792C990.894 424.42 990.558 426.048 990.206 427.675L989.717 427.569C989.369 429.178 989.006 430.787 988.627 432.395L989.113 432.51C988.734 434.121 988.339 435.731 987.929 437.34L987.444 437.216C987.035 438.822 986.611 440.427 986.171 442.031L986.653 442.164C986.217 443.756 985.765 445.348 985.299 446.938L984.819 446.797C984.355 448.38 983.877 449.961 983.383 451.541L983.861 451.69C983.367 453.273 982.858 454.854 982.335 456.435L981.86 456.277C981.34 457.848 980.806 459.418 980.257 460.986L980.729 461.152C980.184 462.707 979.626 464.262 979.053 465.815L978.584 465.642C978.013 467.192 977.427 468.741 976.828 470.288L977.294 470.468C976.694 472.018 976.08 473.566 975.452 475.112L974.989 474.923C974.369 476.449 973.736 477.972 973.09 479.494L973.55 479.69C972.905 481.21 972.246 482.728 971.574 484.244L971.117 484.041C970.446 485.555 969.762 487.066 969.065 488.576L969.519 488.786C968.823 490.291 968.115 491.795 967.394 493.297L966.943 493.081C966.231 494.563 965.506 496.043 964.769 497.521L965.217 497.744C964.479 499.224 963.728 500.702 962.965 502.178L962.521 501.948C961.758 503.422 960.984 504.893 960.197 506.362L960.638 506.598C959.858 508.053 959.066 509.507 958.262 510.957L957.825 510.715C957.027 512.155 956.216 513.594 955.394 515.029L955.828 515.278C955.005 516.716 954.17 518.151 953.323 519.583L952.893 519.329C952.047 520.76 951.19 522.188 950.321 523.613L950.748 523.873C949.892 525.277 949.024 526.679 948.146 528.077L947.723 527.811C946.845 529.208 945.957 530.602 945.057 531.993L945.477 532.265C944.576 533.658 943.664 535.048 942.741 536.436L942.325 536.159C941.407 537.538 940.479 538.915 939.539 540.288L939.952 540.57C939.022 541.929 938.082 543.285 937.132 544.638L936.723 544.351C935.773 545.702 934.813 547.05 933.843 548.395L934.248 548.688C933.277 550.035 932.294 551.379 931.302 552.719L930.9 552.422C929.917 553.75 928.923 555.075 927.92 556.397L928.318 556.699C927.321 558.012 926.315 559.321 925.299 560.627L924.904 560.32C923.889 561.624 922.864 562.926 921.829 564.224L922.22 564.535C921.184 565.835 920.138 567.131 919.082 568.424L918.694 568.108C917.651 569.386 916.598 570.66 915.535 571.931L915.919 572.252C914.862 573.517 913.795 574.778 912.718 576.037L912.338 575.712C911.263 576.968 910.179 578.222 909.085 579.472L909.461 579.801C908.366 581.053 907.262 582.301 906.149 583.545L905.776 583.212C904.677 584.44 903.569 585.664 902.452 586.886L902.821 587.223C901.708 588.44 900.586 589.654 899.455 590.864L899.09 590.522C897.96 591.731 896.822 592.936 895.674 594.138L896.036 594.483C894.887 595.686 893.73 596.885 892.564 598.081L892.206 597.732C891.056 598.911 889.897 600.087 888.729 601.259L889.084 601.612C887.92 602.781 886.747 603.946 885.566 605.108L885.216 604.751C884.036 605.912 882.848 607.068 881.652 608.221L881.999 608.581C880.802 609.735 879.596 610.885 878.383 612.031L878.039 611.668C876.841 612.8 875.634 613.928 874.419 615.053L874.759 615.42C873.548 616.54 872.33 617.657 871.104 618.77L870.768 618.399C869.543 619.511 868.31 620.619 867.07 621.723L867.402 622.096C866.16 623.201 864.911 624.302 863.653 625.399L863.325 625.022C862.08 626.108 860.829 627.19 859.569 628.267L859.895 628.647C858.642 629.719 857.381 630.787 856.114 631.851L855.792 631.469C854.526 632.532 853.252 633.591 851.971 634.646L852.289 635.032C851.006 636.088 849.717 637.14 848.42 638.187L848.106 637.798C846.819 638.838 845.524 639.874 844.223 640.906L844.533 641.297C843.242 642.321 841.943 643.341 840.638 644.356L840.331 643.962C839.026 644.976 837.715 645.987 836.397 646.993L836.7 647.39C835.381 648.398 834.055 649.401 832.721 650.399L832.422 649.999C831.094 650.994 829.759 651.984 828.417 652.971L828.714 653.373C827.387 654.349 826.053 655.32 824.713 656.287L824.42 655.882C823.081 656.848 821.736 657.81 820.384 658.768L820.673 659.176C819.32 660.134 817.96 661.088 816.594 662.038L816.308 661.628C814.943 662.577 813.572 663.521 812.194 664.461L812.476 664.874C811.115 665.803 809.747 666.728 808.374 667.648L808.095 667.232C806.725 668.15 805.348 669.064 803.965 669.973L804.24 670.391C802.856 671.301 801.465 672.207 800.069 673.108L799.798 672.688C798.403 673.588 797.001 674.484 795.594 675.375L795.862 675.798C794.464 676.683 793.06 677.564 791.65 678.44L791.386 678.016C789.987 678.886 788.582 679.751 787.17 680.612L787.431 681.039C786.019 681.901 784.6 682.758 783.177 683.611L782.92 683.182C781.497 684.034 780.068 684.882 778.634 685.724L778.888 686.156C777.455 686.998 776.016 687.835 774.572 688.668L774.322 688.235C772.896 689.057 771.465 689.875 770.028 690.688L770.274 691.123C768.836 691.937 767.392 692.746 765.943 693.551L765.701 693.114C764.253 693.918 762.8 694.717 761.341 695.512L761.58 695.951C760.12 696.746 758.655 697.536 757.185 698.322L756.949 697.881C755.492 698.66 754.03 699.433 752.562 700.203L752.795 700.646C751.333 701.412 749.866 702.173 748.395 702.93L748.166 702.485C746.695 703.241 745.22 703.992 743.739 704.739L743.964 705.185C742.482 705.932 740.995 706.675 739.502 707.412L739.281 706.964C737.792 707.7 736.298 708.431 734.798 709.158L735.016 709.608C733.534 710.326 732.046 711.04 730.553 711.749L730.339 711.297C728.847 712.006 727.351 712.709 725.85 713.408L726.061 713.862C724.559 714.561 723.052 715.255 721.54 715.945L721.333 715.49C719.822 716.179 718.307 716.863 716.787 717.543L716.991 717.999C715.479 718.675 713.962 719.345 712.441 720.011L712.241 719.553C710.731 720.214 709.216 720.87 707.697 721.521L707.894 721.981C706.373 722.633 704.848 723.279 703.319 723.921L703.125 723.46C701.597 724.102 700.064 724.738 698.527 725.37L698.717 725.832C697.179 726.464 695.636 727.091 694.089 727.713L693.902 727.249C692.372 727.864 690.837 728.474 689.299 729.079L689.482 729.545C687.945 730.149 686.404 730.748 684.858 731.343L684.679 730.876C683.135 731.47 681.586 732.059 680.034 732.643L680.21 733.111C678.656 733.695 677.098 734.275 675.536 734.849L675.364 734.38C673.805 734.953 672.242 735.52 670.675 736.083L670.844 736.554C669.292 737.111 667.737 737.663 666.178 738.21L666.012 737.738C664.454 738.285 662.892 738.827 661.325 739.363L661.487 739.836C659.92 740.373 658.349 740.905 656.774 741.432L656.615 740.958C655.041 741.484 653.463 742.005 651.881 742.521L652.036 742.997C650.459 743.511 648.879 744.02 647.294 744.524L647.143 744.048C645.572 744.548 643.998 745.042 642.419 745.532L642.568 746.009C640.988 746.499 639.405 746.984 637.818 747.463L637.674 746.984C636.088 747.464 634.499 747.937 632.906 748.406L633.047 748.886C631.453 749.355 629.855 749.819 628.254 750.277L628.116 749.797C627.316 750.026 626.515 750.254 625.713 750.48C625.429 750.56 625.145 750.64 624.861 750.72C624.344 750.866 623.826 751.011 623.308 751.155L623.443 751.636C621.838 752.083 620.233 752.524 618.63 752.958L618.499 752.475C616.896 752.909 615.294 753.337 613.692 753.758L613.819 754.242C612.216 754.663 610.613 755.078 609.011 755.487L608.887 755.003C607.286 755.411 605.686 755.813 604.086 756.209L604.206 756.694C602.592 757.094 600.978 757.487 599.366 757.873L599.249 757.387C597.631 757.775 596.013 758.156 594.396 758.531L594.509 759.018C592.891 759.393 591.274 759.762 589.657 760.124L589.548 759.637C587.932 759.999 586.318 760.354 584.704 760.704L584.809 761.192C583.194 761.542 581.58 761.885 579.966 762.222L579.864 761.732C578.234 762.072 576.605 762.406 574.977 762.733L575.075 763.223C573.443 763.551 571.813 763.873 570.183 764.187L570.088 763.697C568.459 764.011 566.832 764.319 565.205 764.621L565.296 765.113C563.668 765.414 562.041 765.71 560.415 765.999L560.328 765.506C558.7 765.796 557.073 766.078 555.447 766.355L555.531 766.848C553.887 767.127 552.244 767.4 550.602 767.666L550.522 767.173C548.882 767.439 547.243 767.698 545.605 767.951L545.681 768.445C544.042 768.698 542.404 768.945 540.767 769.185L540.694 768.69C539.059 768.93 537.425 769.163 535.792 769.39L535.861 769.885C534.216 770.114 532.573 770.335 530.931 770.551L530.866 770.055C529.215 770.271 527.566 770.481 525.918 770.684L525.979 771.18C524.33 771.383 522.682 771.58 521.036 771.77L520.979 771.273C519.334 771.463 517.691 771.646 516.049 771.822L516.103 772.319C514.46 772.496 512.818 772.666 511.179 772.829L511.129 772.332C509.471 772.497 507.815 772.656 506.161 772.807L506.207 773.305C504.549 773.457 502.894 773.603 501.24 773.741L501.198 773.243C499.545 773.381 497.895 773.513 496.246 773.638L496.284 774.137C494.633 774.262 492.985 774.38 491.339 774.492L491.305 773.993C489.652 774.105 488.001 774.211 486.352 774.31L486.382 774.809C484.718 774.908 483.055 775.001 481.395 775.087L481.369 774.588C479.711 774.674 478.054 774.753 476.4 774.825L476.421 775.325C474.766 775.397 473.112 775.463 471.461 775.521L471.443 775.022C469.793 775.08 468.145 775.132 466.5 775.178L466.513 775.677C464.847 775.723 463.183 775.762 461.521 775.794L461.511 775.294C459.848 775.326 458.187 775.351 456.529 775.369L456.535 775.869C454.875 775.887 453.218 775.899 451.563 775.903L451.562 775.403C449.909 775.407 448.258 775.405 446.611 775.396L446.608 775.896C444.948 775.886 443.291 775.87 441.636 775.847L441.643 775.347C439.978 775.323 438.315 775.293 436.655 775.255L436.643 775.755C434.982 775.718 433.323 775.673 431.668 775.622L431.683 775.122C430.029 775.071 428.378 775.012 426.729 774.947L426.709 775.446C425.057 775.381 423.408 775.309 421.762 775.229L421.786 774.73C420.12 774.649 418.457 774.562 416.798 774.467L416.769 774.966C415.108 774.872 413.45 774.77 411.795 774.661L411.828 774.162C410.175 774.053 408.525 773.937 406.878 773.814L406.841 774.313C405.193 774.19 403.548 774.06 401.907 773.922L401.949 773.424C400.29 773.285 398.634 773.14 396.982 772.986L396.936 773.484C395.277 773.331 393.622 773.17 391.971 773.002L392.021 772.504C390.371 772.336 388.725 772.161 387.083 771.979L387.028 772.476C385.384 772.293 383.744 772.104 382.107 771.907L382.167 771.41C380.518 771.212 378.873 771.007 377.232 770.794L377.168 771.29C375.515 771.075 373.865 770.853 372.22 770.624L372.289 770.129C370.645 769.9 369.005 769.664 367.37 769.421L367.296 769.915C365.659 769.671 364.027 769.42 362.398 769.162L362.476 768.668C360.839 768.409 359.207 768.142 357.578 767.867L357.495 768.361C355.85 768.083 354.209 767.799 352.573 767.507L352.661 767.015C351.026 766.723 349.396 766.424 347.77 766.117L347.677 766.608C346.05 766.301 344.428 765.987 342.81 765.665L342.907 765.175C341.284 764.852 339.665 764.522 338.051 764.184L337.949 764.674C336.315 764.332 334.686 763.982 333.062 763.625L333.169 763.137C331.547 762.78 329.929 762.416 328.317 762.044L328.205 762.531C326.591 762.159 324.982 761.779 323.378 761.392L323.496 760.906C321.888 760.518 320.285 760.122 318.687 759.719L318.565 760.203C316.946 759.795 315.332 759.378 313.724 758.954L313.851 758.47C312.245 758.046 310.644 757.615 309.049 757.176L308.916 757.658C307.32 757.218 305.728 756.771 304.143 756.316L304.281 755.836C302.69 755.379 301.105 754.915 299.526 754.443L299.383 754.922C297.783 754.444 296.189 753.959 294.601 753.465L294.75 752.987C293.164 752.494 291.584 751.993 290.01 751.485L289.856 751.96C288.28 751.451 286.711 750.934 285.148 750.409L285.307 749.935C283.737 749.408 282.173 748.873 280.615 748.33L280.451 748.802C278.874 748.252 277.305 747.695 275.742 747.129L275.912 746.659C274.351 746.094 272.796 745.522 271.249 744.941L271.073 745.409C269.524 744.828 267.981 744.238 266.445 743.641L266.626 743.175C265.079 742.574 263.54 741.964 262.007 741.347L261.82 741.811C260.273 741.187 258.733 740.556 257.2 739.916L257.392 739.455C255.861 738.816 254.338 738.169 252.822 737.514L252.624 737.973C251.106 737.318 249.595 736.654 248.092 735.982L248.297 735.526C246.777 734.847 245.266 734.159 243.762 733.464L243.552 733.918C242.04 733.218 240.535 732.51 239.039 731.794L239.254 731.343C237.76 730.628 236.273 729.905 234.795 729.174L234.573 729.622C233.093 728.889 231.621 728.149 230.157 727.4L230.384 726.955C228.898 726.195 227.42 725.426 225.951 724.649L225.717 725.091C224.246 724.314 222.784 723.527 221.33 722.733L221.57 722.294C220.118 721.5 218.675 720.699 217.241 719.888L216.995 720.324C215.551 719.508 214.116 718.684 212.69 717.851L212.942 717.42C211.503 716.579 210.073 715.731 208.653 714.874L208.395 715.302C206.972 714.443 205.559 713.577 204.156 712.701L204.42 712.277C203.019 711.403 201.627 710.521 200.245 709.63L199.974 710.05C198.574 709.148 197.183 708.237 195.803 707.317L196.08 706.901C194.696 705.979 193.322 705.049 191.959 704.11L191.675 704.521C190.309 703.581 188.954 702.632 187.609 701.674L187.899 701.267C186.552 700.308 185.215 699.341 183.889 698.365L183.593 698.767C182.249 697.778 180.916 696.781 179.594 695.774L179.897 695.376C178.576 694.371 177.267 693.358 175.969 692.336L175.66 692.728C174.36 691.705 173.07 690.672 171.792 689.631L172.108 689.243C170.82 688.194 169.543 687.136 168.278 686.069L167.956 686.451C166.683 685.378 165.423 684.296 164.173 683.206L164.502 682.829C163.255 681.741 162.02 680.644 160.797 679.538L160.462 679.908C159.232 678.797 158.015 677.677 156.81 676.548L157.152 676.183C155.938 675.046 154.736 673.9 153.547 672.746L153.199 673.104C152.008 671.948 150.829 670.782 149.663 669.608L150.017 669.255C148.853 668.083 147.702 666.902 146.563 665.713L146.202 666.059C145.051 664.856 143.913 663.645 142.789 662.425L143.156 662.086C142.032 660.867 140.921 659.638 139.823 658.401L139.449 658.733C138.349 657.493 137.262 656.245 136.189 654.988L136.569 654.663C135.494 653.404 134.432 652.135 133.384 650.858L132.998 651.175C131.943 649.89 130.902 648.596 129.876 647.294L130.268 646.984C129.244 645.684 128.233 644.375 127.236 643.058L126.838 643.36C125.838 642.038 124.853 640.708 123.882 639.37L124.287 639.076C123.313 637.734 122.354 636.383 121.409 635.023L120.999 635.308C120.052 633.945 119.12 632.574 118.203 631.194L118.62 630.917C117.704 629.54 116.804 628.154 115.918 626.76L115.496 627.028C114.607 625.627 113.732 624.218 112.873 622.801L113.301 622.541C112.443 621.126 111.6 619.702 110.772 618.27L110.339 618.52C109.51 617.084 108.696 615.64 107.898 614.187L108.336 613.946C107.539 612.497 106.758 611.04 105.992 609.574L105.549 609.805C104.782 608.336 104.031 606.859 103.295 605.374L103.743 605.152C103.009 603.669 102.291 602.178 101.588 600.679L101.136 600.892C100.432 599.39 99.7444 597.881 99.0729 596.363L99.5301 596.161C98.8623 594.651 98.2103 593.134 97.5744 591.608L97.1129 591.8C96.4756 590.271 95.8544 588.734 95.2494 587.189L95.715 587.006C95.1113 585.464 94.5239 583.914 93.9528 582.356L93.4833 582.528C92.9148 580.977 92.3625 579.418 91.8264 577.851L92.2995 577.689C91.7653 576.128 91.2473 574.558 90.7457 572.981L90.2692 573.132C89.7665 571.551 89.2802 569.963 88.8105 568.366L89.2901 568.225C89.0558 567.429 88.8256 566.63 88.5995 565.83C88.3735 565.03 88.1521 564.229 87.9352 563.428L87.4526 563.559C87.0177 561.952 86.601 560.344 86.2024 558.734L86.6878 558.614C86.2901 557.007 85.9104 555.398 85.5487 553.788L85.0609 553.898C84.698 552.282 84.3531 550.664 84.0262 549.045L84.5163 548.946C84.1878 547.319 83.8776 545.691 83.5853 544.061L83.0932 544.149C82.8003 542.516 82.5255 540.881 82.2686 539.244L82.7626 539.166C82.5063 537.533 82.268 535.899 82.0475 534.263L81.552 534.33C81.3303 532.685 81.1265 531.039 80.9407 529.392L81.4376 529.336C81.252 527.69 81.0843 526.044 80.9344 524.397L80.4364 524.442C80.2862 522.791 80.1538 521.139 80.0391 519.486L80.5379 519.451C80.4234 517.802 80.3265 516.151 80.2473 514.499L79.7479 514.523C79.6684 512.867 79.6066 511.211 79.5624 509.553L80.0622 509.54C80.018 507.886 79.9913 506.232 79.982 504.576L79.482 504.579C79.4727 502.922 79.4807 501.263 79.5061 499.604L80.006 499.612C80.0313 497.96 80.0737 496.308 80.1333 494.656L79.6336 494.638C79.6933 492.982 79.77 491.325 79.8638 489.669L80.363 489.697C80.4566 488.044 80.5672 486.391 80.6947 484.737L80.1961 484.699C80.3232 483.05 80.4671 481.401 80.6276 479.753L81.1253 479.801C81.2853 478.157 81.462 476.513 81.6551 474.869L81.1585 474.81C81.352 473.163 81.5621 471.516 81.7885 469.869L82.2839 469.937C82.509 468.3 82.7503 466.664 83.0078 465.028L82.5138 464.95C82.7708 463.317 83.0438 461.685 83.3328 460.053L83.8251 460.14C84.1135 458.512 84.4179 456.883 84.7381 455.256L84.2475 455.159C84.5678 453.531 84.9039 451.904 85.2557 450.277L85.7444 450.383C86.0925 448.773 86.456 447.164 86.8348 445.556L86.3481 445.442C86.7276 443.831 87.1224 442.221 87.5325 440.612L88.0171 440.735C88.4264 439.129 88.851 437.524 89.2907 435.92L88.8084 435.788C89.245 434.195 89.6964 432.604 90.1626 431.014L90.6424 431.154C91.1063 429.572 91.5849 427.99 92.0781 426.41L91.6008 426.261C92.0948 424.679 92.6035 423.097 93.1266 421.517L93.6013 421.674C94.1214 420.103 94.656 418.533 95.2048 416.965L94.7328 416.8C95.2773 415.244 95.8359 413.69 96.4083 412.137L96.8775 412.31C97.449 410.76 98.0344 409.211 98.6337 407.664L98.1674 407.483C98.7677 405.934 99.3818 404.386 100.01 402.84L100.473 403.028C101.092 401.503 101.725 399.979 102.372 398.457L101.911 398.262C102.557 396.742 103.216 395.224 103.887 393.708L104.345 393.911C105.015 392.397 105.699 390.885 106.397 389.376L105.943 389.166C106.638 387.66 107.346 386.156 108.068 384.654L108.518 384.871C109.23 383.389 109.955 381.909 110.692 380.431L110.245 380.207C110.983 378.727 111.734 377.249 112.497 375.774L112.941 376.003C113.703 374.53 114.478 373.058 115.264 371.59L114.824 371.354C115.603 369.898 116.395 368.445 117.199 366.994L117.637 367.237C118.435 365.796 119.245 364.358 120.067 362.922L119.633 362.674C120.456 361.236 121.291 359.801 122.138 358.368L122.569 358.622C123.414 357.192 124.272 355.764 125.141 354.338L124.714 354.078C125.57 352.674 126.437 351.273 127.316 349.874L127.739 350.14C128.616 348.743 129.505 347.349 130.404 345.958L129.985 345.686C130.885 344.293 131.797 342.903 132.72 341.516L133.137 341.793C134.054 340.413 134.983 339.037 135.922 337.663L135.51 337.381C136.439 336.022 137.379 334.666 138.33 333.313L138.739 333.601C139.688 332.25 140.648 330.901 141.619 329.556L141.213 329.264C142.185 327.917 143.167 326.573 144.16 325.232L144.562 325.53C145.545 324.201 146.538 322.876 147.542 321.555L147.144 321.252C148.14 319.94 149.146 318.631 150.163 317.325L150.557 317.632C151.573 316.327 152.598 315.026 153.633 313.728L153.242 313.416C154.278 312.117 155.324 310.82 156.38 309.527L156.767 309.844C157.811 308.566 158.864 307.292 159.926 306.021L159.542 305.7C160.6 304.435 161.667 303.173 162.743 301.915L163.123 302.24C164.198 300.983 165.283 299.729 166.376 298.479L166 298.15C167.095 296.899 168.199 295.651 169.313 294.406L169.686 294.74C170.784 293.512 171.892 292.287 173.009 291.066L172.64 290.728C173.753 289.511 174.876 288.298 176.006 287.088L176.372 287.429C177.501 286.22 178.64 285.015 179.787 283.814L179.426 283.468C180.574 282.265 181.731 281.066 182.897 279.871L183.255 280.22C184.406 279.04 185.565 277.864 186.732 276.692L186.378 276.339C187.542 275.17 188.714 274.005 189.895 272.844L190.246 273.2C191.425 272.04 192.613 270.883 193.809 269.731L193.462 269.371C194.66 268.217 195.865 267.066 197.079 265.92L197.422 266.284C198.621 265.152 199.828 264.023 201.042 262.899L200.703 262.532C201.913 261.411 203.131 260.295 204.358 259.182L204.694 259.552C205.919 258.44 207.151 257.333 208.392 256.229L208.06 255.855C209.301 254.75 210.551 253.649 211.808 252.552L212.137 252.929C213.381 251.844 214.633 250.762 215.892 249.684L215.567 249.304C216.82 248.232 218.08 247.164 219.348 246.1L219.669 246.483C220.936 245.42 222.209 244.361 223.491 243.306L223.173 242.92C224.455 241.864 225.745 240.812 227.042 239.764L227.356 240.153C228.643 239.113 229.937 238.078 231.239 237.046L230.928 236.654C232.22 235.63 233.518 234.611 234.824 233.595L235.131 233.99C236.435 232.975 237.746 231.965 239.065 230.959L238.761 230.561C240.081 229.554 241.407 228.551 242.74 227.552L243.04 227.953C244.368 226.958 245.702 225.967 247.044 224.981L246.748 224.578C248.075 223.603 249.408 222.631 250.749 221.664L251.041 222.07C252.38 221.103 253.726 220.141 255.078 219.184L254.789 218.776C256.142 217.817 257.502 216.863 258.868 215.913L259.153 216.324C260.518 215.375 261.89 214.43 263.267 213.49L262.986 213.077C264.347 212.148 265.714 211.224 267.088 210.304L267.366 210.719C268.737 209.801 270.114 208.888 271.496 207.978L271.222 207.56C272.606 206.65 273.996 205.745 275.392 204.844L275.664 205.264C277.059 204.363 278.46 203.468 279.867 202.576L279.6 202.154C280.998 201.268 282.401 200.387 283.811 199.511L284.075 199.936C285.475 199.066 286.88 198.2 288.291 197.339L288.031 196.912C289.443 196.05 290.861 195.193 292.285 194.34L292.542 194.769C293.965 193.917 295.393 193.07 296.827 192.227L296.574 191.796C298.007 190.954 299.445 190.116 300.89 189.283L301.14 189.717C302.565 188.894 303.997 188.076 305.434 187.263L305.188 186.828C306.626 186.014 308.069 185.205 309.518 184.401L309.761 184.838C311.209 184.034 312.662 183.235 314.12 182.44L313.881 182.001C315.341 181.206 316.806 180.415 318.277 179.629L318.512 180.07C319.969 179.292 321.432 178.518 322.899 177.749L322.667 177.306C324.128 176.54 325.595 175.779 327.067 175.022L327.296 175.467C328.766 174.711 330.242 173.959 331.723 173.213L331.498 172.766C332.98 172.019 334.467 171.277 335.959 170.539L336.181 170.987C337.67 170.251 339.164 169.52 340.663 168.794L340.445 168.344C341.928 167.625 343.416 166.911 344.908 166.202L345.123 166.654C346.614 165.946 348.11 165.242 349.611 164.543L349.4 164.09C350.903 163.391 352.41 162.696 353.921 162.007L354.129 162.461C355.639 161.772 357.155 161.088 358.675 160.409L358.471 159.952C359.983 159.277 361.499 158.606 363.02 157.94L363.221 158.399C364.731 157.738 366.246 157.081 367.765 156.43L367.568 155.971C369.088 155.319 370.613 154.672 372.143 154.03L372.336 154.491C373.864 153.85 375.397 153.213 376.934 152.582L376.744 152.119C378.283 151.487 379.826 150.861 381.373 150.239L381.559 150.703C383.09 150.087 384.624 149.477 386.163 148.872L385.98 148.407C387.517 147.802 389.058 147.203 390.603 146.609L390.783 147.075C392.327 146.481 393.875 145.892 395.428 145.309L395.252 144.841C396.805 144.256 398.363 143.677 399.925 143.103L400.098 143.572C401.657 142.999 403.22 142.431 404.787 141.868L404.618 141.398C406.169 140.841 407.725 140.288 409.284 139.741L409.449 140.213C411.008 139.666 412.57 139.125 414.136 138.588L413.974 138.115C415.541 137.578 417.113 137.046 418.688 136.52L418.847 136.994C420.421 136.467 421.999 135.946 423.581 135.43L423.425 134.955C425.002 134.44 426.583 133.931 428.167 133.427L428.319 133.904C429.889 133.404 431.464 132.909 433.042 132.42L432.894 131.942C434.473 131.453 436.056 130.968 437.643 130.488L437.788 130.967C439.373 130.488 440.963 130.014 442.555 129.545L442.414 129.066C444.008 128.597 445.606 128.133 447.208 127.674L447.345 128.155C448.145 127.926 448.946 127.698 449.748 127.471C450.55 127.245 451.352 127.02 452.153 126.797L452.019 126.315C453.624 125.868 455.228 125.428 456.832 124.993L456.963 125.476C458.565 125.042 460.168 124.615 461.77 124.194L461.643 123.71C463.246 123.288 464.848 122.873 466.451 122.465L466.574 122.949C468.175 122.54 469.776 122.138 471.376 121.742L471.256 121.257C472.87 120.858 474.483 120.465 476.096 120.078L476.213 120.565C477.831 120.177 479.448 119.795 481.065 119.42L480.952 118.933C482.57 118.558 484.187 118.189 485.804 117.827L485.914 118.315C487.529 117.953 489.144 117.597 490.758 117.248L490.652 116.759C492.267 116.41 493.882 116.067 495.495 115.73L495.598 116.219C497.227 115.879 498.857 115.545 500.485 115.218L500.386 114.728C502.018 114.4 503.649 114.079 505.279 113.764L505.373 114.255C507.002 113.94 508.63 113.632 510.257 113.331L510.165 112.839C511.793 112.537 513.42 112.242 515.046 111.953L515.134 112.445C516.762 112.156 518.389 111.873 520.015 111.597L519.931 111.104C521.575 110.824 523.218 110.551 524.859 110.285L524.939 110.779C526.58 110.513 528.219 110.253 529.857 110L529.781 109.506C531.42 109.253 533.058 109.007 534.695 108.767L534.767 109.261C536.403 109.022 538.037 108.788 539.67 108.562L539.601 108.066C541.245 107.838 542.889 107.616 544.531 107.401L544.596 107.897C546.246 107.68 547.896 107.471 549.544 107.268L549.482 106.771C551.132 106.568 552.779 106.372 554.425 106.182L554.483 106.679C556.128 106.489 557.771 106.306 559.412 106.129L559.359 105.632C561.002 105.455 562.643 105.285 564.283 105.122L564.332 105.62C565.99 105.454 567.646 105.296 569.3 105.144L569.254 104.646C570.912 104.494 572.568 104.349 574.222 104.21L574.263 104.709C575.916 104.57 577.567 104.438 579.216 104.313L579.178 103.815C580.828 103.69 582.476 103.571 584.123 103.459L584.157 103.958C585.809 103.846 587.46 103.741 589.109 103.642L589.08 103.143C590.744 103.043 592.406 102.95 594.066 102.864L594.092 103.364C595.751 103.278 597.408 103.199 599.062 103.126L599.04 102.627C600.696 102.554 602.35 102.489 604.001 102.43L604.019 102.93C605.669 102.871 607.316 102.819 608.962 102.774L608.948 102.274C610.615 102.228 612.279 102.19 613.941 102.158L613.95 102.657C615.613 102.626 617.274 102.6 618.932 102.582L618.927 102.082C620.587 102.064 622.244 102.053 623.898 102.048L623.899 102.548C625.553 102.544 627.203 102.547 628.851 102.556L628.854 102.056C630.514 102.065 632.171 102.082 633.825 102.105L633.818 102.605C635.484 102.628 637.147 102.659 638.807 102.696L638.818 102.196C640.48 102.234 642.138 102.278 643.794 102.33L643.778 102.829C645.433 102.881 647.084 102.939 648.732 103.005L648.752 102.505C650.404 102.571 652.053 102.643 653.699 102.722L653.675 103.222C655.341 103.302 657.004 103.39 658.664 103.484L658.692 102.985C660.354 103.08 662.011 103.182 663.666 103.291L663.633 103.79C665.287 103.898 666.937 104.014 668.583 104.137L668.62 103.639C670.268 103.762 671.913 103.892 673.554 104.029L673.513 104.527C675.172 104.666 676.828 104.812 678.48 104.965L678.526 104.467C680.185 104.621 681.84 104.782 683.491 104.95L683.44 105.447C685.09 105.615 686.736 105.79 688.379 105.973L688.434 105.476C690.078 105.658 691.718 105.848 693.354 106.045L693.294 106.541C694.943 106.739 696.588 106.945 698.229 107.158L698.293 106.662C699.947 106.876 701.596 107.098 703.242 107.327L703.173 107.822C704.816 108.051 706.456 108.288 708.092 108.531L708.165 108.036C709.802 108.28 711.435 108.531 713.064 108.789L712.985 109.283C714.622 109.543 716.255 109.81 717.883 110.084L717.966 109.591C719.612 109.868 721.252 110.153 722.889 110.445L722.801 110.937C724.436 111.229 726.066 111.528 727.691 111.835L727.784 111.343C729.411 111.65 731.034 111.964 732.651 112.286L732.554 112.777C734.177 113.099 735.796 113.43 737.41 113.767L737.513 113.278C739.147 113.62 740.776 113.969 742.4 114.326L742.292 114.815C743.915 115.171 745.532 115.536 747.144 115.907L747.257 115.42C748.871 115.792 750.479 116.172 752.083 116.559L751.966 117.045C753.574 117.434 755.177 117.83 756.774 118.233L756.897 117.748C758.516 118.157 760.13 118.573 761.738 118.998L761.61 119.481C763.216 119.905 764.817 120.336 766.412 120.776L766.545 120.294C768.142 120.733 769.733 121.18 771.319 121.635L771.181 122.116C772.771 122.572 774.356 123.036 775.935 123.508L776.078 123.029C777.678 123.507 779.272 123.993 780.86 124.487L780.712 124.964C782.298 125.457 783.878 125.958 785.452 126.467L785.605 125.991C787.181 126.5 788.75 127.017 790.313 127.542L790.154 128.016C791.725 128.544 793.289 129.079 794.846 129.622L795.011 129.15C796.587 129.699 798.157 130.257 799.72 130.822L799.55 131.292C801.111 131.857 802.665 132.43 804.213 133.011L804.389 132.542C805.938 133.124 807.481 133.713 809.016 134.31L808.835 134.776C810.382 135.378 811.922 135.987 813.455 136.605L813.641 136.141C815.189 136.764 816.729 137.396 818.262 138.035L818.069 138.497C819.6 139.135 821.123 139.782 822.639 140.437L822.838 139.978C824.356 140.634 825.866 141.298 827.369 141.969L827.165 142.426C828.684 143.105 830.196 143.792 831.699 144.488L831.909 144.034C833.422 144.733 834.926 145.441 836.423 146.157L836.207 146.608C837.702 147.323 839.188 148.046 840.667 148.778L840.888 148.33C842.369 149.062 843.841 149.803 845.305 150.551L845.077 150.997C846.564 151.757 848.041 152.525 849.51 153.302L849.744 152.86C851.215 153.638 852.678 154.424 854.132 155.219L853.892 155.658C855.343 156.451 856.786 157.253 858.22 158.063L858.466 157.628C859.91 158.443 861.345 159.268 862.771 160.1L862.519 160.532C863.958 161.372 865.388 162.221 866.808 163.078L867.067 162.65C868.489 163.508 869.902 164.375 871.306 165.25L871.041 165.674C872.443 166.548 873.834 167.431 875.217 168.321L875.487 167.901C876.888 168.804 878.278 169.715 879.659 170.634L879.382 171.05C880.765 171.972 882.139 172.903 883.503 173.842L883.786 173.43C885.152 174.371 886.508 175.32 887.853 176.277L887.563 176.684C888.91 177.643 890.246 178.611 891.572 179.587L891.869 179.184C893.213 180.173 894.546 181.171 895.868 182.177L895.565 182.575C896.885 183.58 898.194 184.594 899.492 185.616L899.802 185.223C901.102 186.247 902.391 187.28 903.669 188.321L903.353 188.708C904.641 189.758 905.918 190.816 907.183 191.883L907.506 191.5C908.778 192.573 910.039 193.655 911.288 194.745L910.959 195.122C912.206 196.211 913.441 197.308 914.664 198.414L915 198.043C916.229 199.154 917.446 200.275 918.652 201.403L918.31 201.768C919.524 202.905 920.725 204.051 921.914 205.206L922.263 204.847C923.454 206.004 924.633 207.169 925.799 208.344L925.444 208.696C926.608 209.868 927.76 211.049 928.898 212.239L929.259 211.893C930.41 213.095 931.548 214.306 932.673 215.526L932.305 215.865C933.43 217.085 934.541 218.313 935.639 219.551L936.013 219.219C937.113 220.458 938.199 221.707 939.272 222.964L938.892 223.288C939.968 224.548 941.029 225.816 942.077 227.093L942.464 226.776C943.518 228.061 944.559 229.355 945.586 230.658L945.193 230.967C946.218 232.267 947.229 233.576 948.225 234.894L948.624 234.592C949.623 235.913 950.608 237.243 951.579 238.582L951.175 238.875C952.148 240.218 953.107 241.569 954.052 242.929L954.463 242.644C955.409 244.006 956.341 245.378 957.258 246.758L956.842 247.034C957.757 248.412 958.658 249.797 959.543 251.192L959.965 250.924C960.855 252.324 961.729 253.733 962.589 255.151L962.161 255.41C963.019 256.825 963.862 258.249 964.689 259.682L965.122 259.432C965.951 260.867 966.765 262.312 967.564 263.764L967.126 264.005C967.922 265.454 968.703 266.912 969.469 268.378L969.912 268.146C970.679 269.615 971.431 271.092 972.166 272.578L971.718 272.8C972.452 274.282 973.171 275.773 973.873 277.272L974.326 277.06C975.029 278.561 975.717 280.071 976.389 281.588L975.931 281.791C976.599 283.3 977.251 284.818 977.887 286.344L978.349 286.151C978.986 287.68 979.607 289.218 980.212 290.763L979.746 290.945C980.35 292.487 980.938 294.037 981.509 295.596L981.978 295.423C982.547 296.974 983.099 298.533 983.635 300.1L983.162 300.262C983.696 301.824 984.214 303.393 984.716 304.971L985.192 304.819Z" stroke="#E41E0A" stroke-dasharray="5 5"/>
</svg>
