<svg width="586" height="636" viewBox="0 0 586 636" fill="none" xmlns="http://www.w3.org/2000/svg">
<g clip-path="url(#clip0)">
<path d="M305.235 282.867C332.386 285.252 427.848 296.006 457.887 331.12" stroke="#ED3038" stroke-miterlimit="10" stroke-linecap="round" stroke-linejoin="round" stroke-dasharray="4.09 4.09"/>
<path d="M464.087 341.63C474.935 371.035 424.325 397.772 305.603 290.767" stroke="#ED3038" stroke-miterlimit="10" stroke-linecap="round" stroke-linejoin="round" stroke-dasharray="4 4"/>
<path d="M296.15 282.378C226.496 220.779 173.59 212.816 123.37 230.713" stroke="#ED3038" stroke-miterlimit="10" stroke-linecap="round" stroke-linejoin="round" stroke-dasharray="4.07 4.07"/>
<path d="M59.3618 303.527C39.5416 361.043 60.4039 463.377 225.04 534.999" stroke="#ED3038" stroke-miterlimit="10" stroke-linecap="round" stroke-linejoin="round" stroke-dasharray="4.01 4.01"/>
<path d="M236.667 539.866C378.661 596.814 497.546 536.399 532.769 461.767" stroke="#ED3038" stroke-miterlimit="10" stroke-linecap="round" stroke-linejoin="round" stroke-dasharray="3.95 3.95"/>
<path d="M537.571 450.206C564.401 376.245 523.057 280.842 303.738 282.231" stroke="#ED3038" stroke-miterlimit="10" stroke-linecap="round" stroke-linejoin="round" stroke-dasharray="4.05 4.05"/>
<path d="M459.452 333.236C459.943 333.896 460.417 334.55 460.869 335.213C461.33 335.899 461.753 336.587 462.143 337.262M301.059 282.336C300.268 282.338 299.454 282.35 298.656 282.369C296.764 282.394 297.529 282.719 297.529 282.719C297.529 282.719 298.377 282.759 299.96 282.886L301.059 282.336ZM533.837 459.433C534.165 458.706 534.484 457.956 534.796 457.222C535.108 456.487 535.42 455.753 535.716 455.013L533.837 459.433ZM227.478 536.035C228.211 536.347 228.944 536.659 229.677 536.97C230.426 537.288 231.175 537.607 231.914 537.902L227.478 536.035ZM62.9711 294.417C62.6364 295.16 62.3244 295.894 62.0056 296.644C61.7004 297.362 61.4043 298.103 61.1082 298.844L62.9711 294.417ZM120.894 231.978C120.135 232.258 119.392 232.545 118.642 232.848C117.893 233.151 117.143 233.454 116.396 233.796L120.894 231.978ZM303.521 289.204C302.921 288.666 302.329 288.113 301.736 287.559C301.143 287.006 300.544 286.469 299.945 285.931L303.521 289.204Z" stroke="#ED3038" stroke-miterlimit="10" stroke-linecap="round" stroke-linejoin="round"/>
</g>
<defs>
<clipPath id="clip0">
<rect width="499.661" height="478.429" fill="white" transform="translate(187.161) rotate(23.0291)"/>
</clipPath>
</defs>
</svg>
