<svg width="1270" height="641" viewBox="0 0 1270 641" fill="none" xmlns="http://www.w3.org/2000/svg">
<path d="M1481.18 147.588C1482.35 148.828 1483.51 150.075 1484.64 151.33L1484.16 151.448C1484.73 152.073 1485.29 152.701 1485.84 153.33C1486.4 153.959 1486.95 154.589 1487.49 155.219L1487.98 155.112C1489.07 156.377 1490.14 157.646 1491.18 158.917L1490.68 159.014C1491.72 160.282 1492.73 161.553 1493.72 162.827L1494.23 162.741C1495.22 164.018 1496.19 165.299 1497.14 166.583L1496.62 166.659C1497.56 167.941 1498.48 169.227 1499.38 170.515L1499.9 170.45C1500.8 171.743 1501.68 173.038 1502.53 174.337L1501.99 174.392C1502.84 175.687 1503.67 176.984 1504.47 178.285L1505.01 178.24C1505.81 179.544 1506.59 180.85 1507.34 182.159L1506.8 182.193C1507.54 183.49 1508.27 184.791 1508.97 186.094L1509.52 186.07C1510.22 187.377 1510.9 188.686 1511.56 189.997L1511 190.01C1511.66 191.318 1512.29 192.628 1512.9 193.941L1513.46 193.938C1514.07 195.248 1514.65 196.561 1515.21 197.876L1514.65 197.869C1515.2 199.169 1515.73 200.47 1516.24 201.774L1516.81 201.79C1517.32 203.097 1517.81 204.406 1518.27 205.717L1517.7 205.69C1518.17 206.998 1518.61 208.308 1519.03 209.619L1519.61 209.655C1520.02 210.957 1520.42 212.26 1520.79 213.565L1520.21 213.52C1520.58 214.81 1520.93 216.101 1521.26 217.393L1521.84 217.447C1522.16 218.743 1522.47 220.04 1522.75 221.339L1522.17 221.276C1522.46 222.572 1522.72 223.87 1522.96 225.169L1523.54 225.24C1523.78 226.522 1524 227.805 1524.2 229.089L1523.61 229.01C1523.81 230.279 1523.99 231.551 1524.14 232.823L1524.73 232.91C1524.88 234.185 1525.02 235.462 1525.14 236.739L1524.55 236.644C1524.67 237.919 1524.76 239.195 1524.84 240.472L1525.43 240.575C1525.5 241.831 1525.56 243.088 1525.6 244.346L1525.01 244.236C1525.05 245.479 1525.07 246.723 1525.07 247.968L1525.66 248.085C1525.66 249.333 1525.64 250.581 1525.6 251.83L1525.01 251.706C1524.98 252.952 1524.92 254.2 1524.85 255.449L1525.44 255.58C1525.37 256.809 1525.28 258.038 1525.17 259.269L1524.58 259.131C1524.48 260.342 1524.36 261.554 1524.22 262.766L1524.8 262.91C1524.66 264.125 1524.51 265.34 1524.33 266.556L1523.75 266.406C1523.57 267.619 1523.38 268.834 1523.18 270.049L1523.76 270.204C1523.56 271.408 1523.34 272.611 1523.1 273.816L1522.51 273.654C1522.28 274.83 1522.03 276.007 1521.77 277.183L1522.35 277.35C1522.09 278.529 1521.81 279.708 1521.51 280.887L1520.93 280.715C1520.63 281.892 1520.32 283.07 1520 284.248L1520.58 284.425C1520.25 285.605 1519.91 286.785 1519.55 287.965L1518.97 287.783C1518.62 288.923 1518.26 290.063 1517.89 291.204L1518.47 291.39C1518.09 292.531 1517.7 293.672 1517.3 294.813L1516.72 294.622C1516.32 295.761 1515.9 296.901 1515.47 298.041L1516.05 298.237C1515.61 299.378 1515.17 300.519 1514.71 301.66L1514.13 301.46C1513.68 302.582 1513.21 303.704 1512.73 304.826L1513.3 305.03C1512.83 306.133 1512.34 307.235 1511.85 308.338L1511.28 308.129C1510.78 309.23 1510.27 310.331 1509.74 311.432L1510.31 311.644C1509.78 312.746 1509.25 313.848 1508.69 314.95L1508.13 314.733C1507.58 315.834 1507.01 316.934 1506.44 318.034L1507 318.254C1506.44 319.326 1505.86 320.398 1505.28 321.47L1504.71 321.246C1504.13 322.309 1503.54 323.371 1502.93 324.433L1503.49 324.66C1502.88 325.723 1502.26 326.786 1501.63 327.849L1501.07 327.618C1500.44 328.68 1499.8 329.741 1499.15 330.801L1499.7 331.035C1499.05 332.097 1498.38 333.158 1497.7 334.219L1497.15 333.982C1496.49 335.009 1495.82 336.035 1495.14 337.061L1495.69 337.301C1495.01 338.326 1494.32 339.351 1493.62 340.375L1493.07 340.132C1492.37 341.155 1491.66 342.178 1490.93 343.2L1491.48 343.446C1490.76 344.469 1490.02 345.491 1489.28 346.513L1488.73 346.265C1487.99 347.286 1487.23 348.307 1486.46 349.327L1487.01 349.578C1486.26 350.568 1485.51 351.557 1484.74 352.546L1484.2 352.292C1483.43 353.278 1482.66 354.264 1481.88 355.249L1482.42 355.505C1481.63 356.491 1480.84 357.476 1480.03 358.461L1479.5 358.201C1478.69 359.185 1477.88 360.168 1477.05 361.15L1477.59 361.412C1476.76 362.395 1475.93 363.378 1475.08 364.36L1474.55 364.095C1473.72 365.053 1472.89 366.009 1472.05 366.965L1472.58 367.232C1471.74 368.182 1470.89 369.131 1470.03 370.079L1469.51 369.81C1468.65 370.758 1467.78 371.705 1466.91 372.651L1467.43 372.922C1466.56 373.869 1465.67 374.815 1464.78 375.76L1464.25 375.487C1463.36 376.432 1462.46 377.376 1461.54 378.319L1462.07 378.594C1461.16 379.525 1460.25 380.455 1459.33 381.385L1458.81 381.108C1457.91 382.021 1457 382.933 1456.08 383.845L1456.6 384.124C1455.68 385.036 1454.74 385.948 1453.81 386.858L1453.29 386.577C1452.35 387.487 1451.4 388.396 1450.45 389.304L1450.96 389.587C1450.01 390.495 1449.04 391.403 1448.07 392.31L1447.56 392.025C1447.1 392.451 1446.64 392.876 1446.18 393.301C1445.66 393.781 1445.14 394.262 1444.61 394.741L1445.12 395.028C1444.16 395.909 1443.19 396.788 1442.21 397.667L1441.7 397.379C1440.72 398.255 1439.73 399.131 1438.74 400.006L1439.25 400.296C1438.25 401.171 1437.25 402.046 1436.24 402.919L1435.73 402.627C1434.72 403.5 1433.71 404.372 1432.68 405.243L1433.18 405.537C1432.16 406.408 1431.12 407.279 1430.08 408.148L1429.58 407.853C1428.54 408.715 1427.5 409.576 1426.45 410.437L1426.95 410.734C1425.92 411.577 1424.89 412.42 1423.84 413.261L1423.34 412.963C1422.3 413.804 1421.25 414.644 1420.19 415.483L1420.69 415.783C1419.63 416.623 1418.56 417.461 1417.48 418.299L1416.99 417.997C1415.92 418.834 1414.84 419.67 1413.75 420.505L1414.24 420.808C1413.15 421.643 1412.05 422.477 1410.95 423.311L1410.46 423.006C1409.37 423.829 1408.27 424.651 1407.17 425.471L1407.66 425.777C1406.57 426.586 1405.47 427.394 1404.37 428.201L1403.88 427.894C1402.78 428.701 1401.67 429.506 1400.55 430.31L1401.04 430.619C1399.92 431.424 1398.8 432.227 1397.67 433.03L1397.18 432.72C1396.05 433.522 1394.92 434.323 1393.77 435.123L1394.25 435.434C1393.11 436.234 1391.96 437.034 1390.8 437.832L1390.32 437.519C1389.18 438.307 1388.03 439.094 1386.87 439.88L1387.35 440.193C1386.2 440.969 1385.05 441.744 1383.9 442.517L1383.42 442.202C1382.27 442.975 1381.11 443.747 1379.94 444.518L1380.41 444.834C1379.24 445.605 1378.07 446.375 1376.89 447.144L1376.42 446.826C1375.23 447.595 1374.05 448.362 1372.85 449.128L1373.32 449.446C1372.13 450.213 1370.93 450.978 1369.72 451.742L1369.25 451.422C1368.06 452.179 1366.85 452.935 1365.64 453.69L1366.11 454.011C1364.92 454.754 1363.72 455.496 1362.52 456.237L1362.06 455.916C1360.85 456.656 1359.64 457.395 1358.43 458.134L1358.89 458.456C1357.68 459.195 1356.46 459.932 1355.23 460.668L1354.77 460.344C1353.54 461.08 1352.31 461.814 1351.07 462.547L1351.53 462.872C1350.29 463.606 1349.05 464.338 1347.8 465.069L1347.34 464.743C1346.09 465.472 1344.83 466.201 1343.57 466.928L1344.03 467.255C1342.8 467.967 1341.56 468.677 1340.31 469.387L1339.86 469.058C1338.61 469.768 1337.36 470.475 1336.1 471.182L1336.56 471.511C1335.3 472.218 1334.04 472.923 1332.77 473.628L1332.32 473.298C1331.05 474.001 1329.77 474.704 1328.5 475.405L1328.94 475.736C1327.66 476.438 1326.38 477.138 1325.09 477.837L1324.64 477.505C1323.35 478.204 1322.05 478.901 1320.75 479.597L1321.2 479.93C1319.91 480.617 1318.62 481.303 1317.33 481.987L1316.89 481.653C1315.6 482.332 1314.31 483.009 1313.02 483.685L1313.46 484.019C1312.16 484.695 1310.86 485.37 1309.56 486.044L1309.11 485.708C1307.81 486.381 1306.5 487.053 1305.18 487.724L1305.62 488.06C1304.3 488.731 1302.98 489.4 1301.65 490.068L1301.22 489.731C1299.89 490.399 1298.56 491.065 1297.22 491.73L1297.66 492.068C1296.32 492.733 1294.98 493.396 1293.63 494.057L1293.2 493.718C1292.66 493.984 1292.11 494.25 1291.57 494.516C1290.79 494.898 1290.01 495.28 1289.22 495.661L1289.66 496C1288.32 496.647 1286.99 497.292 1285.65 497.935L1285.22 497.595C1284.49 497.942 1283.77 498.289 1283.04 498.636C1282.42 498.931 1281.8 499.226 1281.18 499.521L1281.61 499.862C1280.26 500.503 1278.9 501.142 1277.54 501.78L1277.11 501.438C1276.7 501.634 1276.28 501.83 1275.86 502.025C1274.92 502.466 1273.97 502.907 1273.02 503.347L1273.44 503.69C1272.07 504.325 1270.7 504.959 1269.32 505.591L1268.89 505.247C1267.52 505.875 1266.15 506.501 1264.77 507.126L1265.19 507.47C1263.83 508.088 1262.46 508.704 1261.09 509.318L1260.66 508.973C1259.29 509.588 1257.92 510.2 1256.53 510.812L1256.95 511.158C1255.57 511.769 1254.18 512.38 1252.79 512.989L1252.37 512.642C1250.98 513.251 1249.59 513.858 1248.19 514.463L1248.6 514.811C1247.2 515.417 1245.79 516.021 1244.38 516.624L1243.97 516.276C1242.56 516.879 1241.15 517.48 1239.73 518.08L1240.14 518.428C1238.73 519.023 1237.32 519.615 1235.91 520.207L1235.5 519.857C1234.83 520.137 1234.16 520.417 1233.48 520.697C1232.75 521.002 1232.01 521.307 1231.28 521.611L1231.69 521.961C1230.27 522.545 1228.86 523.126 1227.44 523.707L1227.03 523.356C1225.61 523.936 1224.18 524.515 1222.76 525.092L1223.16 525.444C1221.73 526.021 1220.3 526.597 1218.86 527.171L1218.46 526.819C1217.02 527.394 1215.58 527.966 1214.13 528.537L1214.53 528.89C1213.09 529.461 1211.63 530.031 1210.18 530.6L1209.78 530.246C1208.34 530.809 1206.89 531.37 1205.44 531.929L1205.84 532.283C1204.4 532.839 1202.96 533.393 1201.51 533.946L1201.11 533.591C1199.67 534.144 1198.22 534.695 1196.76 535.244L1197.16 535.599C1195.7 536.149 1194.24 536.697 1192.78 537.244L1192.38 536.888C1190.92 537.434 1189.45 537.979 1187.98 538.523L1188.37 538.879C1186.9 539.422 1185.42 539.964 1183.94 540.505L1183.55 540.148C1182.07 540.688 1180.58 541.227 1179.1 541.764L1179.49 542.121C1178.01 542.654 1176.53 543.185 1175.04 543.715L1174.65 543.357C1173.18 543.882 1171.71 544.406 1170.22 544.929L1170.61 545.287C1169.13 545.81 1167.65 546.331 1166.16 546.85L1165.77 546.491C1164.28 547.01 1162.79 547.528 1161.29 548.044L1161.68 548.403C1160.18 548.92 1158.68 549.434 1157.18 549.947L1156.79 549.587C1155.29 550.1 1153.78 550.611 1152.27 551.121L1152.65 551.482C1151.14 551.991 1149.62 552.5 1148.1 553.006L1147.72 552.645C1146.21 553.149 1144.69 553.652 1143.18 554.152L1143.55 554.514C1142.05 555.01 1140.54 555.504 1139.03 555.997L1138.65 555.635C1138.04 555.835 1137.42 556.035 1136.8 556.235C1135.91 556.527 1135.01 556.817 1134.1 557.108L1134.48 557.47C1132.96 557.96 1131.44 558.448 1129.91 558.934L1129.54 558.571C1128.01 559.057 1126.48 559.541 1124.95 560.024L1125.32 560.388C1123.78 560.871 1122.24 561.353 1120.7 561.832L1120.33 561.468C1118.79 561.948 1117.25 562.425 1115.7 562.902L1116.07 563.267C1114.52 563.743 1112.96 564.218 1111.41 564.691L1111.04 564.326C1109.51 564.792 1107.97 565.257 1106.43 565.72L1106.79 566.086C1105.25 566.549 1103.71 567.01 1102.16 567.47L1101.8 567.104C1100.25 567.564 1098.7 568.022 1097.14 568.479L1097.5 568.846C1095.95 569.302 1094.39 569.757 1092.83 570.211L1092.47 569.843C1090.9 570.297 1089.34 570.748 1087.77 571.198L1088.13 571.566C1086.56 572.016 1084.99 572.464 1083.41 572.911L1083.05 572.543C1081.48 572.99 1079.9 573.434 1078.31 573.878L1078.67 574.246C1077.1 574.686 1075.52 575.124 1073.95 575.56L1073.59 575.191C1072.02 575.625 1070.45 576.058 1068.88 576.488L1069.23 576.858C1067.65 577.289 1066.07 577.718 1064.49 578.145L1064.14 577.775C1062.56 578.203 1060.97 578.628 1059.38 579.052L1059.73 579.422C1058.14 579.846 1056.55 580.269 1054.96 580.69L1054.61 580.319C1053.01 580.739 1051.42 581.158 1049.81 581.575L1050.16 581.946C1048.56 582.364 1046.95 582.779 1045.34 583.193L1045 582.821C1043.39 583.235 1041.78 583.646 1040.17 584.056L1040.51 584.428C1038.92 584.833 1037.32 585.236 1035.72 585.638L1035.38 585.266C1033.77 585.668 1032.17 586.068 1030.56 586.466L1030.9 586.839C1029.29 587.237 1027.68 587.634 1026.07 588.029L1025.73 587.656C1025.34 587.75 1024.96 587.844 1024.57 587.939C1023.34 588.238 1022.11 588.537 1020.88 588.835L1021.22 589.208C1019.6 589.6 1017.97 589.99 1016.35 590.378L1016.01 590.004C1014.38 590.392 1012.75 590.778 1011.12 591.162L1011.46 591.537C1009.82 591.921 1008.19 592.304 1006.55 592.685L1006.21 592.31C1005.83 592.399 1005.45 592.488 1005.07 592.576C1004.63 592.678 1004.19 592.779 1003.75 592.88C1002.93 593.07 1002.11 593.259 1001.29 593.447L1001.62 593.822C999.979 594.199 998.336 594.573 996.692 594.946L996.363 594.57C995.284 594.814 994.204 595.058 993.125 595.3C992.56 595.427 991.996 595.553 991.431 595.679L991.758 596.055C990.113 596.422 988.467 596.787 986.821 597.15L986.496 596.774C985.769 596.934 985.042 597.094 984.315 597.253C983.396 597.455 982.477 597.655 981.558 597.855L981.882 598.231C980.235 598.589 978.588 598.945 976.94 599.298L976.618 598.922C974.97 599.275 973.323 599.626 971.675 599.974L971.995 600.351C970.347 600.7 968.698 601.046 967.048 601.39L966.73 601.013C965.062 601.361 963.394 601.706 961.726 602.049L962.043 602.427C960.372 602.77 958.7 603.112 957.029 603.45L956.713 603.072C955.042 603.411 953.37 603.747 951.699 604.081L952.013 604.459C950.34 604.793 948.668 605.125 946.995 605.454L946.682 605.075C945.01 605.404 943.337 605.731 941.664 606.055L941.975 606.434C940.301 606.759 938.628 607.081 936.954 607.4L936.645 607.021C934.971 607.34 933.298 607.657 931.624 607.972L931.931 608.352C930.248 608.668 928.564 608.982 926.88 609.294L926.575 608.914C924.878 609.228 923.181 609.54 921.483 609.849L921.787 610.229C920.09 610.539 918.391 610.846 916.693 611.15L916.391 610.769C914.693 611.074 912.996 611.376 911.298 611.675L911.598 612.056C909.9 612.356 908.202 612.653 906.503 612.948L906.204 612.566C904.506 612.861 902.808 613.153 901.11 613.443L901.407 613.824C899.708 614.114 898.009 614.402 896.31 614.687L896.015 614.305C894.316 614.59 892.618 614.872 890.919 615.152L891.213 615.534C889.49 615.818 887.767 616.1 886.044 616.379L885.752 615.996C884.029 616.276 882.306 616.552 880.583 616.826L880.873 617.209C879.15 617.483 877.427 617.755 875.703 618.024L875.415 617.641C873.692 617.91 871.97 618.177 870.247 618.441L870.534 618.824C868.81 619.088 867.087 619.35 865.364 619.609L865.08 619.226C863.357 619.485 861.635 619.741 859.913 619.996L860.196 620.379C858.473 620.634 856.75 620.885 855.028 621.135L854.747 620.751C853.007 621.003 851.267 621.252 849.527 621.499L849.807 621.883C848.058 622.131 846.31 622.376 844.562 622.619L844.285 622.235C842.537 622.478 840.79 622.718 839.043 622.956L839.319 623.341C837.571 623.578 835.824 623.814 834.077 624.047L833.803 623.661C832.057 623.894 830.311 624.124 828.565 624.352L828.837 624.737C827.09 624.965 825.344 625.19 823.598 625.413L823.328 625.027C821.583 625.25 819.838 625.47 818.093 625.687L818.362 626.073C816.603 626.292 814.844 626.509 813.085 626.723L812.819 626.337C811.047 626.553 809.275 626.766 807.504 626.977L807.768 627.363C805.996 627.574 804.225 627.782 802.454 627.987L802.191 627.601C800.421 627.806 798.651 628.009 796.881 628.209L797.142 628.596C795.372 628.796 793.602 628.994 791.833 629.189L791.574 628.802C789.806 628.997 788.038 629.189 786.27 629.379L786.527 629.766C784.759 629.956 782.992 630.143 781.225 630.328L780.97 629.94C779.191 630.126 777.412 630.31 775.634 630.49L775.887 630.878C774.091 631.06 772.295 631.24 770.5 631.417L770.249 631.03C768.455 631.207 766.661 631.381 764.868 631.553L765.117 631.941C763.323 632.113 761.53 632.282 759.738 632.448L759.491 632.06C758.588 632.144 757.684 632.227 756.781 632.31C755.893 632.391 755.006 632.472 754.118 632.551L754.363 632.94C752.572 633.101 750.782 633.259 748.993 633.415L748.75 633.027C746.961 633.182 745.173 633.335 743.386 633.486L743.627 633.875C741.824 634.026 740.022 634.175 738.22 634.322L737.982 633.933C736.163 634.081 734.346 634.226 732.529 634.368L732.766 634.757C730.949 634.899 729.133 635.039 727.317 635.175L727.083 634.786C725.268 634.923 723.454 635.057 721.642 635.188L721.874 635.577C720.06 635.709 718.248 635.837 716.436 635.963L716.206 635.574C714.395 635.699 712.585 635.822 710.777 635.943L711.005 636.332C709.195 636.452 707.387 636.57 705.579 636.685L705.353 636.295C703.524 636.411 701.696 636.525 699.869 636.635L700.093 637.025C698.253 637.137 696.413 637.245 694.575 637.351L694.354 636.961C692.516 637.067 690.68 637.17 688.845 637.27L689.064 637.66C687.229 637.76 685.394 637.857 683.561 637.952L683.344 637.561C681.511 637.656 679.679 637.747 677.849 637.836L678.064 638.226C676.233 638.315 674.403 638.401 672.575 638.484L672.363 638.094C670.535 638.177 668.709 638.257 666.883 638.335L667.094 638.725C665.233 638.804 663.374 638.88 661.516 638.953L661.308 638.563C659.448 638.636 657.59 638.706 655.733 638.774L655.938 639.164C654.08 639.232 652.224 639.296 650.369 639.358L650.166 638.967C648.312 639.028 646.46 639.087 644.609 639.143L644.81 639.534C642.958 639.589 641.108 639.642 639.259 639.692L639.061 639.301C637.213 639.351 635.366 639.398 633.522 639.442L633.717 639.833C631.857 639.877 629.999 639.919 628.142 639.957L627.948 639.566C626.067 639.605 624.187 639.641 622.309 639.674L622.499 640.065C620.62 640.098 618.743 640.128 616.868 640.155L616.679 639.764C614.805 639.791 612.932 639.815 611.061 639.835L611.247 640.227C609.375 640.248 607.505 640.265 605.636 640.28L605.453 639.889C603.586 639.904 601.72 639.916 599.856 639.924L600.037 640.316C598.173 640.324 596.31 640.33 594.449 640.333L594.271 639.942C592.371 639.945 590.473 639.944 588.577 639.941L588.753 640.332C586.853 640.329 584.956 640.322 583.06 640.312L582.888 639.921C580.993 639.911 579.101 639.899 577.211 639.882L577.381 640.274C575.49 640.258 573.601 640.239 571.714 640.216L571.547 639.825C569.661 639.803 567.777 639.777 565.896 639.749L566.06 640.14C564.178 640.112 562.298 640.08 560.42 640.045L560.258 639.654C558.351 639.619 556.446 639.58 554.544 639.539L554.703 639.93C552.784 639.888 550.868 639.842 548.954 639.793L548.798 639.402C546.885 639.354 544.975 639.302 543.067 639.247L543.22 639.638C541.311 639.583 539.405 639.524 537.501 639.463L537.35 639.072C535.447 639.01 533.547 638.945 531.649 638.877L531.797 639.268C529.898 639.2 528.002 639.128 526.108 639.053L525.964 638.663C524.046 638.587 522.131 638.508 520.218 638.426L520.359 638.816C518.423 638.733 516.489 638.646 514.558 638.556L514.42 638.166C512.49 638.076 510.563 637.982 508.639 637.885L508.774 638.275C506.849 638.178 504.927 638.078 503.008 637.974L502.876 637.584C500.958 637.481 499.043 637.373 497.131 637.263L497.259 637.653C495.346 637.542 493.436 637.428 491.529 637.311L491.403 636.921C489.469 636.803 487.538 636.68 485.61 636.554L485.732 636.944C483.78 636.816 481.831 636.685 479.886 636.55L479.767 636.161C477.823 636.027 475.882 635.889 473.944 635.747L474.059 636.136C472.12 635.994 470.185 635.849 468.253 635.7L468.141 635.311C466.21 635.163 464.282 635.01 462.358 634.854L462.467 635.243C460.541 635.087 458.62 634.928 456.702 634.765L456.597 634.376C454.641 634.21 452.688 634.04 450.739 633.867L450.84 634.255C448.875 634.08 446.914 633.901 444.957 633.718L444.859 633.331C442.903 633.148 440.951 632.962 439.002 632.773L439.096 633.16C437.147 632.97 435.201 632.776 433.259 632.579L433.169 632.192C431.229 631.995 429.292 631.794 427.359 631.589L427.445 631.976C425.508 631.771 423.575 631.562 421.646 631.349L421.563 630.963C419.582 630.745 417.605 630.523 415.632 630.297L415.71 630.682C413.736 630.456 411.766 630.226 409.801 629.991L409.727 629.606C407.763 629.372 405.803 629.135 403.848 628.893L403.918 629.277C401.962 629.035 400.01 628.79 398.062 628.54L397.996 628.156C396.05 627.906 394.109 627.653 392.172 627.395L392.234 627.779C390.262 627.517 388.295 627.251 386.333 626.981L386.275 626.598C384.288 626.325 382.306 626.047 380.33 625.765L380.382 626.148C378.404 625.866 376.431 625.58 374.462 625.29L374.414 624.908C372.447 624.618 370.485 624.324 368.529 624.026L368.573 624.407C366.614 624.109 364.662 623.806 362.714 623.5L362.675 623.119C360.715 622.811 358.76 622.498 356.81 622.182L356.845 622.561C354.845 622.236 352.851 621.907 350.864 621.573L350.834 621.195C348.848 620.861 346.867 620.524 344.892 620.182L344.917 620.559C342.94 620.217 340.97 619.871 339.005 619.52L338.985 619.143C337.022 618.792 335.065 618.437 333.114 618.078L333.128 618.454C331.171 618.093 329.221 617.729 327.276 617.36L327.267 616.985C325.263 616.605 323.266 616.22 321.275 615.831L321.279 616.205C319.286 615.815 317.3 615.421 315.32 615.022L315.322 614.649C313.344 614.25 311.373 613.847 309.409 613.439L309.401 613.811C307.435 613.403 305.475 612.99 303.522 612.573L303.535 612.203C301.581 611.785 299.633 611.363 297.692 610.936L297.673 611.306C295.667 610.865 293.669 610.419 291.678 609.968L291.703 609.6C289.714 609.15 287.733 608.695 285.758 608.235L285.727 608.601C283.751 608.141 281.783 607.676 279.822 607.206L279.859 606.841C277.9 606.371 275.949 605.896 274.005 605.417L273.961 605.781C272.001 605.297 270.048 604.809 268.103 604.316L268.153 603.954C266.158 603.448 264.171 602.937 262.192 602.42L262.136 602.78C260.155 602.263 258.182 601.741 256.218 601.214L256.282 600.856C254.32 600.329 252.367 599.797 250.422 599.26L250.352 599.617C248.405 599.079 246.467 598.537 244.537 597.989L244.615 597.634C242.651 597.077 240.696 596.514 238.75 595.946L238.665 596.298C236.686 595.721 234.717 595.137 232.757 594.548L232.85 594.198C230.892 593.61 228.944 593.017 227.006 592.418L226.906 592.766C224.965 592.166 223.034 591.561 221.112 590.95L221.22 590.605C219.3 589.995 217.389 589.379 215.488 588.758L215.372 589.101C213.404 588.457 211.447 587.808 209.5 587.154L209.624 586.814C207.68 586.16 205.746 585.5 203.824 584.835L203.691 585.172C201.766 584.506 199.851 583.833 197.947 583.155L198.089 582.821C196.188 582.144 194.298 581.462 192.419 580.773L192.269 581.104C190.345 580.399 188.433 579.688 186.532 578.971L186.691 578.644C184.772 577.92 182.865 577.19 180.97 576.454L180.801 576.778C178.903 576.041 177.017 575.297 175.143 574.547L175.321 574.227C173.45 573.479 171.591 572.724 169.745 571.964L169.558 572.28C167.682 571.508 165.819 570.729 163.969 569.944L164.166 569.631C162.286 568.834 160.42 568.029 158.567 567.219L158.36 567.527C156.504 566.715 154.661 565.896 152.832 565.071L153.049 564.768C151.223 563.944 149.41 563.114 147.612 562.278L147.384 562.577C145.564 561.731 143.757 560.878 141.965 560.018L142.203 559.724C140.38 558.85 138.572 557.969 136.779 557.081L136.53 557.37C134.733 556.48 132.951 555.584 131.184 554.681L131.444 554.398C129.68 553.496 127.932 552.588 126.199 551.674L125.928 551.951C124.175 551.026 122.437 550.094 120.715 549.154L120.997 548.883C119.251 547.931 117.521 546.972 115.808 546.006L115.515 546.271C113.798 545.303 112.097 544.328 110.413 543.346L110.718 543.087C109.037 542.107 107.373 541.12 105.726 540.126L105.41 540.378C103.742 539.372 102.091 538.358 100.457 537.337L100.785 537.093C99.1391 536.064 97.5105 535.029 95.8996 533.986L95.5597 534.223C93.9449 533.177 92.3477 532.125 90.7685 531.064L91.1201 530.835C89.5447 529.778 87.9873 528.713 86.4478 527.641L86.0846 527.863C84.5264 526.778 82.9866 525.686 81.4655 524.586L81.8405 524.373C80.3171 523.272 78.8125 522.163 77.3268 521.047L76.9401 521.252C75.4506 520.133 73.98 519.007 72.5285 517.873L72.9267 517.677C71.479 516.547 70.0505 515.409 68.6413 514.264L68.2318 514.45C66.8107 513.295 65.4092 512.133 64.0275 510.963L64.4482 510.786C63.0698 509.619 61.7111 508.445 60.3724 507.263L59.9406 507.431C58.5983 506.246 57.2759 505.054 55.9736 503.854L56.4161 503.696C55.1182 502.501 53.8404 501.298 52.5828 500.088L52.1298 500.236C50.8714 499.025 49.6332 497.806 48.4154 496.581L48.8786 496.443C47.6642 495.22 46.4702 493.991 45.2967 492.754L44.8237 492.882C43.647 491.642 42.4909 490.394 41.3557 489.14L41.8383 489.022C41.2722 488.396 40.7113 487.769 40.1557 487.139C39.6003 486.511 39.0511 485.881 38.5079 485.25L38.0162 485.358C36.9262 484.092 35.8607 482.824 34.8194 481.553L35.3199 481.456C34.2815 480.188 33.2673 478.917 32.2773 477.642L31.7685 477.729C30.7757 476.451 29.8072 475.171 28.8628 473.887L29.3796 473.811C28.4358 472.529 27.5162 471.243 26.6206 469.954L26.0962 470.02C25.1976 468.727 24.3232 467.431 23.4728 466.133L24.0042 466.078C23.1561 464.783 22.332 463.486 21.5317 462.185L20.9936 462.229C20.1914 460.926 19.4131 459.62 18.6586 458.311L19.203 458.277C18.4549 456.979 17.7302 455.679 17.0289 454.376L16.4788 454.399C15.7757 453.093 15.096 451.784 14.4397 450.473L14.9952 450.46C14.3406 449.152 13.7093 447.841 13.1013 446.529L12.5409 446.532C11.9337 445.221 11.3497 443.908 10.7886 442.593L11.3534 442.6C10.7991 441.301 10.2672 440 9.75777 438.696L9.18896 438.679C8.67825 437.373 8.19003 436.064 7.72417 434.753L8.29656 434.779C7.83183 433.472 7.38942 432.162 6.96922 430.85L6.39366 430.815C5.97662 429.513 5.58144 428.209 5.20801 426.904L5.78637 426.949C5.41756 425.66 5.07002 424.369 4.74363 423.076L4.16285 423.023C3.83574 421.727 3.52986 420.43 3.24512 419.131L3.82797 419.194C3.54387 417.898 3.28085 416.6 3.03885 415.301L2.45426 415.23C2.21548 413.948 1.99715 412.665 1.79912 411.38L2.38511 411.46C2.18937 410.19 2.01354 408.919 1.85753 407.647L1.27043 407.559C1.11409 406.284 0.977603 405.008 0.860924 403.73L1.44887 403.826C1.3324 402.551 1.23571 401.275 1.15865 399.998L0.570142 399.895C0.494387 398.639 0.437583 397.381 0.3997 396.123L0.988548 396.234C0.951117 394.991 0.932178 393.747 0.931641 392.502L0.342678 392.384C0.342143 391.137 0.360051 389.889 0.396328 388.64L0.985193 388.764C1.0214 387.517 1.07596 386.27 1.14878 385.021L0.560204 384.89C0.63188 383.661 0.721216 382.431 0.828137 381.201L1.41624 381.339C1.5215 380.128 1.64383 378.916 1.78319 377.703L1.19571 377.559C1.3353 376.345 1.49192 375.13 1.66551 373.914L2.2522 374.064C2.42552 372.85 2.61578 371.636 2.82292 370.421L2.23716 370.265C2.44232 369.062 2.66399 367.858 2.90215 366.654L3.48689 366.816C3.71947 365.64 3.96777 364.463 4.23176 363.286L3.64819 363.12C3.91257 361.941 4.19264 360.762 4.48835 359.583L5.07068 359.755C5.36594 358.577 5.67683 357.4 6.00328 356.222L5.4223 356.044C5.74921 354.864 6.09167 353.684 6.44966 352.504L7.02918 352.686C7.37495 351.547 7.73519 350.406 8.10988 349.266L7.53185 349.079C7.90673 347.938 8.29604 346.797 8.69974 345.656L9.27619 345.848C9.67934 344.708 10.0968 343.569 10.5287 342.429L9.95385 342.233C10.3862 341.092 10.8329 339.951 11.2939 338.809L11.867 339.01C12.3202 337.888 12.7872 336.766 13.268 335.644L12.6967 335.439C13.1691 334.337 13.6548 333.234 14.1537 332.132L14.7233 332.341C15.2216 331.24 15.7331 330.139 16.2578 329.038L15.69 328.826C16.2153 327.724 16.7538 326.622 17.3054 325.52L17.8712 325.736C18.4222 324.636 18.9862 323.536 19.5633 322.436L18.9994 322.216C19.5619 321.143 20.1368 320.071 20.7241 319L21.2861 319.223C21.8684 318.161 22.4628 317.099 23.0693 316.037L22.5091 315.809C23.1163 314.746 23.7355 313.683 24.3669 312.621L24.9251 312.852C25.5557 311.79 26.1985 310.729 26.8532 309.668L26.297 309.435C26.9525 308.373 27.6199 307.312 28.2993 306.251L28.8535 306.488C29.5111 305.461 30.1798 304.435 30.8598 303.409L30.3076 303.169C30.987 302.144 31.6776 301.119 32.3793 300.095L32.9295 300.338C33.6305 299.315 34.3426 298.292 35.0658 297.27L34.5176 297.024C35.2415 296.001 35.9765 294.978 36.7225 293.956L37.2686 294.205C38.014 293.184 38.7703 292.163 39.5377 291.143L38.9936 290.892C39.7384 289.902 40.4934 288.912 41.2588 287.923L41.8009 288.178C42.5642 287.192 43.3377 286.206 44.1215 285.221L43.5815 284.964C44.3659 283.979 45.1606 282.993 45.9655 282.009L46.5035 282.268C47.3077 281.285 48.1221 280.302 48.9466 279.319L48.4107 279.057C49.2359 278.074 50.0713 277.092 50.9168 276.11L51.4507 276.374C52.2751 275.417 53.1092 274.46 53.9529 273.504L53.421 273.238C54.2593 272.288 55.1071 271.339 55.9643 270.391L56.4942 270.659C57.3507 269.712 58.2167 268.765 59.092 267.819L58.5642 267.548C59.4402 266.601 60.3256 265.655 61.2204 264.709L61.7462 264.983C62.6404 264.038 63.5439 263.094 64.4567 262.151L63.9329 261.876C64.8343 260.945 65.7449 260.014 66.6645 259.085L67.1863 259.362C68.0896 258.449 69.0016 257.536 69.9224 256.625L69.4026 256.346C70.324 255.434 71.2541 254.522 72.193 253.612L72.7108 253.893C73.649 252.983 74.5958 252.074 75.5514 251.166L75.0355 250.883C75.9917 249.974 76.9566 249.066 77.9301 248.159L78.4439 248.444C79.4167 247.538 80.3982 246.633 81.3882 245.728L80.8764 245.442C81.8403 244.561 82.8124 243.681 83.7925 242.802L84.3024 243.091C85.2802 242.214 86.2661 241.339 87.26 240.464L86.7521 240.174C87.7467 239.298 88.7493 238.424 89.76 237.55L90.266 237.842C91.276 236.97 92.2941 236.098 93.3201 235.227L92.8161 234.933C93.8428 234.061 94.8775 233.191 95.9202 232.321L96.4223 232.617C97.4564 231.754 98.4983 230.893 99.548 230.033L99.0479 229.736C100.077 228.892 101.114 228.05 102.158 227.208L102.657 227.507C103.7 226.666 104.752 225.826 105.81 224.986L105.314 224.686C106.373 223.847 107.44 223.008 108.514 222.171L109.009 222.472C110.082 221.635 111.163 220.8 112.252 219.965L111.759 219.662C112.848 218.826 113.945 217.992 115.049 217.159L115.539 217.463C116.629 216.641 117.727 215.819 118.831 214.998L118.342 214.693C119.432 213.884 120.528 213.075 121.631 212.268L122.118 212.576C123.22 211.769 124.329 210.964 125.446 210.159L124.961 209.851C126.078 209.046 127.201 208.242 128.332 207.44L128.815 207.75C129.946 206.947 131.083 206.146 132.227 205.347L131.745 205.036C132.89 204.235 134.041 203.436 135.2 202.638L135.679 202.951C136.823 202.163 137.974 201.376 139.131 200.59L138.653 200.276C139.796 199.501 140.945 198.726 142.101 197.952L142.577 198.267C143.732 197.494 144.893 196.722 146.061 195.952L145.587 195.636C146.755 194.865 147.93 194.095 149.112 193.326L149.584 193.643C150.765 192.875 151.952 192.108 153.146 191.342L152.675 191.023C153.87 190.257 155.07 189.492 156.277 188.728L156.746 189.048C157.943 188.29 159.146 187.534 160.355 186.779L159.888 186.459C161.079 185.715 162.276 184.973 163.479 184.232L163.944 184.554C165.146 183.814 166.354 183.074 167.569 182.336L167.106 182.013C168.321 181.275 169.542 180.538 170.769 179.802L171.23 180.126C172.457 179.39 173.689 178.656 174.928 177.922L174.468 177.597C175.707 176.864 176.952 176.132 178.203 175.401L178.661 175.727C179.91 174.997 181.164 174.269 182.425 173.542L181.969 173.215C183.203 172.503 184.443 171.792 185.689 171.083L186.144 171.411C187.389 170.702 188.64 169.994 189.897 169.288L189.444 168.959C190.701 168.252 191.964 167.546 193.232 166.842L193.683 167.172C194.951 166.468 196.225 165.766 197.504 165.064L197.055 164.733C198.334 164.032 199.62 163.331 200.91 162.632L201.358 162.964C202.648 162.266 203.944 161.568 205.246 160.872L204.8 160.54C206.084 159.853 207.374 159.167 208.67 158.483L209.114 158.817C210.398 158.138 211.688 157.461 212.983 156.785L212.541 156.45C213.836 155.774 215.137 155.099 216.444 154.426L216.884 154.761C218.19 154.088 219.501 153.416 220.817 152.746L220.378 152.41C221.695 151.739 223.017 151.069 224.344 150.401L224.782 150.739C226.109 150.071 227.441 149.404 228.778 148.74L228.342 148.401C229.678 147.737 231.019 147.074 232.365 146.413L232.8 146.752C234.12 146.103 235.445 145.455 236.776 144.809L236.344 144.469C237.675 143.823 239.011 143.178 240.352 142.534L240.782 142.875C242.123 142.232 243.468 141.59 244.819 140.949L244.39 140.608C245.74 139.967 247.096 139.327 248.457 138.689L248.885 139.032C250.245 138.394 251.61 137.757 252.98 137.123L252.554 136.78C253.925 136.145 255.301 135.511 256.681 134.879L257.105 135.222C258.475 134.595 259.851 133.968 261.231 133.344L260.808 132.999C262.172 132.382 263.54 131.766 264.913 131.151L265.334 131.496C266.707 130.882 268.084 130.269 269.466 129.658L269.047 129.312C270.429 128.7 271.816 128.09 273.208 127.481L273.626 127.828C275.017 127.219 276.413 126.612 277.813 126.006L277.398 125.659C278.799 125.053 280.204 124.449 281.615 123.846L282.029 124.194C283.439 123.591 284.853 122.99 286.272 122.39L285.86 122.041C287.266 121.447 288.676 120.854 290.091 120.263L290.502 120.612C291.904 120.026 293.311 119.442 294.723 118.859L294.313 118.509C295.725 117.925 297.141 117.343 298.562 116.763L298.97 117.114C300.39 116.533 301.814 115.955 303.243 115.377L302.837 115.026C304.267 114.449 305.7 113.873 307.139 113.298L307.543 113.65C308.981 113.076 310.423 112.503 311.869 111.932L311.466 111.58C312.913 111.008 314.364 110.438 315.82 109.87L316.221 110.223C317.662 109.661 319.107 109.1 320.556 108.54L320.157 108.186C321.596 107.631 323.04 107.076 324.487 106.524L324.885 106.878C326.333 106.326 327.784 105.775 329.239 105.225L328.843 104.87C330.299 104.321 331.759 103.773 333.223 103.226L333.618 103.582C335.082 103.035 336.55 102.49 338.022 101.947L337.628 101.591C339.101 101.047 340.578 100.505 342.059 99.965L342.45 100.322C343.93 99.7818 345.415 99.2431 346.903 98.7061L346.513 98.3486C347.99 97.8157 349.471 97.2844 350.956 96.7546L351.345 97.1126C352.817 96.5872 354.294 96.0634 355.774 95.5411L355.387 95.1825C356.869 94.66 358.353 94.1391 359.842 93.6197L360.228 93.9789C361.716 93.4597 363.208 92.9421 364.705 92.4261L364.321 92.0664C365.818 91.5502 367.318 91.0355 368.823 90.5225L369.205 90.8827C370.709 90.3698 372.217 89.8586 373.729 89.3489L373.348 88.9881C374.86 88.4782 376.376 87.97 377.896 87.4633L378.276 87.8247C379.788 87.3206 381.304 86.8181 382.824 86.3172L382.447 85.9553C383.951 85.4595 385.46 84.9652 386.972 84.4725L387.348 84.8349C388.86 84.3424 390.375 83.8515 391.894 83.3621L391.52 82.9993C393.04 82.5098 394.563 82.0219 396.09 81.5356L396.463 81.899C397.989 81.4129 399.52 80.9284 401.053 80.4455L400.682 80.0816C402.217 79.5986 403.755 79.1172 405.297 78.6374L405.666 79.0017C407.208 78.5221 408.753 78.0442 410.301 77.5678L409.933 77.203C411.482 76.7266 413.035 76.2518 414.591 75.7787L414.957 76.144C416.491 75.6777 418.029 75.213 419.57 74.7499L419.205 74.3841C420.746 73.9208 422.291 73.4592 423.84 72.9992L424.203 73.3655C425.751 72.9056 427.303 72.4475 428.858 71.9909L428.496 71.6241C430.052 71.1674 431.611 70.7124 433.173 70.259L433.533 70.6262C435.096 70.1729 436.661 69.7214 438.23 69.2714L437.871 68.9038C439.441 68.4537 441.014 68.0053 442.591 67.5586L442.948 67.9267C444.524 67.4801 446.103 67.0353 447.686 66.5921L447.331 66.2235C448.901 65.7837 450.475 65.3456 452.053 64.9092L452.407 65.2782C453.975 64.8443 455.547 64.4119 457.122 63.9813L456.77 63.6119C458.346 63.1811 459.925 62.752 461.508 62.3245L461.858 62.6944C463.44 62.2671 465.026 61.8415 466.614 61.4176L466.265 61.0473C467.854 60.6232 469.447 60.2009 471.042 59.7802L471.39 60.1509C472.985 59.7303 474.584 59.3115 476.186 58.8944L475.84 58.5233C477.442 58.106 479.048 57.6905 480.657 57.2767L481.001 57.6482C482.607 57.2351 484.217 56.8236 485.83 56.4139L485.487 56.042C487.082 55.6368 488.681 55.2332 490.283 54.8314L490.624 55.2037C492.225 54.8021 493.829 54.4021 495.437 54.0038L495.097 53.6311C496.705 53.2327 498.316 52.836 499.93 52.441L500.269 52.8141C501.882 52.4192 503.499 52.0261 505.119 51.6347L504.783 51.2613C506.403 50.8697 508.027 50.48 509.654 50.0919L509.989 50.4658C511.615 50.0779 513.245 49.6917 514.877 49.3073L514.544 48.9331C516.177 48.5485 517.813 48.1658 519.453 47.7847L519.784 48.1594C520.604 47.9689 521.424 47.7789 522.245 47.5893C523.066 47.3999 523.886 47.211 524.707 47.0227L524.377 46.6478C526.02 46.2709 527.663 45.8963 529.308 45.5242L529.636 45.8995C531.28 45.5275 532.924 45.1578 534.568 44.7904L534.241 44.4147C535.886 44.0473 537.532 43.6822 539.178 43.3194L539.503 43.6955C541.149 43.3329 542.795 42.9726 544.441 42.6147L544.117 42.2382C545.764 41.8802 547.411 41.5245 549.059 41.1712L549.381 41.5479C551.029 41.1947 552.676 40.8438 554.324 40.4953L554.004 40.1182C555.652 39.7695 557.301 39.4232 558.951 39.0793L559.27 39.4567C560.937 39.1089 562.605 38.7635 564.274 38.4206L563.956 38.0428C565.627 37.6992 567.299 37.3581 568.97 37.0194L569.286 37.3975C570.957 37.0589 572.629 36.7226 574.3 36.3888L573.987 36.0104C575.659 35.6764 577.332 35.3449 579.004 35.0157L579.317 35.3945C580.989 35.0654 582.662 34.7388 584.335 34.4145L584.024 34.0354C585.698 33.711 587.371 33.3891 589.045 33.0695L589.354 33.4489C591.028 33.1294 592.702 32.8123 594.375 32.4976L594.068 32.1178C595.751 31.8013 597.435 31.4872 599.119 31.1755L599.424 31.5556C601.121 31.2415 602.818 30.9298 604.516 30.6206L604.212 30.2402C605.91 29.9309 607.608 29.624 609.306 29.3195L609.608 29.7002C611.306 29.3959 613.003 29.094 614.701 28.7945L614.401 28.4135C616.099 28.1139 617.798 27.8168 619.496 27.5221L619.795 27.9034C621.493 27.6088 623.191 27.3166 624.89 27.0269L624.593 26.6453C626.291 26.3555 627.99 26.0681 629.689 25.7831L629.985 26.165C631.683 25.8801 633.381 25.5977 635.08 25.3177L634.786 24.9355C636.509 24.6514 638.232 24.3698 639.955 24.0908L640.247 24.4732C641.97 24.1941 643.693 23.9176 645.416 23.6435L645.126 23.2608C646.849 22.9866 648.572 22.715 650.296 22.4458L650.584 22.8288C652.307 22.5597 654.03 22.2931 655.752 22.029L655.466 21.6457C657.189 21.3815 658.912 21.1198 660.635 20.8606L660.92 21.2441C662.642 20.985 664.364 20.7283 666.086 20.4741L665.803 20.0903C667.526 19.8361 669.249 19.5843 670.971 19.335L671.252 19.719C672.992 19.4672 674.732 19.2179 676.472 18.9711L676.192 18.5867C677.941 18.3387 679.689 18.0932 681.437 17.8503L681.715 18.2349C683.462 17.992 685.209 17.7517 686.956 17.5139L686.68 17.1291C688.428 16.8912 690.175 16.6559 691.922 16.4232L692.196 16.8082C693.942 16.5755 695.689 16.3454 697.434 16.1178L697.162 15.7325C698.909 15.5048 700.655 15.2796 702.401 15.057L702.671 15.4426C704.416 15.2201 706.161 15.0001 707.906 14.7826L707.637 14.3968C709.397 14.1775 711.155 13.9607 712.914 13.7466L713.18 14.1327C714.952 13.9168 716.724 13.7036 718.495 13.493L718.231 13.1068C720.003 12.8961 721.774 12.688 723.545 12.4826L723.808 12.8691C725.578 12.6637 727.348 12.4609 729.118 12.2607L728.857 11.874C730.627 11.6738 732.397 11.4761 734.166 11.2811L734.425 11.668C736.193 11.4731 737.961 11.2807 739.729 11.0909L739.472 10.7038C741.24 10.5139 743.008 10.3266 744.774 10.142L745.029 10.5294C746.808 10.3434 748.587 10.1601 750.365 9.97946L750.112 9.5919C751.908 9.40937 753.704 9.22953 755.499 9.05235L755.75 9.44011C757.544 9.26301 759.338 9.08857 761.131 8.91682L760.882 8.52885C762.676 8.35704 764.469 8.18789 766.261 8.02141L766.508 8.40956C768.3 8.24313 770.091 8.07939 771.881 7.91831L771.636 7.52997C773.427 7.36884 775.217 7.21036 777.006 7.05456L777.249 7.44307C779.038 7.28733 780.826 7.13424 782.613 6.9838L782.372 6.59513C784.175 6.44336 785.978 6.2943 787.779 6.14795L788.018 6.5368C789.836 6.38908 791.653 6.24411 793.47 6.1019L793.233 5.71286C795.05 5.5706 796.867 5.43107 798.682 5.2943L798.916 5.68349C800.731 5.54679 802.545 5.4128 804.357 5.28158L804.125 4.89225C805.939 4.76096 807.751 4.63244 809.563 4.50665L809.793 4.89614C811.604 4.77039 813.414 4.64739 815.223 4.52712L814.994 4.1375C816.804 4.0172 818.613 3.89961 820.42 3.78477L820.646 4.17454C822.475 4.05835 824.303 3.94494 826.13 3.83433L825.906 3.44443C827.746 3.333 829.586 3.2244 831.424 3.11864L831.645 3.50869C833.483 3.40297 835.319 3.30009 837.154 3.20005L836.935 2.80989C838.771 2.70979 840.605 2.61251 842.439 2.51808L842.656 2.90838C844.488 2.81398 846.32 2.72243 848.15 2.63367L847.935 2.24327C849.766 2.15448 851.596 2.06852 853.424 1.98537L853.637 2.3759C855.464 2.29279 857.291 2.2125 859.116 2.13503L858.905 1.74441C860.766 1.66542 862.626 1.58937 864.484 1.51622L864.691 1.90692C866.551 1.83371 868.41 1.76342 870.266 1.69607L870.061 1.30527C871.919 1.23788 873.775 1.17342 875.63 1.11186L875.833 1.50273C877.687 1.44124 879.539 1.38262 881.39 1.32693L881.19 0.935987C883.041 0.880274 884.892 0.827493 886.74 0.777628L886.939 1.16863C888.786 1.11878 890.633 1.07183 892.478 1.02782L892.282 0.636723C894.142 0.592321 896 0.55089 897.857 0.512388L898.051 0.903518C899.932 0.864508 901.812 0.828546 903.691 0.795586L903.5 0.404397C905.379 0.371421 907.256 0.341512 909.131 0.314596L909.32 0.705828C911.194 0.678926 913.067 0.655046 914.938 0.634206L914.753 0.242943C916.624 0.22209 918.495 0.204251 920.363 0.189415L920.546 0.580695C922.413 0.565895 924.279 0.554069 926.143 0.545285L925.962 0.153985C927.826 0.145202 929.689 0.139413 931.55 0.136629L931.728 0.527926C933.628 0.525106 935.526 0.525412 937.422 0.528862L937.246 0.137538C939.146 0.140982 941.043 0.147575 942.939 0.15731L943.111 0.548596C945.006 0.558316 946.898 0.571174 948.788 0.587186L948.618 0.19588C950.509 0.21188 952.398 0.231007 954.285 0.25328L954.452 0.644559C956.338 0.666808 958.222 0.692175 960.103 0.720699L959.939 0.329477C961.821 0.358 963.701 0.389657 965.579 0.424432L965.741 0.815595C967.648 0.850893 969.553 0.889407 971.455 0.931153L971.296 0.540063C973.215 0.582172 975.131 0.627526 977.045 0.676159L977.201 1.06723C979.114 1.11583 981.024 1.16772 982.932 1.22285L982.779 0.831883C984.688 0.887054 986.595 0.945471 988.498 1.00715L988.649 1.39805C990.552 1.45967 992.452 1.52459 994.35 1.59275L994.202 1.20197C996.101 1.27016 997.997 1.34159 999.891 1.41628L1000.04 1.80693C1001.95 1.88258 1003.87 1.96158 1005.78 2.04388L1005.64 1.65334C1007.58 1.73668 1009.51 1.82344 1011.44 1.9136L1011.58 2.30397C1013.51 2.39409 1015.44 2.4876 1017.36 2.5845L1017.22 2.19425C1019.15 2.2912 1021.07 2.39156 1022.99 2.49531L1023.12 2.88539C1025.04 2.98909 1026.96 3.09615 1028.87 3.20664L1028.74 2.81672C1030.65 2.92724 1032.56 3.04118 1034.47 3.15847L1034.6 3.5482C1036.53 3.66714 1038.46 3.78958 1040.39 3.91551L1040.27 3.52598C1042.22 3.65349 1044.17 3.78456 1046.11 3.91919L1046.23 4.30847C1048.18 4.44303 1050.12 4.58111 1052.06 4.72276L1051.94 4.33375C1053.88 4.47549 1055.81 4.62078 1057.75 4.76961L1057.86 5.15835C1059.79 5.30709 1061.72 5.45938 1063.64 5.6152L1063.53 5.22672C1065.46 5.38264 1067.38 5.5421 1069.3 5.70508L1069.4 6.09329C1071.36 6.25949 1073.31 6.4294 1075.26 6.60294L1075.16 6.21508C1077.12 6.39008 1079.08 6.56882 1081.04 6.7513L1081.14 7.13885C1083.1 7.32118 1085.05 7.50727 1087 7.69704L1086.9 7.30985C1088.85 7.49975 1090.8 7.6934 1092.74 7.89075L1092.83 8.27755C1094.77 8.47476 1096.71 8.67569 1098.64 8.88032L1098.55 8.49388C1100.49 8.69902 1102.42 8.90787 1104.35 9.12043L1104.44 9.50641C1106.42 9.72474 1108.39 9.94696 1110.37 10.1731L1110.29 9.78757C1112.26 10.0139 1114.23 10.2441 1116.2 10.4782L1116.27 10.8633C1118.24 11.0973 1120.2 11.3351 1122.15 11.5769L1122.08 11.1923C1124.04 11.4343 1125.99 11.6801 1127.94 11.9299L1128 12.3139C1129.95 12.5635 1131.89 12.8169 1133.83 13.0742L1133.77 12.6907C1135.74 12.9527 1137.7 13.2187 1139.67 13.4888L1139.72 13.8717C1141.71 14.1451 1143.69 14.4226 1145.67 14.7043L1145.62 14.3221C1147.6 14.6039 1149.57 14.8899 1151.54 15.18L1151.59 15.5617C1153.55 15.8515 1155.51 16.1455 1157.47 16.4436L1157.43 16.0627C1159.38 16.361 1161.34 16.6635 1163.29 16.97L1163.32 17.3502C1165.28 17.6587 1167.24 17.9713 1169.19 18.2881L1169.15 17.9087C1171.15 18.2336 1173.15 18.5628 1175.14 18.8964L1175.17 19.2751C1177.15 19.6084 1179.13 19.946 1181.11 20.288L1181.08 19.9102C1183.06 20.2525 1185.03 20.5991 1186.99 20.9501L1187.01 21.327C1188.98 21.6776 1190.93 22.0326 1192.89 22.3919L1192.87 22.0159C1194.83 22.3762 1196.78 22.7408 1198.72 23.1098L1198.73 23.4848C1200.74 23.865 1202.73 24.2497 1204.72 24.6391L1204.72 24.2651C1206.71 24.6548 1208.7 25.0491 1210.68 25.448L1210.68 25.8209C1212.65 26.2194 1214.63 26.6226 1216.59 27.0302L1216.6 26.6585C1218.56 27.0666 1220.52 27.4792 1222.48 27.8964L1222.46 28.267C1224.42 28.6846 1226.37 29.1067 1228.31 29.5335L1228.33 29.1642C1230.33 29.6051 1232.33 30.0509 1234.32 30.5016L1234.3 30.8695C1236.29 31.3198 1238.27 31.7749 1240.24 32.2348L1240.27 31.8683C1242.25 32.3287 1244.22 32.794 1246.18 33.2641L1246.14 33.6291C1248.1 34.0988 1250.05 34.5732 1251.99 35.0525L1252.04 34.689C1254 35.1725 1255.95 35.6608 1257.9 36.154L1257.85 36.5159C1259.84 37.022 1261.83 37.5332 1263.81 38.0495L1263.86 37.6893C1265.84 38.2063 1267.82 38.7283 1269.78 39.2556L1269.72 39.6139C1271.68 40.1406 1273.63 40.6723 1275.58 41.2092L1275.65 40.8528C1277.59 41.3903 1279.53 41.933 1281.46 42.4808L1281.38 42.8353C1283.35 43.3928 1285.3 43.9556 1287.25 44.5237L1287.33 44.1713C1289.31 44.7491 1291.28 45.3324 1293.24 45.9212L1293.15 46.2714C1295.11 46.8594 1297.05 47.4528 1298.99 48.0518L1299.09 47.7039C1301.03 48.3036 1302.97 48.9088 1304.89 49.5194L1304.78 49.8648C1306.7 50.4751 1308.61 51.0908 1310.51 51.712L1310.63 51.3692C1312.59 52.0123 1314.55 52.6613 1316.5 53.3161L1316.38 53.6561C1318.32 54.3099 1320.25 54.9695 1322.18 55.6349L1322.31 55.2978C1324.23 55.9641 1326.15 56.6363 1328.05 57.3142L1327.91 57.6484C1329.81 58.3253 1331.7 59.008 1333.58 59.6964L1333.73 59.3654C1335.65 60.0703 1337.57 60.7813 1339.47 61.4982L1339.31 61.8259C1341.23 62.5498 1343.13 63.2798 1345.03 64.0159L1345.2 63.6918C1347.1 64.4292 1348.98 65.1726 1350.86 65.9222L1350.68 66.2426C1352.55 66.991 1354.41 67.7454 1356.25 68.5059L1356.44 68.1893C1358.32 68.9619 1360.18 69.7408 1362.03 70.5259L1361.83 70.8383C1363.71 71.636 1365.58 72.4402 1367.43 73.2508L1367.64 72.9427C1369.5 73.7547 1371.34 74.5733 1373.17 75.3983L1372.95 75.7019C1374.78 76.5253 1376.59 77.3552 1378.39 78.1915L1378.61 77.8926C1380.44 78.7391 1382.24 79.5921 1384.03 80.4518L1383.8 80.7456C1385.62 81.6199 1387.43 82.5008 1389.22 83.3885L1389.47 83.1C1391.27 83.9895 1393.05 84.8858 1394.82 85.7889L1394.56 86.072C1396.32 86.9732 1398.07 87.8812 1399.8 88.7959L1400.07 88.5185C1401.82 89.4438 1403.56 90.3761 1405.28 91.3153L1405 91.5867C1406.75 92.5385 1408.48 93.4975 1410.19 94.4634L1410.48 94.1984C1412.2 95.1665 1413.9 96.1416 1415.59 97.1238L1415.28 97.3823C1416.96 98.3622 1418.63 99.3492 1420.27 100.343L1420.59 100.092C1422.26 101.098 1423.91 102.112 1425.54 103.132L1425.21 103.377C1426.86 104.405 1428.49 105.441 1430.1 106.484L1430.44 106.247C1432.05 107.292 1433.65 108.345 1435.23 109.405L1434.88 109.634C1436.45 110.692 1438.01 111.756 1439.55 112.828L1439.91 112.607C1441.47 113.692 1443.01 114.784 1444.53 115.884L1444.16 116.097C1445.68 117.198 1447.19 118.306 1448.67 119.422L1449.06 119.218C1450.55 120.337 1452.02 121.463 1453.47 122.597L1453.07 122.792C1454.52 123.923 1455.95 125.061 1457.36 126.206L1457.77 126.019C1459.19 127.174 1460.59 128.337 1461.97 129.506L1461.55 129.684C1462.93 130.85 1464.29 132.025 1465.63 133.206L1466.06 133.039C1467.4 134.223 1468.72 135.416 1470.03 136.615L1469.58 136.773C1470.88 137.969 1472.16 139.172 1473.42 140.382L1473.87 140.234C1475.13 141.445 1476.37 142.663 1477.58 143.889L1477.12 144.027C1478.33 145.249 1479.53 146.479 1480.7 147.716L1481.18 147.588Z" stroke="#E41E0A" stroke-dasharray="5 5"/>
</svg>
