<svg width="991" height="404" viewBox="0 0 991 404" fill="none" xmlns="http://www.w3.org/2000/svg">
<path d="M1132.53 140.697C1133.11 142.286 1133.63 143.886 1134.09 145.495L1133.6 145.559C1133.83 146.359 1134.05 147.16 1134.25 147.965C1134.45 148.769 1134.64 149.574 1134.81 150.379L1135.31 150.348C1135.66 151.969 1135.95 153.59 1136.18 155.212L1135.67 155.209C1135.9 156.815 1136.07 158.421 1136.19 160.027L1136.7 160.064C1136.81 161.675 1136.87 163.286 1136.87 164.897L1136.36 164.828C1136.36 166.415 1136.31 168.003 1136.2 169.59L1136.72 169.689C1136.61 171.262 1136.45 172.834 1136.24 174.405L1135.73 174.276C1135.52 175.826 1135.26 177.375 1134.95 178.923L1135.45 179.079C1135.15 180.591 1134.8 182.103 1134.4 183.613L1133.9 183.433C1133.5 184.935 1133.06 186.436 1132.57 187.936L1133.06 188.139C1132.59 189.578 1132.07 191.016 1131.52 192.453L1131.03 192.229C1130.48 193.659 1129.88 195.087 1129.24 196.515L1129.72 196.757C1129.1 198.14 1128.44 199.521 1127.74 200.901L1127.28 200.641C1126.59 201.993 1125.87 203.343 1125.12 204.691L1125.58 204.966C1124.83 206.301 1124.04 207.635 1123.22 208.966L1122.77 208.677C1121.98 209.949 1121.16 211.22 1120.31 212.488L1120.76 212.79C1119.9 214.062 1119.02 215.333 1118.1 216.601L1117.66 216.288C1116.78 217.507 1115.87 218.724 1114.93 219.939L1115.35 220.263C1114.43 221.458 1113.47 222.651 1112.49 223.842L1112.07 223.508C1111.09 224.696 1110.08 225.882 1109.04 227.065L1109.46 227.407C1108.47 228.534 1107.46 229.658 1106.42 230.781L1106.01 230.431C1104.98 231.546 1103.93 232.659 1102.85 233.77L1103.24 234.127C1102.16 235.238 1101.06 236.347 1099.93 237.454L1099.54 237.09C1098.47 238.138 1097.38 239.183 1096.26 240.227L1096.65 240.597C1095.53 241.643 1094.4 242.687 1093.24 243.728L1092.86 243.352C1091.7 244.391 1090.53 245.428 1089.33 246.463L1089.7 246.844C1088.56 247.829 1087.4 248.811 1086.22 249.791L1085.85 249.405C1084.68 250.383 1083.48 251.359 1082.27 252.332L1082.63 252.723C1081.41 253.698 1080.18 254.67 1078.92 255.64L1078.57 255.245C1077.36 256.178 1076.14 257.108 1074.9 258.036L1075.25 258.435C1074.02 259.354 1072.78 260.27 1071.52 261.184L1071.17 260.782C1069.92 261.694 1068.64 262.605 1067.35 263.513L1067.69 263.919C1066.42 264.812 1065.13 265.703 1063.83 266.591L1063.49 266.182C1062.23 267.044 1060.95 267.904 1059.66 268.761L1059.99 269.174C1058.7 270.032 1057.39 270.888 1056.07 271.742L1055.74 271.327C1054.42 272.18 1053.08 273.03 1051.73 273.878L1052.05 274.297C1050.75 275.114 1049.43 275.93 1048.1 276.743L1047.78 276.322C1046.47 277.129 1045.13 277.934 1043.79 278.736L1044.1 279.159C1042.76 279.962 1041.4 280.763 1040.02 281.562L1039.71 281.136C1038.35 281.929 1036.97 282.72 1035.59 283.508L1035.89 283.936C1034.55 284.697 1033.2 285.456 1031.83 286.213L1031.53 285.783C1030.17 286.539 1028.79 287.293 1027.41 288.044L1027.71 288.476C1026.32 289.228 1024.92 289.978 1023.51 290.725L1023.21 290.292C1021.82 291.03 1020.41 291.767 1019 292.501L1019.29 292.937C1017.91 293.651 1016.52 294.363 1015.12 295.073L1014.83 294.635C1013.44 295.344 1012.03 296.051 1010.61 296.756L1010.9 297.195C1009.48 297.9 1008.05 298.603 1006.61 299.303L1006.32 298.863C1004.9 299.556 1003.46 300.247 1002.01 300.936L1002.29 301.378C1000.89 302.049 999.47 302.717 998.043 303.383L997.767 302.94C996.341 303.605 994.907 304.269 993.462 304.93L993.736 305.375C992.29 306.036 990.836 306.696 989.372 307.353L989.101 306.907C987.643 307.561 986.175 308.214 984.698 308.864L984.965 309.312C983.534 309.942 982.094 310.57 980.645 311.195L980.38 310.747C978.933 311.372 977.477 311.995 976.012 312.616L976.274 313.066C974.808 313.687 973.334 314.306 971.852 314.923L971.593 314.472C970.111 315.089 968.621 315.703 967.123 316.315L967.38 316.767C965.917 317.364 964.447 317.959 962.969 318.552L962.715 318.099C961.25 318.687 959.776 319.272 958.295 319.856L958.547 320.31C957.065 320.894 955.575 321.475 954.078 322.055L953.829 321.599C952.333 322.178 950.829 322.755 949.318 323.33L949.564 323.786C948.065 324.356 946.559 324.923 945.046 325.488L944.802 325.031C943.322 325.584 941.834 326.134 940.34 326.683L940.581 327.141C939.086 327.69 937.584 328.236 936.075 328.781L935.836 328.322C934.328 328.866 932.813 329.407 931.291 329.947L931.528 330.407C930.005 330.947 928.475 331.484 926.939 332.02L926.704 331.559C925.199 332.084 923.687 332.606 922.168 333.126L922.4 333.588C920.894 334.104 919.382 334.617 917.863 335.129L917.633 334.667C916.115 335.178 914.591 335.687 913.061 336.194L913.288 336.657C911.757 337.164 910.219 337.669 908.676 338.172L908.45 337.708C906.907 338.21 905.358 338.711 903.802 339.209L904.025 339.673C902.509 340.158 900.986 340.642 899.458 341.123L899.237 340.658C897.711 341.138 896.179 341.617 894.641 342.093L894.86 342.558C893.322 343.035 891.778 343.509 890.229 343.981L890.011 343.514C888.463 343.986 886.908 344.456 885.347 344.923L885.562 345.39C884.005 345.856 882.442 346.32 880.873 346.782L880.66 346.315C879.127 346.766 877.589 347.215 876.046 347.662L876.257 348.13C874.713 348.577 873.163 349.022 871.609 349.465L871.4 348.997C870.73 349.187 870.06 349.378 869.388 349.567C868.501 349.818 867.613 350.068 866.722 350.318L866.929 350.787C865.364 351.225 863.794 351.662 862.219 352.096L862.013 351.626C860.442 352.059 858.866 352.489 857.285 352.918L857.488 353.388C855.939 353.807 854.385 354.225 852.826 354.64L852.625 354.169C851.067 354.584 849.504 354.997 847.936 355.408L848.136 355.879C846.567 356.29 844.994 356.699 843.416 357.105L843.219 356.634C842.554 356.805 841.888 356.976 841.221 357.146C840.307 357.38 839.39 357.613 838.472 357.846L838.668 358.318C837.081 358.72 835.488 359.12 833.892 359.518L833.698 359.045C832.136 359.434 830.569 359.821 828.998 360.205L829.19 360.678C827.619 361.063 826.044 361.446 824.463 361.826L824.273 361.352C822.694 361.732 821.11 362.11 819.522 362.486L819.71 362.96C818.121 363.336 816.528 363.71 814.93 364.081L814.744 363.607C813.147 363.978 811.545 364.347 809.94 364.714L810.124 365.189C808.543 365.551 806.958 365.91 805.368 366.267L805.185 365.791C803.604 366.147 802.018 366.5 800.428 366.85L800.61 367.326C799.02 367.677 797.425 368.026 795.827 368.372L795.647 367.896C794.05 368.243 792.448 368.587 790.842 368.929L791.02 369.405C789.414 369.747 787.804 370.087 786.19 370.425L786.013 369.948C784.413 370.283 782.809 370.616 781.201 370.946L781.375 371.423C779.784 371.75 778.189 372.075 776.59 372.397L776.417 371.92C774.818 372.243 773.216 372.563 771.61 372.881L771.781 373.359C770.175 373.677 768.565 373.993 766.951 374.307L766.782 373.829C765.168 374.142 763.552 374.454 761.931 374.763L762.099 375.242C760.478 375.551 758.853 375.858 757.225 376.163L757.059 375.684C755.46 375.984 753.857 376.281 752.251 376.576L752.416 377.055C750.809 377.35 749.199 377.643 747.585 377.934L747.422 377.455C745.809 377.745 744.193 378.034 742.573 378.32L742.734 378.8C741.114 379.086 739.49 379.37 737.863 379.652L737.703 379.172C736.077 379.454 734.447 379.734 732.814 380.011L732.972 380.491C731.351 380.766 729.726 381.039 728.099 381.31L727.942 380.83C726.329 381.098 724.713 381.365 723.093 381.629L723.248 382.109C721.628 382.373 720.005 382.635 718.379 382.895L718.226 382.414C716.6 382.674 714.971 382.931 713.339 383.186L713.491 383.668C711.859 383.923 710.223 384.176 708.585 384.427L708.435 383.945C707.789 384.044 707.144 384.142 706.498 384.24C705.503 384.391 704.508 384.541 703.511 384.691L703.66 385.172C702.037 385.415 700.41 385.656 698.781 385.895L698.634 385.413C697.009 385.651 695.38 385.887 693.749 386.121L693.895 386.603C692.263 386.836 690.629 387.068 688.992 387.297L688.848 386.815C687.211 387.044 685.572 387.271 683.929 387.496L684.072 387.978C682.429 388.203 680.783 388.425 679.135 388.646L678.994 388.163C677.349 388.383 675.702 388.6 674.052 388.815L674.191 389.298C672.56 389.511 670.926 389.721 669.29 389.93L669.152 389.447C667.516 389.655 665.878 389.861 664.237 390.065L664.373 390.548C662.731 390.752 661.087 390.953 659.44 391.152L659.305 390.669C657.659 390.868 656.01 391.065 654.359 391.26L654.492 391.744C652.84 391.938 651.185 392.131 649.528 392.321L649.396 391.837C647.747 392.026 646.096 392.213 644.442 392.398L644.572 392.882C642.931 393.066 641.288 393.247 639.642 393.425L639.513 392.941C637.868 393.12 636.22 393.296 634.57 393.471L634.698 393.955C633.047 394.129 631.394 394.301 629.739 394.471L629.613 393.986C627.958 394.156 626.301 394.324 624.641 394.489L624.766 394.973C623.105 395.139 621.443 395.301 619.778 395.462L619.656 394.977C618.824 395.057 617.991 395.137 617.158 395.216C616.324 395.295 615.491 395.374 614.658 395.452L614.779 395.937C613.113 396.092 611.449 396.245 609.785 396.396L609.665 395.911C608.002 396.061 606.34 396.209 604.679 396.354L604.797 396.839C603.135 396.984 601.475 397.127 599.816 397.267L599.699 396.781C598.041 396.921 596.383 397.059 594.727 397.193L594.842 397.679C593.185 397.814 591.529 397.946 589.875 398.075L589.761 397.59C588.094 397.72 586.428 397.848 584.763 397.974L584.875 398.459C583.201 398.585 581.529 398.709 579.859 398.829L579.748 398.344C578.078 398.464 576.409 398.582 574.742 398.698L574.851 399.184C573.183 399.299 571.516 399.412 569.851 399.522L569.744 399.036C568.079 399.146 566.416 399.253 564.754 399.358L564.86 399.845C563.197 399.949 561.537 400.052 559.877 400.151L559.773 399.665C558.094 399.766 556.417 399.864 554.741 399.96L554.844 400.446C553.164 400.542 551.486 400.635 549.809 400.725L549.708 400.239C549.01 400.276 548.313 400.314 547.616 400.35C546.638 400.402 545.661 400.452 544.684 400.502L544.784 400.989C543.11 401.074 541.438 401.156 539.768 401.236L539.67 400.749C538.001 400.829 536.333 400.906 534.666 400.98L534.763 401.467C533.092 401.542 531.423 401.614 529.756 401.683L529.661 401.196C527.973 401.266 526.287 401.334 524.602 401.399L524.695 401.885C523.01 401.95 521.326 402.012 519.645 402.072L519.553 401.585C517.872 401.644 516.193 401.701 514.515 401.755L514.605 402.242C512.927 402.296 511.251 402.347 509.577 402.396L509.489 401.909C507.815 401.957 506.144 402.003 504.474 402.046L504.561 402.533C502.876 402.577 501.193 402.618 499.513 402.656L499.428 402.169C497.734 402.208 496.043 402.243 494.354 402.276L494.437 402.763C492.748 402.796 491.06 402.826 489.375 402.854L489.293 402.367C487.608 402.394 485.926 402.419 484.245 402.441L484.325 402.928C482.644 402.95 480.965 402.97 479.288 402.986L479.21 402.499C477.534 402.515 475.86 402.529 474.188 402.54L474.265 403.028C472.563 403.039 470.863 403.047 469.166 403.053L469.091 402.566C467.394 402.572 465.7 402.575 464.008 402.575L464.081 403.062C462.388 403.062 460.698 403.059 459.01 403.054L458.939 402.567C457.252 402.561 455.567 402.553 453.885 402.542L453.955 403.029C452.272 403.018 450.591 403.004 448.914 402.988L448.846 402.5C447.151 402.484 445.458 402.464 443.768 402.442L443.834 402.929C442.129 402.906 440.427 402.881 438.728 402.853L438.663 402.365C436.965 402.337 435.269 402.306 433.575 402.272L433.638 402.759C431.944 402.725 430.253 402.688 428.564 402.649L428.504 402.162C426.816 402.122 425.131 402.079 423.449 402.034L423.508 402.521C421.817 402.476 420.129 402.427 418.444 402.376L418.387 401.889C416.676 401.837 414.968 401.782 413.264 401.724L413.318 402.211C411.613 402.153 409.911 402.092 408.211 402.029L408.158 401.542C406.459 401.478 404.764 401.411 403.071 401.342L403.122 401.829C401.429 401.759 399.739 401.687 398.052 401.611L398.003 401.125C396.317 401.049 394.633 400.971 392.953 400.89L393.001 401.377C391.283 401.294 389.569 401.208 387.858 401.119L387.813 400.632C386.102 400.543 384.396 400.452 382.692 400.357L382.736 400.843C381.032 400.748 379.331 400.65 377.634 400.549L377.593 400.063C375.897 399.962 374.204 399.859 372.515 399.752L372.554 400.238C370.864 400.131 369.178 400.021 367.495 399.909L367.458 399.423C365.74 399.308 364.026 399.189 362.315 399.068L362.35 399.554C360.635 399.432 358.924 399.308 357.217 399.18L357.184 398.694C355.477 398.567 353.775 398.436 352.076 398.302L352.107 398.788C350.407 398.654 348.712 398.517 347.02 398.377L346.991 397.891C345.301 397.752 343.614 397.609 341.931 397.463L341.957 397.948C340.235 397.798 338.517 397.646 336.803 397.49L336.779 397.005C335.062 396.849 333.349 396.69 331.64 396.527L331.662 397.012C329.953 396.849 328.248 396.684 326.548 396.515L326.528 396.03C324.829 395.862 323.134 395.69 321.443 395.515L321.46 395.999C319.767 395.824 318.078 395.645 316.394 395.464L316.379 394.98C314.651 394.793 312.929 394.604 311.211 394.411L311.223 394.895C309.505 394.702 307.791 394.506 306.082 394.306L306.072 393.823C304.364 393.623 302.661 393.42 300.963 393.215L300.97 393.698C299.271 393.492 297.577 393.282 295.888 393.07L295.883 392.587C294.18 392.373 292.482 392.155 290.789 391.934L290.792 392.417C289.064 392.191 287.342 391.962 285.625 391.73L285.625 391.248C283.909 391.016 282.198 390.78 280.493 390.541L280.491 391.023C278.785 390.784 277.084 390.541 275.39 390.295L275.395 389.814C273.701 389.568 272.013 389.319 270.33 389.066L270.322 389.548C268.602 389.289 266.887 389.028 265.179 388.763L265.19 388.282C263.467 388.014 261.75 387.744 260.039 387.469L260.025 387.949C258.314 387.675 256.608 387.396 254.909 387.115L254.925 386.635C253.227 386.353 251.535 386.068 249.849 385.779L249.829 386.259C248.129 385.968 246.435 385.673 244.748 385.375L244.771 384.896C243.042 384.591 241.32 384.281 239.605 383.968L239.579 384.447C237.863 384.133 236.154 383.817 234.452 383.496L234.48 383.018C232.779 382.698 231.085 382.374 229.398 382.046L229.366 382.523C227.678 382.195 225.996 381.864 224.322 381.528L224.358 381.052C222.63 380.706 220.91 380.356 219.198 380.003L219.16 380.478C217.441 380.123 215.731 379.764 214.028 379.402L214.07 378.927C212.369 378.564 210.675 378.198 208.989 377.827L208.944 378.302C207.257 377.931 205.578 377.557 203.907 377.178L203.956 376.705C202.239 376.317 200.531 375.924 198.831 375.527L198.778 376C197.06 375.599 195.352 375.194 193.652 374.785L193.709 374.314C192.011 373.905 190.321 373.492 188.64 373.075L188.579 373.546C186.897 373.129 185.224 372.708 183.56 372.283L183.625 371.813C181.914 371.376 180.212 370.934 178.52 370.488L178.451 370.957C176.739 370.506 175.037 370.05 173.345 369.591L173.418 369.123C171.728 368.664 170.047 368.2 168.376 367.732L168.299 368.198C166.626 367.73 164.965 367.257 163.313 366.78L163.395 366.315C161.684 365.821 159.984 365.323 158.295 364.819L158.208 365.283C156.507 364.776 154.818 364.265 153.14 363.749L153.232 363.287C151.555 362.771 149.89 362.251 148.237 361.727L148.14 362.187C146.473 361.658 144.818 361.125 143.174 360.587L143.277 360.128C141.572 359.57 139.88 359.007 138.201 358.439L138.093 358.896C136.412 358.327 134.743 357.754 133.088 357.176L133.202 356.721C131.548 356.143 129.908 355.56 128.281 354.973L128.161 355.426C126.484 354.82 124.821 354.209 123.171 353.594L123.297 353.143C121.619 352.517 119.957 351.885 118.308 351.248L118.176 351.696C116.526 351.059 114.891 350.416 113.27 349.767L113.409 349.322C111.771 348.667 110.149 348.007 108.543 347.341L108.397 347.784C106.725 347.091 105.071 346.393 103.433 345.689L103.586 345.25C101.95 344.547 100.331 343.838 98.7298 343.124L98.5693 343.561C96.9639 342.845 95.3756 342.123 93.8046 341.396L93.973 340.964C92.3218 340.2 90.6897 339.429 89.0771 338.653L88.9003 339.081C87.2848 338.304 85.6886 337.519 84.1121 336.729L84.2977 336.305C82.7242 335.516 81.1702 334.722 79.6362 333.921L79.4414 334.34C77.8217 333.495 76.2239 332.643 74.6484 331.784L74.8529 331.369C73.2777 330.511 71.7248 329.645 70.1946 328.773L69.9798 329.182C68.4398 328.304 66.9226 327.42 65.4285 326.529L65.6538 326.126C64.0842 325.19 62.5402 324.247 61.0222 323.297L60.7853 323.692C59.2634 322.739 57.7674 321.779 56.2976 320.812L56.5465 320.424C55.0519 319.44 53.5846 318.449 52.145 317.45L51.8836 317.83C50.3854 316.791 48.9169 315.743 47.4786 314.688L47.7535 314.319C46.3197 313.267 44.916 312.208 43.5429 311.14L43.2542 311.5C41.8169 310.383 40.4128 309.257 39.0422 308.123L39.3458 307.776C37.962 306.631 36.6128 305.477 35.2985 304.316L34.9795 304.65C33.6378 303.464 32.3322 302.269 31.0632 301.065L31.3983 300.746C30.0885 299.504 28.8182 298.252 27.5876 296.992L27.2358 297.295C25.9996 296.029 24.8032 294.753 23.6472 293.469L24.016 293.184C22.8111 291.845 21.6503 290.496 20.5344 289.138L20.1478 289.402C19.0256 288.036 17.9484 286.66 16.9166 285.275L17.3208 285.033C16.2644 283.614 15.2561 282.186 14.2966 280.747L13.8748 280.964C12.9017 279.505 11.9783 278.036 11.1052 276.557L11.5439 276.367C10.6626 274.874 9.83308 273.37 9.05587 271.856L8.60108 272.017C7.81222 270.481 7.07681 268.934 6.39559 267.377L6.86507 267.247C6.18575 265.694 5.56072 264.131 4.99069 262.558L4.5083 262.655C3.93255 261.066 3.41247 259.466 2.9488 257.857L3.44201 257.793C3.21179 256.993 2.99557 256.191 2.79344 255.387C2.59129 254.583 2.40383 253.778 2.23095 252.973L1.72925 253.004C1.38112 251.383 1.09178 249.762 0.860614 248.14L1.36835 248.143C1.13948 246.537 0.968029 244.931 0.853393 243.325L0.342106 243.288C0.22715 241.677 0.168956 240.066 0.166924 238.455L0.679388 238.524C0.677385 236.937 0.730255 235.349 0.837451 233.762L0.326 233.663C0.432208 232.09 0.591395 230.518 0.803 228.947L1.31154 229.075C1.5202 227.526 1.78017 225.977 2.09095 224.428L1.58693 224.273C1.89048 222.761 2.24218 221.249 2.64151 219.739L3.1398 219.919C3.53692 218.417 3.98149 216.916 4.47303 215.416L3.98154 215.213C4.45312 213.774 4.96764 212.336 5.52467 210.899L6.00885 211.123C6.56334 209.693 7.16023 208.264 7.79912 206.837L7.32286 206.595C7.94188 205.212 8.60007 203.831 9.29704 202.451L9.76524 202.71C10.448 201.359 11.1681 200.009 11.9254 198.661L11.4654 198.386C12.2154 197.051 13.0016 195.717 13.8236 194.386L14.2752 194.675C15.0605 193.403 15.8786 192.132 16.7294 190.864L16.2858 190.562C17.1392 189.29 18.0252 188.019 18.9435 186.75L19.3789 187.064C20.2613 185.845 21.1736 184.628 22.1157 183.412L21.688 183.089C22.6144 181.894 23.5693 180.701 24.5525 179.51L24.9726 179.843C25.9532 178.656 26.9622 177.47 27.9993 176.287L27.5867 175.945C28.5739 174.818 29.5863 173.694 30.6237 172.571L31.0292 172.921C32.06 171.806 33.1156 170.693 34.1959 169.582L33.7974 169.225C34.8779 168.114 35.9828 167.005 37.1121 165.898L37.5037 166.262C38.5732 165.214 39.6646 164.168 40.7777 163.125L40.3924 162.755C41.5076 161.709 42.6444 160.665 43.8028 159.624L44.1819 160C45.3381 158.961 46.516 157.924 47.7151 156.889L47.3422 156.507C48.4831 155.523 49.6432 154.541 50.8224 153.56L51.1896 153.947C52.366 152.969 53.5614 151.993 54.7757 151.02L54.4141 150.629C55.6302 149.654 56.8652 148.682 58.1189 147.711L58.475 148.107C59.6801 147.174 60.9024 146.244 62.142 145.316L61.7911 144.917C63.018 143.998 64.2617 143.082 65.522 142.168L65.8678 142.57C67.1265 141.658 68.4018 140.747 69.6936 139.839L69.3527 139.432C70.6228 138.539 71.9089 137.649 73.2108 136.76L73.5469 137.17C74.8099 136.308 76.0878 135.448 77.3805 134.591L77.0489 134.178C78.3431 133.32 79.6521 132.464 80.9757 131.61L81.3028 132.025C82.625 131.172 83.9618 130.322 85.3131 129.474L84.9903 129.055C86.293 128.238 87.6092 127.422 88.9388 126.609L89.2574 127.03C90.5764 126.223 91.9086 125.418 93.2538 124.616L92.9392 124.193C94.2858 123.39 95.6455 122.589 97.0181 121.79L97.3287 122.216C98.692 121.423 100.068 120.632 101.457 119.844L101.15 119.416C102.491 118.655 103.843 117.896 105.207 117.139L105.511 117.569C106.873 116.813 108.248 116.059 109.635 115.308L109.335 114.876C110.723 114.124 112.122 113.374 113.533 112.626L113.828 113.06C115.223 112.321 116.628 111.585 118.045 110.851L117.753 110.415C119.131 109.701 120.519 108.989 121.918 108.279L122.207 108.717C123.605 108.008 125.013 107.301 126.432 106.596L126.146 106.157C127.566 105.452 128.996 104.749 130.436 104.049L130.719 104.489C132.145 103.796 133.581 103.105 135.027 102.416L134.748 101.974C136.155 101.303 137.572 100.635 138.999 99.9688L139.275 100.412C140.7 99.7467 142.135 99.0832 143.58 98.4221L143.306 97.9771C144.752 97.3154 146.206 96.656 147.67 95.9989L147.94 96.4453C149.399 95.7905 150.867 95.138 152.344 94.4879L152.077 94.0402C153.508 93.4101 154.948 92.7822 156.397 92.1564L156.661 92.6052C158.109 91.9799 159.565 91.3567 161.03 90.7358L160.768 90.2858C162.234 89.6645 163.708 89.0454 165.19 88.4286L165.449 88.8797C166.931 88.2633 168.421 87.6491 169.919 87.0372L169.662 86.5849C171.125 85.9877 172.595 85.3927 174.073 84.7999L174.326 85.2532C175.792 84.6654 177.265 84.0797 178.746 83.4963L178.495 83.0419C179.977 82.4582 181.467 81.8766 182.964 81.2972L183.213 81.7526C184.709 81.1735 186.213 80.5967 187.724 80.0222L187.478 79.5659C188.977 78.9963 190.483 78.4289 191.996 77.8637L192.24 78.321C193.72 77.7682 195.207 77.2175 196.702 76.6691L196.46 76.211C197.955 75.6622 199.458 75.1157 200.967 74.5713L201.206 75.0303C202.714 74.4862 204.229 73.9444 205.751 73.4048L205.514 72.945C207.037 72.4051 208.567 71.8675 210.103 71.3321L210.338 71.7927C211.843 71.2681 213.355 70.7457 214.874 70.2255L214.642 69.7641C216.148 69.2482 217.66 68.7345 219.179 68.223L219.408 68.6852C220.926 68.1739 222.451 67.6648 223.981 67.1579L223.754 66.695C225.285 66.1879 226.822 65.683 228.366 65.1803L228.592 65.6439C230.135 65.1415 231.684 64.6413 233.24 64.1433L233.016 63.679C234.533 63.1935 236.056 62.7101 237.584 62.2289L237.805 62.6939C239.331 62.2135 240.863 61.7352 242.4 61.2591L242.181 60.7935C243.72 60.3172 245.264 59.8431 246.813 59.3712L247.03 59.8375C248.579 59.3658 250.134 58.8963 251.695 58.4291L251.48 57.9622C253.037 57.4958 254.6 57.0316 256.169 56.5697L256.382 57.0372C257.915 56.5859 259.453 56.1368 260.996 55.6898L260.785 55.2217C262.329 54.7745 263.879 54.3295 265.433 53.8867L265.642 54.3553C267.196 53.9127 268.755 53.4723 270.32 53.034L270.113 52.5649C271.678 52.1264 273.248 51.6902 274.823 51.2562L275.028 51.726C276.6 51.2932 278.176 50.8626 279.757 50.4343L279.554 49.964C281.103 49.5445 282.657 49.1271 284.216 48.7118L284.417 49.1826C285.975 48.7675 287.538 48.3546 289.105 47.9439L288.906 47.4726C290.474 47.0617 292.048 46.653 293.626 46.2466L293.823 46.7183C295.4 46.312 296.983 45.9078 298.569 45.5059L298.374 45.0337C299.961 44.6317 301.553 44.2318 303.15 43.8342L303.344 44.3069C304.906 43.918 306.472 43.5312 308.043 43.1466L307.851 42.6735C309.423 42.2889 310.998 41.9064 312.578 41.526L312.769 41.9996C314.348 41.6194 315.932 41.2414 317.52 40.8657L317.332 40.3917C318.921 40.0157 320.514 39.642 322.112 39.2705L322.298 39.7449C323.895 39.3736 325.497 39.0044 327.102 38.6375L326.917 38.1627C328.499 37.8013 330.084 37.4422 331.674 37.0852L331.857 37.5604C333.438 37.2052 335.024 36.8522 336.613 36.5014L336.432 36.0258C338.022 35.6749 339.617 35.3261 341.215 34.9796L341.394 35.4556C342.992 35.1091 344.594 34.7649 346.2 34.4229L346.022 33.9465C347.628 33.6044 349.238 33.2645 350.852 32.9268L351.029 33.4035C352.629 33.0687 354.233 32.7362 355.841 32.4058L355.667 31.9287C357.258 31.6018 358.853 31.277 360.452 30.9544L360.625 31.4318C362.224 31.1093 363.826 30.789 365.432 30.4709L365.26 29.9931C366.867 29.6749 368.477 29.3589 370.091 29.0451L370.26 29.5231C371.873 29.2094 373.49 28.898 375.111 28.5887L374.943 28.1103C376.564 27.801 378.188 27.4939 379.817 27.1891L379.983 27.6678C381.582 27.3683 383.185 27.0711 384.791 26.776L384.626 26.297C386.233 26.0018 387.843 25.7088 389.457 25.418L389.62 25.8973C391.233 25.6066 392.849 25.3181 394.469 25.0318L394.308 24.5523C395.928 24.2659 397.552 23.9817 399.179 23.6998L399.339 24.1797C400.965 23.8978 402.595 23.6183 404.228 23.3409L404.07 22.8608C405.691 22.5855 407.315 22.3124 408.943 22.0415L409.1 22.5219C410.713 22.2535 412.329 21.9872 413.948 21.7232L413.793 21.2425C415.413 20.9784 417.037 20.7165 418.663 20.4567L418.816 20.9377C420.442 20.678 422.071 20.4206 423.702 20.1654L423.551 19.6843C425.183 19.429 426.819 19.176 428.457 18.9252L428.607 19.4066C430.245 19.1559 431.886 18.9075 433.531 18.6613L433.382 18.1796C435.005 17.9365 436.632 17.6956 438.261 17.457L438.408 17.9389C440.033 17.7008 441.661 17.4649 443.292 17.2313L443.147 16.7492C444.778 16.5155 446.413 16.284 448.05 16.0547L448.194 16.5371C449.831 16.3079 451.47 16.0809 453.113 15.8562L452.97 15.3737C454.613 15.1489 456.259 14.9264 457.907 14.7062L458.048 15.1889C459.693 14.9692 461.34 14.7517 462.99 14.5365L462.851 14.0536C464.482 13.8409 466.116 13.6304 467.752 13.4221L467.89 13.9053C469.526 13.6971 471.164 13.4911 472.805 13.2874L472.669 12.804C474.311 12.6002 475.955 12.3987 477.602 12.1994L477.736 12.6829C479.383 12.4837 481.032 12.2867 482.683 12.092L482.55 11.6083C484.202 11.4135 485.857 11.221 487.514 11.0308L487.646 11.5147C489.295 11.3254 490.946 11.1384 492.6 10.9537L492.47 10.4696C494.111 10.2863 495.754 10.1053 497.4 9.92649L497.528 10.4107C499.174 10.232 500.821 10.0555 502.471 9.88127L502.344 9.39688C503.995 9.2226 505.648 9.05059 507.303 8.88086L507.429 9.36541C509.084 9.19572 510.741 9.02832 512.4 8.8632L512.276 8.3785C513.936 8.21333 515.599 8.05045 517.264 7.88987L517.386 8.37472C518.218 8.29446 519.051 8.21477 519.884 8.13566C520.718 8.05654 521.551 7.97808 522.383 7.90028L522.262 7.41529C523.928 7.25964 525.593 7.10662 527.257 6.95622L527.377 7.44135C529.04 7.29099 530.702 7.14326 532.363 6.99812L532.245 6.51286C533.906 6.36768 535.567 6.22512 537.226 6.08516L537.342 6.57056C539.001 6.43063 540.659 6.29332 542.315 6.15859L542.2 5.67307C543.857 5.53831 545.512 5.40614 547.167 5.27656L547.28 5.76221C548.948 5.63159 550.614 5.50361 552.279 5.37825L552.167 4.89249C553.841 4.7665 555.513 4.64317 557.183 4.52248L557.294 5.00835C558.964 4.8877 560.633 4.76968 562.3 4.6543L562.191 4.16831C563.859 4.05289 565.526 3.9401 567.191 3.82994L567.298 4.31603C568.963 4.20591 570.626 4.0984 572.288 3.99352L572.182 3.50733C573.844 3.40241 575.505 3.30011 577.165 3.20043L577.269 3.68671C578.948 3.58586 580.625 3.48768 582.301 3.39216L582.198 2.90578C583.878 2.81004 585.556 2.71696 587.233 2.62656L587.334 3.11303C589.01 3.02266 590.685 2.93495 592.358 2.84991L592.258 2.36336C593.932 2.27829 595.603 2.19589 597.274 2.11613L597.371 2.60276C599.041 2.52303 600.709 2.44594 602.375 2.37151L602.279 1.88481C603.95 1.81018 605.619 1.73822 607.286 1.6689L607.38 2.15568C609.069 2.08547 610.755 2.018 612.44 1.95322L612.347 1.46638C614.032 1.40159 615.716 1.33951 617.397 1.28013L617.489 1.76703C619.17 1.70766 620.849 1.651 622.526 1.59703L622.437 1.11008C624.115 1.0561 625.791 1.0048 627.465 0.956194L627.553 1.44319C629.227 1.3946 630.898 1.3487 632.568 1.30547L632.481 0.818426C634.166 0.774808 635.849 0.733908 637.529 0.695725L637.614 1.18282C639.307 1.14435 640.999 1.10864 642.688 1.07568L642.604 0.588558C644.294 0.555586 645.982 0.525364 647.667 0.497881L647.749 0.985029C649.434 0.957552 651.116 0.932819 652.797 0.910818L652.717 0.423641C654.398 0.40163 656.077 0.382352 657.754 0.365793L657.832 0.852988C659.508 0.836436 661.182 0.822608 662.854 0.811488L662.777 0.324281C664.479 0.312966 666.179 0.304457 667.876 0.298754L667.951 0.785972C669.647 0.780267 671.342 0.777367 673.034 0.777259L672.961 0.290038C674.653 0.289929 676.344 0.292612 678.031 0.298083L678.103 0.785298C679.79 0.790769 681.475 0.799018 683.157 0.81004L683.087 0.322833C684.77 0.333858 686.45 0.347669 688.128 0.364236L688.196 0.851425C689.891 0.86817 691.584 0.887736 693.274 0.910118L693.208 0.422944C694.913 0.44552 696.615 0.470956 698.314 0.499252L698.378 0.986398C700.077 1.01468 701.773 1.04582 703.467 1.0798L703.404 0.592684C705.098 0.626674 706.789 0.663516 708.478 0.703184L708.538 1.19025C710.226 1.22991 711.911 1.27239 713.593 1.31771L713.534 0.830684C715.225 0.87623 716.913 0.924618 718.598 0.975858L718.655 1.46284C720.365 1.51486 722.073 1.56982 723.778 1.6277L723.723 1.14079C725.429 1.19869 727.131 1.25952 728.831 1.32325L728.884 1.81009C730.582 1.8738 732.278 1.94042 733.971 2.00995L733.919 1.52317C735.613 1.59272 737.303 1.66518 738.989 1.74051L739.039 2.2272C740.725 2.30253 742.409 2.38074 744.089 2.46185L744.041 1.97525C745.759 2.05816 747.473 2.14408 749.184 2.233L749.229 2.71949C750.939 2.80837 752.646 2.90025 754.349 2.99512L754.306 2.50873C756.01 2.60364 757.711 2.70153 759.408 2.80239L759.449 3.28867C761.145 3.3895 762.838 3.4933 764.527 3.60007L764.488 3.11392C766.178 3.22073 767.864 3.33051 769.547 3.44324L769.584 3.92925C771.302 4.04434 773.016 4.16252 774.726 4.28376L774.691 3.79789C776.406 3.91946 778.118 4.04413 779.825 4.17186L779.858 4.65758C781.565 4.78526 783.267 4.91601 784.966 5.04982L784.935 4.56427C786.635 4.69814 788.33 4.83507 790.022 4.97505L790.05 5.46043C791.741 5.60035 793.428 5.74331 795.111 5.88931L795.084 5.40412C796.807 5.55357 798.525 5.70619 800.239 5.86198L800.263 6.34698C801.98 6.50305 803.693 6.6623 805.401 6.82473L805.38 6.33994C807.089 6.50244 808.793 6.6681 810.494 6.83692L810.513 7.32148C812.213 7.49022 813.908 7.66212 815.599 7.83716L815.581 7.35283C817.275 7.52815 818.964 7.70662 820.648 7.88823L820.663 8.37231C822.391 8.55857 824.113 8.74812 825.831 8.94096L825.818 8.45715C827.537 8.65008 829.251 8.84631 830.96 9.04581L830.97 9.52934C832.678 9.72874 834.381 9.93142 836.079 10.1374L836.072 9.65412C837.77 9.86016 839.464 10.0695 841.153 10.282L841.159 10.7649C842.862 10.9793 844.56 11.1969 846.253 11.4178L846.25 10.9352C847.978 11.1607 849.7 11.3896 851.417 11.6219L851.417 12.1041C853.133 12.3363 854.844 12.5719 856.549 12.8109L856.551 12.329C858.257 12.5681 859.957 12.8106 861.652 13.0565L861.647 13.538C863.341 13.7838 865.029 14.0329 866.712 14.2854L866.72 13.8043C868.44 14.0624 870.154 14.3241 871.863 14.5892L871.852 15.0699C873.575 15.3374 875.292 15.6084 877.003 15.8829L877.017 15.4027C878.728 15.6773 880.434 15.9556 882.133 16.2373L882.117 16.7171C883.815 16.9987 885.507 17.2838 887.193 17.5724L887.213 17.0932C888.913 17.3842 890.607 17.6789 892.294 17.977L892.271 18.4558C894 18.7613 895.722 19.0706 897.437 19.3835L897.463 18.9053C899.179 19.2185 900.888 19.5354 902.59 19.8559L902.561 20.3335C904.263 20.6539 905.957 20.9779 907.644 21.3056L907.676 20.8287C909.364 21.1566 911.046 21.4882 912.72 21.8235L912.684 22.2998C914.412 22.6458 916.131 22.9956 917.844 23.3493L917.882 22.8737C919.6 23.2287 921.311 23.5875 923.014 23.9503L922.972 24.4252C924.673 24.7878 926.367 25.1542 928.053 25.5244L928.098 25.0503C929.785 25.4208 931.464 25.7952 933.135 26.1734L933.086 26.6467C934.803 27.0353 936.511 27.428 938.211 27.8246L938.264 27.3522C939.981 27.7529 941.69 28.1577 943.39 28.5667L943.333 29.0383C945.031 29.4469 946.721 29.8596 948.402 30.2764L948.462 29.8058C950.144 30.2229 951.818 30.6441 953.482 31.0694L953.417 31.5389C955.128 31.9762 956.83 32.4178 958.522 32.8636L958.591 32.3951C960.303 32.8462 962.005 33.3016 963.697 33.7613L963.624 34.2287C965.314 34.688 966.995 35.1517 968.665 35.6196L968.743 35.1536C970.415 35.6219 972.077 36.0946 973.729 36.5716L973.647 37.0364C975.358 37.5305 977.058 38.0292 978.747 38.5325L978.834 38.0691C980.535 38.5758 982.224 39.0871 983.902 39.6031L983.81 40.065C985.487 40.5804 987.152 41.1004 988.805 41.625L988.902 41.1647C990.569 41.6934 992.224 42.2269 993.868 42.7649L993.765 43.2235C995.47 43.7816 997.162 44.3447 998.841 44.9126L998.949 44.4558C1000.63 45.0244 1002.3 45.5979 1003.95 46.1763L1003.84 46.6312C1005.49 47.209 1007.13 47.7916 1008.76 48.3791L1008.88 47.9263C1010.56 48.5318 1012.22 49.1425 1013.87 49.7584L1013.75 50.2089C1015.42 50.8352 1017.09 51.4668 1018.73 52.1037L1018.87 51.6556C1020.52 52.2933 1022.15 52.9363 1023.77 53.5845L1023.63 54.03C1025.27 54.6849 1026.89 55.3452 1028.5 56.0108L1028.64 55.5681C1030.32 56.2605 1031.97 56.9587 1033.61 57.6626L1033.46 58.1021C1035.09 58.8049 1036.71 59.5134 1038.31 60.2275L1038.47 59.7912C1040.08 60.507 1041.67 61.2285 1043.24 61.9555L1043.07 62.3882C1044.72 63.1524 1046.35 63.9227 1047.96 64.6992L1048.14 64.2705C1049.76 65.0484 1051.35 65.8324 1052.93 66.6226L1052.74 67.0469C1054.32 67.8356 1055.87 68.6304 1057.41 69.4311L1057.6 69.0114C1059.22 69.8569 1060.82 70.7092 1062.39 71.5681L1062.19 71.9826C1063.76 72.8413 1065.32 73.7068 1066.85 74.5788L1067.06 74.17C1068.6 75.0477 1070.12 75.932 1071.61 76.823L1071.39 77.2255C1072.96 78.1615 1074.5 79.1048 1076.02 80.0553L1076.26 79.6597C1077.78 80.6126 1079.27 81.5728 1080.74 82.5402L1080.5 82.9281C1081.99 83.9119 1083.46 84.9031 1084.9 85.9016L1085.16 85.5222C1086.66 86.5613 1088.12 87.6084 1089.56 88.6634L1089.29 89.0332C1090.72 90.0849 1092.13 91.1444 1093.5 92.2115L1093.79 91.8522C1095.22 92.9692 1096.63 94.0948 1098 95.2288L1097.7 95.5762C1099.08 96.7211 1100.43 97.8745 1101.74 99.0363L1102.06 98.7021C1103.4 99.8881 1104.71 101.083 1105.98 102.287L1105.64 102.606C1106.95 103.848 1108.22 105.1 1109.45 106.36L1109.81 106.057C1111.04 107.323 1112.24 108.599 1113.39 109.883L1113.03 110.168C1114.23 111.507 1115.39 112.856 1116.51 114.214L1116.89 113.95C1118.02 115.316 1119.09 116.692 1120.13 118.077L1119.72 118.319C1120.78 119.737 1121.79 121.166 1122.75 122.605L1123.17 122.388C1124.14 123.847 1125.06 125.316 1125.94 126.795L1125.5 126.985C1126.38 128.478 1127.21 129.982 1127.99 131.495L1128.44 131.335C1129.23 132.871 1129.97 134.418 1130.65 135.975L1130.18 136.105C1130.86 137.658 1131.48 139.221 1132.05 140.794L1132.53 140.697Z" stroke="#E41E0A" stroke-dasharray="5 5"/>
</svg>
