<svg width="816" height="394" viewBox="0 0 816 394" fill="none" xmlns="http://www.w3.org/2000/svg">
<path d="M814.544 294.17C814.296 295.831 813.992 297.484 813.629 299.127L813.141 299.02C812.961 299.836 812.766 300.65 812.557 301.461C812.348 302.273 812.125 303.08 811.888 303.881L812.367 304.023C811.891 305.637 811.359 307.231 810.772 308.805L810.304 308.63C809.722 310.191 809.086 311.732 808.397 313.253L808.853 313.459C808.16 314.989 807.413 316.499 806.614 317.988L806.173 317.752C805.39 319.211 804.556 320.651 803.672 322.07L804.096 322.335C803.211 323.756 802.276 325.158 801.292 326.54L800.885 326.25C799.926 327.596 798.92 328.924 797.868 330.232L798.258 330.545C797.212 331.846 796.12 333.128 794.985 334.391L794.613 334.056C793.507 335.286 792.358 336.498 791.168 337.691L791.522 338.044C790.346 339.223 789.13 340.384 787.874 341.527L787.538 341.158C786.313 342.272 785.051 343.37 783.751 344.45L784.07 344.835C782.791 345.898 781.476 346.944 780.125 347.974L779.822 347.577C778.506 348.581 777.155 349.569 775.771 350.542L776.059 350.951C774.696 351.908 773.302 352.851 771.875 353.778L771.603 353.358C770.217 354.259 768.8 355.145 767.354 356.017L767.612 356.445C766.18 357.309 764.72 358.158 763.23 358.992L762.986 358.556C761.548 359.362 760.084 360.154 758.593 360.933L758.824 361.376C757.332 362.156 755.814 362.922 754.27 363.674L754.051 363.225C752.577 363.944 751.078 364.65 749.556 365.345L749.764 365.799C748.238 366.495 746.689 367.179 745.117 367.85L744.921 367.39C743.4 368.039 741.858 368.677 740.294 369.303L740.48 369.767C738.934 370.386 737.367 370.993 735.78 371.588L735.605 371.12C734.037 371.709 732.449 372.286 730.842 372.852L731.008 373.323C729.45 373.872 727.873 374.41 726.278 374.938L726.121 374.463C724.529 374.989 722.919 375.505 721.291 376.01L721.439 376.488C719.853 376.98 718.25 377.462 716.631 377.934L716.491 377.454C714.896 377.918 713.284 378.373 711.657 378.818L711.789 379.301C710.16 379.746 708.514 380.182 706.853 380.608L706.729 380.123C705.134 380.532 703.525 380.931 701.902 381.322L702.019 381.808C700.393 382.199 698.753 382.58 697.1 382.953L696.99 382.465C695.352 382.834 693.7 383.193 692.035 383.544L692.138 384.033C690.519 384.374 688.886 384.706 687.242 385.03L687.145 384.539C685.502 384.862 683.847 385.177 682.179 385.483L682.27 385.974C680.62 386.277 678.958 386.571 677.284 386.857L677.199 386.364C675.567 386.642 673.923 386.913 672.267 387.175L672.346 387.669C670.688 387.932 669.02 388.186 667.341 388.433L667.268 387.938C665.61 388.181 663.941 388.417 662.261 388.644L662.328 389.14C660.684 389.362 659.029 389.577 657.365 389.784L657.303 389.288C655.64 389.495 653.967 389.695 652.285 389.886L652.341 390.383C650.67 390.573 648.99 390.756 647.3 390.932L647.248 390.434C645.6 390.605 643.942 390.769 642.276 390.925L642.323 391.423C640.655 391.58 638.978 391.729 637.292 391.871L637.25 391.373C635.569 391.515 633.879 391.649 632.18 391.776L632.218 392.275C630.565 392.399 628.905 392.516 627.236 392.626L627.203 392.127C625.536 392.237 623.861 392.34 622.178 392.436L622.207 392.935C620.523 393.031 618.83 393.121 617.13 393.203L617.106 392.704C615.444 392.784 613.775 392.858 612.098 392.925L612.118 393.425C610.451 393.492 608.777 393.552 607.096 393.606L607.08 393.106C605.4 393.16 603.713 393.207 602.02 393.248L602.032 393.748C600.354 393.788 598.669 393.822 596.977 393.849L596.969 393.349C595.307 393.376 593.638 393.397 591.963 393.411L591.967 393.911C590.291 393.925 588.608 393.933 586.919 393.935L586.919 393.435C585.231 393.437 583.537 393.432 581.837 393.422L581.834 393.922C580.17 393.911 578.501 393.895 576.826 393.872L576.833 393.372C575.164 393.349 573.489 393.321 571.808 393.286L571.798 393.786C570.116 393.752 568.428 393.711 566.735 393.664L566.749 393.164C565.07 393.118 563.386 393.066 561.696 393.008L561.679 393.508C560.015 393.45 558.346 393.387 556.671 393.318L556.692 392.819C555.019 392.75 553.34 392.675 551.657 392.595L551.633 393.095C549.949 393.014 548.26 392.928 546.566 392.836L546.593 392.337C544.925 392.246 543.252 392.15 541.575 392.048L541.544 392.547C539.878 392.446 538.207 392.339 536.532 392.227L536.565 391.728C534.891 391.615 533.212 391.498 531.529 391.374L531.493 391.873C529.809 391.749 528.12 391.62 526.427 391.485L526.467 390.987C524.808 390.855 523.144 390.717 521.477 390.575L521.434 391.073C519.768 390.93 518.098 390.782 516.424 390.628L516.469 390.13C514.796 389.977 513.119 389.818 511.438 389.654L511.389 390.151C509.711 389.988 508.029 389.818 506.343 389.643L506.395 389.146C504.739 388.974 503.079 388.797 501.416 388.615L501.362 389.112C499.697 388.93 498.029 388.743 496.358 388.55L496.415 388.053C494.745 387.861 493.071 387.663 491.394 387.46L491.334 387.956C489.663 387.754 487.988 387.546 486.31 387.333L486.373 386.837C484.719 386.628 483.063 386.413 481.403 386.193L481.337 386.689C479.676 386.469 478.013 386.244 476.346 386.014L476.414 385.518C474.748 385.288 473.079 385.053 471.407 384.813L471.336 385.308C469.67 385.069 468.002 384.824 466.33 384.575L466.404 384.081C464.754 383.834 463.102 383.583 461.447 383.327L461.37 383.821C459.714 383.565 458.055 383.304 456.394 383.038L456.473 382.544C454.812 382.278 453.149 382.007 451.483 381.732L451.401 382.225C449.741 381.95 448.078 381.67 446.412 381.385L446.496 380.892C444.852 380.611 443.205 380.325 441.555 380.034L441.468 380.526C439.818 380.235 438.165 379.939 436.51 379.638L436.6 379.147C434.946 378.846 433.289 378.54 431.63 378.23L431.538 378.722C429.882 378.412 428.224 378.097 426.563 377.777L426.658 377.286C425.019 376.971 423.378 376.651 421.736 376.326L421.639 376.817C419.995 376.492 418.349 376.162 416.702 375.828L416.801 375.338C415.154 375.004 413.505 374.665 411.854 374.321L411.753 374.81C410.101 374.466 408.447 374.118 406.792 373.764L406.896 373.275C405.264 372.927 403.63 372.574 401.994 372.216L401.887 372.704C400.251 372.347 398.613 371.984 396.973 371.617L397.083 371.129C395.444 370.762 393.803 370.39 392.161 370.014L392.049 370.502C390.407 370.125 388.762 369.744 387.116 369.358L387.23 368.871C385.601 368.49 383.97 368.103 382.338 367.712L382.221 368.198C380.593 367.808 378.963 367.414 377.332 367.015L377.451 366.529C375.821 366.13 374.189 365.727 372.556 365.319L372.435 365.804C370.801 365.395 369.166 364.983 367.53 364.565L367.653 364.081C366.836 363.872 366.018 363.662 365.199 363.451C364.381 363.24 363.563 363.029 362.747 362.816L362.621 363.3C360.986 362.875 359.355 362.446 357.728 362.014L357.856 361.53C356.229 361.098 354.606 360.663 352.986 360.224L352.855 360.707C351.234 360.268 349.617 359.826 348.003 359.381L348.136 358.899C346.518 358.452 344.904 358.002 343.293 357.549L343.158 358.03C341.53 357.572 339.906 357.111 338.286 356.647L338.424 356.166C336.804 355.702 335.188 355.234 333.576 354.764L333.436 355.243C331.823 354.772 330.214 354.298 328.609 353.821L328.751 353.341C327.146 352.864 325.545 352.383 323.947 351.9L323.802 352.378C322.182 351.887 320.566 351.394 318.954 350.896L319.102 350.419C317.49 349.922 315.883 349.422 314.28 348.918L314.13 349.395C312.526 348.892 310.926 348.385 309.33 347.875L309.482 347.399C307.887 346.889 306.296 346.376 304.709 345.86L304.554 346.336C302.946 345.813 301.342 345.287 299.742 344.758L299.899 344.283C298.297 343.753 296.699 343.22 295.106 342.684L294.946 343.158C293.352 342.621 291.762 342.082 290.177 341.539L290.339 341.066C288.754 340.523 287.174 339.978 285.598 339.429L285.434 339.901C283.838 339.346 282.247 338.787 280.66 338.225L280.827 337.754C279.235 337.19 277.648 336.624 276.066 336.054L275.896 336.524C274.313 335.954 272.735 335.381 271.161 334.805L271.333 334.335C269.76 333.76 268.192 333.181 266.629 332.599L266.455 333.068C264.871 332.478 263.292 331.886 261.718 331.29L261.895 330.823C260.315 330.225 258.741 329.624 257.171 329.02L256.991 329.487C255.421 328.882 253.855 328.275 252.295 327.665L252.477 327.2C250.918 326.59 249.364 325.977 247.815 325.362L247.63 325.826C246.058 325.201 244.492 324.574 242.931 323.943L243.118 323.48C241.552 322.847 239.991 322.211 238.435 321.572L238.245 322.035C236.689 321.396 235.138 320.754 233.593 320.109L233.786 319.648C232.242 319.003 230.703 318.356 229.171 317.706L228.975 318.166C227.415 317.505 225.861 316.84 224.312 316.172L224.51 315.713C222.959 315.045 221.414 314.373 219.875 313.699L219.675 314.157C218.135 313.482 216.601 312.805 215.073 312.124L215.277 311.668C213.748 310.987 212.225 310.303 210.709 309.617L210.503 310.072C208.956 309.372 207.415 308.669 205.881 307.963L206.09 307.509C204.557 306.804 203.03 306.096 201.51 305.385L201.298 305.838C199.777 305.126 198.263 304.412 196.755 303.696L196.97 303.244C195.452 302.523 193.941 301.798 192.437 301.072L192.22 301.522C190.692 300.783 189.171 300.043 187.658 299.299L187.879 298.85C186.366 298.107 184.861 297.361 183.363 296.613L183.139 297.06C181.64 296.311 180.149 295.56 178.664 294.806L178.891 294.36C177.383 293.594 175.884 292.826 174.391 292.055L174.162 292.499C172.657 291.722 171.16 290.942 169.671 290.159L169.904 289.716C168.416 288.934 166.935 288.15 165.463 287.363L165.227 287.804C163.75 287.014 162.281 286.222 160.819 285.427L161.058 284.988C159.565 284.176 158.079 283.361 156.603 282.544L156.361 282.981C154.883 282.164 153.414 281.343 151.953 280.521L152.199 280.085C150.739 279.263 149.288 278.438 147.846 277.611L147.597 278.045C146.129 277.204 144.671 276.36 143.221 275.513L143.473 275.082C142.01 274.227 140.556 273.371 139.111 272.512L138.856 272.942C137.41 272.082 135.974 271.22 134.547 270.356L134.806 269.928C133.371 269.059 131.945 268.188 130.529 267.314L130.266 267.739C128.818 266.845 127.379 265.949 125.951 265.051L126.217 264.628C124.791 263.73 123.374 262.831 121.968 261.929L121.698 262.35C120.29 261.447 118.893 260.542 117.506 259.635L117.78 259.217C116.354 258.284 114.94 257.35 113.537 256.413L113.259 256.829C111.852 255.89 110.456 254.949 109.071 254.006L109.353 253.592C107.97 252.65 106.598 251.706 105.237 250.759L104.952 251.17C103.557 250.2 102.174 249.227 100.803 248.253L101.093 247.846C99.7125 246.864 98.3444 245.881 96.9887 244.896L96.6949 245.301C95.3378 244.315 93.9932 243.327 92.6611 242.338L92.9593 241.936C91.5988 240.925 90.2514 239.913 88.9174 238.899L88.6148 239.297C87.2636 238.269 85.9259 237.24 84.6021 236.209L84.9093 235.815C83.5869 234.785 82.2783 233.753 80.9836 232.721L80.6718 233.111C79.3444 232.052 78.0314 230.992 76.7332 229.929L77.0499 229.542C75.7377 228.468 74.4406 227.393 73.1587 226.316L72.8371 226.699C71.5535 225.621 70.2852 224.541 69.0322 223.46L69.3588 223.082C68.0703 221.97 66.7982 220.857 65.5425 219.742L65.2106 220.116C63.9426 218.991 62.6914 217.864 61.4571 216.737L61.7944 216.368C60.5619 215.241 59.3463 214.114 58.1479 212.986L57.8051 213.35C56.5567 212.174 55.3268 210.997 54.1156 209.82L54.4642 209.461C53.2547 208.285 52.0639 207.108 50.8921 205.931L50.5377 206.283C49.3479 205.087 48.1775 203.891 47.0268 202.693L47.3873 202.347C46.2062 201.118 45.046 199.888 43.9067 198.658L43.5399 198.998C42.3985 197.765 41.2781 196.532 40.1789 195.298L40.5522 194.966C39.4186 193.694 38.3077 192.421 37.2198 191.148L36.8397 191.473C35.7383 190.185 34.6603 188.896 33.6059 187.607L33.9929 187.291C32.9264 185.987 31.8842 184.683 30.8665 183.38L30.4724 183.688C29.4207 182.341 28.395 180.994 27.3957 179.647L27.7972 179.349C26.8004 178.006 25.83 176.663 24.8863 175.321L24.4773 175.608C23.4894 174.203 22.5307 172.799 21.6013 171.396L22.0182 171.12C21.0895 169.717 20.1904 168.316 19.3211 166.915L18.8963 167.179C17.9958 165.729 17.1272 164.28 16.2908 162.832L16.7237 162.582C15.8791 161.12 15.0675 159.659 14.2893 158.201L13.8481 158.436C13.0473 156.935 12.2817 155.436 11.5517 153.939L12.0011 153.72C11.2595 152.2 10.555 150.682 9.88777 149.167L9.43017 149.368C8.74558 147.814 8.10008 146.262 7.49413 144.713L7.95976 144.531C7.34379 142.956 6.76896 141.385 6.23574 139.818L5.76239 139.979C5.21534 138.371 4.7118 136.767 4.2523 135.167L4.73287 135.029C4.2675 133.409 3.8476 131.793 3.47369 130.182L2.98663 130.295C2.60267 128.64 2.26688 126.991 1.97985 125.347L2.47241 125.261C2.1837 123.607 1.94466 121.959 1.75588 120.316L1.25915 120.374C1.06539 118.688 0.924222 117.009 0.836287 115.337L1.3356 115.31C1.24779 113.64 1.21341 111.977 1.23311 110.321L0.733143 110.315C0.753241 108.625 0.829283 106.942 0.961963 105.268L1.4604 105.307C1.59224 103.643 1.78038 101.987 2.02548 100.339L1.53092 100.266C1.77803 98.6044 2.08266 96.9517 2.44551 95.308L2.93375 95.4158C3.11392 94.5996 3.30854 93.7857 3.5177 92.974C3.72685 92.1624 3.94983 91.3559 4.18654 90.5543L3.70701 90.4127C4.18375 88.7984 4.71581 87.2043 5.3023 85.6306L5.77082 85.8052C6.35255 84.2443 6.98826 82.7035 7.6771 81.1829L7.22165 80.9766C7.91487 79.4464 8.66149 77.9366 9.46066 76.4474L9.90123 76.6838C10.6843 75.2245 11.5183 73.7849 12.4024 72.3652L11.978 72.1009C12.8633 70.6791 13.7984 69.2773 14.7825 67.8956L15.1898 68.1856C16.1487 66.8393 17.1545 65.5119 18.2066 64.2036L17.8169 63.8902C18.8629 62.5895 19.954 61.3077 21.0897 60.045L21.4615 60.3793C22.5675 59.1496 23.7161 57.9378 24.9067 56.7441L24.5526 56.391C25.7282 55.2123 26.9443 54.0513 28.2003 52.9081L28.5369 53.2779C29.7611 52.1635 31.0236 51.066 32.3238 49.9854L32.0042 49.6008C33.2832 48.5378 34.5984 47.4911 35.949 46.461L36.2522 46.8586C37.5686 45.8547 38.919 44.8663 40.303 43.8937L40.0155 43.4846C41.378 42.527 42.7728 41.5848 44.1992 40.6578L44.4716 41.0771C45.8578 40.1764 47.2742 39.2901 48.7202 38.4183L48.4621 37.9901C49.8941 37.1268 51.3549 36.2779 52.8442 35.4433L53.0887 35.8795C54.5264 35.0738 55.9909 34.2815 57.4817 33.5025L57.2501 33.0594C58.742 32.2798 60.2601 31.5138 61.8039 30.7613L62.023 31.2107C63.4979 30.4918 64.9965 29.7852 66.5183 29.0909L66.3108 28.636C67.8365 27.9401 69.3854 27.2566 70.9572 26.5856L71.1535 27.0454C72.6743 26.3962 74.2168 25.7586 75.7805 25.1328L75.5947 24.6686C77.1407 24.0499 78.7073 23.4427 80.2942 22.8471L80.4699 23.3152C82.0375 22.7268 83.625 22.1496 85.2322 21.5837L85.0662 21.1121C86.6247 20.5634 88.2015 20.0253 89.7964 19.4979L89.9534 19.9727C91.5454 19.4462 93.1554 18.9304 94.7833 18.4253L94.6351 17.9478C96.2213 17.4556 97.8243 16.9736 99.4438 16.5017L99.5837 16.9818C101.179 16.517 102.79 16.0622 104.417 15.6172L104.285 15.1349C105.915 14.6893 107.56 14.2536 109.221 13.8279L109.345 14.3122C110.94 13.9036 112.549 13.5041 114.172 13.1138L114.055 12.6277C115.681 12.2368 117.321 11.8552 118.975 11.4829L119.085 11.9707C120.723 11.6019 122.374 11.2423 124.04 10.8918L123.937 10.4025C125.556 10.0617 127.188 9.72942 128.833 9.40585L128.929 9.89645C130.572 9.57329 132.227 9.25877 133.895 8.95291L133.805 8.46111C135.455 8.15851 137.117 7.86438 138.791 7.57876L138.875 8.07164C140.508 7.79306 142.152 7.52257 143.807 7.2602L143.729 6.76636C145.386 6.50369 147.054 6.24914 148.734 6.00275L148.806 6.49745C150.465 6.25418 152.134 6.01886 153.813 5.79152L153.746 5.29604C155.391 5.07346 157.045 4.85851 158.71 4.65124L158.771 5.14741C160.434 4.94035 162.107 4.74094 163.79 4.54921L163.733 4.05242C165.404 3.86203 167.085 3.6792 168.775 3.50395L168.826 4.00129C170.475 3.83037 172.132 3.66667 173.798 3.51021L173.752 3.0124C175.42 2.85579 177.097 2.70643 178.782 2.56435L178.824 3.06259C180.505 2.92088 182.195 2.7864 183.894 2.65918L183.857 2.16058C185.509 2.03682 187.17 1.91993 188.838 1.80992L188.871 2.30884C190.538 2.19892 192.213 2.09588 193.896 1.99973L193.867 1.50055C195.552 1.40432 197.244 1.31498 198.944 1.23257L198.968 1.73198C200.63 1.6514 202.3 1.57744 203.977 1.51012L203.957 1.01052C205.623 0.943592 207.297 0.88322 208.978 0.829412L208.994 1.32916C210.674 1.27539 212.361 1.22819 214.055 1.18757L214.043 0.687714C215.721 0.647466 217.406 0.613668 219.098 0.586341L219.106 1.08627C220.768 1.05943 222.437 1.03883 224.112 1.02449L224.107 0.524515C225.784 0.510172 227.466 0.502101 229.155 0.50032L229.156 1.00032C230.843 0.99854 232.537 1.00304 234.238 1.01384L234.241 0.513855C235.904 0.524424 237.573 0.541012 239.248 0.563644L239.241 1.0636C240.911 1.08615 242.586 1.11471 244.267 1.14929L244.277 0.649395C245.959 0.683997 247.646 0.724614 249.339 0.771274L249.326 1.27109C251.004 1.31735 252.689 1.36956 254.379 1.42772L254.396 0.928024C256.06 0.985301 257.729 1.04835 259.403 1.11718L259.383 1.61676C261.056 1.68554 262.734 1.76011 264.417 1.84047L264.441 1.34104C266.125 1.42145 267.815 1.50766 269.509 1.59968L269.482 2.09895C271.15 2.18955 272.822 2.28579 274.5 2.38768L274.53 1.8886C276.196 1.9898 277.867 2.09658 279.542 2.20894L279.509 2.70782C281.183 2.82011 282.862 2.93797 284.545 3.06144L284.582 2.56277C286.266 2.68631 287.954 2.81545 289.647 2.95019L289.608 3.44861C291.267 3.58067 292.93 3.71812 294.598 3.86098L294.64 3.3628C296.306 3.50554 297.977 3.65368 299.651 3.80722L299.605 4.30513C301.278 4.45858 302.956 4.61742 304.637 4.78168L304.685 4.28405C306.363 4.44803 308.045 4.61739 309.731 4.79216L309.679 5.28948C311.336 5.46117 312.995 5.63807 314.659 5.8202L314.713 5.32316C316.377 5.50539 318.045 5.69285 319.716 5.88555L319.659 6.38226C321.329 6.57485 323.003 6.77268 324.68 6.97576L324.741 6.47938C326.412 6.68173 328.086 6.88929 329.764 7.10207L329.701 7.5981C331.355 7.80777 333.012 8.02252 334.672 8.24236L334.737 7.74669C336.398 7.96664 338.062 8.19167 339.729 8.4218L339.661 8.91711C341.327 9.14712 342.996 9.38221 344.668 9.62242L344.739 9.1275C346.404 9.36675 348.073 9.61106 349.744 9.86045L349.67 10.355C351.32 10.6011 352.973 10.8522 354.628 11.1082L354.704 10.6141C356.36 10.8703 358.019 11.1314 359.681 11.3975L359.601 11.8912C361.262 12.1571 362.925 12.428 364.591 12.7039L364.673 12.2106C366.334 12.4856 367.997 12.7656 369.662 13.0505L369.578 13.5433C371.223 13.8246 372.87 14.1107 374.519 14.4017L374.606 13.9093C376.256 14.2004 377.909 14.4963 379.564 14.7971L379.475 15.289C381.129 15.5897 382.785 15.8951 384.444 16.2055L384.536 15.714C386.192 16.0239 387.851 16.3385 389.511 16.6581L389.417 17.1491C391.055 17.4644 392.696 17.7844 394.339 18.1092L394.436 17.6187C396.08 17.9436 397.725 18.2733 399.373 18.6077L399.274 19.0977C400.92 19.432 402.569 19.771 404.22 20.1147L404.322 19.6252C405.973 19.9691 407.627 20.3178 409.282 20.6712L409.178 21.1602C410.81 21.5087 412.444 21.8618 414.08 22.2196L414.187 21.7311C415.823 22.089 417.461 22.4515 419.101 22.8186L418.992 23.3065C420.631 23.6735 422.271 24.0451 423.913 24.4214L424.025 23.934C425.668 24.3105 427.313 24.6916 428.959 25.0773L428.845 25.5642C430.474 25.946 432.105 26.3324 433.737 26.7234L433.853 26.2371C435.481 26.6271 437.111 27.0217 438.742 27.4208L438.623 27.9065C440.254 28.3054 441.885 28.7089 443.518 29.117L443.639 28.6319C445.273 29.0402 446.908 29.453 448.545 29.8704L448.421 30.3549C449.239 30.5635 450.057 30.7733 450.875 30.9842C451.694 31.1951 452.511 31.4068 453.328 31.6194L453.454 31.1355C455.088 31.561 456.719 31.9898 458.347 32.4219L458.218 32.9052C459.845 33.3371 461.469 33.7725 463.089 34.2111L463.219 33.7285C464.84 34.1673 466.457 34.6095 468.071 35.055L467.938 35.537C469.556 35.9836 471.171 36.4334 472.781 36.8866L472.917 36.4053C474.544 36.8631 476.168 37.3243 477.789 37.7888L477.651 38.2694C479.27 38.7337 480.886 39.2012 482.498 39.672L482.638 39.1921C484.251 39.6631 485.86 40.1374 487.466 40.6149L487.323 41.0941C488.928 41.5715 490.53 42.0522 492.127 42.536L492.272 42.0574C493.892 42.5481 495.508 43.042 497.12 43.5391L496.973 44.0169C498.584 44.5138 500.192 45.0139 501.795 45.5172L501.945 45.0402C503.549 45.5437 505.149 46.0505 506.745 46.5604L506.593 47.0367C508.188 47.5464 509.779 48.0592 511.366 48.5751L511.52 48.0996C513.129 48.6224 514.733 49.1484 516.332 49.6776L516.175 50.1523C517.777 50.6823 519.375 51.2154 520.969 51.7517L521.128 51.2778C522.722 51.8143 524.312 52.354 525.898 52.8967L525.736 53.3698C527.32 53.9123 528.901 54.4578 530.476 55.0064L530.641 54.5342C532.237 55.0898 533.828 55.6485 535.415 56.2104L535.248 56.6817C536.839 57.2453 538.427 57.812 540.009 58.3817L540.178 57.9113C541.761 58.4813 543.34 59.0544 544.913 59.6306L544.741 60.1001C546.314 60.6759 547.882 61.2547 549.445 61.8365L549.62 61.3679C551.204 61.9573 552.782 62.5498 554.356 63.1453L554.179 63.613C555.759 64.2108 557.334 64.8117 558.904 65.4155L559.083 64.9489C560.654 65.5531 562.219 66.1602 563.779 66.7703L563.597 67.236C565.157 67.8457 566.711 68.4584 568.26 69.074L568.444 68.6094C570.016 69.234 571.583 69.8617 573.144 70.4923L572.956 70.9559C574.523 71.5887 576.084 72.2245 577.639 72.8631L577.829 72.4006C579.385 73.0396 580.936 73.6816 582.481 74.3264L582.288 74.7878C583.833 75.4322 585.371 76.0795 586.904 76.7295L587.099 76.2692C588.659 76.931 590.214 77.5956 591.762 78.2631L591.564 78.7222C593.115 79.3909 594.66 80.0624 596.199 80.7367L596.4 80.2787C597.94 80.9534 599.474 81.631 601.001 82.3112L600.798 82.768C602.327 83.4488 603.849 84.1324 605.366 84.8187L605.572 84.3631C607.119 85.0633 608.66 85.7664 610.194 86.4722L609.985 86.9264C611.518 87.6318 613.044 88.3399 614.564 89.0508L614.776 88.5979C616.297 89.3092 617.811 90.0232 619.319 90.7399L619.104 91.1915C620.622 91.913 622.133 92.6372 623.637 93.364L623.855 92.9138C625.382 93.6521 626.903 94.393 628.416 95.1366L628.196 95.5854C629.708 96.3285 631.214 97.0743 632.712 97.8227L632.935 97.3755C634.434 98.1243 635.926 98.8759 637.41 99.6299L637.184 100.076C638.691 100.841 640.191 101.61 641.683 102.381L641.913 101.936C643.417 102.714 644.914 103.494 646.403 104.276L646.171 104.719C647.659 105.501 649.139 106.286 650.612 107.073L650.847 106.632C652.325 107.421 653.794 108.214 655.255 109.008L655.016 109.448C656.51 110.26 657.995 111.074 659.472 111.892L659.714 111.454C661.191 112.272 662.661 113.092 664.121 113.915L663.876 114.351C665.335 115.173 666.786 115.997 668.228 116.824L668.477 116.39C669.945 117.232 671.404 118.076 672.854 118.922L672.601 119.354C674.065 120.208 675.519 121.065 676.963 121.924L677.219 121.494C678.664 122.353 680.101 123.215 681.527 124.079L681.268 124.507C682.704 125.376 684.13 126.248 685.546 127.122L685.808 126.696C687.257 127.59 688.695 128.486 690.123 129.384L689.857 129.808C691.284 130.705 692.7 131.605 694.107 132.507L694.377 132.086C695.784 132.989 697.181 133.894 698.568 134.8L698.294 135.219C699.72 136.151 701.135 137.086 702.538 138.022L702.815 137.606C704.223 138.546 705.618 139.487 707.003 140.43L706.721 140.843C708.105 141.786 709.477 142.73 710.837 143.676L711.123 143.266C712.517 144.236 713.9 145.208 715.271 146.182L714.982 146.59C716.362 147.571 717.73 148.554 719.086 149.539L719.38 149.135C720.737 150.12 722.081 151.108 723.413 152.098L723.115 152.499C724.476 153.51 725.823 154.523 727.157 155.537L727.46 155.139C728.811 156.166 730.148 157.196 731.472 158.226L731.165 158.621C732.487 159.651 733.796 160.682 735.091 161.715L735.403 161.324C736.73 162.383 738.043 163.444 739.341 164.506L739.025 164.893C740.337 165.967 741.634 167.042 742.916 168.119L743.237 167.736C744.521 168.815 745.789 169.894 747.042 170.975L746.716 171.354C748.004 172.466 749.276 173.579 750.532 174.693L750.864 174.319C752.132 175.444 753.383 176.571 754.617 177.699L754.28 178.068C755.513 179.194 756.728 180.322 757.927 181.45L758.269 181.086C759.518 182.261 760.748 183.438 761.959 184.616L761.61 184.974C762.82 186.15 764.011 187.327 765.182 188.505L765.537 188.152C766.727 189.348 767.897 190.545 769.048 191.742L768.687 192.089C769.868 193.318 771.028 194.547 772.168 195.778L772.535 195.438C773.676 196.67 774.796 197.904 775.896 199.137L775.522 199.47C776.656 200.742 777.767 202.014 778.855 203.287L779.235 202.962C780.336 204.251 781.414 205.539 782.469 206.828L782.082 207.145C783.148 208.448 784.19 209.752 785.208 211.055L785.602 210.748C786.654 212.095 787.679 213.442 788.679 214.788L788.277 215.086C789.274 216.43 790.244 217.773 791.188 219.115L791.597 218.827C792.585 220.232 793.544 221.636 794.473 223.04L794.056 223.316C794.985 224.718 795.884 226.12 796.753 227.52L797.178 227.256C798.079 228.707 798.947 230.156 799.784 231.604L799.351 231.854C800.195 233.316 801.007 234.776 801.785 236.235L802.226 236C803.027 237.5 803.793 238.999 804.523 240.496L804.073 240.715C804.815 242.236 805.519 243.754 806.187 245.269L806.644 245.067C807.329 246.622 807.974 248.174 808.58 249.723L808.115 249.905C808.731 251.479 809.305 253.05 809.839 254.617L810.312 254.456C810.859 256.064 811.363 257.668 811.822 259.268L811.342 259.406C811.807 261.027 812.227 262.643 812.601 264.254L813.088 264.141C813.472 265.795 813.808 267.445 814.095 269.089L813.602 269.175C813.891 270.829 814.13 272.477 814.319 274.119L814.815 274.062C815.009 275.747 815.15 277.426 815.238 279.099L814.739 279.125C814.827 280.795 814.861 282.459 814.841 284.115L815.341 284.121C815.321 285.811 815.245 287.493 815.112 289.168L814.614 289.128C814.482 290.793 814.294 292.449 814.049 294.096L814.544 294.17Z" stroke="#E41E0A" stroke-dasharray="5 5"/>
</svg>
